<?xml version="1.0" encoding="UTF-8" standalone="no"?>
<!-- Generator: Adobe Illustrator 19.2.1, SVG Export Plug-In . SVG Version: 6.00 Build 0)  -->

<svg
   version="1.1"
   id="layer"
   x="0px"
   y="0px"
   viewBox="0 0 599.90002 121.2"
   xml:space="preserve"
   width="599.90002"
   height="121.2"
   xmlns="http://www.w3.org/2000/svg"
   xmlnsSvg="http://www.w3.org/2000/svg"><defs
   id="defs17" />
<style
   type="text/css"
   id="style2">
	.st0{fill:#FF5A00;}
	.st1{fill:#FFFEFE;}
</style>
<g
   id="g12"
   transform="translate(-20.4,-261.2)">
	<path
   class="st0"
   d="M 20.4,261.2 H 140.7 V 382.4 H 20.4 Z"
   id="path4" />
	<path
   d="m 357.3,285.2 c 1.1,0.1 1.3,1.4 1.4,2.2 0.3,4.1 0.4,8.1 0.4,12.2 0.2,3.9 0.2,7.7 0.2,11.6 2.2,-1.7 4.3,-3.5 6.9,-4.5 4.1,-1.8 9.1,-1.8 13.1,0.3 4.3,2.2 7.3,6.4 8.8,10.9 1.4,4.3 1.8,8.9 1.5,13.4 -0.4,5.3 -1.8,10.6 -4.9,14.9 -1.8,2.5 -4.2,4.7 -7.2,5.8 -4.8,1.7 -10.1,1.1 -14.4,-1.6 -1.3,-0.8 -2.5,-2 -3.7,-3 -0.5,1.6 -0.9,3.1 -1.4,4.7 -2.3,0 -4.5,0.2 -6.8,-0.2 0.9,-3.6 0.9,-7.4 1,-11.1 0.2,-13.1 0,-26.2 -0.1,-39.2 -0.3,-5.1 0.1,-10.2 -0.8,-15.2 2.1,-0.6 4,-1.2 6,-1.2 z m 16.8,27 c -2,-0.4 -4,-0.4 -6,-0.2 -3.6,0.5 -6.5,3 -8.8,5.6 -0.1,0.9 0,1.7 -0.1,2.6 V 341 c -0.1,0.7 0.5,1.2 1,1.6 3.5,3.4 8.7,5 13.5,3.8 2.3,-0.6 4.3,-2.1 5.4,-4.2 1.7,-2.9 2.3,-6.3 2.6,-9.6 0.2,-2.5 0.5,-5.1 0.2,-7.6 -0.1,-2.9 -0.7,-6 -2.2,-8.5 -1.2,-2.1 -3.2,-3.8 -5.6,-4.3 z M 403.9,287 c 1.4,-0.5 3,-0.4 4.4,0.2 1.3,0.8 2.2,2 2.8,3.4 0.9,3 -1.5,6.4 -4.6,6.8 -2.4,0.3 -5,-1.1 -5.7,-3.5 -1,-2.6 0.5,-5.8 3.1,-6.9 z m -213.3,5.5 c 3.4,-2.3 7.4,-4.1 11.6,-4.1 4.3,-0.1 8.7,0.2 12.6,2.1 1.6,0.7 3.2,1.5 4.6,2.7 -1,1.7 -2.3,3.2 -3.5,4.7 -1.6,-0.9 -3.1,-1.9 -4.8,-2.5 -4.2,-1.5 -9,-1.8 -13.2,-0.1 -3.5,1.4 -6.4,4.1 -8.2,7.4 -1.2,2.3 -2.3,4.8 -2.8,7.4 -0.4,2.5 -0.6,5.1 -0.7,7.7 -0.1,3.4 -0.3,6.9 -0.1,10.3 0.6,4.8 2.2,9.6 5.5,13.2 2.8,3.3 7,5.2 11.3,5.6 2.2,0.1 4.5,0.1 6.7,-0.4 2.7,-0.6 5,-2 7.5,-3.1 1.4,1.4 2.7,3 3.9,4.7 -1.8,1 -3.7,2 -5.7,2.8 -5.2,2.1 -11.1,2.2 -16.6,1.6 -4,-0.8 -7.7,-2.9 -10.8,-5.5 -3.6,-3.1 -6.2,-7.2 -7.7,-11.7 -1.1,-3 -1.6,-6.2 -1.9,-9.3 -0.1,-2.4 -0.4,-4.7 -0.1,-7.1 0.1,-4.5 0.8,-8.9 2.6,-13.1 2,-5.2 5.2,-10.1 9.8,-13.3 z"
   id="path6" />
	<path
   class="st1"
   d="m 56.1,291.4 c 0.5,-0.1 1.1,-0.3 1.6,-0.3 2.6,-0.1 5.2,0.1 7.8,0.2 0.4,-0.1 0.6,0.3 0.7,0.6 3.9,8.1 7.8,16.3 11.8,24.4 0.9,1.7 1.6,3.4 2.6,5 0.8,-1.3 1.5,-2.7 2.2,-4.1 4.5,-8.7 8.7,-17.4 13.1,-26.1 2.9,0.1 5.8,-0.2 8.7,0.3 -0.5,1.7 -1.5,3.1 -2.2,4.7 -5.8,11.1 -11.7,22.2 -17.5,33.3 -0.2,0.4 -0.3,0.9 -0.3,1.4 0,7.9 0,15.9 0,23.8 -2.8,0 -5.6,0 -8.4,0 0,-7.7 0,-15.5 0,-23.2 0,-0.8 0.1,-1.7 -0.4,-2.5 -5.4,-10.1 -10.7,-20.2 -16.1,-30.4 -1.2,-2.4 -2.5,-4.7 -3.6,-7.1 z"
   id="path8" />
	<path
   d="m 521.3,294.9 c 2.3,-0.7 4.7,-1.3 7.1,-1.7 -0.4,4.4 -0.7,8.8 -0.8,13.3 3.7,0.1 7.5,0.1 11.2,0.2 -0.6,1.7 -1.3,3.4 -2.1,5 -3.2,0 -6.3,0 -9.5,0 0,4.1 0,8.2 0,12.3 0,3.2 0.2,6.5 0.1,9.7 0.1,3.7 -0.1,7.4 0.3,11 0.1,1.5 1.5,2.6 2.8,3 2.3,0.5 4.7,0.3 6.9,-0.2 0.6,1.3 0.9,2.8 0.8,4.2 -2,1.1 -4.4,1.3 -6.7,1.5 -3.2,0.1 -6.8,-0.4 -9.1,-2.9 -1.9,-1.8 -1.7,-4.6 -2,-7 -0.2,-5.2 -0.1,-10.5 -0.2,-15.7 0,-5.3 0,-10.7 0,-16 -2,0 -4,0 -6,0 -0.1,-1.7 -0.1,-3.5 0,-5.2 2,0 3.9,0 5.9,0 0.7,-3.8 0.7,-7.7 1.3,-11.5 z m -273.4,10.5 c 1.9,0.1 3.8,0 5.6,0.6 4.2,1.4 7.7,4.3 9.9,8.1 1.9,3.3 3.2,7 3.3,10.8 0.2,5.1 0.4,10.4 -1.2,15.3 -1.5,4.6 -4.7,8.7 -9.1,11 -4.3,2.2 -9.5,2.7 -14.1,1.4 -4.2,-1.1 -7.8,-3.9 -10.2,-7.5 -2.7,-3.9 -3.6,-8.6 -3.7,-13.3 -0.1,-4.5 -0.2,-9.1 1.3,-13.4 1.4,-4.2 4.1,-8.1 7.9,-10.5 1.7,-1.1 3.6,-2 5.6,-2.4 1.6,-0.2 3.2,-0.1 4.7,-0.1 z m -3.6,5.8 c -2.4,0.6 -4.7,2 -6,4.1 -1.9,3.1 -2.2,6.8 -2.4,10.3 -0.2,2.6 0,5.2 0.2,7.8 0.4,3.1 1,6.4 2.5,9.2 1.6,3 5,4.5 8.3,4.7 3.1,0.2 6.5,-0.6 8.7,-3 1.8,-2 2.8,-4.5 3.2,-7.2 0.5,-3.3 0.4,-6.6 0.3,-9.9 -0.1,-3.4 -0.4,-7 -1.8,-10.2 -0.8,-2 -2.3,-3.7 -4.2,-4.7 -2.6,-1.6 -5.9,-1.8 -8.8,-1.1 z m 34.9,-4.3 c 2.1,-0.7 4.2,-1.2 6.4,-1.6 0.9,2 1.4,4.2 1.6,6.4 1.5,-0.8 2.6,-2 4,-2.9 3.1,-2.3 6.9,-3.7 10.8,-3.5 0.9,0.1 1.7,0.3 2.5,0.7 1.3,0.7 2.7,1.4 3.8,2.4 1.1,1.1 1.9,2.5 2.7,3.9 1.8,-0.8 3.1,-2.2 4.7,-3.3 2.7,-1.9 5.8,-3.4 9.2,-3.7 3.1,-0.3 6.2,0.7 8.5,2.8 1,1 2.1,2 2.6,3.3 0.5,1.3 0.7,2.7 0.8,4.1 0.5,7.3 0.2,14.7 0.5,22 0,4.9 0,9.7 0,14.6 -2.4,0 -4.8,0.1 -7.3,0 0,-7.3 0,-14.6 0,-21.9 0,-4.7 0.1,-9.4 -0.3,-14.1 -0.2,-1.5 -1,-2.9 -2.2,-3.8 -1.4,-0.9 -3.2,-0.8 -4.8,-0.7 -2.9,0.3 -5.2,2.1 -7.4,3.8 -1,0.9 -2.1,1.7 -3.1,2.6 -0.3,0.2 -0.2,0.7 -0.2,1 0,11 0,22 0,33 -2.4,0 -4.8,0 -7.2,0 v -25.7 c 0,-2.1 0,-4.2 -0.1,-6.2 -0.1,-2.1 0.1,-4.4 -0.9,-6.3 -1.5,-2.1 -4.4,-2.5 -6.7,-1.9 -3.6,0.9 -6.8,3.1 -9.5,5.6 -0.4,0.3 -0.4,0.8 -0.4,1.3 0,11.1 0,22.2 0,33.3 -2.1,0.1 -4.2,0.1 -6.3,0 -0.2,-11.3 -0.1,-22.7 -0.4,-34.1 -0.1,-2.6 -0.1,-5.2 -0.4,-7.7 -0.3,-1.2 -0.7,-2.3 -0.9,-3.4 z m 123,-0.4 c 2.3,-0.3 4.6,-0.7 6.9,-1.2 0.3,6.4 0.2,12.8 0.2,19.2 0,9.2 0,18.4 0,27.6 -2.4,0.1 -4.8,0.1 -7.2,0 -0.1,-13.2 0,-26.3 0,-39.5 0.1,-2 0,-4.1 0.1,-6.1 z m 92.7,-0.9 c 4.9,0.9 9.1,5.4 9.2,10.5 0.3,7.6 -0.1,15.2 0,22.8 v 2.3 c 0,1.5 0.1,3 0.5,4.5 0.3,1.5 1.7,2.3 2.8,3.2 -1,1.4 -1.9,3 -3.2,4.2 -0.8,0.7 -1.8,-0.1 -2.4,-0.5 -1.7,-1.3 -2.9,-3.2 -3.9,-5.1 -1.6,0.9 -2.7,2.2 -4.3,3.1 -2.6,1.7 -5.7,2.7 -8.9,2.6 -2.8,0.1 -5.7,-0.4 -8.2,-1.7 -4.1,-2.2 -6.4,-7 -6.3,-11.5 0,-4.4 2.2,-8.7 5.7,-11.3 4.2,-3.2 9.6,-4.2 14.7,-4.6 2.3,-0.2 4.7,-0.2 7.1,-0.3 0.1,-2.3 -0.1,-4.6 -0.4,-6.9 -0.3,-1.9 -1.2,-3.9 -3,-4.9 -2.1,-1.1 -4.6,-1.2 -7,-0.8 -4.4,0.5 -8.5,2.4 -12.1,5 -1,-1.4 -2,-2.7 -2.8,-4.2 -0.4,-0.7 0.2,-1.3 0.8,-1.6 4.8,-2.7 10.1,-5 15.7,-4.9 h 2.4 c 1.2,-0.1 2.4,-0.1 3.6,0.1 z m -3,22.9 c -2.2,0.2 -4.5,0.3 -6.6,0.9 -2.6,0.7 -5,2.4 -6.4,4.7 -0.8,1.3 -0.8,2.9 -0.9,4.4 0,1.6 -0.2,3.4 0.4,4.9 0.6,1.6 1.7,3.1 3.3,3.7 1.8,0.8 3.9,0.9 5.9,0.7 2.4,-0.3 4.5,-1.6 6.3,-3 1.5,-1.3 3,-2.9 3.1,-5 0.3,-3.7 0.2,-7.4 0.3,-11.1 -1.8,0 -3.6,-0.4 -5.4,-0.2 z m 78.4,-22.8 c 4.1,1 7.8,3.5 10.2,6.9 2,2.8 3.3,6 3.9,9.4 0.5,3.2 0.7,6.5 0.5,9.7 -0.1,5.3 -1.7,10.6 -4.9,14.8 -2.6,3.4 -6.6,5.4 -10.7,6.2 -5,0.9 -10.4,0 -14.6,-3 -3.7,-2.6 -6,-6.8 -7.3,-11 -0.7,-2.2 -0.8,-4.4 -1,-6.7 -0.1,-3.8 -0.1,-7.6 0.6,-11.3 1,-4.2 3.1,-8.3 6.3,-11.3 2.4,-2.2 5.4,-3.6 8.6,-4 2.8,-0.3 5.6,-0.2 8.4,0.3 z m -7.9,5.4 c -3.4,0.4 -6.1,3.1 -7.2,6.2 -1.4,3.3 -1.2,6.9 -1.3,10.4 0.1,3.3 0.1,6.6 0.7,9.9 0.4,2.2 1.1,4.4 2.6,6.1 1.4,1.7 3.5,2.8 5.6,3.2 0.8,0.2 1.7,0.3 2.5,0.3 h 0.8 l 0.8,-0.1 c 1.7,-0.2 3.3,-0.7 4.8,-1.5 1.8,-1 3.1,-2.9 3.8,-4.8 0.9,-2.3 1,-4.8 1.2,-7.2 0.1,-2.9 0.2,-5.8 0,-8.7 -0.2,-3 -0.6,-6.1 -2,-8.8 -1.3,-2 -3.1,-3.7 -5.3,-4.7 -2.1,-0.6 -4.6,-0.6 -7,-0.3 z m 34.8,-4.1 c 2.2,-0.6 4.3,-1.3 6.5,-1.8 1.2,2.2 1.4,4.8 1.5,7.2 1.1,-0.8 2,-1.9 3,-2.9 3.1,-3.1 7.7,-5 12.1,-4.2 v 0.6 c -1,2.1 -1.6,4.4 -2.5,6.6 -0.1,0.4 -0.7,0.3 -1,0.3 -1.9,0 -4,0 -5.7,1 -1.7,1 -3.2,2.3 -4.4,3.9 -1.2,1.5 -1,3.6 -1,5.4 -0.1,2.6 -0.2,5.2 -0.1,7.8 0,7 0,14.1 0,21.1 -2.4,0.1 -4.8,0.1 -7.2,0 0,-7.8 0,-15.7 0,-23.5 0,-5.3 0,-10.7 -0.2,-16 -0.2,-1.8 -0.8,-3.6 -1,-5.5 z m -173.7,0.1 c 2.1,-0.7 4.3,-1.5 6.5,-1.5 0.8,2.1 1.3,4.3 1.6,6.5 1.9,-1.2 3.5,-2.8 5.5,-3.9 3.8,-2.2 8.4,-3.8 12.7,-2.2 2.5,0.9 5,2.3 6.5,4.6 1.2,1.6 1.5,3.8 1.7,5.8 0.4,7.1 0.3,14.2 0.3,21.4 0,4.8 0.1,9.5 0.1,14.3 -2.4,0.1 -4.8,0.1 -7.2,0 0,-7.8 -0.2,-15.7 -0.2,-23.5 -0.1,-4.4 0.1,-8.7 -0.4,-13.1 -0.7,-2.1 -2.7,-3.8 -4.9,-3.9 -1.6,-0.1 -3.3,-0.1 -4.9,0.5 -3.4,1.3 -6.5,3.4 -9.3,5.7 -0.1,11.4 0,22.9 0,34.3 -2.1,0 -4.2,0.1 -6.3,0 0,-6.5 -0.2,-13 -0.2,-19.5 -0.1,-6.7 0,-13.3 -0.4,-20 -0.1,-1.9 -0.7,-3.7 -1.1,-5.5 z"
   id="path10" />
</g>
</svg>
