<?xml version="1.0" encoding="UTF-8" standalone="no"?>
<!-- Created with Inkscape (http://www.inkscape.org/) -->

<svg
   width="64.808861mm"
   height="5.7685642mm"
   viewBox="0 0 64.808861 5.7685642"
   version="1.1"
   id="svg4713"
   xmlnsXlink="http://www.w3.org/1999/xlink"
   xmlns="http://www.w3.org/2000/svg"
   xmlnsSvg="http://www.w3.org/2000/svg"
   xmlnsRdf="http://www.w3.org/1999/02/22-rdf-syntax-ns#"
   xmlnsCc="http://creativecommons.org/ns#"
   xmlnsDc="http://purl.org/dc/elements/1.1/">
  <defs
     id="defs4707">
    <clipPath
       id="clipPath6039"
       clipPathUnits="userSpaceOnUse">
      <path
         id="path6037"
         d="m 75.12,8.400051 h 104.4 V 783.60005 H 75.12 Z" />
    </clipPath>
    <clipPath
       id="clipPath6063"
       clipPathUnits="userSpaceOnUse">
      <path
         id="path6061"
         d="m 180,8.400051 h 64.32001 V 783.60005 H 180 Z" />
    </clipPath>
    <clipPath
       id="clipPath6101"
       clipPathUnits="userSpaceOnUse">
      <path
         id="path6099"
         d="m 180,8.400051 h 64.32001 V 783.60005 H 180 Z" />
    </clipPath>
    <clipPath
       id="clipPath6125"
       clipPathUnits="userSpaceOnUse">
      <path
         id="path6123"
         d="m 244.8,8.400051 h 66.95999 V 783.60005 H 244.8 Z" />
    </clipPath>
    <clipPath
       id="clipPath6163"
       clipPathUnits="userSpaceOnUse">
      <path
         id="path6161"
         d="m 244.8,8.400051 h 66.95999 V 783.60005 H 244.8 Z" />
    </clipPath>
    <clipPath
       id="clipPath6173"
       clipPathUnits="userSpaceOnUse">
      <path
         id="path6171"
         d="m 312.24,8.400051 h 70.32001 V 783.60005 H 312.24 Z" />
    </clipPath>
    <clipPath
       id="clipPath6197"
       clipPathUnits="userSpaceOnUse">
      <path
         id="path6195"
         d="m 312.24,8.400051 h 70.32001 V 783.60005 H 312.24 Z" />
    </clipPath>
    <clipPath
       id="clipPath6249"
       clipPathUnits="userSpaceOnUse">
      <path
         id="path6247"
         d="m 312.24,8.400051 h 70.32001 V 783.60005 H 312.24 Z" />
    </clipPath>
    <clipPath
       id="clipPath6259"
       clipPathUnits="userSpaceOnUse">
      <path
         id="path6257"
         d="m 312.24,8.400051 h 70.32001 V 783.60005 H 312.24 Z" />
    </clipPath>
    <clipPath
       id="clipPath6283"
       clipPathUnits="userSpaceOnUse">
      <path
         id="path6281"
         d="m 383.04,8.400051 h 71.04001 V 783.60005 H 383.04 Z" />
    </clipPath>
    <clipPath
       id="clipPath6307"
       clipPathUnits="userSpaceOnUse">
      <path
         id="path6305"
         d="m 383.04,8.400051 h 71.04001 V 783.60005 H 383.04 Z" />
    </clipPath>
    <clipPath
       id="clipPath6331"
       clipPathUnits="userSpaceOnUse">
      <path
         id="path6329"
         d="m 454.56,8.400051 h 82.56 V 783.60005 h -82.56 z" />
    </clipPath>
    <clipPath
       id="clipPath6355"
       clipPathUnits="userSpaceOnUse">
      <path
         id="path6353"
         d="m 454.56,8.400051 h 82.56 V 783.60005 h -82.56 z" />
    </clipPath>
    <clipPath
       id="clipPath6463"
       clipPathUnits="userSpaceOnUse">
      <path
         id="path6461"
         d="m 79.92,614.4 h 73.68001 v 89.27997 H 79.92 Z" />
    </clipPath>
    <clipPath
       id="clipPath6515"
       clipPathUnits="userSpaceOnUse">
      <path
         id="path6513"
         d="m 79.92,614.4 h 73.68001 v 89.27997 H 79.92 Z" />
    </clipPath>
    <clipPath
       id="clipPath6539"
       clipPathUnits="userSpaceOnUse">
      <path
         id="path6537"
         d="m 154.08,614.4 h 94.08 v 89.27997 h -94.08 z" />
    </clipPath>
    <clipPath
       id="clipPath6563"
       clipPathUnits="userSpaceOnUse">
      <path
         id="path6561"
         d="m 154.08,614.4 h 94.08 v 89.27997 h -94.08 z" />
    </clipPath>
    <clipPath
       id="clipPath6601"
       clipPathUnits="userSpaceOnUse">
      <path
         id="path6599"
         d="m 248.64,614.4 h 80.40001 v 89.27997 H 248.64 Z" />
    </clipPath>
    <clipPath
       id="clipPath6631"
       clipPathUnits="userSpaceOnUse">
      <path
         id="path6629"
         d="m 248.64,614.4 h 80.40001 v 89.27997 H 248.64 Z" />
    </clipPath>
    <clipPath
       id="clipPath6655"
       clipPathUnits="userSpaceOnUse">
      <path
         id="path6653"
         d="m 329.52,614.4 h 107.52 v 89.27997 H 329.52 Z" />
    </clipPath>
    <clipPath
       id="clipPath6707"
       clipPathUnits="userSpaceOnUse">
      <path
         id="path6705"
         d="m 329.52,614.4 h 107.52 v 89.27997 H 329.52 Z" />
    </clipPath>
    <clipPath
       id="clipPath6745"
       clipPathUnits="userSpaceOnUse">
      <path
         id="path6743"
         d="m 437.52,614.4 h 97.19998 v 89.27997 H 437.52 Z" />
    </clipPath>
    <clipPath
       id="clipPath6769"
       clipPathUnits="userSpaceOnUse">
      <path
         id="path6767"
         d="m 437.52,614.4 h 97.19998 v 89.27997 H 437.52 Z" />
    </clipPath>
    <clipPath
       id="clipPath6835"
       clipPathUnits="userSpaceOnUse">
      <path
         id="path6833"
         d="m 437.52,614.4 h 97.19998 v 89.27997 H 437.52 Z" />
    </clipPath>
    <clipPath
       id="clipPath6905"
       clipPathUnits="userSpaceOnUse">
      <path
         id="path6903"
         d="m 79.92,614.4 h 73.68001 v 89.27997 H 79.92 Z" />
    </clipPath>
    <clipPath
       id="clipPath6971"
       clipPathUnits="userSpaceOnUse">
      <path
         id="path6969"
         d="m 154.08,614.4 h 380.64 v 89.27997 H 154.08 Z" />
    </clipPath>
    <clipPath
       id="clipPath7031"
       clipPathUnits="userSpaceOnUse">
      <path
         id="path7029"
         d="m 79.92,614.4 h 73.68001 v 89.27997 H 79.92 Z" />
    </clipPath>
    <clipPath
       id="clipPath7097"
       clipPathUnits="userSpaceOnUse">
      <path
         id="path7095"
         d="m 154.08,614.4 h 380.64 v 89.27997 H 154.08 Z" />
    </clipPath>
  </defs>
  <g
     id="layer1"
     transform="translate(-69.947522,-138.19183)"
     style="display:inline">
    <path
       style="display:inline;fill:#000000;stroke-width:0.0265366"
       d="m 96.776585,141.38064 v -0.59531 h 1.024683 1.024683 v 0.59531 0.59531 h -1.024683 -1.024683 z"
       id="path1186" />
    <path
       style="display:inline;fill:#000000;stroke-width:0.0265366"
       d="m 130.63103,141.07637 v -2.80459 h 2.03606 2.03606 v 0.30428 0.30427 h -1.70337 -1.70337 v 0.93927 0.93927 h 1.53037 1.53037 v 0.29104 0.29104 h -1.53037 -1.53037 v 0.96573 0.96573 h 1.72999 1.72998 v 0.30427 0.30427 h -2.06267 -2.06268 z"
       id="path1184" />
    <path
       style="display:inline;fill:#000000;stroke-width:0.0265366"
       d="m 125.68062,141.07637 v -2.80459 h 0.33269 0.33269 v 2.50032 2.50031 h 1.5836 1.5836 v 0.30427 0.30427 h -1.91629 -1.91629 z"
       id="path1182" />
    <path
       style="display:inline;fill:#000000;stroke-width:0.0265366"
       d="m 123.41833,141.07637 v -2.80459 h 0.33269 0.33269 v 2.80459 2.80458 h -0.33269 -0.33269 z"
       id="path1180" />
    <path
       style="display:inline;fill:#000000;stroke-width:0.0265366"
       d="m 117.29685,141.07637 v -2.80459 h 0.31938 0.31938 v 1.24355 1.24354 h 1.61022 1.61022 v -1.24354 -1.24355 h 0.33268 0.33269 v 2.80459 2.80458 h -0.33269 -0.33268 v -1.25677 -1.25677 h -1.61022 -1.61022 v 1.25677 1.25677 h -0.31938 -0.31938 z"
       id="path1178" />
    <path
       id="path1176"
       style="display:inline;fill:#000000;stroke-width:0.100296"
       d="m 137.66992,33.408203 v 10.599609 10.59961 h 2.36524 2.36328 v -3.148438 -3.15039 l 1.88672,-0.002 c 1.03736,-0.0011 2.31621,-0.04714 2.84179,-0.101563 2.41784,-0.250696 4.23246,-1.063766 5.56641,-2.496094 0.7121,-0.764636 1.09533,-1.415316 1.44531,-2.451172 0.24907,-0.731829 0.27161,-0.936692 0.27539,-2.40039 0.005,-1.408895 -0.0226,-1.689452 -0.23047,-2.347656 -0.61425,-1.944718 -1.72629,-3.245801 -3.55664,-4.16211 -1.6306,-0.816491 -2.7132,-0.935232 -8.50586,-0.9375 z m 4.72852,4.298828 h 1.99804 c 2.16409,0 2.79165,0.07763 3.57813,0.435547 1.0577,0.481361 1.57644,1.276507 1.64258,2.515625 0.0344,0.645279 0.003,0.908151 -0.16992,1.363281 -0.25157,0.663005 -0.95384,1.374245 -1.69141,1.712891 -0.4436,0.203717 -0.65762,0.221717 -2.91797,0.251953 l -2.43945,0.03516 v -3.15625 z"
       transform="matrix(0.26458333,0,0,0.26458333,69.506831,129.43258)" />
    <path
       style="display:inline;fill:#000000;stroke-width:0.0265366"
       d="m 93.609384,141.65845 v -2.2225 H 92.7577 91.906016 v -0.58208 -0.58209 h 2.328824 2.328824 v 0.58209 0.58208 H 95.71198 94.860296 v 2.2225 2.2225 H 94.23484 93.609384 Z"
       id="path1172" />
    <path
       id="path1170"
       style="display:inline;fill:#000000;stroke-width:0.100296"
       d="m 64.337891,33.408203 v 10.599609 10.603516 h 2.365234 2.363281 v -3.402344 -3.402343 l 1.777344,0.02734 1.777344,0.02539 2.271484,3.371094 2.271484,3.36914 2.802735,0.0039 2.802734,0.0039 -0.179687,-0.275391 c -0.09916,-0.151256 -1.261083,-1.84226 -2.582032,-3.759765 -1.320952,-1.917506 -2.387723,-3.496601 -2.371093,-3.511719 0.01677,-0.01338 0.414498,-0.22056 0.884765,-0.460938 1.212764,-0.620371 2.239336,-1.64185 2.802735,-2.791015 0.510531,-1.041336 0.71875,-2.001432 0.71875,-3.310547 0,-2.106558 -0.596816,-3.69852 -1.851563,-4.933594 -1.20664,-1.187754 -2.812188,-1.851349 -4.970703,-2.054687 -0.591303,-0.05556 -3.281377,-0.101525 -5.978515,-0.101563 z m 4.728515,4.298828 H 71.5625 c 3.25666,0 4.099592,0.164829 4.892578,0.953125 0.562277,0.558992 0.708984,0.983973 0.708984,2.056641 0,0.890646 -0.02023,0.991125 -0.300781,1.439453 -0.390349,0.623811 -0.867709,0.999673 -1.613281,1.269531 -0.548164,0.198425 -0.843136,0.219325 -3.392578,0.259766 l -2.791016,0.04492 V 40.71875 Z"
       transform="matrix(0.26458333,0,0,0.26458333,69.506831,129.43258)" />
    <path
       style="display:inline;fill:#34a1d6;fill-opacity:1;stroke-width:0.0265366"
       d="m 80.541353,143.87024 c 0,-0.006 0.8264,-0.63296 1.836444,-1.39349 1.010045,-0.76054 1.836444,-1.39083 1.836444,-1.40065 0,-0.01 -0.826399,-0.63996 -1.836444,-1.4003 -1.010044,-0.76035 -1.836444,-1.3873 -1.836444,-1.39323 0,-0.006 0.452124,-0.0107 1.004721,-0.0106 l 1.004722,1.6e-4 1.221462,0.91932 c 0.671805,0.50562 1.246692,0.95291 1.277527,0.99396 0.05417,0.0721 0.05606,0.10216 0.05606,0.89098 0,0.787 -0.002,0.81901 -0.05571,0.89103 -0.03064,0.0411 -0.605526,0.48837 -1.277527,0.99397 l -1.221818,0.91927 -1.004722,1.6e-4 c -0.552597,8e-5 -1.004721,-0.005 -1.004721,-0.0106 z"
       id="path1166" />
    <path
       style="display:inline;fill:#000000;stroke-width:0.0265366"
       d="m 76.655543,141.65845 v -2.2225 h -0.851684 -0.851685 v -0.58208 -0.58209 h 2.328825 2.328824 v 0.58209 0.58208 h -0.851684 -0.851685 v 2.2225 2.2225 h -0.625455 -0.625456 z"
       id="path1164" />
    <path
       style="display:inline;fill:#000000;stroke-width:0.0265366"
       d="m 113.41993,143.92115 c -0.63635,-0.11479 -1.23403,-0.4669 -1.63849,-0.9653 -0.22686,-0.27956 -0.44851,-0.71608 -0.5446,-1.0725 -0.066,-0.24469 -0.0714,-0.30438 -0.0719,-0.79375 -5.5e-4,-0.49133 0.004,-0.54767 0.0701,-0.78786 0.25882,-0.94663 0.92148,-1.66464 1.81672,-1.96844 0.55038,-0.18677 1.3543,-0.18878 1.92959,-0.005 0.3692,0.11806 0.76623,0.35122 1.0684,0.62744 l 0.14039,0.12832 -0.2247,0.24032 -0.2247,0.24032 -0.10689,-0.0915 c -0.34371,-0.29428 -0.73326,-0.51468 -1.07834,-0.61011 -0.1309,-0.0362 -0.27015,-0.048 -0.57222,-0.0485 -0.34528,-5.3e-4 -0.42621,0.008 -0.59884,0.0614 -0.36908,0.11463 -0.59945,0.25427 -0.87837,0.53244 -0.3399,0.339 -0.48508,0.59315 -0.61652,1.07927 -0.0847,0.31343 -0.0792,0.8568 0.0123,1.20184 0.22284,0.84014 0.84449,1.45662 1.63728,1.62365 0.23683,0.0499 0.67733,0.0483 0.93095,-0.003 0.38572,-0.0786 0.73696,-0.2644 1.1209,-0.5929 l 0.19437,-0.1663 0.21604,0.21477 0.21604,0.21477 -0.10572,0.10876 c -0.28246,0.29056 -0.79225,0.61031 -1.17441,0.7366 -0.39462,0.13041 -1.08347,0.17375 -1.51741,0.0955 z"
       id="path1162" />
    <path
       style="display:inline;fill:#000000;stroke-width:0.0265366"
       d="m 101.74469,143.93305 c -0.51618,-0.0809 -0.95008,-0.27193 -1.24637,-0.5487 -0.33199,-0.31012 -0.519416,-0.65578 -0.641756,-1.18354 -0.0524,-0.2262 -0.0557,-0.33059 -0.0655,-2.0836 l -0.0103,-1.84547 h 0.640386 0.6404 v 1.73172 c 0,1.15369 0.01,1.77852 0.0292,1.87193 0.0952,0.45736 0.41055,0.79751 0.82803,0.89325 0.14794,0.0339 0.50766,0.0336 0.65678,-5.6e-4 0.30296,-0.0694 0.56626,-0.2753 0.70817,-0.55368 0.14112,-0.27685 0.1456,-0.34488 0.1461,-2.21625 l 4.7e-4,-1.72641 h 0.64111 0.64111 l -0.0125,1.80579 c -0.0133,1.92598 -0.0167,1.97972 -0.15299,2.39417 -0.11718,0.35634 -0.2568,0.58394 -0.51635,0.84173 -0.31972,0.31754 -0.62282,0.47578 -1.11943,0.58441 -0.22125,0.0484 -0.94349,0.0702 -1.16668,0.0352 z"
       id="path1160" />
    <path
       style="display:inline;fill:#000000;stroke-width:0.0265366"
       d="m 72.037817,143.94205 c -0.728904,-0.0661 -1.508455,-0.38183 -1.989985,-0.80591 l -0.10031,-0.0883 0.374643,-0.44427 0.374644,-0.44428 0.07166,0.0555 c 0.177337,0.13743 0.526118,0.35376 0.687941,0.4267 0.68358,0.30813 1.476696,0.25218 1.656396,-0.11684 0.09171,-0.18833 0.06089,-0.38466 -0.08071,-0.51425 -0.116648,-0.10675 -0.456108,-0.23963 -0.967665,-0.37881 -0.278128,-0.0757 -0.589525,-0.1673 -0.691993,-0.20363 -0.470794,-0.16693 -0.855115,-0.44099 -1.006723,-0.7179 -0.230911,-0.42176 -0.236851,-1.10108 -0.01363,-1.55921 0.131097,-0.26906 0.447653,-0.5747 0.740896,-0.71533 0.343185,-0.16459 0.628924,-0.22395 1.077913,-0.22392 0.577829,3e-5 1.017573,0.0974 1.488352,0.32964 0.196029,0.0967 0.561978,0.32459 0.587735,0.36602 0.0088,0.0141 -0.583255,0.89263 -0.63867,0.94772 -0.007,0.007 -0.07706,-0.0298 -0.155708,-0.0818 -0.465068,-0.30697 -1.082089,-0.50481 -1.42542,-0.45705 -0.167593,0.0233 -0.350299,0.0857 -0.419771,0.14338 -0.16433,0.13638 -0.217616,0.38568 -0.117371,0.54911 0.116399,0.18976 0.312939,0.27908 1.072941,0.48762 0.834614,0.22901 1.196532,0.40117 1.493135,0.7103 0.241379,0.25157 0.362294,0.58517 0.363294,1.0023 0.0016,0.67603 -0.327082,1.21808 -0.907444,1.49645 -0.137419,0.0659 -0.321714,0.13795 -0.409544,0.16009 -0.305301,0.077 -0.726689,0.10731 -1.064605,0.0767 z"
       id="path1119" />
  </g>
</svg>
