<?xml version="1.0" encoding="UTF-8" standalone="no"?>
<!-- Created with Inkscape (http://www.inkscape.org/) -->

<svg
   width="440.72852mm"
   height="107.91656mm"
   viewBox="0 0 440.72851 107.91656"
   version="1.1"
   id="svg928"
   xmlns="http://www.w3.org/2000/svg"
   xmlnsSvg="http://www.w3.org/2000/svg">
  <defs
     id="defs925" />
  <g
     id="layer1"
     transform="translate(165.3859,-146.57476)">
    <g
       id="g3029"
       transform="translate(7.5725017,21.203005)">
      <path
         style="fill:#e4da9f;stroke-width:0.264583"
         d="m 71.366667,233.02677 c -0.09271,-0.14998 0.01349,-0.19434 0.248973,-0.10398 0.458364,0.17589 0.542211,0.36553 0.161634,0.36553 -0.136922,0 -0.321707,-0.1177 -0.410607,-0.26155 z m -99.617505,-3.01334 c 0,-0.0549 0.20836,-0.2633 0.463021,-0.46302 0.419645,-0.32911 0.429004,-0.31975 0.0999,0.0999 -0.345643,0.44073 -0.562917,0.58089 -0.562917,0.36313 z M -150.94633,227.8133 c 0.25744,-0.0671 0.61462,-0.0627 0.79375,0.01 0.17914,0.0725 -0.0315,0.12736 -0.46805,0.12197 -0.43656,-0.005 -0.58313,-0.0647 -0.3257,-0.13177 z m 60.187679,0.008 c 0.181901,-0.0734 0.479557,-0.0734 0.661458,0 0.181901,0.0734 0.03307,0.13345 -0.330729,0.13345 -0.363802,0 -0.51263,-0.0601 -0.330729,-0.13345 z m 37.835417,0 c 0.181901,-0.0734 0.479557,-0.0734 0.661459,0 0.181901,0.0734 0.03307,0.13345 -0.33073,0.13345 -0.363802,0 -0.51263,-0.0601 -0.330729,-0.13345 z m 60.4623277,-0.008 c 0.2574316,-0.0671 0.6146191,-0.0627 0.79375,0.01 0.1791308,0.0725 -0.031493,0.12736 -0.4680559,0.12197 -0.4365625,-0.005 -0.5831258,-0.0647 -0.3256941,-0.13177 z m 67.2652783,-0.0812 c -0.08993,-0.14552 -0.03744,-0.26458 0.116681,-0.26458 0.154094,0 0.280194,0.11906 0.280194,0.26458 0,0.14552 -0.05249,0.26459 -0.116681,0.26459 -0.06416,0 -0.190262,-0.11907 -0.280194,-0.26459 z m 39.890968,0.0812 c 0.25744,-0.0671 0.61462,-0.0627 0.79375,0.01 0.17915,0.0725 -0.0315,0.12736 -0.46805,0.12197 -0.43656,-0.005 -0.58312,-0.0647 -0.3257,-0.13177 z m 47.50422,0.003 c 0.191,-0.0764 0.4192,-0.067 0.50712,0.0209 0.0879,0.0879 -0.0684,0.15046 -0.34726,0.13897 -0.30824,-0.0127 -0.37092,-0.0754 -0.15986,-0.15985 z m 14.93744,-0.003 c 0.25744,-0.0671 0.61463,-0.0627 0.79375,0.01 0.17915,0.0725 -0.0315,0.12736 -0.46804,0.12197 -0.43657,-0.005 -0.58312,-0.0647 -0.32571,-0.13177 z m 12.57922,0.003 c 0.19101,-0.0764 0.41921,-0.067 0.50713,0.0209 0.0879,0.0879 -0.0684,0.15046 -0.34727,0.13897 -0.30824,-0.0127 -0.37092,-0.0754 -0.15986,-0.15985 z m 1.57097,0.006 c 0.1819,-0.0734 0.47955,-0.0734 0.66145,0 0.18191,0.0734 0.0331,0.13346 -0.33072,0.13346 -0.36381,0 -0.51263,-0.0601 -0.33073,-0.13346 z m 22.89148,-0.008 c 0.25744,-0.0671 0.61463,-0.0627 0.79375,0.01 0.17915,0.0725 -0.0315,0.12736 -0.46805,0.12197 -0.43656,-0.005 -0.58311,-0.0647 -0.3257,-0.13178 z m 31.61268,0.008 c 0.1819,-0.0734 0.47956,-0.0734 0.66146,0 0.1819,0.0734 0.0331,0.13346 -0.33073,0.13346 -0.3638,0 -0.51263,-0.0601 -0.33073,-0.13346 z M 38.657303,226.88051 c 0.121804,-0.73472 0.159071,-0.77199 0.242383,-0.24238 0.05414,0.34421 -0.01064,0.7349 -0.143934,0.86821 -0.146785,0.14679 -0.185613,-0.10004 -0.09845,-0.62583 z m 191.376767,-0.0745 c 0.005,-0.43656 0.0647,-0.58312 0.13179,-0.32569 0.0671,0.25743 0.0627,0.61462 -0.01,0.79375 -0.0725,0.17913 -0.12735,-0.0315 -0.12198,-0.46806 z m 34.49357,-0.31932 c -0.14359,-0.37708 -0.11319,-0.40747 0.14811,-0.14811 0.18082,0.17948 0.26212,0.39297 0.18066,0.47443 -0.0815,0.0815 -0.22942,-0.0654 -0.32877,-0.32632 z m -397.55348,-0.47443 c 0.34178,-0.3638 0.68094,-0.66146 0.7537,-0.66146 0.0728,0 -0.14734,0.29766 -0.48912,0.66146 -0.34177,0.3638 -0.68094,0.66146 -0.7537,0.66146 -0.0728,0 0.14735,-0.29766 0.48912,-0.66146 z m 95.250002,0.56156 c 0,-0.0549 0.20836,-0.2633 0.463021,-0.46302 0.419645,-0.3291 0.429003,-0.31975 0.0999,0.0999 -0.345644,0.44073 -0.562917,0.58089 -0.562917,0.36312 z m 11.418859,-0.42927 c 0,-0.3638 0.06005,-0.51263 0.133453,-0.33073 0.0734,0.1819 0.0734,0.47956 0,0.66146 -0.0734,0.1819 -0.133453,0.0331 -0.133453,-0.33073 z m 100.55146,-0.13229 c 0.0053,-0.43656 0.06469,-0.58312 0.131789,-0.32569 0.06707,0.25743 0.06268,0.61462 -0.0098,0.79375 -0.07247,0.17913 -0.127344,-0.0315 -0.121973,-0.46806 z m 91.494269,0.57867 c 0,-0.0455 0.38695,-0.43249 0.85989,-0.8599 l 0.8599,-0.7771 -0.77711,0.85989 c -0.72437,0.80155 -0.94268,0.98152 -0.94268,0.77711 z m -238.257297,-0.71096 c 0.26339,-0.29104 0.538422,-0.52917 0.611183,-0.52917 0.07276,0 -0.08321,0.23813 -0.346599,0.52917 -0.26339,0.29104 -0.538422,0.52917 -0.611182,0.52917 -0.07276,0 0.08321,-0.23813 0.346598,-0.52917 z M 37.31622,226.2284 c 0.190995,-0.0764 0.419201,-0.067 0.507119,0.0209 0.08792,0.0879 -0.06835,0.15046 -0.347265,0.13897 -0.308227,-0.0127 -0.37092,-0.0754 -0.159854,-0.15985 z m 166.95209,0 c 0.191,-0.0764 0.4192,-0.067 0.50712,0.0209 0.0879,0.0879 -0.0684,0.15046 -0.34726,0.13897 -0.30824,-0.0127 -0.37092,-0.0754 -0.15986,-0.15985 z m 20.75383,-0.74531 c 0.003,-0.58208 0.0571,-0.78905 0.12042,-0.45993 0.0633,0.32912 0.0609,0.80537 -0.005,1.05833 -0.0662,0.25297 -0.118,-0.0163 -0.11506,-0.5984 z m 3.58783,0.74531 c 0.19101,-0.0764 0.41921,-0.067 0.50713,0.0209 0.0879,0.0879 -0.0684,0.15046 -0.34727,0.13897 -0.30824,-0.0127 -0.37092,-0.0754 -0.15986,-0.15985 z m -339.36903,-0.61301 c 0,-0.36381 0.0601,-0.51263 0.13345,-0.33073 0.0734,0.1819 0.0734,0.47955 0,0.66146 -0.0734,0.1819 -0.13345,0.0331 -0.13345,-0.33073 z m 144.472304,-0.1323 c 0.0054,-0.43656 0.06469,-0.58312 0.131773,-0.32569 0.06708,0.25743 0.06267,0.61462 -0.0098,0.79375 -0.07248,0.17913 -0.127363,-0.0315 -0.121971,-0.46806 z m 16.902642,0.24254 c 0.0127,-0.30823 0.07539,-0.37092 0.15985,-0.15985 0.07643,0.19099 0.06703,0.4192 -0.02088,0.50712 -0.08792,0.0879 -0.150453,-0.0684 -0.138965,-0.34727 z m 9.33083,0.0106 c -0.08617,-0.22456 -0.09756,-0.46741 -0.02529,-0.53966 0.07225,-0.0723 0.194881,0.11147 0.272499,0.40828 0.164876,0.63049 -0.01831,0.72784 -0.2472,0.13138 z m 101.707134,0.23305 c 0.1819,-0.0734 0.47956,-0.0734 0.66146,0 0.1819,0.0734 0.0331,0.13346 -0.33073,0.13346 -0.3638,0 -0.51263,-0.0601 -0.33073,-0.13346 z m -215.603022,-0.55237 c -0.329107,-0.41965 -0.319749,-0.429 0.0999,-0.0999 0.254662,0.19972 0.463021,0.40808 0.463021,0.46302 0,0.21777 -0.217273,0.0776 -0.562917,-0.36312 z m -98.160418,-0.26458 c -0.32911,-0.41965 -0.31975,-0.42901 0.0999,-0.0999 0.25466,0.19972 0.46302,0.40808 0.46302,0.46302 0,0.21776 -0.21728,0.0776 -0.56292,-0.36312 z m 148.8618777,-0.0661 c 0.26339,-0.29104 0.5384218,-0.52917 0.6111822,-0.52917 0.07276,0 -0.083209,0.23813 -0.3465989,0.52917 -0.2633901,0.29104 -0.5384218,0.52917 -0.6111822,0.52917 -0.07276,0 0.083209,-0.23813 0.3465989,-0.52917 z m 9.6235415,0.0661 c -0.3291073,-0.41965 -0.319749,-0.42901 0.099896,-0.0999 0.4407297,0.34564 0.5808874,0.56292 0.3631247,0.56292 -0.054941,0 -0.2633001,-0.20836 -0.4630207,-0.46302 z m 169.5979108,0 c -0.32909,-0.41965 -0.31975,-0.42901 0.0999,-0.0999 0.44072,0.34564 0.5809,0.56292 0.36312,0.56292 -0.0549,0 -0.26329,-0.20836 -0.46302,-0.46302 z m 37.04166,0 c -0.32908,-0.41965 -0.31974,-0.42901 0.0999,-0.0999 0.44072,0.34564 0.58089,0.56292 0.36312,0.56292 -0.0549,0 -0.26329,-0.20836 -0.46303,-0.46302 z M -69.769533,224.9319 c 0.0127,-0.30823 0.07539,-0.37092 0.159851,-0.15985 0.07643,0.19099 0.06703,0.4192 -0.02088,0.50712 -0.08792,0.0879 -0.150452,-0.0684 -0.138964,-0.34727 z m 35.189584,0 c 0.0127,-0.30823 0.07539,-0.37092 0.159851,-0.15985 0.07643,0.19099 0.06703,0.4192 -0.02088,0.50712 -0.08792,0.0879 -0.150453,-0.0684 -0.138964,-0.34727 z m 7.618278,-0.30868 c -0.329108,-0.41965 -0.319749,-0.429 0.0999,-0.0999 0.254661,0.19972 0.463021,0.40808 0.463021,0.46302 0,0.21777 -0.217274,0.0776 -0.562917,-0.36312 z m 76.366043,-0.0661 c 0.26339,-0.29104 0.538421,-0.52916 0.611182,-0.52916 0.07276,0 -0.08321,0.23812 -0.346599,0.52916 -0.26339,0.29104 -0.538422,0.52917 -0.611182,0.52917 -0.07276,0 0.08321,-0.23813 0.346599,-0.52917 z m 211.402088,0 c 0.26339,-0.29104 0.53842,-0.52916 0.61119,-0.52916 0.0728,0 -0.0832,0.23812 -0.34661,0.52916 -0.26339,0.29104 -0.53843,0.52917 -0.61119,0.52917 -0.0728,0 0.0832,-0.23813 0.34661,-0.52917 z M -80.61745,224.1382 c 0.0127,-0.30823 0.07539,-0.37092 0.159851,-0.15985 0.07643,0.19099 0.06703,0.4192 -0.02088,0.50712 -0.08792,0.0879 -0.150453,-0.0684 -0.138965,-0.34727 z m 23.547917,0 c 0.0127,-0.30823 0.07539,-0.37092 0.159851,-0.15985 0.07643,0.19099 0.06703,0.4192 -0.02088,0.50712 -0.08792,0.0879 -0.150453,-0.0684 -0.138965,-0.34727 z m -83.852027,-0.37483 c 0,-0.3638 0.06,-0.51263 0.13345,-0.33073 0.0734,0.1819 0.0734,0.47956 0,0.66146 -0.0734,0.1819 -0.13345,0.0331 -0.13345,-0.33073 z m 397.16454,-0.39687 c 0.003,-0.58209 0.0571,-0.78906 0.12041,-0.45994 0.0633,0.32912 0.0609,0.80537 -0.005,1.05834 -0.0662,0.25296 -0.11801,-0.0163 -0.11507,-0.5984 z m -81.00836,0.24253 c 0.0127,-0.30822 0.0754,-0.37092 0.15987,-0.15985 0.0764,0.191 0.067,0.4192 -0.0209,0.50712 -0.0879,0.0879 -0.15047,-0.0684 -0.13898,-0.34727 z m -328.04283,-0.63941 c 0,-0.50932 0.0545,-0.71768 0.12101,-0.46302 0.0665,0.25466 0.0665,0.67138 0,0.92604 -0.0666,0.25467 -0.12101,0.0463 -0.12101,-0.46302 z m 365.12501,0 c 0,-0.50932 0.0545,-0.71768 0.12099,-0.46302 0.0666,0.25466 0.0666,0.67138 0,0.92604 -0.0665,0.25467 -0.12099,0.0463 -0.12099,-0.46302 z M 73.899206,222.81523 c 0.0127,-0.30822 0.07541,-0.37092 0.159861,-0.15985 0.07644,0.191 0.06705,0.4192 -0.0209,0.50712 -0.08792,0.0879 -0.150468,-0.0683 -0.138985,-0.34727 z m -214.820766,-0.37482 c 0,-0.36381 0.06,-0.51263 0.13345,-0.33073 0.0734,0.1819 0.0734,0.47955 0,0.66146 -0.0734,0.1819 -0.13345,0.0331 -0.13345,-0.33073 z m 2.36036,-0.15434 c 0.0127,-0.30823 0.0754,-0.37092 0.15985,-0.15986 0.0764,0.191 0.067,0.4192 -0.0209,0.50712 -0.0879,0.0879 -0.15045,-0.0684 -0.13896,-0.34726 z m 144.1979183,0 c 0.0127,-0.30823 0.07539,-0.37092 0.1598507,-0.15986 0.07643,0.191 0.067032,0.4192 -0.020876,0.50712 -0.087918,0.0879 -0.1504526,-0.0684 -0.1389644,-0.34726 z m 70.3791547,0 c 0.0127,-0.30823 0.07541,-0.37092 0.159861,-0.15986 0.07644,0.191 0.06704,0.4192 -0.0209,0.50712 -0.08792,0.0879 -0.150469,-0.0684 -0.138986,-0.34726 z m 99.218747,0 c 0.0127,-0.30823 0.0754,-0.37092 0.15987,-0.15986 0.0764,0.191 0.067,0.4192 -0.0209,0.50712 -0.0879,0.0879 -0.15047,-0.0684 -0.13898,-0.34726 z m -255.85207,-0.26459 c 0.0127,-0.30822 0.07539,-0.37092 0.159851,-0.15985 0.07643,0.191 0.06703,0.4192 -0.02088,0.50712 -0.08792,0.0879 -0.150453,-0.0684 -0.138965,-0.34727 z m 23.547917,0 c 0.0127,-0.30822 0.07539,-0.37092 0.159851,-0.15985 0.07643,0.191 0.06703,0.4192 -0.02088,0.50712 -0.08792,0.0879 -0.150453,-0.0684 -0.138965,-0.34727 z m 12.435417,0 c 0.0127,-0.30822 0.07539,-0.37092 0.159851,-0.15985 0.07643,0.191 0.06703,0.4192 -0.02088,0.50712 -0.08792,0.0879 -0.150452,-0.0684 -0.138964,-0.34727 z m -50.535417,-0.26458 c 0.0127,-0.30823 0.07539,-0.37092 0.159851,-0.15985 0.07643,0.19099 0.06703,0.4192 -0.02088,0.50712 -0.08792,0.0879 -0.150453,-0.0684 -0.138964,-0.34727 z m -15.854117,-0.37483 c 0,-0.3638 0.0601,-0.51263 0.13346,-0.33073 0.0734,0.18191 0.0734,0.47956 0,0.66146 -0.0734,0.1819 -0.13346,0.0331 -0.13346,-0.33073 z m 270.38327,-0.15434 c 0.0127,-0.30822 0.0754,-0.37092 0.15987,-0.15985 0.0764,0.191 0.067,0.4192 -0.0209,0.50712 -0.0879,0.0879 -0.15047,-0.0683 -0.13898,-0.34727 z m -308.31007,-0.0264 c 0.191,-0.0764 0.4192,-0.067 0.50712,0.0209 0.0879,0.0879 -0.0684,0.15046 -0.34727,0.13897 -0.30822,-0.0127 -0.37091,-0.0754 -0.15985,-0.15985 z m 60.060419,0 c 0.190995,-0.0764 0.4192,-0.067 0.507119,0.0209 0.08792,0.0879 -0.06835,0.15046 -0.347266,0.13897 -0.308226,-0.0127 -0.370919,-0.0754 -0.159853,-0.15985 z m 98.4250011,0 c 0.1909948,-0.0764 0.4192006,-0.067 0.5071189,0.0209 0.08792,0.0879 -0.068352,0.15046 -0.3472656,0.13897 -0.3082263,-0.0127 -0.3709193,-0.0754 -0.1598533,-0.15985 z m 169.5979199,0 c 0.191,-0.0764 0.4192,-0.067 0.50713,0.0209 0.0879,0.0879 -0.0684,0.15046 -0.34727,0.13897 -0.30824,-0.0127 -0.37092,-0.0754 -0.15986,-0.15985 z m 37.04167,0 c 0.191,-0.0764 0.4192,-0.067 0.50712,0.0209 0.0879,0.0879 -0.0684,0.15046 -0.34726,0.13897 -0.30824,-0.0127 -0.37092,-0.0754 -0.15986,-0.15985 z M 73.634623,220.69856 c 0.0127,-0.30822 0.07541,-0.37092 0.159861,-0.15985 0.07644,0.19099 0.06705,0.4192 -0.0209,0.50712 -0.08792,0.0879 -0.150469,-0.0683 -0.138986,-0.34727 z m -182.541603,-0.6394 c 0,-0.36381 0.0601,-0.51263 0.13345,-0.33073 0.0734,0.1819 0.0734,0.47955 0,0.66146 -0.0734,0.1819 -0.13345,0.0331 -0.13345,-0.33073 z m -36.28969,-0.0999 c 0,-0.0549 0.20836,-0.2633 0.46302,-0.46302 0.41964,-0.32911 0.429,-0.31975 0.0999,0.0999 -0.34564,0.44073 -0.56291,0.58088 -0.56291,0.36312 z m 158.485416,0 c 0,-0.0549 0.20836,-0.2633 0.463021,-0.46302 0.419645,-0.32911 0.429003,-0.31975 0.0999,0.0999 -0.345644,0.44073 -0.562917,0.58088 -0.562917,0.36312 z m 62.462543,-0.31903 c 0.0127,-0.30822 0.07541,-0.37092 0.159862,-0.15985 0.07644,0.191 0.06704,0.4192 -0.0209,0.50712 -0.08792,0.0879 -0.150468,-0.0684 -0.138985,-0.34727 z m 93.418821,-0.11024 c 0,-0.3638 0.0601,-0.51263 0.13346,-0.33073 0.0734,0.1819 0.0734,0.47956 0,0.66146 -0.0734,0.1819 -0.13346,0.0331 -0.13346,-0.33073 z m 13.71656,0.42927 c 0,-0.0549 0.20835,-0.2633 0.46302,-0.46302 0.41965,-0.32911 0.42899,-0.31975 0.0999,0.0999 -0.34565,0.44073 -0.56292,0.58088 -0.56292,0.36312 z m 6.05165,-0.36312 c -0.32909,-0.41965 -0.31975,-0.42901 0.0999,-0.0999 0.44071,0.34564 0.58089,0.56292 0.36311,0.56292 -0.0549,0 -0.26328,-0.20836 -0.46302,-0.46302 z m 30.99001,0.36312 c 0,-0.0549 0.20836,-0.2633 0.46302,-0.46302 0.41966,-0.32911 0.429,-0.31975 0.0999,0.0999 -0.34565,0.44073 -0.56293,0.58088 -0.56293,0.36312 z m -371.27183,-0.35644 c 0.47555,-0.0589 1.18993,-0.0577 1.5875,0.003 0.39758,0.0604 0.008,0.10855 -0.86463,0.10707 -0.87313,-0.002 -1.19842,-0.0509 -0.72287,-0.10977 z m 60.060421,0 c 0.475549,-0.0589 1.189924,-0.0577 1.5875,0.003 0.397576,0.0604 0.0085,0.10855 -0.864634,0.10707 -0.873126,-0.002 -1.198415,-0.0509 -0.722866,-0.10977 z m 98.4250013,0 c 0.4755489,-0.0589 1.1899239,-0.0577 1.5875,0.003 0.3975762,0.0604 0.00849,0.10855 -0.8646345,0.10707 -0.873125,-0.002 -1.1984143,-0.0509 -0.7228655,-0.10977 z m 106.3324977,-0.007 c -0.0675,-0.10914 0.43151,-0.16287 1.10884,-0.11938 1.93225,0.12403 2.16659,0.25355 0.51954,0.28712 -0.82815,0.0169 -1.56094,-0.0586 -1.62838,-0.16774 z m 63.26542,0.007 c 0.47556,-0.0589 1.18994,-0.0577 1.5875,0.003 0.39759,0.0604 0.008,0.10855 -0.86463,0.10706 -0.87313,-0.002 -1.19841,-0.0509 -0.72287,-0.10976 z m 37.04167,0 c 0.47556,-0.0589 1.18993,-0.0577 1.5875,0.003 0.39759,0.0604 0.008,0.10855 -0.86464,0.10706 -0.87312,-0.002 -1.1984,-0.0509 -0.72286,-0.10976 z m -315.30104,-0.75634 c 0.0127,-0.30822 0.0754,-0.37092 0.15985,-0.15985 0.0764,0.19099 0.067,0.4192 -0.0209,0.50712 -0.0879,0.0879 -0.15045,-0.0684 -0.13896,-0.34727 z m 112.956193,0.0544 c 0,-0.0549 0.208359,-0.2633 0.463021,-0.46302 0.419645,-0.32911 0.429003,-0.31975 0.0999,0.0999 -0.345644,0.44073 -0.562917,0.58089 -0.562917,0.36313 z m 155.361987,-0.56157 c 0.005,-0.43656 0.0647,-0.58312 0.13179,-0.32569 0.0671,0.25743 0.0627,0.61462 -0.01,0.79375 -0.0725,0.17913 -0.12735,-0.0315 -0.12197,-0.46806 z m 14.23593,0.56157 c 0,-0.0549 0.20836,-0.2633 0.46302,-0.46302 0.41966,-0.32911 0.429,-0.31975 0.0999,0.0999 -0.34565,0.44073 -0.56293,0.58089 -0.56293,0.36313 z m -158.75,-1.35532 c 0.493654,-0.50932 0.957085,-0.92604 1.029845,-0.92604 0.07276,0 -0.271608,0.41672 -0.765262,0.92604 -0.493654,0.50933 -0.957085,0.92605 -1.029846,0.92605 -0.07276,0 0.271608,-0.41672 0.765263,-0.92605 z m 165.95514,-0.13229 c 0,-0.50932 0.0545,-0.71768 0.12099,-0.46302 0.0666,0.25466 0.0666,0.67138 0,0.92604 -0.0665,0.25467 -0.12099,0.0463 -0.12099,-0.46302 z m -299.52795,0 c 0,-0.3638 0.0601,-0.51263 0.13345,-0.33073 0.0734,0.18191 0.0734,0.47956 0,0.66146 -0.0734,0.1819 -0.13345,0.0331 -0.13345,-0.33073 z m 240.46448,0.44638 c 0,-0.0455 0.38695,-0.43249 0.85989,-0.8599 l 0.8599,-0.7771 -0.77711,0.85989 c -0.72437,0.80155 -0.94268,0.98152 -0.94268,0.77711 z m 39.97296,-0.33613 c 0.0127,-0.30823 0.0754,-0.37092 0.15986,-0.15986 0.0764,0.191 0.067,0.4192 -0.0209,0.50712 -0.0879,0.0879 -0.15047,-0.0684 -0.13899,-0.34726 z m -335.71099,-0.0352 c 0.40019,-0.0606 1.05503,-0.0606 1.45521,0 0.40018,0.0606 0.0728,0.11022 -0.7276,0.11022 -0.80037,0 -1.12779,-0.0496 -0.72761,-0.11022 z M 75.486706,217.2589 c 0.0127,-0.30822 0.07541,-0.37092 0.159861,-0.15985 0.07644,0.191 0.06705,0.4192 -0.0209,0.50712 -0.08792,0.0879 -0.150468,-0.0683 -0.138985,-0.34727 z m 46.342594,-0.37482 c 0,-0.50933 0.0545,-0.71769 0.12099,-0.46302 0.0666,0.25466 0.0666,0.67138 0,0.92604 -0.0665,0.25466 -0.12099,0.0463 -0.12099,-0.46302 z m -207.71753,0 c 0,-0.36381 0.06005,-0.51263 0.133453,-0.33073 0.0734,0.1819 0.0734,0.47955 0,0.66146 -0.0734,0.1819 -0.133453,0.0331 -0.133453,-0.33073 z m 132.514477,0.44637 c 0,-0.0455 0.386953,-0.43249 0.859895,-0.85989 l 0.859896,-0.77711 -0.777105,0.8599 c -0.724371,0.80154 -0.942686,0.98151 -0.942686,0.7771 z M 190.58046,216.9944 c 0.0127,-0.30823 0.0754,-0.37092 0.15986,-0.15985 0.0764,0.19099 0.067,0.4192 -0.0209,0.50712 -0.0879,0.0879 -0.15047,-0.0684 -0.13899,-0.34727 z m -230.605256,-0.37483 c 0.26339,-0.29104 0.538422,-0.52916 0.611182,-0.52916 0.07276,0 -0.08321,0.23812 -0.346599,0.52916 -0.26339,0.29105 -0.538422,0.52917 -0.611182,0.52917 -0.07276,0 0.08321,-0.23812 0.346599,-0.52917 z m 145.144836,-0.15434 c 0.0127,-0.30822 0.0754,-0.37092 0.15986,-0.15985 0.0764,0.191 0.0671,0.4192 -0.0209,0.50712 -0.0879,0.0879 -0.15047,-0.0684 -0.13899,-0.34727 z m 9.901,-0.11024 c 0.26339,-0.29104 0.53843,-0.52917 0.61119,-0.52917 0.0728,0 -0.0832,0.23813 -0.34661,0.52917 -0.26339,0.29104 -0.53842,0.52917 -0.61118,0.52917 -0.0728,0 0.0832,-0.23813 0.3466,-0.52917 z m 28.72817,0.11024 c 0.0127,-0.30822 0.0754,-0.37092 0.15986,-0.15985 0.0764,0.191 0.067,0.4192 -0.0209,0.50712 -0.0879,0.0879 -0.15047,-0.0684 -0.13899,-0.34727 z m 102.10829,0.31903 c 0,-0.0549 0.20836,-0.2633 0.46302,-0.46302 0.41966,-0.32911 0.429,-0.31975 0.0999,0.0999 -0.34565,0.44073 -0.56293,0.58088 -0.56293,0.36312 z m -355.04995,-0.58361 c 0.0127,-0.30823 0.0754,-0.37092 0.15985,-0.15985 0.0764,0.19099 0.067,0.4192 -0.0209,0.50712 -0.0879,0.0879 -0.15046,-0.0684 -0.13897,-0.34727 z m 116.9249461,0.31903 c 0,-0.0549 0.2083594,-0.2633 0.4630209,-0.46302 0.419645,-0.32911 0.4290033,-0.31975 0.099896,0.0999 -0.3456438,0.44073 -0.562917,0.58089 -0.562917,0.36313 z m 153.4583339,0 c 0,-0.0549 0.20836,-0.2633 0.46302,-0.46302 0.41966,-0.32911 0.429,-0.31975 0.0999,0.0999 -0.34565,0.44073 -0.56293,0.58089 -0.56293,0.36313 z m 16.13959,0 c 0,-0.0549 0.20835,-0.2633 0.46302,-0.46302 0.41965,-0.32911 0.42899,-0.31975 0.0999,0.0999 -0.34565,0.44073 -0.56292,0.58089 -0.56292,0.36313 z M -98.8737,215.93607 c 0.0127,-0.30823 0.07539,-0.37092 0.159851,-0.15986 0.07643,0.191 0.06703,0.4192 -0.02088,0.50712 -0.08792,0.0879 -0.150452,-0.0684 -0.138964,-0.34726 z m 118.564027,-0.24254 c 0.0054,-0.43656 0.06469,-0.58312 0.131773,-0.32569 0.06708,0.25743 0.06267,0.61462 -0.0098,0.79375 -0.07248,0.17913 -0.127363,-0.0315 -0.12197,-0.46806 z m 139.119253,0.56156 c 0,-0.0549 0.20836,-0.2633 0.46302,-0.46302 0.41966,-0.3291 0.429,-0.31975 0.0999,0.0999 -0.34565,0.44073 -0.56293,0.58089 -0.56293,0.36312 z m -305.36292,-0.6277 c -0.32911,-0.41965 -0.31975,-0.42901 0.0999,-0.0999 0.25466,0.19972 0.46302,0.40808 0.46302,0.46302 0,0.21776 -0.21728,0.0776 -0.56292,-0.36312 z m 390.55876,0.38023 c 0,-0.0455 0.38695,-0.43249 0.85989,-0.8599 l 0.8599,-0.7771 -0.77711,0.85989 c -0.72438,0.80155 -0.94268,0.98151 -0.94268,0.77711 z m 13.09687,-0.71096 c 0.26339,-0.29104 0.53843,-0.52917 0.61119,-0.52917 0.0728,0 -0.0832,0.23813 -0.34661,0.52917 -0.26339,0.29104 -0.53842,0.52916 -0.61118,0.52916 -0.0728,0 0.0832,-0.23812 0.3466,-0.52916 z m -231.179689,0.0893 c 0.181901,-0.0734 0.479557,-0.0734 0.661458,0 0.181901,0.0734 0.03307,0.13346 -0.330729,0.13346 -0.363802,0 -0.51263,-0.0601 -0.330729,-0.13346 z m 8.469751,-0.0119 c 0.329118,-0.0633 0.805368,-0.0609 1.058334,0.005 0.252965,0.0662 -0.01632,0.118 -0.598398,0.11507 -0.582083,-0.003 -0.789053,-0.0571 -0.459936,-0.12041 z m 4.234987,-0.005 c 0.475549,-0.0589 1.189924,-0.0577 1.5875,0.003 0.397577,0.0604 0.0085,0.10855 -0.864634,0.10707 -0.873125,-0.002 -1.198414,-0.0509 -0.722866,-0.10976 z m 6.940574,0.0919 c 0,-0.0549 0.20836,-0.2633 0.463021,-0.46302 0.419645,-0.3291 0.429004,-0.31975 0.0999,0.0999 -0.345644,0.44073 -0.562917,0.58089 -0.562917,0.36312 z m 59.582817,-0.56156 c 0.005,-0.43656 0.0647,-0.58312 0.13179,-0.32569 0.0671,0.25743 0.0627,0.61462 -0.01,0.79375 -0.0725,0.17913 -0.12734,-0.0315 -0.12197,-0.46806 z m 7.88593,0.56156 c 0,-0.0549 0.20836,-0.2633 0.46303,-0.46302 0.41965,-0.3291 0.42899,-0.31975 0.0999,0.0999 -0.34565,0.44073 -0.56293,0.58089 -0.56293,0.36312 z m 25.71616,-0.56156 c 0.005,-0.43656 0.0647,-0.58312 0.13178,-0.32569 0.0671,0.25743 0.0627,0.61462 -0.01,0.79375 -0.0725,0.17913 -0.12734,-0.0315 -0.12197,-0.46806 z m 3.86757,0.48072 c 0.191,-0.0764 0.4192,-0.067 0.50713,0.0209 0.0879,0.0879 -0.0684,0.15045 -0.34727,0.13896 -0.30824,-0.0127 -0.37092,-0.0754 -0.15986,-0.15985 z m 7.40833,0 c 0.191,-0.0764 0.41921,-0.067 0.50713,0.0209 0.0879,0.0879 -0.0684,0.15045 -0.34727,0.13896 -0.30824,-0.0127 -0.37092,-0.0754 -0.15986,-0.15985 z m 51.01609,-0.0286 c -0.0712,-0.11511 0.279,-0.16161 0.77811,-0.10334 0.49914,0.0583 0.9075,0.15245 0.9075,0.20929 0,0.19912 -1.55758,0.10122 -1.68561,-0.10595 z m 4.7992,0.0175 c 0.47556,-0.0589 1.18993,-0.0577 1.5875,0.003 0.39759,0.0604 0.008,0.10855 -0.86464,0.10707 -0.87312,-0.002 -1.1984,-0.0509 -0.72286,-0.10977 z m 19.84211,0.005 c 0.32911,-0.0633 0.80536,-0.0609 1.05833,0.005 0.25294,0.0662 -0.0164,0.118 -0.59841,0.11507 -0.58208,-0.003 -0.78907,-0.0571 -0.45992,-0.12041 z m 4.23497,-0.005 c 0.47556,-0.0589 1.18994,-0.0577 1.5875,0.003 0.39759,0.0604 0.008,0.10855 -0.86463,0.10707 -0.87313,-0.002 -1.19841,-0.0509 -0.72287,-0.10977 z m -330.91146,-0.49175 c 0.0127,-0.30823 0.0754,-0.37092 0.15985,-0.15985 0.0764,0.19099 0.067,0.4192 -0.0209,0.50711 -0.0879,0.0879 -0.15045,-0.0683 -0.13897,-0.34726 z m 13.423255,0.23818 c 0.190995,-0.0764 0.419201,-0.067 0.507119,0.0209 0.08792,0.0879 -0.06835,0.15045 -0.347265,0.13896 -0.308227,-0.0127 -0.37092,-0.0754 -0.159854,-0.15985 z m 50.651173,-0.002 c 0.254662,-0.0666 0.67138,-0.0666 0.926042,0 0.254661,0.0666 0.0463,0.121 -0.463021,0.121 -0.509323,0 -0.717682,-0.0545 -0.463021,-0.121 z m 87.317536,-0.001 c 0.257432,-0.0671 0.614619,-0.0627 0.79375,0.01 0.179131,0.0725 -0.03149,0.12737 -0.468056,0.12197 -0.436562,-0.005 -0.583125,-0.0647 -0.325694,-0.13177 z m 113.506246,0 c 0.25744,-0.0671 0.61462,-0.0627 0.79375,0.01 0.17915,0.0725 -0.0315,0.12737 -0.46805,0.12197 -0.43656,-0.005 -0.58312,-0.0647 -0.3257,-0.13177 z m 97.89583,0 c 0.25744,-0.0671 0.61463,-0.0627 0.79375,0.01 0.17915,0.0725 -0.0315,0.12737 -0.46805,0.12197 -0.43656,-0.005 -0.58311,-0.0647 -0.3257,-0.13177 z m -346.444509,-0.80881 c -0.329107,-0.41965 -0.319749,-0.429 0.0999,-0.0999 0.254662,0.19972 0.463021,0.40808 0.463021,0.46302 0,0.21777 -0.217273,0.0776 -0.562917,-0.36312 z m 82.6046405,0.0441 c 0.0127,-0.30823 0.07539,-0.37092 0.1598507,-0.15986 0.07643,0.191 0.067032,0.4192 -0.020876,0.50712 -0.087918,0.0879 -0.1504527,-0.0684 -0.1389645,-0.34726 z M -160.25703,213.8194 c 0.0127,-0.30823 0.0754,-0.37092 0.15985,-0.15985 0.0764,0.19099 0.067,0.4192 -0.0209,0.50712 -0.0879,0.0879 -0.15045,-0.0684 -0.13896,-0.34727 z m 61.647914,0 c 0.0127,-0.30823 0.07539,-0.37092 0.15985,-0.15985 0.07643,0.19099 0.06703,0.4192 -0.02088,0.50712 -0.08792,0.0879 -0.150453,-0.0684 -0.138965,-0.34727 z m -12.943694,-0.90399 c 0,-0.36381 0.06,-0.51263 0.13345,-0.33073 0.0734,0.1819 0.0734,0.47955 0,0.66146 -0.0734,0.1819 -0.13345,0.0331 -0.13345,-0.33073 z m 244.63166,0.35394 c 0.1819,-0.0734 0.47956,-0.0734 0.66146,0 0.1819,0.0734 0.0331,0.13345 -0.33073,0.13345 -0.3638,0 -0.51263,-0.0601 -0.33073,-0.13345 z m 31.09357,-0.008 c 0.25744,-0.0671 0.61463,-0.0627 0.79375,0.01 0.17915,0.0725 -0.0315,0.12736 -0.46805,0.12197 -0.43656,-0.005 -0.58311,-0.0647 -0.3257,-0.13177 z m -273.60857,-0.87498 c 0,-0.3638 0.0601,-0.51263 0.13346,-0.33073 0.0734,0.1819 0.0734,0.47956 0,0.66146 -0.0734,0.1819 -0.13346,0.0331 -0.13346,-0.33073 z m 101.2275001,-2.04348 c 0.4729427,-0.0587 1.246849,-0.0587 1.7197917,0 0.4729427,0.0587 0.08599,0.10671 -0.8598959,0.10671 -0.9458854,0 -1.3328385,-0.048 -0.8598958,-0.10671 z m 107.1562519,0 c 0.472942,-0.0587 1.246848,-0.0587 1.719788,0 0.47295,0.0587 0.086,0.10671 -0.859893,0.10671 -0.945885,0 -1.332838,-0.048 -0.859895,-0.10671 z m -38.246858,-0.73464 c 0.0054,-0.43657 0.06469,-0.58313 0.131773,-0.3257 0.06708,0.25743 0.06267,0.61462 -0.0098,0.79375 -0.07248,0.17913 -0.127362,-0.0315 -0.12197,-0.46805 z m 2.396397,-0.79375 c 0.0029,-0.58209 0.05712,-0.78906 0.120412,-0.45994 0.06329,0.32912 0.06088,0.80537 -0.0053,1.05833 -0.06623,0.25297 -0.118005,-0.0163 -0.115068,-0.59839 z m -164.397471,-0.21445 c 0.11839,-0.11794 0.79741,-0.17557 1.508934,-0.12806 l 1.293682,0.0864 -1.508936,0.12807 c -0.82991,0.0704 -1.41207,0.0316 -1.29368,-0.0864 z m -61.81683,-0.1012 c 0.25743,-0.0671 0.61462,-0.0627 0.79375,0.01 0.17913,0.0725 -0.0315,0.12736 -0.46805,0.12197 -0.43657,-0.005 -0.58313,-0.0647 -0.3257,-0.13178 z m 157.1574685,0.001 c 0.2546614,-0.0665 0.6713802,-0.0665 0.9260416,0 0.2546615,0.0666 0.046302,0.121 -0.4630208,0.121 -0.5093229,0 -0.7176823,-0.0545 -0.4630208,-0.121 z m 107.0270515,-0.005 c 0.32912,-0.0633 0.80537,-0.0609 1.05834,0.005 0.25294,0.0662 -0.0164,0.118 -0.59841,0.11506 -0.58208,-0.003 -0.78907,-0.0571 -0.45993,-0.1204 z m -258.89285,-8.46299 c 0.25743,-0.0671 0.61462,-0.0627 0.79375,0.01 0.17913,0.0725 -0.0315,0.12736 -0.46806,0.12197 -0.43656,-0.005 -0.58312,-0.0647 -0.32569,-0.13177 z m 7.14375,0 c 0.25743,-0.0671 0.61462,-0.0627 0.79375,0.01 0.17913,0.0725 -0.0315,0.12736 -0.46806,0.12197 -0.43656,-0.005 -0.58312,-0.0647 -0.32569,-0.13177 z m 32.95213,0.003 c 0.19099,-0.0764 0.4192,-0.067 0.50711,0.0209 0.0879,0.0879 -0.0684,0.15045 -0.34726,0.13896 -0.30823,-0.0127 -0.37092,-0.0754 -0.15985,-0.15985 z m 5.01054,0.006 c 0.1819,-0.0734 0.47956,-0.0734 0.66146,0 0.1819,0.0734 0.0331,0.13346 -0.33073,0.13346 -0.3638,0 -0.51263,-0.0601 -0.33073,-0.13346 z m 19.860289,-0.006 c 0.190995,-0.0764 0.4192,-0.067 0.507119,0.0209 0.08792,0.0879 -0.06835,0.15045 -0.347266,0.13896 -0.308226,-0.0127 -0.370919,-0.0754 -0.159853,-0.15985 z m 4.745963,0.006 c 0.181901,-0.0734 0.479558,-0.0734 0.661459,0 0.181901,0.0734 0.03307,0.13346 -0.330729,0.13346 -0.363803,0 -0.512631,-0.0601 -0.33073,-0.13346 z m 83.0957046,-0.006 c 0.1909948,-0.0764 0.4192005,-0.067 0.5071189,0.0209 0.087918,0.0879 -0.068352,0.15045 -0.3472656,0.13896 -0.3082264,-0.0127 -0.3709194,-0.0754 -0.1598533,-0.15985 z m 5.01054693,0.006 c 0.18190105,-0.0734 0.4795573,-0.0734 0.66145835,0 0.18190104,0.0734 0.0330729,0.13346 -0.33072917,0.13346 -0.36380209,0 -0.51263022,-0.0601 -0.33072918,-0.13346 z M 19.85372,200.0347 c 0.190995,-0.0764 0.419201,-0.067 0.507119,0.0209 0.08792,0.0879 -0.06835,0.15045 -0.347265,0.13896 -0.308227,-0.0127 -0.37092,-0.0754 -0.159854,-0.15985 z m 5.407422,-0.002 c 0.254662,-0.0666 0.67138,-0.0666 0.926042,0 0.254661,0.0666 0.0463,0.121 -0.463021,0.121 -0.509323,0 -0.717682,-0.0545 -0.463021,-0.121 z m -185.605212,-0.25742 c 0.1819,-0.0734 0.47956,-0.0734 0.66146,0 0.1819,0.0734 0.0331,0.13345 -0.33073,0.13345 -0.3638,0 -0.51263,-0.0601 -0.33073,-0.13345 z m 11.92279,-0.006 c 0.19099,-0.0764 0.4192,-0.067 0.50712,0.0209 0.0879,0.0879 -0.0684,0.15045 -0.34727,0.13896 -0.30823,-0.0127 -0.37092,-0.0754 -0.15985,-0.15985 z m 150.2833334,0 c 0.1909947,-0.0764 0.4192005,-0.067 0.5071189,0.0209 0.087918,0.0879 -0.068352,0.15045 -0.3472656,0.13896 -0.3082264,-0.0127 -0.3709194,-0.0754 -0.1598533,-0.15985 z m 26.1937506,0 c 0.190994,-0.0764 0.4192,-0.067 0.507119,0.0209 0.08792,0.0879 -0.06835,0.15045 -0.347266,0.13896 -0.308226,-0.0127 -0.370919,-0.0754 -0.159853,-0.15985 z M -161.91503,199.5056 c 0.19099,-0.0764 0.4192,-0.067 0.50712,0.0209 0.0879,0.0879 -0.0684,0.15046 -0.34727,0.13897 -0.30823,-0.0127 -0.37092,-0.0754 -0.15985,-0.15985 z m 98.538706,-0.28011 7.869307,-0.0762 0.07129,-16.00338 0.07129,-16.00338 -0.0031,16.07346 -0.0031,16.07337 -7.9375,0.006 -7.9375,0.006 7.869306,-0.0762 z m 30.561424,-0.002 c 2.219193,-0.0443 5.850599,-0.0443 8.069792,0 2.219192,0.0443 0.403489,0.0805 -4.034896,0.0805 -4.438386,0 -6.254089,-0.0362 -4.034896,-0.0805 z m 172.9627,-0.12888 c -0.0701,-0.18423 -0.0963,-16.82499 -0.0584,-36.97962 l 0.069,-36.64479 0.0652,36.84323 0.0652,36.84322 h 7.80428 7.80428 l 0.0685,-36.84322 0.0685,-36.84323 -0.003,36.90937 -0.003,36.90938 -7.87815,0.0701 c -6.16019,0.0548 -7.90591,-0.003 -8.0055,-0.26458 z m 54.49748,-0.0147 c -0.0737,-0.19214 -0.0964,-1.83103 -0.0504,-3.64197 l 0.0837,-3.29261 0.0572,3.50573 0.0572,3.50573 h 7.80385 7.80386 l 0.0695,-24.87085 0.0695,-24.87084 -0.003,24.93699 -0.003,24.93699 -7.87816,0.0701 c -6.33206,0.0563 -7.90445,0.002 -8.01219,-0.27926 z m 61.33253,0.14359 c 2.14643,-0.0445 5.65878,-0.0445 7.80521,0 2.14643,0.0445 0.39026,0.0809 -3.9026,0.0809 -4.29287,0 -6.04904,-0.0364 -3.90261,-0.0809 z m -353.169252,-1.19134 -0.777105,-0.85989 0.859896,0.7771 c 0.472943,0.42741 0.859896,0.81437 0.859896,0.8599 0,0.20441 -0.218316,0.0245 -0.942687,-0.77711 z m 84.517271,-1.4552 c -0.329107,-0.41965 -0.319749,-0.42901 0.0999,-0.0999 0.44073,0.34564 0.580887,0.56292 0.363125,0.56292 -0.05494,0 -0.2633,-0.20836 -0.463021,-0.46302 z m -113.356859,-0.66146 -0.7771,-0.8599 0.8599,0.77711 c 0.47294,0.42741 0.85989,0.81436 0.85989,0.85989 0,0.20441 -0.21831,0.0245 -0.94269,-0.7771 z m 112.033942,-0.66146 c -0.329107,-0.41965 -0.319749,-0.429 0.0999,-0.0999 0.254662,0.19972 0.463021,0.40808 0.463021,0.46302 0,0.21777 -0.217273,0.0776 -0.562917,-0.36312 z M 192.94083,193.9977 c 0.34176,-0.3638 0.68093,-0.66146 0.75369,-0.66146 0.0728,0 -0.14734,0.29766 -0.4891,0.66146 -0.34177,0.3638 -0.68094,0.66146 -0.7537,0.66146 -0.0728,0 0.14735,-0.29766 0.48911,-0.66146 z m -301.55382,-3.22606 c 0.25743,-0.0671 0.61462,-0.0627 0.79375,0.01 0.17913,0.0725 -0.0315,0.12737 -0.46806,0.12197 -0.43656,-0.005 -0.58312,-0.0647 -0.32569,-0.13177 z m 112.7125003,0 c 0.2574316,-0.0671 0.6146191,-0.0627 0.79375,0.01 0.1791308,0.0725 -0.031493,0.12737 -0.4680559,0.12197 -0.4365625,-0.005 -0.5831258,-0.0647 -0.3256941,-0.13177 z M -129.30078,189.74232 c 0.0127,-0.30823 0.0754,-0.37092 0.15985,-0.15986 0.0764,0.191 0.067,0.41921 -0.0209,0.50712 -0.0879,0.0879 -0.15045,-0.0684 -0.13896,-0.34726 z m -29.05388,-0.2936 c 0.25743,-0.0671 0.61462,-0.0627 0.79375,0.01 0.17913,0.0725 -0.0315,0.12736 -0.46805,0.12197 -0.43657,-0.005 -0.58313,-0.0647 -0.3257,-0.13178 z m 4.23333,0 c 0.25744,-0.0671 0.61462,-0.0627 0.79375,0.01 0.17914,0.0725 -0.0315,0.12736 -0.46805,0.12197 -0.43656,-0.005 -0.58313,-0.0647 -0.3257,-0.13178 z m 208.106301,0.003 c 0.190994,-0.0764 0.4192,-0.067 0.507119,0.0209 0.08792,0.0879 -0.06835,0.15045 -0.347266,0.13897 -0.308226,-0.0127 -0.370919,-0.0754 -0.159853,-0.15985 z m -214.312501,-0.26459 c 0.19099,-0.0764 0.4192,-0.067 0.50712,0.0209 0.0879,0.0879 -0.0684,0.15045 -0.34727,0.13896 -0.30823,-0.0127 -0.37092,-0.0754 -0.15985,-0.15985 z m 143.525838,-1.40679 c 0,-0.65484 0.0516,-0.92273 0.114662,-0.59531 0.06307,0.32742 0.06307,0.8632 0,1.19062 -0.06306,0.32743 -0.114662,0.0595 -0.114662,-0.59531 z m 98.689595,0 c 0,-0.65484 0.05159,-0.92273 0.114644,-0.59531 0.06308,0.32742 0.06308,0.8632 0,1.19062 -0.06305,0.32743 -0.114644,0.0595 -0.114644,-0.59531 z m -182.369993,-0.0999 c 0,-0.0549 0.20836,-0.2633 0.46302,-0.46302 0.419647,-0.3291 0.429006,-0.31974 0.0999,0.0999 -0.34565,0.44073 -0.56292,0.58089 -0.56292,0.36312 z m 113.355459,-6.51468 c 0,-3.41974 0.03771,-4.81873 0.08379,-3.10886 0.04609,1.70987 0.04609,4.50784 0,6.21771 -0.04609,1.70987 -0.08379,0.31089 -0.08379,-3.10885 z m 15.883551,-6.74688 c 5.1e-5,-6.985 0.03421,-9.8045 0.07591,-6.26556 0.0417,3.53894 0.04166,9.25394 -9.6e-5,12.7 -0.04175,3.44606 -0.07587,0.55056 -0.07582,-6.43444 z m 82.80535,6.74688 c 0,-3.27422 0.038,-4.61367 0.0844,-2.97656 0.0464,1.6371 0.0464,4.31601 0,5.95312 -0.0464,1.63711 -0.0844,0.29766 -0.0844,-2.97656 z m -245.34008,5.02708 c 0,-0.3638 0.06,-0.51263 0.13345,-0.33073 0.0734,0.1819 0.0734,0.47956 0,0.66146 -0.0734,0.1819 -0.13345,0.0331 -0.13345,-0.33073 z m 133.08541442,0 c 0,-0.3638 0.0600551,-0.51263 0.13345319,-0.33073 0.0733981,0.1819 0.0733981,0.47956 0,0.66146 -0.0733981,0.1819 -0.13345319,0.0331 -0.13345319,-0.33073 z M -148.3299,185.92791 c 0,-0.3638 0.0601,-0.51263 0.13346,-0.33073 0.0734,0.1819 0.0734,0.47956 0,0.66146 -0.0734,0.1819 -0.13346,0.0331 -0.13346,-0.33073 z m 211.666675,0 c 0,-0.3638 0.06006,-0.51263 0.133455,-0.33073 0.0734,0.1819 0.0734,0.47956 0,0.66146 -0.07339,0.1819 -0.133455,0.0331 -0.133455,-0.33073 z m 34.639515,0.11024 c 0.0127,-0.30822 0.07541,-0.37092 0.159861,-0.15985 0.07644,0.19099 0.06705,0.4192 -0.0209,0.50712 -0.08792,0.0879 -0.150469,-0.0684 -0.138986,-0.34727 z m -211.36158,-0.63941 c 0,-0.50932 0.0545,-0.71768 0.121,-0.46302 0.0666,0.25466 0.0666,0.67138 0,0.92604 -0.0665,0.25466 -0.121,0.0463 -0.121,-0.46302 z m -15.89461,0 c 0,-0.3638 0.0601,-0.51263 0.13346,-0.33073 0.0734,0.1819 0.0734,0.47956 0,0.66146 -0.0734,0.1819 -0.13346,0.0331 -0.13346,-0.33073 z m 128.58750442,-0.52917 c 0,-0.3638 0.0600551,-0.51263 0.13345319,-0.33072 0.0733981,0.1819 0.0733981,0.47955 0,0.66145 -0.0733981,0.1819 -0.13345319,0.0331 -0.13345319,-0.33073 z M 97.97629,184.97982 c 0.0127,-0.30823 0.07541,-0.37092 0.159861,-0.15985 0.07644,0.19099 0.06705,0.4192 -0.0209,0.50711 -0.08792,0.0879 -0.150469,-0.0683 -0.138986,-0.34726 z m -114.564572,-0.26458 c 0.0127,-0.30823 0.07539,-0.37092 0.159851,-0.15986 0.07643,0.191 0.06703,0.4192 -0.02088,0.50712 -0.08792,0.0879 -0.150453,-0.0684 -0.138964,-0.34726 z m -132.861748,-1.10244 -0.64143,-0.7276 0.7276,0.64143 c 0.68006,0.59952 0.84894,0.81378 0.64143,0.81378 -0.0474,0 -0.37481,-0.32742 -0.7276,-0.72761 z m 15.67222,-1.65364 c 0,-0.3638 0.06,-0.51263 0.13345,-0.33073 0.0734,0.1819 0.0734,0.47956 0,0.66146 -0.0734,0.1819 -0.13345,0.0331 -0.13345,-0.33073 z m 294.03485,-16.00729 c 2e-5,-9.16782 0.0332,-12.87991 0.0738,-8.24911 0.0406,4.6308 0.0405,12.13174 -5e-5,16.66875 -0.0406,4.53701 -0.0738,0.74817 -0.0737,-8.41964 z M 1.1179127,181.03312 c 0.4936543,-0.50933 0.9570853,-0.92605 1.0298457,-0.92605 0.07276,0 -0.271608,0.41672 -0.7652623,0.92605 -0.49365435,0.50932 -0.95708529,0.92604 -1.02984571,0.92604 -0.0727604,0 0.27160803,-0.41672 0.76526231,-0.92604 z M -111.4623,180.90082 c 0.26339,-0.29104 0.53842,-0.52916 0.61119,-0.52916 0.0728,0 -0.0832,0.23812 -0.3466,0.52916 -0.26339,0.29105 -0.53843,0.52917 -0.61119,0.52917 -0.0728,0 0.0832,-0.23812 0.3466,-0.52917 z m 287.59405,-15.61041 c 0,-8.80401 0.0333,-12.40565 0.074,-8.00365 0.0407,4.40201 0.0407,11.60529 0,16.00729 -0.0407,4.40201 -0.074,0.80037 -0.074,-8.00364 z m -301.88155,12.7 c 0.56839,-0.58209 1.09297,-1.05834 1.16573,-1.05834 0.0728,0 -0.33276,0.47625 -0.90114,1.05834 -0.56839,0.58208 -1.09297,1.05833 -1.16573,1.05833 -0.0728,0 0.33275,-0.47625 0.90114,-1.05833 z m 340.40734,-1.74184 c 0.0127,-0.30823 0.0754,-0.37092 0.15986,-0.15985 0.0764,0.19099 0.067,0.4192 -0.0209,0.50711 -0.0879,0.0879 -0.15047,-0.0684 -0.13899,-0.34726 z m -352.59482,-2.55764 -0.7771,-0.8599 0.8599,0.77711 c 0.80154,0.72437 0.98151,0.94268 0.7771,0.94268 -0.0455,0 -0.43249,-0.38695 -0.8599,-0.85989 z m -31.35072,-0.66146 -0.9118,-0.99219 0.99219,0.9118 c 0.92351,0.84868 1.11384,1.07258 0.9118,1.07258 -0.0442,0 -0.4907,-0.44649 -0.99219,-0.99219 z m 383.94554,-1.01423 c 0.0127,-0.30823 0.0754,-0.37092 0.15986,-0.15986 0.0764,0.191 0.067,0.4192 -0.0209,0.50712 -0.0879,0.0879 -0.15047,-0.0684 -0.13899,-0.34726 z m -341.48355,-11.22275 c 0,-3.56526 0.0375,-5.02377 0.0832,-3.24114 0.0458,1.78263 0.0458,4.69966 0,6.48229 -0.0458,1.78263 -0.0832,0.32411 -0.0832,-3.24115 z m 89.885697,5.82084 c 0,-0.36381 0.06006,-0.51264 0.133453,-0.33073 0.0734,0.1819 0.0734,0.47955 0,0.66145 -0.0734,0.18191 -0.133453,0.0331 -0.133453,-0.33072 z m 22.827102,-5.95313 c -1.61e-4,-3.63802 0.0371,-5.163 0.08281,-3.38884 0.04571,1.77416 0.04584,4.75072 2.64e-4,6.61458 -0.04552,1.86386 -0.08291,0.41228 -0.08307,-3.22574 z m -6.921815,4.89479 c 0,-0.65484 0.0516,-0.92273 0.114663,-0.59531 0.06307,0.32742 0.06307,0.8632 0,1.19062 -0.06306,0.32743 -0.114663,0.0595 -0.114663,-0.59531 z m -151.922004,0.11025 c 0.0127,-0.30823 0.0754,-0.37092 0.15985,-0.15986 0.0764,0.191 0.067,0.4192 -0.0209,0.50712 -0.0879,0.0879 -0.15045,-0.0683 -0.13896,-0.34726 z m 47.60411,0.31902 c 0,-0.0549 0.20836,-0.2633 0.46302,-0.46302 0.41964,-0.32911 0.429,-0.31975 0.0999,0.0999 -0.34564,0.44073 -0.56291,0.58089 -0.56291,0.36312 z m 113.241666,-0.52916 c 0,-0.0549 0.208359,-0.2633 0.463021,-0.46303 0.419645,-0.3291 0.429003,-0.31974 0.0999,0.0999 -0.345644,0.44073 -0.562917,0.58089 -0.562917,0.36313 z m 24.891722,-0.31903 c 0.0127,-0.30823 0.07539,-0.37092 0.159851,-0.15985 0.07643,0.19099 0.06703,0.4192 -0.02088,0.50711 -0.08792,0.0879 -0.150452,-0.0683 -0.138964,-0.34726 z M -99.932033,164.6069 c 0.0127,-0.30822 0.07539,-0.37092 0.159851,-0.15985 0.07643,0.19099 0.06703,0.4192 -0.02088,0.50712 -0.08792,0.0879 -0.150453,-0.0684 -0.138965,-0.34727 z m 47.074945,-1.00389 c 0,-0.0549 0.208359,-0.2633 0.463021,-0.46302 0.419645,-0.32911 0.429003,-0.31975 0.0999,0.0999 -0.345644,0.44073 -0.562917,0.58089 -0.562917,0.36312 z m 31.506306,-0.58361 c 0.0127,-0.30822 0.07539,-0.37092 0.159851,-0.15985 0.07643,0.19099 0.06703,0.4192 -0.02088,0.50712 -0.08792,0.0879 -0.150453,-0.0684 -0.138964,-0.34727 z m -114.737308,-5.5342 c 2e-4,-3.20146 0.0384,-4.47478 0.0849,-2.82961 0.0465,1.64518 0.0463,4.26455 -2.6e-4,5.82084 -0.0467,1.55628 -0.0847,0.21023 -0.0845,-2.99123 z m 263.46382,5.02708 c 0.005,-0.43656 0.0647,-0.58312 0.13179,-0.32569 0.0671,0.25743 0.0627,0.61462 -0.01,0.79375 -0.0725,0.17913 -0.12734,-0.0315 -0.12197,-0.46806 z m -211.386929,-0.52916 c 0.0029,-0.58209 0.05712,-0.78906 0.120406,-0.45994 0.06329,0.32912 0.06088,0.80537 -0.0053,1.05833 -0.06622,0.25297 -0.118004,-0.0163 -0.115067,-0.59839 z m -88.945831,-0.28663 c 0.0127,-0.30823 0.0754,-0.37092 0.15985,-0.15986 0.0764,0.191 0.067,0.4192 -0.0209,0.50712 -0.0879,0.0879 -0.15045,-0.0683 -0.13896,-0.34726 z m 14.59257,-0.37483 c 0,-0.50932 0.0545,-0.71768 0.12101,-0.46302 0.0665,0.25466 0.0665,0.67138 0,0.92604 -0.0666,0.25466 -0.12101,0.0463 -0.12101,-0.46302 z m 211.647065,0 c 0,-0.3638 0.06006,-0.51263 0.133453,-0.33073 0.0734,0.1819 0.0734,0.47956 0,0.66146 -0.0734,0.1819 -0.133453,0.0331 -0.133453,-0.33073 z m -92.803373,-0.59531 -0.504028,-0.59532 0.595312,0.50403 c 0.327422,0.27722 0.595313,0.54511 0.595313,0.59531 0,0.21174 -0.212934,0.0554 -0.686597,-0.50402 z m -71.329682,-1.7021 c 0.191,-0.0764 0.4192,-0.067 0.50712,0.0209 0.0879,0.0879 -0.0684,0.15045 -0.34726,0.13896 -0.30823,-0.0127 -0.37092,-0.0754 -0.15986,-0.15985 z m 4.49792,0 c 0.19099,-0.0764 0.4192,-0.067 0.50712,0.0209 0.0879,0.0879 -0.0683,0.15045 -0.34727,0.13896 -0.30822,-0.0127 -0.37092,-0.0754 -0.15985,-0.15985 z m 107.9334636,0.006 c 0.181901,-0.0734 0.4795573,-0.0734 0.6614583,0 0.181901,0.0734 0.033073,0.13345 -0.3307292,0.13345 -0.3638021,0 -0.5126302,-0.0601 -0.3307291,-0.13345 z m 4.7790365,-0.006 c 0.1909948,-0.0764 0.4192005,-0.067 0.5071189,0.0209 0.087918,0.0879 -0.068352,0.15045 -0.3472656,0.13896 -0.3082264,-0.0127 -0.3709194,-0.0754 -0.1598533,-0.15985 z M -153.46016,157.69032 c 0.47555,-0.0589 1.18992,-0.0577 1.5875,0.003 0.39757,0.0604 0.008,0.10855 -0.86464,0.10707 -0.87312,-0.002 -1.19841,-0.0509 -0.72286,-0.10977 z m 211.929596,0.005 c 0.329118,-0.0633 0.805368,-0.0609 1.058333,0.005 0.252966,0.0662 -0.01632,0.118 -0.598397,0.11507 -0.582084,-0.003 -0.789054,-0.0571 -0.459936,-0.12041 z m -113.972357,-4.96831 v -3.30336 l -7.871355,-0.0742 -7.871354,-0.0742 8.003646,-0.0621 8.003646,-0.062 v 3.43958 c 0,1.89177 -0.05953,3.43958 -0.132292,3.43958 -0.07276,0 -0.132291,-1.48651 -0.132291,-3.30335 z m 276.489591,3.20346 c 0,-0.0549 0.20836,-0.2633 0.46302,-0.46302 0.41965,-0.32911 0.42899,-0.31975 0.0999,0.0999 -0.34565,0.44073 -0.56292,0.58089 -0.56292,0.36313 z m -274.902091,-1.35532 c 0.493654,-0.50932 0.957085,-0.92604 1.029845,-0.92604 0.07276,0 -0.271608,0.41672 -0.765262,0.92604 -0.493654,0.50933 -0.957085,0.92605 -1.029846,0.92605 -0.07276,0 0.271608,-0.41672 0.765263,-0.92605 z m 276.225001,0.0324 c 0,-0.0549 0.20836,-0.2633 0.46302,-0.46302 0.41966,-0.32911 0.429,-0.31975 0.0999,0.0999 -0.34565,0.44073 -0.56293,0.58089 -0.56293,0.36313 z m -197.393409,-1.15688 -0.9118,-0.99218 0.992188,0.9118 c 0.923507,0.84868 1.11384,1.07257 0.911799,1.07257 -0.04421,0 -0.490699,-0.44648 -0.992187,-0.99219 z m 98.683799,0 -0.64143,-0.7276 0.7276,0.64143 c 0.40019,0.35279 0.72761,0.68021 0.72761,0.72761 0,0.2075 -0.21426,0.0386 -0.81378,-0.64144 z m -149.767891,-0.26458 c -0.329108,-0.41964 -0.319749,-0.429 0.0999,-0.0999 0.44073,0.34564 0.580887,0.56291 0.363125,0.56291 -0.05494,0 -0.2633,-0.20836 -0.463021,-0.46302 z M -158.21087,148.7055 c 0.191,-0.0764 0.4192,-0.067 0.50712,0.0209 0.0879,0.0879 -0.0683,0.15045 -0.34726,0.13896 -0.30823,-0.0127 -0.37092,-0.0754 -0.15986,-0.15985 z m 59.795839,0 c 0.190994,-0.0764 0.4192,-0.067 0.507119,0.0209 0.08792,0.0879 -0.06835,0.15045 -0.347266,0.13896 -0.308226,-0.0127 -0.370919,-0.0754 -0.159853,-0.15985 z m 99.218751,0 c 0.19099478,-0.0764 0.4192006,-0.067 0.5071189,0.0209 0.087918,0.0879 -0.068352,0.15045 -0.34726558,0.13896 -0.30822636,-0.0127 -0.37091938,-0.0754 -0.15985332,-0.15985 z m 13.49375,0 c 0.190995,-0.0764 0.419201,-0.067 0.507119,0.0209 0.08792,0.0879 -0.06835,0.15045 -0.347266,0.13896 -0.308226,-0.0127 -0.370919,-0.0754 -0.159853,-0.15985 z m -170.65625,-0.26458 c 0.19099,-0.0764 0.4192,-0.067 0.50712,0.0209 0.0879,0.0879 -0.0684,0.15045 -0.34727,0.13896 -0.30823,-0.0127 -0.37092,-0.0754 -0.15985,-0.15985 z m 8.32287,-0.003 c 0.25743,-0.0671 0.61462,-0.0627 0.79375,0.01 0.17913,0.0725 -0.0315,0.12736 -0.46805,0.12197 -0.43657,-0.005 -0.58313,-0.0647 -0.3257,-0.13177 z m 38.22726,0.008 c 0.1819,-0.0734 0.47956,-0.0734 0.66146,0 0.1819,0.0734 0.0331,0.13345 -0.33073,0.13345 -0.3638,0 -0.51263,-0.0601 -0.33073,-0.13345 z m 9.13316,-0.008 c 0.25743,-0.0671 0.61462,-0.0627 0.793749,0.01 0.179131,0.0725 -0.03149,0.12736 -0.468059,0.12197 -0.43656,-0.005 -0.58312,-0.0647 -0.32569,-0.13177 z m 58.087543,0.003 c 0.190995,-0.0764 0.4192,-0.067 0.507119,0.0209 0.08792,0.0879 -0.06835,0.15045 -0.347266,0.13896 -0.308226,-0.0127 -0.370919,-0.0754 -0.159853,-0.15985 z m 6.35,0 c 0.190995,-0.0764 0.4192,-0.067 0.507119,0.0209 0.08792,0.0879 -0.06835,0.15045 -0.347266,0.13896 -0.308226,-0.0127 -0.370919,-0.0754 -0.159853,-0.15985 z m 39.1417972,0.005 c 0.1819011,-0.0734 0.4795573,-0.0734 0.6614584,0 0.181901,0.0734 0.033073,0.13346 -0.3307292,0.13346 -0.3638021,0 -0.5126302,-0.0601 -0.3307292,-0.13346 z m 8.9958338,0 c 0.181901,-0.0734 0.479557,-0.0734 0.661458,0 0.181901,0.0734 0.03307,0.13346 -0.330729,0.13346 -0.363802,0 -0.51263,-0.0601 -0.330729,-0.13346 z m -164.703124,-0.27886 c 0.40018,-0.0606 1.05502,-0.0606 1.4552,0 0.40019,0.0606 0.0728,0.11022 -0.7276,0.11022 -0.80036,0 -1.12779,-0.0496 -0.7276,-0.11022 z m 47.09583,0 c 0.40018,-0.0606 1.05503,-0.0606 1.45521,0 0.40018,0.0606 0.0728,0.11022 -0.72761,0.11022 -0.80036,0 -1.12778,-0.0496 -0.7276,-0.11022 z m 66.016628,0.002 c 0.329118,-0.0633 0.805368,-0.0609 1.058333,0.005 0.252966,0.0662 -0.01632,0.118 -0.598397,0.11506 -0.582083,-0.003 -0.789054,-0.0571 -0.459936,-0.1204 z m 46.568321,-0.005 c 0.4755488,-0.0589 1.1899238,-0.0577 1.5875,0.003 0.3975762,0.0604 0.00849,0.10855 -0.8646345,0.10707 -0.873125,-0.002 -1.1984144,-0.0509 -0.7228655,-0.10977 z m 51.985887,0.002 c 0.400182,-0.0606 1.055026,-0.0606 1.455208,0 0.400183,0.0606 0.07276,0.11022 -0.727604,0.11022 -0.800364,0 -1.127786,-0.0496 -0.727604,-0.11022 z m 46.831254,0 c 0.40018,-0.0606 1.05502,-0.0606 1.4552,0 0.40019,0.0606 0.0728,0.11022 -0.7276,0.11022 -0.80036,0 -1.12779,-0.0496 -0.7276,-0.11022 z m 132.68854,0.003 c 0.32742,-0.0631 0.8632,-0.0631 1.19063,0 0.32742,0.0631 0.0595,0.11466 -0.59532,0.11466 -0.65484,0 -0.92273,-0.0516 -0.59531,-0.11466 z"
         id="path3043" />
      <path
         style="fill:#fdbf81;stroke-width:0.264583"
         d="m 54.249554,200.03467 c 0.190995,-0.0764 0.419201,-0.067 0.507119,0.0209 0.08792,0.0879 -0.06835,0.15046 -0.347266,0.13897 -0.308226,-0.0127 -0.370919,-0.0754 -0.159853,-0.15985 z m 6.35,0 c 0.190995,-0.0764 0.419206,-0.067 0.507127,0.0209 0.08792,0.0879 -0.06837,0.15046 -0.347274,0.13897 -0.308226,-0.0127 -0.370919,-0.0754 -0.159853,-0.15985 z m 37.835417,0 c 0.191003,-0.0764 0.419206,-0.067 0.507127,0.0209 0.08792,0.0879 -0.06837,0.15046 -0.347265,0.13897 -0.30824,-0.0127 -0.37092,-0.0754 -0.159862,-0.15985 z m 4.354119,-9.26303 c 0.25744,-0.0671 0.61462,-0.0627 0.79375,0.01 0.17915,0.0725 -0.0315,0.12737 -0.46805,0.12197 -0.43656,-0.005 -0.58312,-0.0647 -0.3257,-0.13177 z m 24.65702,-15.55936 c 5e-5,-6.69395 0.0344,-9.39446 0.0763,-6.00112 0.0419,3.39333 0.0419,8.87021 -8e-5,12.17083 -0.042,3.30062 -0.0763,0.52425 -0.0762,-6.16971 z m 48.58226,6.32796 c 0.0127,-0.30823 0.0754,-0.37092 0.15987,-0.15986 0.0764,0.191 0.067,0.4192 -0.0209,0.50712 -0.0879,0.0879 -0.15047,-0.0683 -0.13898,-0.34726 z m 18.62916,-16.38212 0.003,-15.875 7.80521,-0.006 7.80521,-0.006 -7.737,0.076 -7.737,0.076 -0.0713,15.80492 -0.0713,15.80492 0.003,-15.875 z m 20.06595,8.99583 c 0,-1.01865 0.049,-1.40294 0.10628,-0.854 0.0573,0.54895 0.0563,1.38239 -0.003,1.85209 -0.0584,0.4697 -0.1053,0.0206 -0.10414,-0.99809 z M 84.57607,160.79249 c 0,-3.56526 0.03746,-5.02377 0.08324,-3.24114 0.04577,1.78263 0.04577,4.69966 0,6.48229 -0.04577,1.78263 -0.08324,0.32411 -0.08324,-3.24115 z m -8.997845,-3.175 c 0,-3.1287 0.03826,-4.40862 0.08504,-2.84427 0.04678,1.56435 0.04678,4.12419 0,5.68854 -0.04678,1.56435 -0.08504,0.28443 -0.08504,-2.84427 z m -18.153671,0.0838 c 0.190995,-0.0764 0.419201,-0.067 0.507119,0.0209 0.08792,0.0879 -0.06835,0.15045 -0.347266,0.13897 -0.308226,-0.0127 -0.370919,-0.0754 -0.159853,-0.15985 z m 2.645833,0 c 0.190995,-0.0764 0.419201,-0.067 0.507119,0.0209 0.08792,0.0879 -0.06835,0.15045 -0.347265,0.13897 -0.308227,-0.0127 -0.37092,-0.0754 -0.159854,-0.15985 z m 104.245653,-8.48392 c 2.22819,-0.0443 5.80006,-0.0442 7.9375,2.1e-4 2.13743,0.0444 0.31437,0.0807 -4.05125,0.0805 -4.36563,-1.2e-4 -6.11444,-0.0365 -3.88625,-0.0808 z"
         id="path3041" />
      <path
         style="fill:#fda44b;stroke-width:0.264583"
         d="m 55.164094,200.03205 c 0.257432,-0.0671 0.614619,-0.0627 0.79375,0.01 0.179131,0.0725 -0.03149,0.12736 -0.468056,0.12197 -0.436562,-0.005 -0.583125,-0.0647 -0.325694,-0.13177 z m 4.233334,0 c 0.257431,-0.0671 0.614619,-0.0627 0.79375,0.01 0.179131,0.0725 -0.03149,0.12736 -0.468056,0.12197 -0.436563,-0.005 -0.583126,-0.0647 -0.325694,-0.13177 z m 35.068793,0.003 c 0.191003,-0.0764 0.419206,-0.067 0.507127,0.0209 0.08792,0.0879 -0.06837,0.15045 -0.347266,0.13896 -0.308239,-0.0127 -0.370919,-0.0754 -0.159861,-0.15985 z m 2.89388,0.006 c 0.181902,-0.0734 0.479558,-0.0734 0.661459,0 0.181901,0.0734 0.03307,0.13346 -0.330729,0.13346 -0.363802,0 -0.512631,-0.0601 -0.33073,-0.13346 z m 21.960419,0 c 0.1819,-0.0734 0.47956,-0.0734 0.66146,0 0.1819,0.0734 0.0331,0.13346 -0.33073,0.13346 -0.3638,0 -0.51263,-0.0601 -0.33073,-0.13346 z m 2.91042,0 c 0.1819,-0.0734 0.47955,-0.0734 0.66145,0 0.1819,0.0734 0.0331,0.13346 -0.33073,0.13346 -0.3638,0 -0.51263,-0.0601 -0.33072,-0.13346 z m 54.50416,0 c 0.1819,-0.0734 0.47956,-0.0734 0.66146,0 0.1819,0.0734 0.0331,0.13346 -0.33073,0.13346 -0.3638,0 -0.51263,-0.0601 -0.33073,-0.13346 z m 3.175,0 c 0.1819,-0.0734 0.47956,-0.0734 0.66146,0 0.1819,0.0734 0.0331,0.13346 -0.33073,0.13346 -0.3638,0 -0.51263,-0.0601 -0.33073,-0.13346 z m 56.35625,0 c 0.1819,-0.0734 0.47956,-0.0734 0.66146,0 0.1819,0.0734 0.0331,0.13346 -0.33073,0.13346 -0.3638,0 -0.51263,-0.0601 -0.33073,-0.13346 z m 3.43959,0 c 0.1819,-0.0734 0.47955,-0.0734 0.66146,0 0.1819,0.0734 0.0331,0.13346 -0.33073,0.13346 -0.36381,0 -0.51263,-0.0601 -0.33073,-0.13346 z m 12.28955,-2.68466 c -0.0397,-1.4594 -0.13372,-1.88803 -0.3833,-1.74712 -0.26258,0.14824 -0.26348,0.1142 -0.005,-0.16518 0.52247,-0.56343 0.63013,-0.1799 0.53223,1.89606 l -0.0919,1.95009 -0.0526,-1.93385 z m 15.62306,-34.9094 -0.0652,-36.84323 h -7.67291 -7.67292 v 12.81668 c 0,7.04917 -0.0893,12.87192 -0.19844,12.93944 -0.10914,0.0675 -0.1389,-5.72975 -0.0661,-12.88282 l 0.13229,-13.00559 7.74583,-0.0702 c 6.05431,-0.0548 7.77365,0.003 7.87321,0.26459 0.0701,0.1841 0.0964,16.82489 0.0584,36.97953 l -0.069,36.64479 z m -153.4164,35.58645 -0.50403,-0.59531 0.59532,0.50403 c 0.55943,0.47366 0.71575,0.6866 0.50403,0.6866 -0.0502,0 -0.31811,-0.26789 -0.59532,-0.59532 z m 76.62202,-2.15041 c 0,-0.0549 0.20835,-0.2633 0.46302,-0.46302 0.41965,-0.32911 0.42899,-0.31975 0.0999,0.0999 -0.34565,0.44073 -0.56292,0.58089 -0.56292,0.36313 z M 73.08458,195.6347 c 0,-0.0455 0.386953,-0.43249 0.859896,-0.8599 l 0.859896,-0.7771 -0.777108,0.85989 c -0.724376,0.80155 -0.942684,0.98152 -0.942684,0.77711 z m 62.81452,-4.28283 c 0,-2.47386 0.0394,-3.5215 0.0884,-2.3281 0.0489,1.1934 0.0492,3.21746 0,4.49792 -0.0486,1.28045 -0.0886,0.30403 -0.0889,-2.16982 z m 29.36764,3.77031 -0.50403,-0.59531 0.59531,0.50402 c 0.55943,0.47367 0.71575,0.6866 0.50403,0.6866 -0.0502,0 -0.31811,-0.26789 -0.59531,-0.59531 z m 58.06741,-0.39688 c -0.32908,-0.41964 -0.31974,-0.429 0.0999,-0.0999 0.25466,0.19972 0.46302,0.40808 0.46302,0.46302 0,0.21776 -0.21727,0.0776 -0.56293,-0.36313 z m -2.38125,-2.38125 c -0.32908,-0.41964 -0.31974,-0.429 0.0999,-0.0999 0.44072,0.34564 0.58089,0.56291 0.36312,0.56291 -0.0549,0 -0.26329,-0.20836 -0.46303,-0.46302 z m -121.567413,-3.0427 -0.504031,-0.59532 0.595312,0.50403 c 0.559432,0.47366 0.715752,0.6866 0.504031,0.6866 -0.05022,0 -0.318108,-0.26789 -0.595312,-0.59531 z m -37.148823,-1.09209 c 0,-0.0549 0.208359,-0.2633 0.46302,-0.46302 0.419656,-0.32911 0.428996,-0.31975 0.09991,0.0999 -0.345652,0.44073 -0.562927,0.58088 -0.562927,0.36312 z m 48.418746,-0.26458 c 0,-0.0549 0.20836,-0.2633 0.46303,-0.46302 0.41965,-0.32911 0.42899,-0.31975 0.0999,0.0999 -0.34565,0.44073 -0.56293,0.58089 -0.56293,0.36313 z m 67.69958,-0.36313 c -0.32909,-0.41964 -0.31975,-0.429 0.0999,-0.0999 0.44072,0.34564 0.5809,0.56291 0.36312,0.56291 -0.0549,0 -0.26329,-0.20835 -0.46302,-0.46302 z m 56.36998,-1.05833 -0.64143,-0.7276 0.7276,0.64143 c 0.40019,0.35279 0.72761,0.68021 0.72761,0.7276 0,0.20751 -0.21426,0.0386 -0.81378,-0.64143 z m -43.37164,-0.19844 c 0.34176,-0.3638 0.68093,-0.66146 0.75369,-0.66146 0.0728,0 -0.14734,0.29766 -0.4891,0.66146 -0.34177,0.3638 -0.68094,0.66146 -0.7537,0.66146 -0.0728,0 0.14735,-0.29766 0.48911,-0.66146 z M 77.908464,184.86957 c 0,-0.50932 0.05445,-0.71768 0.120994,-0.46302 0.06657,0.25467 0.06657,0.67138 0,0.92605 -0.06654,0.25466 -0.120994,0.0463 -0.120994,-0.46303 z M 252.06465,173.62478 c 8e-5,-6.54843 0.0345,-9.18944 0.0765,-5.86891 0.042,3.32053 0.042,8.67835 -1e-4,11.90625 -0.0421,3.2279 -0.0764,0.5111 -0.0764,-6.03734 z m -174.166002,9.525 c 0.0053,-0.43656 0.06469,-0.58312 0.131789,-0.32569 0.06707,0.25743 0.06268,0.61462 -0.0098,0.79375 -0.07247,0.17913 -0.127344,-0.0315 -0.121973,-0.46806 z m 7.621349,-5.02708 c 0.341762,-0.3638 0.680932,-0.66146 0.753692,-0.66146 0.07276,0 -0.147346,0.29766 -0.489108,0.66146 -0.341763,0.3638 -0.680932,0.66146 -0.753693,0.66146 -0.07276,0 0.147347,-0.29766 0.489109,-0.66146 z m 145.063743,-3.57188 c 0,-0.65484 0.0516,-0.92273 0.11464,-0.59531 0.0631,0.32742 0.0631,0.86321 0,1.19063 -0.063,0.32742 -0.11464,0.0595 -0.11464,-0.59532 z M 84.726247,167.0597 c 0,-0.0455 0.386953,-0.43249 0.859896,-0.85989 l 0.859896,-0.77711 -0.777108,0.8599 c -0.724376,0.80154 -0.942684,0.98151 -0.942684,0.7771 z m -45.958215,-3.35679 c 0,-0.80037 0.0496,-1.12779 0.110222,-0.72761 0.06062,0.40019 0.06062,1.05503 0,1.45521 -0.06062,0.40019 -0.110222,0.0728 -0.110222,-0.7276 z M 234.745,161.98312 c 0.34176,-0.36381 0.68093,-0.66146 0.75369,-0.66146 0.0728,0 -0.14735,0.29765 -0.48911,0.66146 -0.34176,0.3638 -0.68093,0.66146 -0.75369,0.66146 -0.0728,0 0.14735,-0.29766 0.48911,-0.66146 z m -125.04076,-0.99219 -0.50403,-0.59531 0.59531,0.50403 c 0.55943,0.47366 0.71575,0.68659 0.50403,0.68659 -0.0502,0 -0.31811,-0.26789 -0.59531,-0.59531 z m -55.934243,-1.62125 c 0,-0.0549 0.208359,-0.2633 0.463021,-0.46302 0.419645,-0.32911 0.429003,-0.31975 0.0999,0.0999 -0.345644,0.44073 -0.562917,0.58089 -0.562917,0.36313 z m 48.617183,-0.616 c 0.32743,-0.0631 0.86321,-0.0631 1.19063,0 0.32742,0.0631 0.0595,0.11467 -0.59531,0.11467 -0.65485,0 -0.92274,-0.0516 -0.59532,-0.11467 z m 140.23227,-5.2e-4 c 0.32911,-0.0633 0.80536,-0.0609 1.05833,0.005 0.25294,0.0662 -0.0164,0.118 -0.59841,0.11507 -0.58208,-0.003 -0.78906,-0.0571 -0.45992,-0.12041 z M 42.657497,154.04562 c 0.493654,-0.50933 0.957085,-0.92604 1.029845,-0.92604 0.07276,0 -0.271608,0.41671 -0.765262,0.92604 -0.493654,0.50932 -0.957085,0.92604 -1.029846,0.92604 -0.07276,0 0.271608,-0.41672 0.765263,-0.92604 z m 13.708724,-5.6047 c 0.190995,-0.0764 0.4192,-0.067 0.507119,0.0209 0.08792,0.0879 -0.06835,0.15045 -0.347266,0.13896 -0.308226,-0.0127 -0.370919,-0.0754 -0.159853,-0.15985 z m 6.35,0 c 0.191003,-0.0764 0.419206,-0.067 0.507127,0.0209 0.08792,0.0879 -0.06837,0.15045 -0.347266,0.13896 -0.30824,-0.0127 -0.370919,-0.0754 -0.159861,-0.15985 z m 39.935549,0.005 c 0.1819,-0.0734 0.47956,-0.0734 0.66146,0 0.1819,0.0734 0.0331,0.13346 -0.33073,0.13346 -0.3638,0 -0.51263,-0.0601 -0.33073,-0.13346 z m 6.87916,0 c 0.18191,-0.0734 0.47956,-0.0734 0.66146,0 0.1819,0.0734 0.0331,0.13346 -0.33073,0.13346 -0.3638,0 -0.51263,-0.0601 -0.33073,-0.13346 z m 126.75196,-0.005 c 0.191,-0.0764 0.41921,-0.067 0.50713,0.0209 0.0879,0.0879 -0.0684,0.15045 -0.34727,0.13896 -0.30824,-0.0127 -0.37092,-0.0754 -0.15986,-0.15985 z m -92.07519,-23.036 c 2.22819,-0.0443 5.80007,-0.0442 7.9375,2.1e-4 2.13744,0.0444 0.31438,0.0807 -4.05124,0.0806 -4.36563,-1.2e-4 -6.11445,-0.0365 -3.88626,-0.0808 z"
         id="path3039" />
      <path
         style="fill:#a4cf4e;stroke-width:0.264583"
         d="m -156.50258,200.03205 c 0.25744,-0.0671 0.61462,-0.0627 0.79375,0.01 0.17914,0.0725 -0.0315,0.12736 -0.46805,0.12197 -0.43656,-0.005 -0.58313,-0.0647 -0.3257,-0.13177 z m 4.2283,0.001 c 0.25466,-0.0666 0.67138,-0.0666 0.92604,0 0.25467,0.0666 0.0463,0.121 -0.46302,0.121 -0.50932,0 -0.71768,-0.0545 -0.46302,-0.121 z m 35.33842,0.002 c 0.19099,-0.0764 0.4192,-0.067 0.50711,0.0209 0.0879,0.0879 -0.0684,0.15045 -0.34726,0.13896 -0.30823,-0.0127 -0.37092,-0.0754 -0.15985,-0.15985 z m 3.0312,-0.003 c 0.25743,-0.0671 0.61462,-0.0627 0.79375,0.01 0.17913,0.0725 -0.0315,0.12736 -0.46805,0.12197 -0.43657,-0.005 -0.58313,-0.0647 -0.3257,-0.13177 z m 21.823092,0.008 c 0.181901,-0.0734 0.479558,-0.0734 0.661459,0 0.181901,0.0734 0.03307,0.13345 -0.33073,0.13345 -0.363802,0 -0.51263,-0.0601 -0.330729,-0.13345 z m 3.191537,-0.006 c 0.190995,-0.0764 0.4192,-0.067 0.507119,0.0209 0.08792,0.0879 -0.06835,0.15045 -0.347266,0.13896 -0.308226,-0.0127 -0.370919,-0.0754 -0.159853,-0.15985 z m 84.6666676,0 c 0.1909948,-0.0764 0.4192006,-0.067 0.5071189,0.0209 0.087918,0.0879 -0.068352,0.15045 -0.3472656,0.13896 -0.3082263,-0.0127 -0.3709194,-0.0754 -0.1598533,-0.15985 z m 3.0312069,-0.003 c 0.25743169,-0.0671 0.61461919,-0.0627 0.79375005,0.01 0.17913086,0.0725 -0.0314933,0.12737 -0.46805586,0.12197 -0.43656249,-0.005 -0.58312579,-0.0647 -0.32569419,-0.13177 z m 21.8230905,0.008 c 0.181901,-0.0734 0.479557,-0.0734 0.661458,0 0.181901,0.0734 0.03307,0.13345 -0.330729,0.13345 -0.363802,0 -0.51263,-0.06 -0.330729,-0.13345 z m 3.439583,0 c 0.181901,-0.0734 0.479557,-0.0734 0.661459,0 0.181901,0.0734 0.03307,0.13345 -0.33073,0.13345 -0.363802,0 -0.51263,-0.06 -0.330729,-0.13345 z m 3.191537,-0.27009 c 0.190994,-0.0764 0.4192,-0.067 0.507119,0.0209 0.08792,0.0879 -0.06835,0.15045 -0.347266,0.13897 -0.308226,-0.0127 -0.370919,-0.0754 -0.159853,-0.15986 z m -63.855641,-15.82653 c -3.7e-5,-8.44021 0.03341,-11.93128 0.07433,-7.75795 0.04092,4.17334 0.04094,11.07896 6.6e-5,15.34583 -0.04088,4.26688 -0.07436,0.85233 -0.07439,-7.58788 z m 15.610914,-1.05833 c -3.1e-5,-9.02229 0.0332,-12.75158 0.07385,-8.28731 0.04065,4.46427 0.04068,11.84615 6.1e-5,16.40417 -0.04062,4.55802 -0.07388,0.90543 -0.07391,-8.11686 z m 36.49524,15.14739 -0.504029,-0.59531 0.595312,0.50403 c 0.327422,0.27722 0.595313,0.54511 0.595313,0.59531 0,0.21174 -0.212934,0.0554 -0.686596,-0.50403 z m -187.313837,-1.59464 c -0.0713,-0.18583 -0.0971,-2.77544 -0.0572,-5.75469 l 0.0724,-5.41681 0.13169,5.75493 c 0.0724,3.16522 0.0982,5.75483 0.0573,5.75469 -0.041,-1.3e-4 -0.1328,-0.15229 -0.20411,-0.33812 z m 33.21918,-0.80325 c 0,-0.0455 0.38695,-0.43249 0.8599,-0.8599 l 0.85989,-0.7771 -0.7771,0.85989 c -0.72437,0.80155 -0.94269,0.98152 -0.94269,0.77711 z m 31.17123,-4.86045 c 0.19099,-0.0764 0.4192,-0.067 0.50711,0.0209 0.0879,0.0879 -0.0683,0.15045 -0.34726,0.13896 -0.30823,-0.0127 -0.37092,-0.0754 -0.15985,-0.15985 z m 108.10675965,-1.4729 -0.50402861,-0.59532 0.5953125,0.50403 c 0.32742186,0.27722 0.59531256,0.54511 0.59531256,0.59531 0,0.21174 -0.2129341,0.0554 -0.68659645,-0.50402 z M -83.317922,188.90447 c -0.329107,-0.41964 -0.319749,-0.429 0.0999,-0.0999 0.254662,0.19972 0.463021,0.40808 0.463021,0.46302 0,0.21777 -0.217273,0.0776 -0.562917,-0.36312 z m -66.112088,-0.69521 c 0,-0.0549 0.20836,-0.2633 0.46302,-0.46302 0.41965,-0.32911 0.42901,-0.31975 0.0999,0.0999 -0.34564,0.44073 -0.56292,0.58088 -0.56292,0.36312 z m 161.39584,-0.26458 c 0,-0.0549 0.208359,-0.2633 0.46302,-0.46302 0.419645,-0.32911 0.429004,-0.31975 0.0999,0.0999 -0.345643,0.44073 -0.562916,0.58089 -0.562916,0.36313 z m -95.921699,-12.86469 c 0,-6.76672 0.03426,-9.53492 0.07614,-6.15156 0.04188,3.38336 0.04188,8.91976 0,12.30312 -0.04188,3.38336 -0.07614,0.61516 -0.07614,-6.15156 z m -45.344911,11.22275 c 0.0127,-0.30823 0.0754,-0.37092 0.15985,-0.15986 0.0764,0.191 0.067,0.4192 -0.0209,0.50712 -0.0879,0.0879 -0.15045,-0.0684 -0.13896,-0.34726 z m -4.43412,-2.22692 c 0,-0.94588 0.048,-1.33283 0.10671,-0.85989 0.0587,0.47294 0.0587,1.24685 0,1.71979 -0.0587,0.47294 -0.10671,0.086 -0.10671,-0.8599 z m 120.036146,-5.37445 c 0,-0.0455 0.386953,-0.43249 0.859896,-0.8599 l 0.859896,-0.7771 -0.777106,0.85989 c -0.72437,0.80155 -0.942686,0.98151 -0.942686,0.77711 z M -126.27896,166.61333 c 0.26339,-0.29105 0.53842,-0.52917 0.61118,-0.52917 0.0728,0 -0.0832,0.23812 -0.3466,0.52917 -0.26339,0.29104 -0.53842,0.52916 -0.61118,0.52916 -0.0728,0 0.0832,-0.23812 0.3466,-0.52916 z m 112.315623,0.44637 c 0,-0.0455 0.386953,-0.43249 0.859895,-0.85989 l 0.859896,-0.77711 -0.777105,0.8599 c -0.724371,0.80154 -0.942686,0.98151 -0.942686,0.7771 z m -85.683227,-0.71096 c 0,-0.3638 0.06006,-0.51263 0.133454,-0.33073 0.0734,0.1819 0.0734,0.47956 0,0.66146 -0.0734,0.1819 -0.133454,0.0331 -0.133454,-0.33073 z m -73.289586,-1.5875 c 0,-0.3638 0.0601,-0.51263 0.13346,-0.33073 0.0734,0.1819 0.0734,0.47956 0,0.66146 -0.0734,0.1819 -0.13346,0.0331 -0.13346,-0.33073 z m 0,-2.11666 c 0,-0.36381 0.0601,-0.51263 0.13346,-0.33073 0.0734,0.1819 0.0734,0.47955 0,0.66145 -0.0734,0.18191 -0.13346,0.0331 -0.13346,-0.33072 z m 121.401979,-0.66146 c 0.341775,-0.36381 0.680939,-0.66146 0.7537,-0.66146 0.07276,0 -0.147341,0.29765 -0.489117,0.66146 -0.341776,0.3638 -0.68094,0.66146 -0.7537,0.66146 -0.07276,0 0.147341,-0.29766 0.489117,-0.66146 z m -50.155189,-0.99219 -0.7771,-0.8599 0.85989,0.77711 c 0.80155,0.72437 0.98151,0.94269 0.77711,0.94269 -0.0455,0 -0.43249,-0.38696 -0.8599,-0.8599 z m 112.70401,0 -0.504029,-0.59531 0.595313,0.50403 c 0.327422,0.27721 0.595312,0.5451 0.595312,0.59531 0,0.21173 -0.212934,0.0554 -0.686596,-0.50403 z m -168.91132,-1.62125 c 0,-0.0549 0.20836,-0.2633 0.46302,-0.46302 0.41964,-0.32911 0.429,-0.31975 0.0999,0.0999 -0.34564,0.44073 -0.56291,0.58089 -0.56291,0.36313 z m 48.88177,-0.616 c 0.32742,-0.0631 0.8632,-0.0631 1.19062,0 0.32743,0.0631 0.0595,0.11467 -0.59531,0.11467 -0.65484,0 -0.92273,-0.0516 -0.59531,-0.11467 z m 64.161458,0.004 c 0.254661,-0.0665 0.67138,-0.0665 0.926042,0 0.254661,0.0666 0.0463,0.12101 -0.463021,0.12101 -0.509323,0 -0.717683,-0.0545 -0.463021,-0.12101 z m 48.5510423,-0.004 c 0.3274218,-0.0631 0.8632031,-0.0631 1.190625,0 0.3274218,0.0631 0.059531,0.11467 -0.5953125,0.11467 -0.6548438,0 -0.9227344,-0.0516 -0.5953125,-0.11467 z M -151.06712,157.70134 c 0.191,-0.0764 0.4192,-0.067 0.50712,0.0209 0.0879,0.0879 -0.0684,0.15045 -0.34726,0.13897 -0.30823,-0.0127 -0.37092,-0.0754 -0.15986,-0.15985 z m 95.564199,-1.51075 c 0,-0.0572 0.184777,-0.17489 0.410617,-0.26155 0.235458,-0.0903 0.341662,-0.046 0.248968,0.10398 -0.155379,0.25141 -0.659585,0.37186 -0.659585,0.15757 z m -113.638539,-2.01268 c 0.56838,-0.58208 1.09296,-1.05833 1.16572,-1.05833 0.0728,0 -0.33275,0.47625 -0.90114,1.05833 -0.56839,0.58208 -1.09297,1.05833 -1.16573,1.05833 -0.0728,0 0.33276,-0.47625 0.90115,-1.05833 z m 143.767289,0.0661 c -0.329107,-0.41964 -0.319749,-0.429 0.0999,-0.0999 0.44073,0.34564 0.580887,0.56292 0.363125,0.56292 -0.05494,0 -0.2633,-0.20836 -0.463021,-0.46303 z m -62.427944,-0.79375 -0.641432,-0.7276 0.727604,0.64143 c 0.680056,0.59952 0.84894,0.81378 0.641432,0.81378 -0.04739,0 -0.374814,-0.32742 -0.727604,-0.72761 z m 35.20961,0.0985 c 0,-0.0549 0.20836,-0.2633 0.463021,-0.46302 0.419645,-0.32911 0.429004,-0.31975 0.0999,0.0999 -0.345643,0.44073 -0.562917,0.58089 -0.562917,0.36313 z m 25.36625,-1.15688 c -0.329107,-0.41964 -0.319749,-0.429 0.0999,-0.0999 0.440729,0.34564 0.580887,0.56291 0.363124,0.56291 -0.05494,0 -0.2633,-0.20836 -0.463021,-0.46302 z m -83.888775,-3.68647 c 0.19099,-0.0764 0.4192,-0.067 0.50712,0.0209 0.0879,0.0879 -0.0683,0.15045 -0.34727,0.13896 -0.30822,-0.0127 -0.37092,-0.0754 -0.15985,-0.15985 z m -44.46654,-0.25907 c 0.1819,-0.0734 0.47956,-0.0734 0.66146,0 0.1819,0.0734 0.0331,0.13345 -0.33073,0.13345 -0.3638,0 -0.51263,-0.06 -0.33073,-0.13345 z m 6.63112,-0.005 c 0.191,-0.0764 0.4192,-0.067 0.50712,0.0209 0.0879,0.0879 -0.0684,0.15046 -0.34727,0.13897 -0.30822,-0.0127 -0.37091,-0.0754 -0.15985,-0.15985 z m 40.20013,0.005 c 0.1819,-0.0734 0.47956,-0.0734 0.66146,0 0.1819,0.0734 0.0331,0.13345 -0.33073,0.13345 -0.3638,0 -0.51263,-0.06 -0.33073,-0.13345 z m 6.87917,0 c 0.1819,-0.0734 0.47956,-0.0734 0.66146,0 0.1819,0.0734 0.0331,0.13345 -0.33073,0.13345 -0.3638,0 -0.51263,-0.06 -0.33073,-0.13345 z m 60.076953,-0.005 c 0.190995,-0.0764 0.4192,-0.067 0.507119,0.0209 0.08792,0.0879 -0.06835,0.15046 -0.347266,0.13897 -0.308226,-0.0127 -0.370919,-0.0754 -0.159853,-0.15985 z m 4.7625,0 c 0.190995,-0.0764 0.4192,-0.067 0.507119,0.0209 0.08792,0.0879 -0.06835,0.15046 -0.347266,0.13897 -0.308226,-0.0127 -0.370919,-0.0754 -0.159853,-0.15985 z m 40.9938806,0.005 c 0.181901,-0.0734 0.4795573,-0.0734 0.6614583,0 0.1819011,0.0734 0.033073,0.13345 -0.3307291,0.13345 -0.3638021,0 -0.5126303,-0.06 -0.3307292,-0.13345 z m 6.8791664,0 c 0.181901,-0.0734 0.479558,-0.0734 0.661459,0 0.181901,0.0734 0.03307,0.13345 -0.330729,0.13345 -0.363803,0 -0.512631,-0.06 -0.33073,-0.13345 z"
         id="path3037" />
      <path
         style="fill:#919295;stroke-width:0.264583"
         d="m 71.257394,232.42843 c -0.175974,-0.47056 -0.112924,-0.63727 0.300858,-0.79549 1.0423,-0.39856 2.133865,-1.36021 2.880704,-2.53788 0.840925,-1.326 0.951177,-1.75667 0.395076,-1.54327 -0.28784,0.11045 -0.407432,-0.35534 -0.553244,-2.1545 -0.102314,-1.26249 -0.453813,-4.35176 -0.781156,-6.86505 l -0.595127,-4.56963 0.68535,-0.15132 c 0.376952,-0.0832 0.877147,-0.20255 1.111568,-0.26516 0.496702,-0.13268 0.503025,-0.0958 1.196657,6.96821 l 0.473366,4.82081 3.00572,-5.81299 3.005719,-5.813 h 1.171681 c 0.644419,0 1.171681,0.0679 1.171681,0.15091 0,0.1524 -0.79121,1.61044 -6.259168,11.53446 -2.984739,5.41716 -4.025213,6.79829 -5.56141,7.38235 -1.006131,0.38253 -1.406551,0.29787 -1.648275,-0.34845 z m -102.151279,-1.51615 c -0.238212,-0.44511 -0.12015,-0.66876 0.784439,-1.486 0.585674,-0.52912 1.064858,-1.06183 1.064858,-1.1838 0,-0.12197 -0.297656,-0.51943 -0.661458,-0.88323 -0.839303,-0.8393 -0.843836,-1.8501 -0.01201,-2.68191 0.801082,-0.80108 1.698659,-0.8275 2.65144,-0.078 0.662509,0.52112 0.716235,0.69398 0.610809,1.96528 -0.132903,1.60264 -0.946957,2.85817 -2.655726,4.096 -1.26732,0.91804 -1.41459,0.93884 -1.782337,0.2517 z m -100.768425,-3.37864 c -0.13342,-0.25467 -0.32664,-0.85441 -0.42937,-1.33276 l -0.18678,-0.86974 -1.02015,0.92165 c -1.16518,1.05267 -2.82989,1.59415 -4.29631,1.39746 -2.24178,-0.30069 -3.14935,-1.69569 -3.13307,-4.81573 0.0228,-4.36536 2.62422,-8.18279 6.24287,-9.16101 1.01961,-0.27563 3.24699,-0.19009 4.12995,0.1586 0.35217,0.13908 0.52401,-0.33707 1.04215,-2.88771 0.34125,-1.67984 0.69216,-3.17028 0.7798,-3.31208 0.0876,-0.14181 0.60386,-0.1857 1.14716,-0.0975 0.74461,0.12083 0.95742,0.26552 0.86436,0.58764 -0.53775,1.86148 -3.35357,15.74854 -3.37233,16.63172 -0.0131,0.61771 0.12725,1.3052 0.31195,1.52774 0.1847,0.22255 0.28908,0.43914 0.23196,0.4813 -0.0571,0.0422 -0.44732,0.33695 -0.86713,0.65507 -0.92281,0.69928 -1.13045,0.71586 -1.44506,0.11538 z m -3.05021,-2.08397 c 0.49877,-0.23668 1.3502,-0.93409 1.89207,-1.5498 0.88486,-1.00541 1.05017,-1.44006 1.62259,-4.26603 0.35054,-1.73061 0.68526,-3.2812 0.74381,-3.44575 0.0585,-0.16456 -0.27579,-0.43245 -0.74298,-0.59532 -3.75892,-1.31036 -7.14615,2.12799 -7.22381,7.33283 -0.0259,1.73816 0.0361,1.99325 0.59567,2.4474 0.76428,0.62035 1.90759,0.64851 3.11265,0.0767 z m 63.188805,1.62944 c -0.210854,-0.50465 -0.383373,-1.11381 -0.383373,-1.3537 0,-0.31954 -0.278969,-0.18413 -1.04334,0.50643 -2.345523,2.11904 -5.853723,1.9102 -7.063676,-0.42049 -0.646946,-1.24618 -0.588545,-4.13869 0.126822,-6.28136 1.239931,-3.71385 3.9134,-5.92488 7.186444,-5.9434 0.945885,-0.005 2.025301,0.0763 2.398702,0.18153 0.677423,0.19084 0.680243,0.18468 1.289804,-2.81596 0.335991,-1.65397 0.690221,-3.13557 0.787175,-3.29244 0.105754,-0.17112 0.571497,-0.2211 1.164098,-0.12493 0.74885,0.12152 0.956241,0.26368 0.857292,0.58764 -0.163896,0.53661 -3.208417,14.91505 -3.423883,16.17006 -0.10178,0.59284 -0.01516,1.20201 0.240729,1.69301 0.219842,0.42183 0.367818,0.78663 0.328837,0.81067 -0.03898,0.024 -0.414359,0.30397 -0.834165,0.62209 -1.017482,0.77102 -1.181889,0.73684 -1.631466,-0.33915 z m -2.782512,-1.71916 c 0.560652,-0.28602 1.419111,-0.98707 1.907688,-1.55789 0.765752,-0.89465 0.97554,-1.4709 1.520397,-4.17631 0.347636,-1.72616 0.682352,-3.27311 0.74381,-3.43766 0.06146,-0.16456 -0.270505,-0.43245 -0.737698,-0.59532 -3.774948,-1.31595 -7.145822,2.1058 -7.223813,7.33283 -0.02593,1.73816 0.03615,1.99325 0.595669,2.4474 0.799275,0.64875 1.905575,0.64423 3.193947,-0.013 z m 38.256975,1.8561 c -0.222017,-0.42934 -0.403669,-1.04801 -0.403669,-1.37482 0,-0.56706 -0.03928,-0.55619 -0.859896,0.23803 -2.181635,2.11148 -5.31346,2.21624 -6.526961,0.21832 -1.953917,-3.21694 0.386135,-10.23624 4.036285,-12.10737 1.553482,-0.79634 4.545449,-0.96747 6.156671,-0.35214 1.081942,0.4132 1.200502,0.53884 1.094052,1.15944 -0.06566,0.38281 -0.559366,2.81478 -1.097118,5.40438 -0.910479,4.38449 -0.950185,4.76357 -0.577226,5.51119 0.384771,0.77129 0.372303,0.82766 -0.317338,1.43484 -0.922835,0.81249 -1.02089,0.8039 -1.5048,-0.13187 z m -2.503148,-1.93529 c 1.646473,-1.10956 2.28174,-2.39905 3.060824,-6.21299 0.393779,-1.9277 0.626076,-3.59458 0.516215,-3.70416 -0.109857,-0.10959 -0.843108,-0.19297 -1.629444,-0.1853 -2.01726,0.0196 -3.391448,1.02161 -4.571408,3.33308 -0.734748,1.43933 -0.91092,2.12335 -1.027292,3.98866 -0.127812,2.04868 -0.08965,2.3022 0.423812,2.81567 0.744511,0.74451 2.092307,0.72991 3.227293,-0.035 z m 73.801563,2.54321 c -1.623742,-0.65849 -1.681697,-1.79787 -0.396875,-7.80234 0.509323,-2.38026 0.926042,-4.41712 0.926042,-4.52636 0,-0.10924 -0.396097,-0.19861 -0.880219,-0.19861 -0.827518,0 -0.873241,-0.0475 -0.763719,-0.79375 0.106526,-0.72581 0.20452,-0.79375 1.144801,-0.79375 0.818399,0 1.028304,-0.0984 1.028304,-0.48204 0,-0.26511 0.189986,-1.03961 0.422193,-1.7211 0.329739,-0.96773 0.575989,-1.27314 1.124479,-1.39464 0.386257,-0.0856 0.901258,-0.20908 1.144444,-0.27448 0.40377,-0.10858 0.398201,0.0256 -0.06412,1.54594 -0.721381,2.37218 -0.742619,2.32632 1.077174,2.32632 0.873125,0 1.5875,0.0539 1.5875,0.11984 0,0.0659 -0.138173,0.4231 -0.307054,0.79375 -0.278008,0.61016 -0.453194,0.67391 -1.852083,0.67391 -0.849765,0 -1.545029,0.0527 -1.545029,0.11704 0,0.0644 -0.416719,2.03577 -0.926042,4.38087 -1.141598,5.25633 -1.170615,6.00553 -0.246221,6.35699 0.373901,0.14215 0.969213,0.18583 1.322916,0.0971 0.555112,-0.13933 0.643097,-0.0691 0.643097,0.51311 0,0.37099 -0.116227,0.74636 -0.258281,0.83416 -0.392941,0.24285 -2.731464,0.41051 -3.181303,0.22808 z m 16.024686,-0.41194 C 51.046,227.08673 50.85958,226.46653 50.85958,226.0338 v -0.78678 l -0.859896,0.83224 c -1.618768,1.56671 -3.90012,2.07815 -5.524034,1.23839 -2.234319,-1.15541 -2.379533,-5.88769 -0.298024,-9.7121 0.893794,-1.6422 2.871316,-3.43688 4.23831,-3.84644 1.823024,-0.54619 4.913217,-0.3219 6.103279,0.44299 0.287567,0.18483 0.22896,0.78049 -0.318802,3.2402 -1.507345,6.76865 -1.6177,7.57905 -1.16214,8.53437 0.445921,0.93511 0.496864,0.84525 -1.034621,1.82496 -0.190172,0.12166 -0.480127,-0.0331 -0.729803,-0.3896 z m -2.624596,-2.08508 c 1.609109,-0.99449 2.310707,-2.40827 3.115768,-6.27856 0.403201,-1.93837 0.65641,-3.60099 0.562684,-3.69472 -0.396898,-0.3969 -2.970604,-0.15538 -3.856267,0.36188 -1.243558,0.72627 -2.54285,2.50156 -3.029032,4.13872 -0.556655,1.87445 -0.537912,4.90966 0.03422,5.54187 0.59045,0.65243 2.056744,0.62046 3.172624,-0.0692 z m 111.592387,2.36901 c -2.03978,-0.45758 -3.27922,-2.31211 -3.28266,-4.9118 -0.005,-3.81476 2.05981,-7.56039 4.87193,-8.83759 2.23314,-1.01423 5.40835,-0.4879 6.54849,1.0855 1.12009,1.5457 1.10564,5.38586 -0.0302,8.03566 -1.43332,3.34382 -4.93143,5.34072 -8.10757,4.62823 z m 2.84565,-1.82387 c 1.88206,-0.52274 3.42206,-3.18543 3.74454,-6.47439 0.20084,-2.04812 -0.21574,-3.25871 -1.34811,-3.91775 -2.65509,-1.54524 -5.71645,1.60741 -6.06745,6.24836 -0.18431,2.43716 0.18246,3.52949 1.35681,4.04084 0.9983,0.43469 1.10302,0.43935 2.31421,0.10294 z m 26.14938,1.8528 c -0.65485,-0.10714 -1.64222,-0.38354 -2.19414,-0.61421 l -1.00351,-0.41941 0.42608,-0.82396 c 0.31523,-0.6096 0.54189,-0.77467 0.87122,-0.63449 2.63253,1.12053 4.53808,1.22005 5.89611,0.30793 0.7184,-0.48251 0.91583,-0.80667 0.98269,-1.61345 0.10829,-1.30693 -0.33737,-1.78659 -2.65073,-2.85289 -2.32971,-1.07383 -3.12147,-1.9774 -3.12147,-3.56224 0,-1.62559 0.57366,-2.59339 2.05009,-3.45864 1.09017,-0.63887 1.52937,-0.73405 3.37199,-0.7307 1.40951,0.003 2.45453,0.15352 3.12245,0.45107 l 1.00393,0.44723 -0.46082,0.7362 c -0.25345,0.40491 -0.47858,0.76753 -0.50028,0.80582 -0.0217,0.0383 -0.47064,-0.11054 -0.99761,-0.33073 -2.82892,-1.18199 -6.06081,0.18786 -5.22184,2.2133 0.22127,0.53421 0.88143,0.98944 2.62655,1.81124 1.51066,0.71141 2.50261,1.35967 2.81879,1.84213 0.68421,1.04414 0.61473,2.9623 -0.15224,4.2033 -1.03791,1.67936 -4.11004,2.67362 -6.86726,2.2225 z m 12.78344,0.005 c -1.41261,-0.56915 -1.44721,-1.76728 -0.21605,-7.47809 0.50913,-2.36171 0.92585,-4.44285 0.92604,-4.62475 1.8e-4,-0.19275 -0.33817,-0.33073 -0.811,-0.33073 -0.72901,0 -0.80283,-0.0738 -0.72761,-0.7276 0.072,-0.62552 0.21744,-0.7388 1.03685,-0.80739 0.91551,-0.0766 0.96539,-0.13409 1.26331,-1.45521 0.1706,-0.75648 0.40889,-1.53286 0.52951,-1.72528 0.1878,-0.29953 2.14815,-0.92964 2.32915,-0.74864 0.0346,0.0346 -0.17042,0.81252 -0.45558,1.72874 -0.28517,0.91623 -0.51848,1.77432 -0.51848,1.90687 0,0.13256 0.78063,0.24101 1.73474,0.24101 h 1.73477 l -0.4689,0.79375 c -0.42582,0.72086 -0.59584,0.79375 -1.85142,0.79375 -0.76039,0 -1.44759,0.10526 -1.5271,0.2339 -0.22156,0.3585 -2.0039,8.71388 -1.99929,9.3725 0.007,1.05489 0.42129,1.37705 1.70611,1.32787 1.10016,-0.0421 1.20026,0.007 1.20026,0.58288 0,0.50126 -0.20127,0.68471 -0.99219,0.90436 -1.17753,0.32702 -2.10185,0.33087 -2.89312,0.0121 z m 23.92749,-0.25414 c -0.62764,-0.49701 -0.7276,-0.76637 -0.7276,-1.96062 0,-0.76146 0.35859,-3.04477 0.79684,-5.07403 0.43826,-2.02926 0.86445,-4.01699 0.94705,-4.41717 0.14055,-0.68075 0.0922,-0.72761 -0.75102,-0.72761 -0.84719,0 -0.89437,-0.0467 -0.78681,-0.77944 0.0995,-0.6782 0.23825,-0.78989 1.06807,-0.8599 0.92585,-0.0781 0.96451,-0.12503 1.32516,-1.60865 0.38449,-1.58168 0.65376,-1.85882 2.06529,-2.12572 l 0.82812,-0.15659 -0.49739,1.5981 c -0.73372,2.35741 -0.73962,2.3447 1.09011,2.3447 0.87312,0 1.5875,0.0539 1.5875,0.11984 0,0.0659 -0.13817,0.4231 -0.30705,0.79375 -0.27803,0.61016 -0.45321,0.67391 -1.85209,0.67391 -0.84976,0 -1.54503,0.0423 -1.54503,0.094 0,0.0517 -0.41672,1.98237 -0.92604,4.29037 -1.14562,5.19132 -1.18076,6.11519 -0.24622,6.47051 0.37391,0.14215 0.96922,0.18583 1.32291,0.0971 0.55513,-0.13933 0.6431,-0.0691 0.6431,0.51311 0,0.84777 -0.21598,0.97682 -1.92503,1.15025 -1.15218,0.11692 -1.50336,0.0444 -2.10987,-0.4359 z m 36.75462,-0.0654 c -0.20767,-0.33255 -0.44995,-0.91763 -0.53837,-1.30018 l -0.16076,-0.69553 -0.92456,0.87197 c -1.15033,1.08491 -2.4987,1.5463 -4.01836,1.37501 -2.02443,-0.22818 -3.00059,-1.65023 -3.00059,-4.37127 0,-4.01448 2.57482,-8.43749 5.49008,-9.43082 2.07621,-0.70744 5.33731,-0.44882 6.36603,0.50484 0.28507,0.26425 0.25345,0.69351 -0.17769,2.41264 -1.44492,5.76138 -1.7875,8.41537 -1.24799,9.66799 0.13118,0.30459 -0.0503,0.60166 -0.61185,1.00151 l -0.79832,0.56847 z m -2.51338,-2.18331 c 1.49744,-1.01753 2.09444,-2.2658 2.896,-6.05508 0.40161,-1.89869 0.67699,-3.53829 0.61195,-3.64354 -0.24812,-0.40147 -1.70167,-0.51654 -2.79749,-0.22146 -2.5468,0.68578 -4.45855,3.86745 -4.54607,7.5659 -0.0361,1.52612 0.0519,1.99522 0.45934,2.4474 0.69998,0.7769 2.15487,0.73673 3.37627,-0.0932 z m -422.82688,0.45389 c -1.79973,-4.07765 -3.57275,-6.68044 -4.55072,-6.68044 -0.53935,0 -0.52048,-0.0561 -1.42354,4.23334 -0.96356,4.57683 -0.8011,4.23333 -2.0022,4.23333 -0.57228,0 -1.04051,-0.11144 -1.04051,-0.24765 0,-0.30933 3.66554,-17.69173 3.8755,-18.37804 0.14392,-0.47046 0.36046,-0.49067 3.47328,-0.32426 4.19263,0.22414 5.39611,0.68147 6.14699,2.33593 1.56895,3.45694 -0.75728,7.40497 -4.73819,8.04154 l -1.08056,0.17279 0.93167,1.26919 c 0.86798,1.18243 2.7468,4.91771 3.15396,6.2704 0.14463,0.48049 0.045,0.6461 -0.51731,0.85989 -0.38305,0.14564 -0.83753,0.26466 -1.00996,0.2645 -0.17242,-1.5e-4 -0.72071,-0.92289 -1.21841,-2.05052 z m 0.23768,-8.66183 c 0.98374,-0.50871 2.07091,-1.92814 2.28087,-2.97795 0.23996,-1.19981 -0.33173,-2.65278 -1.22566,-3.11505 -0.45785,-0.23676 -1.49096,-0.39227 -2.60597,-0.39227 -2.12384,0 -1.88115,-0.32114 -2.67135,3.53485 -0.80751,3.94044 -0.89991,3.71742 1.45766,3.51813 1.09576,-0.0926 2.33976,-0.34809 2.76445,-0.56771 z m 9.53604,10.24921 c -1.87622,-0.94265 -2.69034,-3.32981 -2.14382,-6.28617 0.84595,-4.57618 3.76806,-7.52888 7.45724,-7.53531 3.63995,-0.006 5.19536,3.56853 2.65705,6.10685 -1.16106,1.16105 -2.29449,1.52775 -5.39135,1.74426 l -2.31041,0.16152 -0.1632,0.86994 c -0.20735,1.1053 0.29172,2.63778 1.02667,3.15256 0.9401,0.65847 3.24579,0.51519 4.61417,-0.28674 1.12124,-0.65709 1.18261,-0.66501 1.53618,-0.19843 0.20256,0.2673 0.37207,0.56471 0.3767,0.66091 0.0182,0.37774 -1.64826,1.53919 -2.57949,1.79782 -1.54434,0.4289 -4.03622,0.33707 -5.07974,-0.18721 z m 4.47727,-7.76007 c 1.62128,-0.3477 2.39663,-1.1978 2.39663,-2.6277 0,-1.24268 -0.54318,-1.71763 -1.9589,-1.71285 -1.38701,0.005 -2.53012,0.83902 -3.44001,2.51079 -0.99459,1.82737 -0.92765,2.11576 0.49109,2.11576 0.64768,0 1.77772,-0.1287 2.51119,-0.286 z m 55.573751,7.73417 c -1.457233,-0.77347 -2.233324,-2.42273 -2.197587,-4.67004 0.05839,-3.67172 1.985909,-7.14291 4.705141,-8.47331 1.251376,-0.61224 1.716005,-0.7005 3.192663,-0.60647 1.506308,0.0959 1.833719,0.2156 2.550428,0.93231 0.638061,0.63806 0.847381,1.10932 0.934365,2.10362 0.251891,2.87934 -1.871948,4.47674 -6.336612,4.76593 l -2.579688,0.1671 v 1.51152 c 0,1.29426 0.104045,1.61556 0.723869,2.23538 0.667877,0.66788 0.857641,0.71631 2.453317,0.62615 1.279938,-0.0723 1.95548,-0.25867 2.599076,-0.71695 0.840674,-0.59862 0.882042,-0.60284 1.242436,-0.12705 0.205044,0.2707 0.37578,0.61125 0.379412,0.75677 0.0094,0.37743 -1.602017,1.42336 -2.660763,1.727 -1.492576,0.42807 -3.979672,0.31282 -5.006057,-0.23196 z m 4.457057,-7.72782 c 1.479748,-0.31735 2.341546,-1.08283 2.584024,-2.29522 0.133704,-0.66852 0.03406,-0.96149 -0.51307,-1.50863 -1.099666,-1.09967 -2.662195,-0.79469 -4.194744,0.81874 -0.672293,0.70777 -1.53539,2.3895 -1.53539,2.99168 0,0.35397 1.994765,0.35038 3.65918,-0.007 z m 33.453843,7.82488 c -4.230159,-1.83896 -1.373653,-12.19188 3.760523,-13.62936 1.45982,-0.40873 3.575518,-0.23612 4.495644,0.36677 0.676635,0.44335 0.679251,0.45782 0.222575,1.23091 -0.539263,0.9129 -0.53562,0.91212 -1.654857,0.35377 -0.576345,-0.28751 -1.249268,-0.38452 -2.045137,-0.29481 -2.039059,0.22983 -3.418758,2.00212 -4.214728,5.41404 -0.707342,3.03201 -0.122843,4.92286 1.622994,5.25038 1.028242,0.1929 3.015205,-0.41815 3.582527,-1.10173 0.281173,-0.33879 0.391221,-0.29427 0.795319,0.32174 0.456621,0.69607 0.453678,0.72698 -0.111493,1.17154 -1.607124,1.26417 -4.65745,1.69749 -6.453367,0.91675 z m 60.5235016,-0.0712 c -2.6543424,-1.33359 -3.1068513,-5.71716 -0.9985058,-9.67282 1.4867626,-2.78945 3.6108191,-4.15125 6.4749072,-4.15125 4.614206,0 4.954151,6.09906 0.412536,7.4015 -0.54968,0.15763 -2.0114501,0.36068 -3.2483772,0.45121 -1.2369271,0.0905 -2.3364322,0.29547 -2.4433451,0.45542 -0.5992442,0.89656 0.09403,3.31339 1.1057732,3.85486 0.9642289,0.51604 3.1889041,0.32315 4.3897891,-0.38061 l 1.114333,-0.65305 0.496414,0.54923 c 0.489638,0.54172 0.48455,0.55913 -0.372822,1.27541 -0.478076,0.39941 -1.325327,0.86285 -1.88278,1.02987 -1.5201005,0.45543 -3.9782966,0.37763 -5.0479224,-0.15977 z m 5.5123084,-8.11553 c 0.955849,-0.49429 1.363165,-1.15 1.357534,-2.18541 -0.0049,-0.9043 -0.203102,-1.22726 -1.015997,-1.65565 -1.416476,-0.74648 -3.8150059,0.67924 -4.6980131,2.79257 -0.7026751,1.68174 -0.6023584,1.78411 1.5861956,1.61858 1.0744518,-0.0812 2.3210785,-0.3378 2.7702805,-0.57009 z m 47.034297,8.17638 c -0.235929,-0.23593 -0.428961,-0.77433 -0.428961,-1.19643 0,-0.42211 0.668708,-3.89619 1.486019,-7.72017 0.881081,-4.12235 1.495769,-7.66475 1.509969,-8.70185 l 0.02394,-1.74917 1.135869,-0.42098 1.135857,-0.42098 v 1.75499 c 0,1.13718 -0.56052,4.39893 -1.592236,9.26538 -0.87571,4.1307 -1.523527,7.6215 -1.43958,7.75733 0.08394,0.13583 0.391636,0.24696 0.683755,0.24696 0.423323,0 0.514128,0.14769 0.4474,0.72761 -0.07631,0.66318 -0.192141,0.73463 -1.308399,0.80693 -0.859282,0.0557 -1.352675,-0.0487 -1.653646,-0.34962 z m 54.312772,-0.19486 c -0.49448,-0.3286 -1.1762,-1.13227 -1.51495,-1.78594 -0.53165,-1.02585 -0.59851,-1.46005 -0.4886,-3.17287 0.0701,-1.0914 0.38338,-2.66322 0.6963,-3.49293 0.68794,-1.82403 2.63766,-4.076 4.10676,-4.74336 1.37345,-0.62392 3.68593,-0.63881 4.89675,-0.0315 1.24925,0.62658 1.63327,1.4625 1.51918,3.30716 -0.0766,1.23908 -0.234,1.66764 -0.84754,2.30803 -0.97861,1.02146 -2.76238,1.59631 -5.63184,1.81498 l -2.31217,0.17619 0.008,1.5512 c 0.007,1.36244 0.0974,1.62806 0.74235,2.18282 1.07717,0.92653 3.41304,0.89825 4.82274,-0.0584 l 1.01677,-0.69001 0.47934,0.59195 c 0.61394,0.75818 0.30459,1.17081 -1.51302,2.01822 -1.85218,0.86352 -4.70003,0.87518 -5.98013,0.0245 z m 5.62528,-7.87796 c 1.28167,-0.65749 1.97612,-2.37689 1.343,-3.32509 -0.72276,-1.08242 -2.4807,-1.07285 -3.91525,0.0213 -0.90987,0.694 -2.32675,3.21014 -2.05515,3.64961 0.21225,0.34342 3.80762,0.0747 4.6274,-0.34585 z m 57.11325,8.01197 c -2.65432,-1.33359 -3.10684,-5.71716 -0.99851,-9.67282 1.48678,-2.78945 3.61082,-4.15125 6.47491,-4.15125 4.61423,0 4.95417,6.09906 0.41254,7.4015 -0.54967,0.15763 -2.01144,0.36068 -3.24837,0.45121 -1.23693,0.0905 -2.33643,0.29547 -2.44335,0.45542 -0.59922,0.89656 0.094,3.31339 1.10578,3.85486 0.96422,0.51604 3.18891,0.32315 4.38978,-0.38061 l 1.11434,-0.65305 0.49642,0.54923 c 0.48963,0.54172 0.48455,0.55913 -0.37283,1.27541 -0.47807,0.39941 -1.32532,0.86285 -1.88277,1.02987 -1.52011,0.45543 -3.97831,0.37763 -5.04794,-0.15977 z m 5.51233,-8.11553 c 1.9254,-0.99566 1.86479,-3.6388 -0.0919,-4.00587 -1.76315,-0.33077 -4.10625,1.64665 -4.53681,3.82875 l -0.17782,0.90122 1.9949,-0.15088 c 1.09718,-0.083 2.36241,-0.34093 2.81162,-0.57322 z m 31.63393,8.20288 c -2.67092,-1.16291 -3.20434,-5.44989 -1.18782,-9.54601 1.43828,-2.92156 3.60786,-4.36541 6.55963,-4.36541 3.47996,0 4.96522,3.63829 2.49407,6.10944 -1.16105,1.16105 -2.2945,1.52775 -5.39134,1.74426 l -2.31042,0.16152 -0.16319,0.86994 c -0.20736,1.1053 0.2917,2.63778 1.02666,3.15256 0.94009,0.65847 3.2458,0.51519 4.61417,-0.28674 1.12126,-0.65709 1.18261,-0.66501 1.5362,-0.19843 0.49006,0.6467 0.48149,0.70008 -0.21775,1.35697 -1.34705,1.2655 -5.11056,1.80725 -6.96021,1.0019 z m 5.40774,-8.20288 c 0.95803,-0.49542 1.36157,-1.14774 1.36157,-2.20099 0,-1.23752 -0.58557,-1.78828 -1.8969,-1.7841 -1.4537,0.005 -2.57591,0.80921 -3.502,2.51079 -1.12276,2.06285 -1.02669,2.21787 1.26704,2.04439 1.07444,-0.0812 2.32108,-0.3378 2.77029,-0.57009 z m 25.78375,8.06144 c -1.23695,-0.75423 -1.7123,-1.65648 -1.86322,-3.53655 -0.31025,-3.86509 2.20446,-8.54405 5.27995,-9.82403 1.26936,-0.52829 3.0907,-0.52164 4.43491,0.0162 1.17764,0.4712 1.29654,0.8157 0.58487,1.69458 -0.46017,0.56827 -0.51121,0.57456 -1.30977,0.1616 -1.13692,-0.58791 -2.60226,-0.53904 -3.67263,0.12249 -1.65251,1.0213 -3.00545,4.2576 -3.00545,7.1891 0,1.38579 0.09,1.6498 0.80637,2.36621 0.72247,0.72246 0.93186,0.79224 2.01191,0.6705 0.66305,-0.0747 1.54552,-0.38723 1.96104,-0.69444 0.93644,-0.69233 1.09406,-0.69427 1.51599,-0.0186 0.44936,0.71955 0.23952,0.9857 -1.36679,1.73364 -1.75154,0.81554 -4.14811,0.86873 -5.37718,0.11933 z m -362.03052,-0.0276 c 0,-0.24606 2.48037,-8.62815 4.79078,-16.18981 l 0.7882,-2.57969 h 1.5711 c 1.41739,0 1.58281,0.0582 1.6909,0.59531 0.12487,0.62049 0.95818,13.06608 0.95209,14.21968 -0.002,0.37718 1.05563,-1.54947 2.46912,-4.49791 1.35992,-2.83674 3.02058,-6.24427 3.69035,-7.5723 l 1.21775,-2.4146 1.667458,-0.12811 c 0.917107,-0.0705 1.69223,-0.11007 1.722496,-0.088 0.08245,0.0601 -2.320844,18.77641 -2.424294,18.87986 -0.0491,0.0491 -0.5534,0.052 -1.12076,0.006 l -1.03156,-0.0827 0.98501,-7.40408 c 0.54175,-4.07224 1.03589,-7.67028 1.09809,-7.99564 0.0622,-0.32536 0.041,-0.54523 -0.0471,-0.48861 -0.0881,0.0566 -1.94457,3.68443 -4.12544,8.06179 l -3.96523,7.95884 h -0.99571 c -0.76904,0 -0.99743,-0.10541 -1.00325,-0.46302 -0.009,-0.52412 -1.01718,-15.73682 -1.05695,-15.94115 -0.0221,-0.11356 -3.72998,12.5687 -4.50596,15.41198 -0.2549,0.93399 -0.33227,0.99219 -1.31892,0.99219 -0.57647,0 -1.04814,-0.12622 -1.04814,-0.2805 z m 53.717193,0.0821 c 0.01423,-0.41708 2.841209,-13.32032 2.936062,-13.40115 0.05493,-0.0468 0.591976,-0.16039 1.193435,-0.2524 l 1.093558,-0.16729 -0.752685,3.50391 c -0.413977,1.92715 -1.082413,5.08149 -1.48541,7.00964 l -0.732727,3.50573 h -1.129501 c -0.621228,0 -1.126455,-0.0893 -1.122732,-0.19844 z m 50.083355,-0.3719 c 0.267705,-1.07985 3.884875,-18.19472 3.884875,-18.38154 0,-0.36702 7.1797039,0.17172 8.0325777,0.60274 1.80211943,0.91074 2.5250881,1.66299 2.93954732,3.05863 1.53604918,5.17244 -1.39912462,12.58006 -5.75619302,14.52714 -1.1988139,0.53572 -1.895147,0.62934 -5.317027,0.71488 l -3.937556,0.0984 z m 8.2519442,-1.88037 c 3.4829698,-1.82238 5.83024203,-9.41668 3.9191513,-12.67992 -0.8440711,-1.44128 -1.6006948,-1.80478 -4.1278149,-1.98313 -1.3080101,-0.0923 -2.306881,-0.0599 -2.3076112,0.075 -0.00106,0.21462 -2.6915504,13.10862 -3.0522284,14.62818 l -0.150037,0.63211 2.4631174,-0.12883 c 1.4882602,-0.0779 2.7766963,-0.29291 3.2554228,-0.54339 z m 23.9433478,2.23134 c 0,-0.12066 0.541059,-2.75907 1.202354,-5.86315 0.683519,-3.20841 1.136197,-5.94498 1.049046,-6.34178 -0.132887,-0.60503 -0.02437,-0.75949 0.814779,-1.15965 0.532445,-0.25391 1.039696,-0.39003 1.12722,-0.30251 0.08753,0.0875 0.162082,0.66659 0.165683,1.28682 l 0.0065,1.12769 1.242949,-0.9812 c 3.061941,-2.41711 6.686706,-1.7942 6.620848,1.1378 -0.01394,0.62089 -0.509084,3.35984 -1.100306,6.08655 -0.591222,2.72671 -1.07495,5.01866 -1.07495,5.09322 0,0.0746 -0.47625,0.13558 -1.058333,0.13558 -0.667451,0 -1.058333,-0.12154 -1.058333,-0.32908 0,-0.18099 0.485592,-2.57645 1.079092,-5.32324 0.5935,-2.74679 1.008404,-5.2758 0.922012,-5.62002 -0.09434,-0.37588 -0.420944,-0.69208 -0.817705,-0.79166 -0.907947,-0.22788 -3.278598,0.96591 -4.400875,2.21615 -0.807924,0.90004 -0.960528,1.3637 -1.782557,5.41608 l -0.89899,4.43177 H 18.54131 c -0.560573,0 -1.01923,-0.0987 -1.01923,-0.21937 z m 74.877084,0.10527 c 0,-0.17737 3.632517,-17.34771 3.888026,-18.37814 l 0.15695,-0.63287 3.467603,0.17774 c 2.945717,0.15099 3.675747,0.27857 4.850317,0.84764 2.18167,1.05702 2.96233,2.6367 2.97648,6.023 0.0138,3.27573 -1.78591,7.78304 -3.87699,9.71054 -2.05206,1.89153 -3.09335,2.21105 -7.559782,2.31975 -2.146432,0.0522 -3.902604,0.0218 -3.902604,-0.0677 z m 7.595473,-2.13637 c 2.366353,-0.70274 4.139143,-3.29452 5.015413,-7.33243 0.6952,-3.2036 0.0905,-5.85014 -1.58803,-6.94994 -0.59483,-0.38975 -5.202023,-0.93407 -5.202023,-0.61459 0,0.071 -0.714375,3.50109 -1.5875,7.62243 -0.873125,4.12134 -1.5875,7.53375 -1.5875,7.58313 0,0.26848 3.805317,0.0312 4.94964,-0.3086 z m 24.683693,1.9826 c 0,-0.14732 0.48313,-2.49881 1.07363,-5.22552 0.59049,-2.72671 1.08249,-5.59216 1.09331,-6.36768 0.0185,-1.3318 0.069,-1.43351 0.90744,-1.83336 0.48824,-0.23283 0.96859,-0.34246 1.06744,-0.24361 0.0988,0.0988 0.1797,0.72027 0.1797,1.38097 v 1.20126 l 0.94811,-0.89718 c 1.46423,-1.38559 2.17122,-1.76993 3.25591,-1.76993 0.5497,0 0.99946,0.0571 0.99946,0.12694 0,0.0698 -0.19153,0.6056 -0.42561,1.19062 -0.37026,0.92537 -0.53369,1.06382 -1.25677,1.06468 -1.09987,0.001 -2.36082,0.79946 -3.29046,2.08279 -0.601,0.82965 -0.93906,1.91365 -1.65309,5.30042 l -0.89758,4.25747 h -1.00073 c -0.55041,0 -1.00076,-0.12054 -1.00076,-0.26787 z m 9.68476,-0.19515 c 0.90955,-3.82101 2.22149,-10.65116 2.22149,-11.56544 0,-1.05397 0.0899,-1.2336 0.80153,-1.6016 1.06119,-0.54876 1.31514,-0.33532 1.31514,1.10538 v 1.20241 l 0.92961,-0.81621 c 1.24518,-1.09328 2.27232,-1.59763 3.6299,-1.78234 1.37919,-0.18766 2.42734,0.50244 2.67973,1.76434 l 0.16483,0.82427 1.11085,-0.95084 c 1.27831,-1.09419 3.51534,-1.89892 4.55401,-1.63823 0.8934,0.22422 1.68516,1.01211 1.90754,1.8982 0.13944,0.55554 -1.48793,9.19652 -2.17712,11.56006 -0.099,0.33959 -0.41238,0.46302 -1.17552,0.46302 -0.57227,0 -1.0405,-0.0527 -1.0405,-0.11703 0,-0.0644 0.47625,-2.39296 1.05833,-5.17464 1.25392,-5.99229 1.27098,-6.26445 0.41696,-6.65357 -0.85053,-0.38753 -2.5522,0.41983 -3.99145,1.89376 -1.01351,1.03794 -1.07289,1.20301 -1.97636,5.49464 l -0.93144,4.42455 -1.14749,0.0825 c -1.00243,0.0721 -1.12967,0.0219 -1.00651,-0.39687 0.53348,-1.81389 2.24769,-10.72313 2.12482,-11.04333 -0.4432,-1.15497 -2.6547,-0.42285 -4.51938,1.49615 -1.06648,1.09755 -1.12238,1.24537 -1.92812,5.09907 -1.1117,5.31695 -0.92927,4.89479 -2.11534,4.89479 -0.83296,0 -0.9959,-0.0833 -0.90551,-0.46302 z m 100.84538,-6.21771 c 0.78817,-3.6744 1.51233,-6.75452 1.60925,-6.84471 0.29382,-0.27337 2.16061,-0.4804 2.16061,-0.2396 0,0.18882 -2.35394,11.33284 -2.78183,13.16973 -0.11737,0.50391 -0.31387,0.59531 -1.27987,0.59531 h -1.1412 z M -88.512193,211.3315 c -0.180525,-0.28907 -0.328229,-0.57713 -0.328229,-0.64014 0,-0.12926 5.474534,-3.59679 5.678609,-3.59679 0.07231,0 0.367761,0.46317 0.656559,1.02926 l 0.525089,1.02926 -3.034289,1.35199 c -1.668857,0.7436 -3.064711,1.35199 -3.101898,1.35199 -0.03719,0 -0.215316,-0.2365 -0.395841,-0.52557 z m 304.995413,-0.0139 c -0.24498,-0.45774 -0.23529,-0.64901 0.0459,-0.90418 0.54996,-0.49918 5.26682,-3.39462 5.35022,-3.28422 0.0406,0.0537 0.33192,0.52737 0.64741,1.05252 l 0.57359,0.95481 -2.84276,1.25702 c -1.56351,0.69136 -2.98244,1.31272 -3.15318,1.38081 -0.17073,0.0681 -0.45026,-0.13745 -0.62113,-0.45676 z m -276.929783,-0.27407 c -1.14595,-0.42603 -1.461204,-1.77739 -0.612608,-2.62599 1.097198,-1.0972 2.910416,-0.3443 2.910416,1.20849 0,0.98961 -1.296855,1.78963 -2.297808,1.4175 z m 298.638603,-0.0277 c -0.8024,-0.29858 -1.05648,-0.67308 -1.06174,-1.56504 -0.0109,-1.82445 2.75897,-2.13924 3.27072,-0.37174 0.19791,0.68349 -0.34885,1.74334 -1.02581,1.9885 -0.29104,0.10539 -0.82347,0.0821 -1.18317,-0.0517 z"
         id="path3035" />
      <path
         style="fill:#fc8103;stroke-width:0.264583"
         d="m 53.667778,199.92434 c -4.146728,-0.38488 -10.305124,-1.78638 -13.193094,-3.00242 l -0.992187,-0.41778 v -5.5527 c 0,-3.05398 0.04203,-5.5527 0.09341,-5.5527 0.05137,0 1.585259,0.59208 3.408629,1.31573 5.718763,2.26965 7.874784,2.74137 12.637543,2.76498 3.779356,0.0187 4.210585,-0.0292 5.497566,-0.61078 1.82708,-0.82567 2.552567,-1.82668 2.360692,-3.25723 -0.282073,-2.10298 -2.058115,-3.30447 -8.916591,-6.03203 -8.232101,-3.27383 -11.682381,-5.49925 -13.850226,-8.93334 -1.823681,-2.8889 -2.354842,-7.82601 -1.21044,-11.25099 1.778016,-5.32127 6.938434,-9.13763 14.266916,-10.55102 2.58858,-0.49924 9.953016,-0.42236 12.772734,0.13333 2.413979,0.47574 6.216809,1.7175 7.930912,2.58973 l 0.992187,0.50488 v 5.41858 c 0,2.98022 -0.04241,5.41858 -0.09424,5.41858 -0.05183,0 -1.212691,-0.58584 -2.579688,-1.30186 -1.366996,-0.71602 -3.706892,-1.72441 -5.199803,-2.24087 -8.384736,-2.90065 -14.351265,-2.05429 -14.351265,2.03575 0,1.73222 1.468424,2.73185 7.672917,5.22334 7.132664,2.86421 10.287635,4.66419 12.993264,7.41298 2.880598,2.92655 3.959066,5.66361 3.954965,10.03732 -0.0042,4.48408 -1.047538,7.49993 -3.540045,10.23288 -1.579272,1.73161 -3.819208,3.26243 -5.961274,4.07407 -3.626353,1.37404 -9.668164,2.00794 -14.692879,1.54157 z m 40.041232,0.0194 c -5.476452,-0.84004 -9.974262,-4.59895 -11.217963,-9.37508 -1.137549,-4.36845 0.223256,-9.42017 3.373252,-12.52269 3.006699,-2.96138 7.775364,-5.13696 19.115511,-8.72097 l 6.60165,-2.08642 0.0814,-1.25682 c 0.18751,-2.89593 -1.50294,-5.42741 -4.35049,-6.51488 -2.15231,-0.82195 -5.91748,-0.82996 -9.271476,-0.0197 -3.37177,0.81455 -8.058044,3.17817 -10.999523,5.54781 l -2.315104,1.86505 v -6.30606 -6.30605 l 2.976563,-1.48464 c 6.495415,-3.23976 13.44967,-4.68081 20.75987,-4.30183 10.73721,0.55665 16.57951,4.02236 18.33205,10.87479 0.49406,1.93174 0.52943,2.93398 0.52943,15.00081 0,13.77113 0.0494,14.34885 1.28313,15.00913 1.31,0.70109 3.52152,0.12942 6.01847,-1.55577 l 1.16507,-0.78628 v 4.35334 4.35335 l -1.85507,0.9342 c -6.5351,3.29102 -14.31489,4.38626 -17.95733,2.52803 -1.25486,-0.64018 -2.85255,-2.44711 -3.0802,-3.48357 -0.0918,-0.41783 -0.26201,-0.81849 -0.3783,-0.89036 -0.11628,-0.0719 -1.20843,0.46314 -2.42702,1.18891 -2.83702,1.68966 -5.45425,2.77649 -8.21981,3.41332 -2.665969,0.6139 -6.177122,0.84717 -8.16409,0.54238 z m 13.09142,-9.7983 c 0.82188,-0.3075 2.23383,-1.05483 3.13767,-1.66071 l 1.64336,-1.10162 0.071,-6.15157 c 0.0391,-3.38335 0.005,-6.15156 -0.0752,-6.15156 -0.40447,0 -6.57854,2.55899 -8.15057,3.37819 -2.2565,1.1759 -4.344852,3.03139 -4.97628,4.42138 -1.375225,3.0273 0.160152,6.86936 3.12587,7.8221 1.07886,0.34658 3.5003,0.0888 5.22419,-0.55621 z m 69.15685,9.80472 c -7.46919,-0.91621 -12.8233,-5.47172 -14.83212,-12.61984 -0.56655,-2.01602 -0.58198,-2.47958 -0.66609,-19.9894 l -0.0861,-17.92552 h 7.80804 7.80801 l 0.0754,16.99948 c 0.0736,16.59764 0.0886,17.03157 0.63341,18.35731 0.86463,2.10392 1.83388,3.17933 3.68814,4.09219 1.54133,0.75879 1.84568,0.81602 3.87884,0.72939 1.85579,-0.0791 2.49243,-0.23491 4.00727,-0.98097 2.35067,-1.15768 4.34274,-3.16474 5.56393,-5.60575 l 0.95692,-1.91275 V 165.25485 149.4154 h 7.8052 7.80521 v 24.87083 24.87083 h -7.80521 -7.8052 v -3.46571 -3.46572 l -2.03449,1.89998 c -2.42139,2.26131 -3.7614,3.21346 -5.97456,4.24521 -3.07877,1.43529 -7.15428,2.0298 -10.82659,1.57934 z m 60.37522,0.0986 c -5.87761,-0.66322 -10.36968,-2.74831 -14.11938,-6.55379 -5.12001,-5.19619 -7.57995,-12.25279 -7.23906,-20.76619 0.53147,-13.27409 8.61566,-22.62169 20.8684,-24.12975 4.82802,-0.59422 11.3038,0.46614 15.22249,2.49258 0.44598,0.23062 0.88551,0.34468 0.97671,0.25347 0.0912,-0.0912 0.16584,-5.92052 0.16584,-12.95403 v -12.78819 h 7.67292 7.67291 v 36.77708 36.77708 h -7.67291 -7.67292 v -1.98437 c 0,-1.09141 -0.0646,-1.98438 -0.14364,-1.98438 -0.079,0 -0.76362,0.46332 -1.52136,1.0296 -1.90791,1.42582 -4.39465,2.62248 -6.63141,3.19115 -1.93124,0.49101 -5.91587,0.82736 -7.57859,0.63974 z m 11.41981,-11.53732 c 1.08842,-0.53792 2.53609,-1.46846 3.21707,-2.06788 l 1.23812,-1.08984 v -11.74815 -11.74816 l -0.99219,-0.62296 c -2.92375,-1.83572 -6.93208,-2.76105 -9.97045,-2.30169 -6.76944,1.02345 -10.53843,6.61747 -10.52267,15.61801 0.0135,7.75447 3.01398,12.86016 8.65302,14.7246 0.66704,0.22055 2.04546,0.32481 3.72827,0.28202 2.47711,-0.063 2.81284,-0.13854 4.64883,-1.04595 z m -107.46356,-26.1315 v -36.77708 h 7.80521 7.8052 v 36.77708 36.77708 h -7.8052 -7.80521 z"
         id="path3033" />
      <path
         style="fill:#7ebb02;stroke-width:0.264583"
         d="m -157.63209,199.95229 c -4.45712,-0.42369 -11.15315,-1.97062 -13.27135,-3.06599 l -0.75157,-0.38865 v -5.44547 c 0,-4.25253 0.0725,-5.41567 0.33073,-5.30945 3.15589,1.29789 6.90792,2.63139 8.7974,3.12666 2.00501,0.52555 3.02921,0.62466 6.48229,0.62728 3.89171,0.003 4.17774,-0.0328 5.60358,-0.70124 2.8005,-1.3128 3.09592,-3.62807 0.71821,-5.62879 -1.15926,-0.97544 -2.71635,-1.73057 -7.39243,-3.58502 -6.76877,-2.68437 -9.49563,-4.19479 -11.88268,-6.58184 -2.6804,-2.6804 -3.77265,-5.37831 -3.76382,-9.29687 0.01,-4.25921 1.22568,-7.03225 4.37646,-9.97965 2.51769,-2.35517 6.14102,-4.04071 10.4886,-4.8792 2.58858,-0.49924 9.95301,-0.42236 12.77273,0.13333 2.41397,0.47574 6.21681,1.7175 7.93091,2.58973 l 0.99219,0.50488 v 5.44063 c 0,2.99234 -0.0893,5.39909 -0.19844,5.34833 -0.10914,-0.0508 -1.56765,-0.76432 -3.24114,-1.58569 -9.94826,-4.88272 -18.78542,-4.82302 -18.78542,0.12691 0,1.73421 1.47694,2.73844 7.67292,5.21714 7.79106,3.1168 11.72177,5.56442 14.19824,8.84111 2.03189,2.68847 2.52111,4.14717 2.6705,7.96259 0.13826,3.53142 -0.21326,5.51501 -1.41682,7.99493 -1.36746,2.81764 -4.69064,5.70899 -8.00501,6.96482 -3.52471,1.33552 -9.68632,2.01057 -14.32608,1.56952 z m 39.93901,-0.009 c -4.85502,-0.74472 -9.17937,-4.08089 -10.85414,-8.37381 -0.79782,-2.04504 -0.81254,-6.02179 -0.0314,-8.48582 1.88166,-5.93558 6.7635,-8.92188 22.80486,-13.9501 3.1287,-0.9807 5.839327,-1.90572 6.023612,-2.0556 0.446389,-0.36305 0.168611,-2.56899 -0.533572,-4.23734 -1.67055,-3.96911 -7.555,-5.146 -14.60725,-2.92145 -3.60975,1.13865 -7.25995,3.22901 -10.79268,6.18062 l -0.99219,0.82898 v -6.21097 c 0,-4.68735 0.0822,-6.27916 0.33491,-6.48893 0.70663,-0.58645 5.71305,-2.9348 7.7006,-3.61211 8.85817,-3.01865 20.476888,-2.90309 27.072459,0.26925 2.402583,1.1556 4.767559,3.31888 5.851408,5.35239 1.605918,3.01301 1.638393,3.3623 1.640018,17.63994 7.93e-4,8.11253 0.103931,13.34406 0.274865,13.95953 0.696939,2.50944 3.452786,2.38667 7.595013,-0.33836 l 0.859895,-0.5657 v 4.36384 4.36383 l -2.21911,1.08415 c -5.047459,2.46594 -10.764764,3.72845 -14.581932,3.22001 -1.179361,-0.15709 -2.642819,-0.55149 -3.304849,-0.89066 -1.318768,-0.67562 -2.860593,-2.50131 -3.092765,-3.66217 -0.188098,-0.94049 -0.37978,-0.94 -1.756792,0.004 -2.52795,1.73384 -6.70176,3.51132 -9.67443,4.11999 -2.39581,0.49056 -5.94721,0.67743 -7.71653,0.40603 z m 11.78703,-9.34895 c 1.63772,-0.43813 3.91281,-1.57318 5.22552,-2.60703 l 0.992191,-0.78141 v -6.06318 c 0,-3.33475 -0.0499,-6.06319 -0.110892,-6.06319 -0.06099,0 -1.743869,0.65527 -3.739739,1.45614 -7.27713,2.92009 -9.50688,4.866 -9.83022,8.57887 -0.10972,1.25989 -0.0175,1.68474 0.63375,2.92049 0.62002,1.17644 1.02512,1.5835 2.17234,2.18281 1.56735,0.81879 2.67042,0.90797 4.65705,0.3765 z m 100.9254756,9.34895 c -5.4764596,-0.84004 -9.9742656,-4.59895 -11.2179636,-9.37508 -1.159253,-4.45184 0.259845,-9.5477 3.52329,-12.65184 3.4544716,-3.28584 7.1501399,-4.85269 24.111911,-10.2227 l 1.455208,-0.46071 0.08138,-1.25423 c 0.187714,-2.89294 -1.503957,-5.42522 -4.3504879,-6.5123 -2.152314,-0.82195 -5.9174962,-0.82996 -9.27148955,-0.0197 -3.37176005,0.81455 -8.05804165,3.17817 -10.99950955,5.54781 l -2.315104,1.86505 v -6.30905 -6.30905 l 2.976562,-1.47509 c 6.5746261,-3.25819 13.4510888,-4.6843 20.7598622,-4.30539 10.1519778,0.5263 15.7788188,3.58109 18.1229238,9.83884 0.571257,1.52501 0.590397,1.93443 0.728763,15.58906 0.148728,14.67737 0.163685,14.85247 1.321393,15.47206 1.325512,0.70939 3.032821,0.0984 7.098038,-2.54005 1.205555,-0.78245 2.247352,-1.42264 2.315104,-1.42264 0.06775,0 0.123188,2.50687 0.123188,5.57081 v 5.57081 l -1.5098,0.66771 c -4.343797,1.92103 -13.165471,3.30697 -17.549945,2.7572 -1.152957,-0.14456 -2.562135,-0.5005 -3.131508,-0.79098 -1.256943,-0.64124 -2.854791,-2.44756 -3.082605,-3.48479 -0.09177,-0.41783 -0.261623,-0.81826 -0.377452,-0.88984 -0.115829,-0.0716 -1.179915,0.45241 -2.364637,1.16445 -5.2386282,3.14851 -11.68956151,4.70941 -16.4471244,3.97964 z m 13.0914194,-9.7983 c 0.8218752,-0.3075 2.23383,-1.05483 3.137673,-1.66071 l 1.643353,-1.10162 0.07102,-6.15157 c 0.03906,-3.38336 0.0052,-6.15156 -0.07525,-6.15156 -0.40448,0 -6.5785556,2.55899 -8.1505669,3.37819 -2.2565043,1.1759 -4.34486056,3.03138 -4.97629134,4.42138 -1.37520896,3.0273 0.16015494,6.86936 3.12586424,7.8221 1.0788677,0.34658 3.5003106,0.0888 5.224198,-0.55621 z m -79.224183,-15.85921 v -24.87083 h 7.805208 7.805209 v 3.43958 c 0,1.89177 0.0893,3.43958 0.198437,3.43958 0.109141,-1e-5 0.518501,-0.40114 0.909691,-0.89142 1.163642,-1.45837 4.71179,-4.15834 6.69708,-5.09614 3.761396,-1.7768 7.812381,-2.30932 12.003728,-1.57794 5.915644,1.03226 10.346709,4.19609 12.633854,9.02071 1.867485,3.93937 1.796691,3.0696 1.889697,23.21719 l 0.08397,18.1901 h -7.683228 -7.683227 l -0.0046,-14.75052 c -0.0026,-8.11278 -0.122323,-15.86837 -0.266222,-17.23462 -0.584641,-5.55088 -3.212528,-8.34644 -7.82652,-8.3259 -3.441578,0.0153 -6.112402,1.76969 -9.443898,6.20335 l -1.508783,2.00793 v 16.04988 16.04988 h -7.805209 -7.805208 z"
         id="path3031" />
    </g>
  </g>
</svg>
