<?xml version="1.0" encoding="UTF-8" standalone="no"?>
<!-- Created with Inkscape (http://www.inkscape.org/) -->

<svg
   width="170.88071mm"
   height="34.696159mm"
   viewBox="0 0 170.8807 34.696161"
   version="1.1"
   id="svg928"
   xmlnsSvg="http://www.w3.org/2000/svg"
   xmlns="http://www.w3.org/2000/svg">
  <defs
     id="defs925" />
  <g
     id="layer1"
     transform="translate(157.38488,-96.367065)"
     style="fill:#ffffff;fill-opacity:1">
    <g
       id="g3869"
       style="fill:#ffffff;fill-opacity:1">
      <path
         style="fill:#ffffff;stroke-width:0.352778;fill-opacity:1"
         d="m -137.65704,126.15042 c 0.35118,-0.38806 0.71789,-0.70556 0.81491,-0.70556 0.097,0 -0.11095,0.3175 -0.46213,0.70556 -0.35119,0.38805 -0.7179,0.70555 -0.81491,0.70555 -0.097,0 0.11094,-0.3175 0.46213,-0.70555 z m 61.846349,-2.00488 c 0.25466,-0.10191 0.558934,-0.0894 0.676159,0.0278 0.117224,0.11722 -0.09114,0.2006 -0.463021,0.18528 -0.410968,-0.0169 -0.494559,-0.10052 -0.213138,-0.21313 z m -38.465499,-0.37055 c 0.82975,-0.0745 2.09975,-0.0735 2.82222,0.002 0.72248,0.0758 0.0436,0.13677 -1.50863,0.13549 -1.55222,-0.001 -2.14334,-0.0633 -1.31359,-0.13782 z m 15.512896,3.5e-4 c 0.824618,-0.0743 2.173993,-0.0743 2.998611,0 0.824618,0.0743 0.149931,0.13504 -1.499305,0.13504 -1.649236,0 -2.323924,-0.0608 -1.499306,-0.13504 z m 8.113889,0.005 2.557639,-0.13035 V 113.45035 103.2507 l -2.38125,-0.12679 -2.38125,-0.12679 2.469444,0.0231 2.469445,0.0231 v 10.40695 10.40694 l -2.645834,0.0267 -2.645833,0.0267 2.557639,-0.13035 z m 22.922687,-10e-4 c 0.626262,-0.0779 1.737512,-0.0792 2.469445,-0.003 0.731929,0.0764 0.219533,0.14013 -1.138661,0.1417 -1.358194,10e-4 -1.957049,-0.0609 -1.330784,-0.13885 z m 9.068223,-0.20903 c -0.09785,-0.255 -0.126587,-2.19969 -0.06385,-4.32153 l 0.114068,-3.85788 0.07492,4.12902 0.07492,4.12902 2.38125,0.12341 2.38125,0.12341 -2.39232,0.0691 c -1.70235,0.0492 -2.443635,-0.0646 -2.57024,-0.39455 z m 12.44975,0.20728 2.195519,-0.12822 0.112183,-5.0998 0.112187,-5.09979 -0.01464,5.20389 -0.01466,5.20413 -2.293056,0.0241 -2.293055,0.0241 2.195523,-0.12822 z m 14.340684,-0.26116 c -0.109227,-0.28465 -0.11678,-0.72121 -0.01679,-0.97014 0.1,-0.24894 0.194349,-0.103 0.209667,0.3243 0.02512,0.70082 0.243812,0.78919 2.232713,0.90217 l 2.204861,0.12525 -2.215931,0.068 c -1.66817,0.0512 -2.265028,-0.06 -2.414528,-0.44955 z m 6.73439,0.0824 c -0.09869,-0.25718 -0.13256,-3.55854 -0.07527,-7.33636 l 0.104165,-6.86854 0.08011,7.14375 0.08012,7.14375 h 2.280715 2.280712 l 0.120018,-3.52853 0.120019,-3.52854 -0.01947,3.61673 -0.01949,3.61673 -2.386093,0.10442 c -1.732756,0.0758 -2.435225,-0.0236 -2.56553,-0.36317 z m 10.572396,-0.0285 c -0.09785,-0.255 -0.126587,-2.19969 -0.06385,-4.32153 l 0.114068,-3.85788 0.07492,4.12902 0.07492,4.12902 2.381249,0.12341 2.3812503,0.12341 -2.3923203,0.0691 c -1.70235,0.0492 -2.443635,-0.0646 -2.57024,-0.39455 z m 18.1035318,0.20844 c 0.6305903,-0.0783 1.6624652,-0.0783 2.2930555,0 0.6305902,0.0783 0.1146527,0.14229 -1.1465277,0.14229 -1.2611805,0 -1.777118,-0.064 -1.1465278,-0.14229 z m 7.3498072,-0.32386 c -0.185798,-0.48418 -0.134176,-0.506 0.315034,-0.13319 0.612154,0.50804 0.675866,0.71225 0.222208,0.71225 -0.173271,0 -0.415029,-0.26058 -0.537242,-0.57906 z m 1.205054,0.0721 c 0,-0.28535 0.300774,-0.48459 0.68757,-0.45545 0.519787,0.0391 0.595334,0.16293 0.309584,0.50724 -0.501519,0.60429 -0.997154,0.57855 -0.997154,-0.0518 z m -53.314443,-0.81568 c -0.438809,-0.55952 -0.426332,-0.572 0.133195,-0.13319 0.58764,0.46086 0.774517,0.75055 0.484166,0.75055 -0.07325,0 -0.351066,-0.27781 -0.617361,-0.61736 z m 13.589748,-4.14514 c 7.05e-4,-2.71638 0.05592,-3.781 0.123059,-2.36581 0.06713,1.41519 0.06668,3.63769 -0.0011,4.93889 -0.06762,1.3012 -0.122552,0.14331 -0.122001,-2.57308 z m 28.9649728,4.05695 c 0.3511868,-0.38806 0.7178957,-0.70556 0.8149096,-0.70556 0.097014,0 -0.1109451,0.3175 -0.4621318,0.70556 -0.3511867,0.38805 -0.7178957,0.70555 -0.81490958,0.70555 -0.0970139,0 0.11094508,-0.3175 0.46213178,-0.70555 z m 8.6430552,-0.46515 c 0,-1.00785 0.85853,-1.90743 1.236592,-1.29571 0.374029,0.60518 0.46597,2.11738 0.115573,1.90082 -0.171898,-0.10624 -0.289524,-0.37963 -0.26139,-0.60754 0.106387,-0.86177 -0.04406,-1.33077 -0.363534,-1.13332 -0.182104,0.11254 -0.271237,0.51545 -0.198074,0.89534 0.07316,0.3799 -0.01598,0.7828 -0.198075,0.89535 -0.1821,0.11254 -0.331092,-0.18218 -0.331092,-0.65494 z m -93.865586,-0.50499 -0.855243,-0.97014 0.970139,0.85524 c 0.906741,0.79936 1.131919,1.08504 0.855243,1.08504 -0.06319,0 -0.499752,-0.43656 -0.970139,-0.97014 z m 7.170451,-0.68415 c 0.339549,-0.0887 0.895174,-0.0887 1.234723,0 0.339548,0.0887 0.06174,0.16133 -0.617362,0.16133 -0.679097,0 -0.956909,-0.0726 -0.617361,-0.16133 z m 41.120658,0.002 c 0.25466,-0.1019 0.558934,-0.0894 0.676159,0.0278 0.117224,0.11722 -0.09114,0.2006 -0.463021,0.18528 -0.410969,-0.0169 -0.494559,-0.10052 -0.213138,-0.21313 z m 34.2194428,0 c 0.2546597,-0.1019 0.55893403,-0.0894 0.67615855,0.0278 0.11722452,0.11722 -0.0911366,0.2006 -0.46302085,0.18528 -0.4109684,-0.0169 -0.4945591,-0.10052 -0.2131377,-0.21313 z M -122.53202,117.15458 c 7e-4,-2.1343 0.0589,-2.96194 0.12912,-1.8392 0.0702,1.12274 0.0696,2.86899 -10e-4,3.88056 -0.071,1.01156 -0.12848,0.093 -0.12768,-2.04136 z m 88.768029,3.2182 c 0,-0.0733 0.277812,-0.35107 0.617361,-0.61736 0.559526,-0.43881 0.572004,-0.42634 0.133195,0.13319 -0.460859,0.58764 -0.750556,0.77452 -0.750556,0.48417 z m -8.438815,-1.13093 c 0.01693,-0.41097 0.100521,-0.49456 0.213134,-0.21313 0.101907,0.25466 0.08938,0.55893 -0.02783,0.67615 -0.117224,0.11723 -0.200603,-0.0911 -0.185286,-0.46302 z m 39.1304798,-0.63296 c 0,-0.0733 0.2778125,-0.35107 0.6173611,-0.61736 0.5595267,-0.43881 0.5720045,-0.42633 0.1331948,0.13319 -0.4608583,0.58764 -0.7505559,0.77452 -0.7505559,0.48417 z m 4.9667405,-0.77815 c 0.016933,-0.41097 0.1005205,-0.49456 0.2131342,-0.21314 0.1019069,0.25466 0.089376,0.55894 -0.027834,0.67616 -0.1172245,0.11723 -0.2006035,-0.0911 -0.1852859,-0.46302 z m -72.6039883,-1.20532 c 0,-0.87313 0.0688,-1.23032 0.152884,-0.79375 0.08409,0.43656 0.08409,1.15093 0,1.5875 -0.08409,0.43656 -0.152884,0.0794 -0.152884,-0.79375 z m 16.865102,0.49977 c 0.01693,-0.41097 0.100521,-0.49456 0.213134,-0.21314 0.101907,0.25466 0.08938,0.55893 -0.02783,0.67616 -0.117224,0.11722 -0.200603,-0.0911 -0.185286,-0.46302 z m -92.014648,-3.2124 c 0.33954,-0.0887 0.89517,-0.0887 1.23472,0 0.33955,0.0887 0.0617,0.16134 -0.61736,0.16134 -0.6791,0 -0.95691,-0.0726 -0.61736,-0.16134 z m 105.420203,-2.13807 c 0.03066,-1.84447 0.201923,-1.69525 0.404908,0.35278 0.07211,0.7276 0.0042,1.32292 -0.15082,1.32292 -0.155067,0 -0.269406,-0.75407 -0.254088,-1.6757 z m -23.879322,-0.23892 c -0.106267,-0.27693 -0.13407,-0.87225 -0.06179,-1.32292 0.09669,-0.60281 0.178586,-0.46972 0.309837,0.50351 0.184711,1.36964 0.08698,1.69248 -0.248052,0.81941 z m 34.930452,-0.64302 -0.672038,-0.79375 0.79375,0.67204 c 0.745928,0.63155 0.954349,0.91546 0.672038,0.91546 -0.06694,0 -0.42413,-0.35719 -0.79375,-0.79375 z m 17.803794,-0.52917 c -0.438809,-0.55952 -0.426332,-0.572 0.133195,-0.13319 0.339549,0.26629 0.617361,0.5441 0.617361,0.61736 0,0.29035 -0.289697,0.10347 -0.750556,-0.48417 z m -66.696142,-1.38751 c 0.25466,-0.10191 0.558934,-0.0894 0.676159,0.0278 0.117224,0.11723 -0.09114,0.20061 -0.463021,0.18529 -0.410969,-0.0169 -0.494559,-0.10052 -0.213138,-0.21314 z m 42.840449,-0.002 c 0.339549,-0.0887 0.895174,-0.0887 1.234722,0 0.339549,0.0887 0.06174,0.16134 -0.617361,0.16134 -0.679097,0 -0.956909,-0.0726 -0.617361,-0.16134 z m 34.2194431,0 c 0.33954856,-0.0887 0.89517353,-0.0887 1.23472213,0 0.33954859,0.0887 0.06173611,0.16134 -0.61736108,0.16134 -0.67909715,0 -0.95690965,-0.0726 -0.61736105,-0.16134 z m -64.2055521,-1.76389 c 0.339548,-0.0887 0.895173,-0.0887 1.234722,0 0.339548,0.0887 0.06174,0.16134 -0.617361,0.16134 -0.679097,0 -0.95691,-0.0726 -0.617361,-0.16134 z m 56.4444413,0 c 0.3395486,-0.0887 0.8951736,-0.0887 1.2347222,0 0.3395486,0.0887 0.061736,0.16134 -0.6173611,0.16134 -0.6790972,0 -0.9569096,-0.0726 -0.6173611,-0.16134 z M -55.8416,105.07379 c 0.02723,-1.90651 0.08275,-2.03376 0.910943,-2.08802 0.743927,-0.0487 0.760381,-0.0314 0.105135,0.1105 -0.6627,0.14358 -0.796516,0.45031 -0.910946,2.08803 l -0.134134,1.91973 0.029,-2.03024 z m 22.166572,0.79191 c 0.0039,-0.77612 0.07616,-1.05208 0.160542,-0.61325 0.08438,0.43882 0.08118,1.07382 -0.0071,1.41111 -0.0883,0.33729 -0.157339,-0.0218 -0.153423,-0.79786 z m -34.706184,0.26458 c -0.43881,-0.55953 -0.426332,-0.57201 0.133195,-0.1332 0.587639,0.46086 0.774516,0.75056 0.484166,0.75056 -0.07325,0 -0.351067,-0.27781 -0.617361,-0.61736 z m 59.9510736,0.37637 c 0.2546597,-0.1019 0.558934,-0.0894 0.6761585,0.0278 0.1172246,0.11722 -0.091137,0.2006 -0.4630208,0.18528 -0.4109684,-0.0169 -0.4945591,-0.10052 -0.2131377,-0.21313 z M -30.796926,104.2782 c 0.02614,-1.02372 0.16812,-1.24275 0.830704,-1.28166 0.624723,-0.0367 0.648338,-0.0127 0.108183,0.11011 -0.466711,0.10607 -0.736325,0.52205 -0.830704,1.28166 -0.133964,1.07819 -0.13843,1.07365 -0.108183,-0.11011 z m 32.3107107,1.14652 c 0,-0.14552 0.396875,-0.26458 0.8819444,-0.26458 0.4850694,0 0.8819444,0.11906 0.8819444,0.26458 0,0.14552 -0.396875,0.26459 -0.8819444,0.26459 -0.4850694,0 -0.8819444,-0.11907 -0.8819444,-0.26459 z M -68.68899,104.49778 c 0,-0.0733 0.277813,-0.35107 0.617362,-0.61736 0.559526,-0.43881 0.572004,-0.42633 0.133194,0.13319 -0.460858,0.58764 -0.750556,0.77452 -0.750556,0.48417 z m 3.81441,-0.81335 c 0.25466,-0.10191 0.558934,-0.0894 0.676159,0.0278 0.117224,0.11722 -0.09114,0.2006 -0.463021,0.18528 -0.410969,-0.0169 -0.494559,-0.10052 -0.213138,-0.21313 z m 56.422393,0.007 c 0.2425347,-0.0979 0.6394097,-0.0979 0.8819444,0 0.2425347,0.0979 0.044097,0.17794 -0.4409722,0.17794 -0.4850694,0 -0.6835069,-0.0801 -0.4409722,-0.17794 z m -57.480726,-0.7129 c 0.254659,-0.10191 0.558934,-0.0894 0.676158,0.0278 0.117225,0.11722 -0.09114,0.2006 -0.463021,0.18529 -0.410968,-0.0169 -0.494559,-0.10053 -0.213137,-0.21314 z m 1.411111,0 c 0.254659,-0.10191 0.558934,-0.0894 0.676158,0.0278 0.117225,0.11722 -0.09114,0.2006 -0.463021,0.18529 -0.410968,-0.0169 -0.494559,-0.10053 -0.213137,-0.21314 z m 20.439061,0.007 c 0.242535,-0.0979 0.63941,-0.0979 0.881945,0 0.242534,0.0979 0.0441,0.17794 -0.440973,0.17794 -0.485069,0 -0.683506,-0.0801 -0.440972,-0.17794 z m 9.348611,-0.01 c 0.339548,-0.0887 0.895173,-0.0887 1.234722,0 0.339549,0.0887 0.06174,0.16134 -0.617361,0.16134 -0.679097,0 -0.95691,-0.0726 -0.617361,-0.16134 z m 13.934721,0.01 c 0.242535,-0.0979 0.63941,-0.0979 0.881945,0 0.242534,0.0979 0.0441,0.17794 -0.440972,0.17794 -0.48507,0 -0.683507,-0.0801 -0.440973,-0.17794 z m 13.0748261,-0.007 c 0.2546597,-0.10191 0.558934,-0.0894 0.6761586,0.0278 0.1172245,0.11722 -0.091137,0.2006 -0.4630208,0.18529 -0.4109685,-0.0169 -0.4945592,-0.10053 -0.2131378,-0.21314 z m 9.6860532,-0.004 c 0.3432421,-0.0894 0.8194921,-0.0836 1.0583333,0.0131 0.2388411,0.0966 -0.041991,0.16981 -0.6240745,0.16262 -0.5820833,-0.007 -0.777501,-0.0862 -0.4342588,-0.17569 z"
         id="path3881" />
      <path
         style="fill:#ffffff;stroke-width:0.352778;fill-opacity:1"
         d="m -63.989965,121.21153 c 0,-1.26118 0.06403,-1.77712 0.142286,-1.14653 0.07825,0.63059 0.07825,1.66247 0,2.29306 -0.07826,0.63059 -0.142286,0.11465 -0.142286,-1.14653 z m -74.806895,-9.4167 c 0.34325,-0.0894 0.8195,-0.0836 1.05834,0.0131 0.23884,0.0966 -0.042,0.16982 -0.62408,0.16263 -0.58208,-0.007 -0.7775,-0.0863 -0.43426,-0.1757 z m 71.078009,-2.48017 c 0.630591,-0.0782 1.662465,-0.0782 2.293056,0 0.63059,0.0783 0.114652,0.14229 -1.146528,0.14229 -1.26118,0 -1.777118,-0.064 -1.146528,-0.14229 z m 43.750761,-3.5e-4 c 0.634065,-0.0785 1.586565,-0.0769 2.116666,0.004 0.530102,0.0805 0.01133,0.14473 -1.152846,0.14275 -1.164166,-0.002 -1.597885,-0.0678 -0.96382,-0.14635 z m -30.962567,-2.56667 c 1.280968,-0.41024 3.175,-0.41024 3.175,0 0,0.19836 -0.887899,0.33739 -2.028472,0.31761 -1.548091,-0.0268 -1.81961,-0.10205 -1.146528,-0.31761 z m 10.847916,0.11914 c 0.242535,-0.0979 0.63941,-0.0979 0.881945,0 0.242534,0.0979 0.0441,0.17794 -0.440973,0.17794 -0.485069,0 -0.683506,-0.0801 -0.440972,-0.17794 z m 9.172222,0 c 0.242535,-0.0979 0.63941,-0.0979 0.881944,0 0.242535,0.0979 0.0441,0.17794 -0.440972,0.17794 -0.485069,0 -0.683507,-0.0801 -0.440972,-0.17794 z m 4.056944,-0.01 c 0.339549,-0.0887 0.895174,-0.0887 1.234722,0 0.339549,0.0887 0.06174,0.16134 -0.617361,0.16134 -0.679097,0 -0.956909,-0.0726 -0.617361,-0.16134 z m 10.054166,0.01 c 0.242535,-0.0979 0.63941,-0.0979 0.881945,0 0.242534,0.0979 0.0441,0.17794 -0.440972,0.17794 -0.48507,0 -0.683507,-0.0801 -0.440973,-0.17794 z m 13.4937497,-0.11914 c -0.4522258,-0.29225 -0.4394023,-0.34276 0.088194,-0.34738 0.3395486,-0.003 0.6173611,0.15335 0.6173611,0.34738 0,0.43025 -0.03979,0.43025 -0.7055551,0 z m 6.96736077,0.11914 c 0.24253471,-0.0979 0.63940969,-0.0979 0.8819444,0 0.24253471,0.0979 0.0440972,0.17794 -0.4409722,0.17794 -0.48506942,0 -0.68350691,-0.0801 -0.4409722,-0.17794 z m 4.58611093,0 c 0.2425347,-0.0979 0.6394096,-0.0979 0.8819444,0 0.2425347,0.0979 0.044097,0.17794 -0.4409722,0.17794 -0.4850695,0 -0.683507,-0.0801 -0.4409722,-0.17794 z m -68.4168374,-0.36013 c 0.25466,-0.1019 0.558935,-0.0894 0.676159,0.0278 0.117225,0.11722 -0.09114,0.2006 -0.463021,0.18528 -0.410968,-0.0169 -0.494559,-0.10052 -0.213138,-0.21313 z m 29.090005,-1.5229 c 0,-0.87312 0.0688,-1.23031 0.152884,-0.79375 0.08409,0.43656 0.08409,1.15094 0,1.5875 -0.08409,0.43656 -0.152884,0.0794 -0.152884,-0.79375 z m 3.739473,0.44097 c -0.43881,-0.55952 -0.426332,-0.572 0.133194,-0.13319 0.58764,0.46086 0.774517,0.75055 0.484167,0.75055 -0.07325,0 -0.351067,-0.27781 -0.617361,-0.61736 z m 24.2102766,-1.85208 c 0.1199162,-0.19403 0.288036,-0.35278 0.3735987,-0.35278 0.085563,0 0.1555679,0.15875 0.1555679,0.35278 0,0.19403 -0.1681197,0.35278 -0.3735987,0.35278 -0.2054789,0 -0.2754841,-0.15875 -0.1555679,-0.35278 z"
         id="path3879" />
      <path
         style="fill:#ffffff;stroke-width:0.352778;fill-opacity:1"
         d="m -141.78013,130.84832 c 0.25466,-0.10191 0.55893,-0.0894 0.67616,0.0278 0.11722,0.11723 -0.0911,0.20061 -0.46303,0.18529 -0.41096,-0.0169 -0.49455,-0.10052 -0.21313,-0.21313 z m -3.84111,-2.14026 -0.85525,-0.97014 0.97014,0.85524 c 0.90674,0.79935 1.13192,1.08503 0.85525,1.08503 -0.0632,0 -0.49976,-0.43656 -0.97014,-0.97013 z m 5.25222,-1.38752 c 0.25466,-0.10191 0.55893,-0.0894 0.67616,0.0278 0.11722,0.11722 -0.0911,0.2006 -0.46302,0.18528 -0.41097,-0.0169 -0.49456,-0.10052 -0.21314,-0.21313 z m -7.2461,-3.63957 c 0,-0.87312 0.0688,-1.23031 0.15288,-0.79375 0.0841,0.43656 0.0841,1.15094 0,1.5875 -0.0841,0.43656 -0.15288,0.0794 -0.15288,-0.79375 z m 69.848816,0.46109 c 0.343243,-0.0894 0.819493,-0.0836 1.058334,0.0131 0.238841,0.0966 -0.04199,0.16982 -0.624075,0.16263 -0.582083,-0.007 -0.777501,-0.0862 -0.434259,-0.1757 z m 40.569443,0 c 0.343242,-0.0894 0.819492,-0.0836 1.058333,0.0131 0.238841,0.0966 -0.04199,0.16982 -0.624074,0.16263 -0.582084,-0.007 -0.777501,-0.0862 -0.434259,-0.1757 z m 34.3891181,0.0108 c 0.2425348,-0.0979 0.6394097,-0.0979 0.8819444,0 0.2425348,0.0979 0.044097,0.17793 -0.4409722,0.17793 -0.4850694,0 -0.6835069,-0.0801 -0.4409722,-0.17793 z m -133.5867271,-0.6777 c 0.0169,-0.41097 0.10052,-0.49456 0.21314,-0.21314 0.10191,0.25466 0.0894,0.55893 -0.0279,0.67616 -0.11723,0.11722 -0.20061,-0.0911 -0.18529,-0.46302 z m 43.519831,-10.02477 c 0,-5.72382 0.04851,-8.06538 0.107812,-5.20347 0.0593,2.8619 0.0593,7.54503 0,10.40694 -0.0593,2.86191 -0.107812,0.52035 -0.107812,-5.20347 z m 103.36975,9.8543 c -0.127892,-0.20693 -0.156873,-0.4519 -0.0644,-0.54438 0.09247,-0.0925 0.262135,0.0768 0.377031,0.37625 0.238541,0.62163 0.03521,0.73098 -0.312631,0.16813 z m 2.342977,-0.22506 c 0.256876,-0.42774 0.542978,-0.70177 0.635787,-0.60897 0.09281,0.0928 -0.117359,0.44278 -0.467042,0.77771 -0.607463,0.58183 -0.61498,0.57431 -0.168745,-0.16874 z m -84.953957,-1.33897 c 0.0028,-0.97013 0.07116,-1.32514 0.152248,-0.78889 0.08109,0.53624 0.07892,1.32999 -0.0048,1.76388 -0.08374,0.4339 -0.150078,-0.005 -0.147433,-0.97499 z m 39.134938,0.69393 c 0.527696,-0.55511 1.022714,-0.93833 1.100036,-0.85161 0.07732,0.0867 -0.354426,0.54091 -0.959447,1.00929 l -1.100038,0.85161 z m 26.3358269,0.27621 c -0.4388097,-0.55952 -0.4263319,-0.572 0.1331948,-0.13319 0.5876395,0.46086 0.7745165,0.75055 0.4841663,0.75055 -0.073254,0 -0.3510668,-0.27781 -0.6173611,-0.61736 z m 9.1553096,-0.20313 c -0.131251,-0.64376 -0.082084,-0.87572 0.1388039,-0.65484 0.1881294,0.18813 0.279594,0.63673 0.2032529,0.99689 -0.1028065,0.48501 -0.191516,0.3963 -0.3420568,-0.34205 z m 9.2341345,0.10954 c -0.440316,-0.28905 -0.44842,-0.39944 -0.04828,-0.65745 0.338,-0.21794 0.361587,-0.36731 0.07938,-0.50271 -0.279347,-0.13402 -0.273103,-0.16772 0.02053,-0.11075 0.23212,0.045 0.447682,0.43 0.47903,0.85548 0.03136,0.42549 0.04384,0.77118 0.02776,0.76821 -0.01609,-0.003 -0.267363,-0.16172 -0.558405,-0.35278 z M 6.5886198,118.0365 c 0,-2.42535 0.056363,-3.41754 0.1252502,-2.20486 0.068887,1.21267 0.068887,3.19705 0,4.40972 -0.068887,1.21267 -0.1252502,0.22049 -0.1252502,-2.20486 z m 6.4450942,3.3666 c -0.251336,-0.65498 -1.660218,-0.71702 -2.348332,-0.10341 -0.420698,0.37515 -0.424783,0.34882 -0.02738,-0.17639 0.575412,-0.76042 1.904442,-0.8027 2.504506,-0.0797 0.245435,0.29573 0.363859,0.62007 0.263166,0.72076 -0.100694,0.1007 -0.277083,-0.0619 -0.391979,-0.3613 z m -146.281034,-0.54438 c 0,-0.19403 0.16812,-0.35278 0.3736,-0.35278 0.20548,0 0.27548,0.15875 0.15557,0.35278 -0.11992,0.19403 -0.28804,0.35278 -0.3736,0.35278 -0.0856,0 -0.15557,-0.15875 -0.15557,-0.35278 z m 4.12391,0.10735 c 0.23086,-0.16452 0.48385,-1.1688 0.5622,-2.23172 l 0.14244,-1.93257 -0.033,2.08879 c -0.0243,1.538 -0.17256,2.12648 -0.56219,2.23172 -0.36926,0.0997 -0.40232,0.0525 -0.10942,-0.15622 z m 2.73159,-0.21822 c -0.0979,-0.255 -0.12659,-2.19969 -0.0639,-4.32152 l 0.11407,-3.85789 0.0749,4.12671 0.0749,4.1267 1.85208,0.12957 1.85208,0.12956 -1.86315,0.0653 c -1.2632,0.0442 -1.92045,-0.084 -2.04107,-0.39839 z m 21.36672,-0.94746 -3.70417,-0.21467 3.59516,-0.0691 c 2.09431,-0.0402 3.68617,0.0782 3.81318,0.28372 0.11991,0.19402 0.16897,0.3217 0.10901,0.28372 -0.06,-0.038 -1.77589,-0.16566 -3.81318,-0.28372 z m -50.47392,-0.97014 -0.85524,-0.97014 0.97014,0.85524 c 0.90674,0.79936 1.13191,1.08504 0.85524,1.08504 -0.0632,0 -0.49975,-0.43657 -0.97014,-0.97014 z m 91.477986,-0.79375 c 0,-0.6791 0.0726,-0.95691 0.161336,-0.61736 0.08873,0.33955 0.08873,0.89517 0,1.23472 -0.08873,0.33955 -0.161336,0.0617 -0.161336,-0.61736 z m -21.573436,-0.20579 c 0.01693,-0.41097 0.10052,-0.49456 0.213134,-0.21314 0.101907,0.25466 0.08938,0.55894 -0.02783,0.67616 -0.117228,0.11723 -0.200604,-0.0911 -0.185286,-0.46302 z m 53.269442,0 c 0.01693,-0.41097 0.10052,-0.49456 0.213134,-0.21314 0.101907,0.25466 0.08938,0.55894 -0.02783,0.67616 -0.117225,0.11723 -0.200604,-0.0911 -0.185286,-0.46302 z m -45.977156,-0.0562 c 1.406702,-0.067 3.708577,-0.067 5.115278,0 1.406701,0.067 0.255764,0.12175 -2.557639,0.12175 -2.813402,0 -3.96434,-0.0548 -2.557639,-0.12175 z m -71.944616,-0.33183 c 0.25466,-0.1019 0.55893,-0.0894 0.67616,0.0278 0.11722,0.11722 -0.0911,0.2006 -0.46302,0.18528 -0.41097,-0.0169 -0.49456,-0.10052 -0.21314,-0.21313 z m 116.063885,-0.35277 c 0.25466,-0.10191 0.558934,-0.0894 0.676159,0.0278 0.117224,0.11723 -0.09114,0.2006 -0.463021,0.18529 -0.410969,-0.0169 -0.494559,-0.10052 -0.213138,-0.21314 z m 27.2300335,0.10779 c 0,-0.0733 0.2778125,-0.35107 0.617361,-0.61736 0.5595267,-0.43881 0.5720045,-0.42634 0.1331948,0.13319 -0.4608583,0.58764 -0.7505558,0.77452 -0.7505558,0.48417 z M -107.84754,116.00806 c -1.2e-4,-0.14552 0.83332,-0.21923 1.85208,-0.16379 3.33545,0.1815 3.66484,0.32171 0.88217,0.37551 -1.50372,0.0291 -2.73413,-0.0662 -2.73425,-0.21172 z m 27.869662,-0.65971 c 2.042978,-0.2618 5.213918,-0.29052 5.061775,-0.0459 -0.09049,0.14552 -1.464846,0.2408 -3.054124,0.21173 -1.589278,-0.0291 -2.49272,-0.10372 -2.007651,-0.16588 z m 43.656248,-0.36768 c 0.242535,-0.0979 0.63941,-0.0979 0.881944,0 0.242535,0.0979 0.0441,0.17794 -0.440972,0.17794 -0.485069,0 -0.683507,-0.0801 -0.440972,-0.17794 z m 3.153311,0.005 c 0.424632,-0.0922 0.852082,-0.43573 0.949882,-0.76334 0.127978,-0.4287 0.15777,-0.39789 0.106282,0.10989 -0.04856,0.47892 -0.353674,0.72411 -0.949886,0.76334 -0.736149,0.0484 -0.753354,0.0307 -0.106278,-0.10989 z m 31.2492339,-0.016 c 0.3432422,-0.0894 0.8194922,-0.0836 1.05833329,0.0131 0.23884113,0.0966 -0.0419911,0.16981 -0.62407449,0.16262 -0.5820833,-0.007 -0.777501,-0.0863 -0.4342588,-0.17569 z m 2.9918976,0.0108 c 0.2425347,-0.0979 0.6394097,-0.0979 0.8819444,0 0.2425347,0.0979 0.044097,0.17794 -0.4409722,0.17794 -0.4850694,0 -0.6835069,-0.0801 -0.4409722,-0.17794 z m -60.6345805,-1.44206 c -0.43881,-0.55953 -0.426332,-0.572 0.133195,-0.13319 0.587639,0.46086 0.774516,0.75055 0.484166,0.75055 -0.07325,0 -0.351067,-0.27781 -0.617361,-0.61736 z m -20.768888,-0.22139 c 0,-0.0733 0.277813,-0.35106 0.617361,-0.61736 0.559527,-0.43881 0.572005,-0.42633 0.133195,0.1332 -0.460858,0.58764 -0.750556,0.77451 -0.750556,0.48416 z m 4.188333,-0.48416 c -0.43881,-0.55953 -0.426332,-0.57201 0.133195,-0.1332 0.587639,0.46086 0.774516,0.75056 0.484166,0.75056 -0.07325,0 -0.351067,-0.27782 -0.617361,-0.61736 z m 71.9455177,-0.32918 c 0.2546597,-0.10191 0.558934,-0.0894 0.6761586,0.0278 0.1172245,0.11722 -0.091137,0.2006 -0.4630208,0.18529 -0.4109685,-0.0169 -0.4945592,-0.10052 -0.2131378,-0.21314 z m -31.9417227,-0.35627 c 0.343242,-0.0894 0.819492,-0.0836 1.058333,0.0131 0.238842,0.0966 -0.04199,0.16982 -0.624074,0.16263 -0.582083,-0.007 -0.777501,-0.0863 -0.434259,-0.1757 z m 15.427314,0.11128 c 0,-0.0733 0.277812,-0.35107 0.617361,-0.61736 0.559527,-0.43881 0.572004,-0.42633 0.133195,0.13319 -0.460859,0.58764 -0.750556,0.77452 -0.750556,0.48417 z m 18.7854155,-0.10999 c 0.3395486,-0.0887 0.8951736,-0.0887 1.23472221,0 0.33954859,0.0887 0.0617361,0.16134 -0.61736111,0.16134 -0.6790972,0 -0.9569096,-0.0726 -0.6173611,-0.16134 z m -81.7562455,-0.81515 c 0.351186,-0.38805 0.717895,-0.70555 0.814909,-0.70555 0.09701,0 -0.110945,0.3175 -0.462132,0.70555 -0.351186,0.38806 -0.717895,0.70556 -0.814909,0.70556 -0.09701,0 0.110945,-0.3175 0.462132,-0.70556 z m -69.144446,-0.35278 c 0.35119,-0.38805 0.7179,-0.70555 0.81491,-0.70555 0.097,0 -0.11094,0.3175 -0.46213,0.70555 -0.35118,0.38806 -0.71789,0.70556 -0.81491,0.70556 -0.097,0 0.11095,-0.3175 0.46213,-0.70556 z m 5.25815,-0.0882 -0.67203,-0.79375 0.79375,0.67204 c 0.74592,0.63155 0.95434,0.91546 0.67203,0.91546 -0.0669,0 -0.42413,-0.35719 -0.79375,-0.79375 z m 74.601017,0.17639 c -0.43881,-0.55953 -0.426332,-0.57201 0.133195,-0.1332 0.339548,0.2663 0.617361,0.54411 0.617361,0.61736 0,0.29035 -0.289698,0.10348 -0.750556,-0.48416 z m 9.746389,-0.0882 c 0.351186,-0.38805 0.717895,-0.70555 0.814909,-0.70555 0.09701,0 -0.110945,0.3175 -0.462132,0.70555 -0.351186,0.38806 -0.717895,0.70556 -0.814909,0.70556 -0.09701,0 0.110945,-0.3175 0.462132,-0.70556 z m 68.217496,0.0882 c -0.4388097,-0.55953 -0.4263319,-0.57201 0.1331948,-0.1332 0.3395485,0.2663 0.617361,0.54411 0.617361,0.61736 0,0.29035 -0.2896975,0.10348 -0.7505558,-0.48416 z m -58.516108,0.13139 c 0,-0.0733 0.277813,-0.35107 0.617361,-0.61737 0.559527,-0.4388 0.572005,-0.42633 0.133195,0.1332 -0.460858,0.58764 -0.750556,0.77452 -0.750556,0.48417 z m 8.068888,-0.48417 c -0.438809,-0.55953 -0.426332,-0.572 0.133195,-0.1332 0.58764,0.46086 0.774517,0.75056 0.484166,0.75056 -0.07325,0 -0.351066,-0.27781 -0.617361,-0.61736 z m -34.593366,-1.38751 c 0.25466,-0.10191 0.558934,-0.0894 0.676159,0.0278 0.117224,0.11722 -0.09114,0.2006 -0.463021,0.18529 -0.410968,-0.0169 -0.494559,-0.10052 -0.213138,-0.21314 z m 42.686109,0 c 0.25466,-0.10191 0.558934,-0.0894 0.676159,0.0278 0.117224,0.11722 -0.09114,0.2006 -0.463021,0.18529 -0.410968,-0.0169 -0.494559,-0.10052 -0.213138,-0.21314 z m 34.219443,0 c 0.2546597,-0.10191 0.558934,-0.0894 0.6761585,0.0278 0.1172246,0.11722 -0.091137,0.2006 -0.4630208,0.18529 -0.4109684,-0.0169 -0.4945591,-0.10052 -0.2131377,-0.21314 z m 4.5861109,0 c 0.2546597,-0.10191 0.558934,-0.0894 0.6761585,0.0278 0.1172246,0.11722 -0.091137,0.2006 -0.4630208,0.18529 -0.4109684,-0.0169 -0.4945591,-0.10052 -0.2131377,-0.21314 z m -126.4381989,-0.90555 -0.67204,-0.79375 0.79375,0.67204 c 0.74593,0.63155 0.95435,0.91546 0.67204,0.91546 -0.0669,0 -0.42413,-0.35718 -0.79375,-0.79375 z m -25.62695,-2.27797 c 0.43882,-0.0844 1.07382,-0.0812 1.41111,0.007 0.33729,0.0883 -0.0217,0.15734 -0.79786,0.15343 -0.77611,-0.004 -1.05208,-0.0762 -0.61325,-0.16055 z m 19.75555,0 c 0.43883,-0.0844 1.07383,-0.0812 1.41111,0.007 0.33729,0.0883 -0.0218,0.15734 -0.79786,0.15343 -0.77611,-0.004 -1.05207,-0.0762 -0.61325,-0.16055 z m -16.75316,-2.21994 c 0,-0.87313 0.0688,-1.23031 0.15288,-0.79375 0.0841,0.43656 0.0841,1.15094 0,1.5875 -0.0841,0.43656 -0.15288,0.0794 -0.15288,-0.79375 z m 40.91433,0.44625 c 0.92163,-0.0727 2.42975,-0.0727 3.35139,0 0.92163,0.0727 0.16756,0.13213 -1.6757,0.13213 -1.84326,0 -2.59733,-0.0595 -1.67569,-0.13213 z m -29.69368,-0.65204 c 0.0169,-0.41097 0.10052,-0.49456 0.21314,-0.21314 0.10191,0.25466 0.0894,0.55893 -0.0279,0.67616 -0.11723,0.11723 -0.20061,-0.0911 -0.18529,-0.46302 z m -6.55424,-2.61643 c 0.35119,-0.38806 0.7179,-0.70556 0.81491,-0.70556 0.097,0 -0.11094,0.3175 -0.46213,0.70556 -0.35119,0.38805 -0.71789,0.70555 -0.81491,0.70555 -0.097,0 0.11095,-0.3175 0.46213,-0.70555 z m 7.9108,-2.734032 -0.85524,-0.970139 0.97014,0.855243 c 0.90674,0.799355 1.13192,1.085035 0.85524,1.085035 -0.0632,0 -0.49975,-0.436563 -0.97014,-0.970139 z m -10.90941,0.484166 c 0,-0.07325 0.27781,-0.351067 0.61736,-0.617361 0.55953,-0.43881 0.57201,-0.426332 0.1332,0.133195 -0.46086,0.587639 -0.75056,0.774516 -0.75056,0.484166 z"
         id="path3877" />
      <path
         style="fill:#ffffff;stroke-width:0.352778;fill-opacity:1"
         d="m -67.542462,106.39873 c -0.63059,-0.38448 -1.146528,-0.91491 -1.146528,-1.17873 0,-0.83125 1.3047,-1.70326 2.706645,-1.809 0.742665,-0.056 0.989644,-0.0317 0.548842,0.0541 -0.440803,0.0858 -1.060613,0.55144 -1.377354,1.03485 -0.525847,0.80254 -0.527258,0.92756 -0.01626,1.43857 0.307805,0.30781 1.16574,0.67691 1.906517,0.82022 l 1.346891,0.26057 -1.411111,0.0393 c -0.84625,0.0235 -1.870061,-0.24058 -2.557639,-0.6598 z m -0.319235,-0.90103 c -0.114897,-0.29941 -0.284562,-0.46872 -0.377032,-0.37625 -0.09247,0.0925 -0.06349,0.33745 0.0644,0.54439 0.347856,0.56284 0.551173,0.4535 0.312632,-0.16814 z m 57.13566,1.08485 c -0.930392,-0.40461 -1.111261,-0.66411 -1.035389,-1.4855 0.05056,-0.54739 0.280046,-0.95556 0.509962,-0.90705 0.229915,0.0485 0.418027,-0.0533 0.418027,-0.22634 0,-0.3475 1.7480104,-0.87727 2.0146892,-0.61059 0.092149,0.0922 -0.3144555,0.4168 -0.9035626,0.72144 -0.7948476,0.41103 -1.0336286,0.74851 -0.9257916,1.30847 0.07992,0.41501 0.189982,0.78127 0.244574,0.8139 0.05459,0.0326 0.4961327,0.23853 0.9812021,0.45756 0.4850695,0.21902 0.6438195,0.40276 0.3527778,0.40829 -0.2910416,0.006 -1.0364609,-0.21054 -1.6564889,-0.48018 z m 2.6266277,0.28423 c 0.2425348,-0.0979 0.6394097,-0.0979 0.8819444,0 0.2425348,0.0979 0.044097,0.17794 -0.4409722,0.17794 -0.4850694,0 -0.6835069,-0.0801 -0.4409722,-0.17794 z m -47.5368027,-1.94192 c 0,-1.4825 0.09637,-1.73845 0.617361,-1.63963 0.446405,0.0847 0.646779,0.51874 0.7236,1.56751 0.08892,1.21408 -0.01168,1.48123 -0.617361,1.63962 -0.658075,0.17209 -0.7236,0.0301 -0.7236,-1.5675 z m 11.288888,0.033 c 0,-1.51392 0.09515,-1.77173 0.617361,-1.67276 0.780013,0.14782 1.085846,2.70728 0.37719,3.15662 -0.849073,0.53838 -0.994551,0.32133 -0.994551,-1.48386 z m 9.403492,1.41737 c 0.227619,-0.22762 0.273463,-0.91331 0.117923,-1.76389 -0.252116,-1.37872 -0.244351,-1.39138 0.844702,-1.37775 0.888464,0.0111 1.325005,0.32064 2.277336,1.61465 0.647996,0.88049 1.107277,1.67179 1.020628,1.75844 -0.323847,0.32384 -1.163204,-0.25368 -1.846026,-1.27018 -1.079532,-1.60706 -1.545456,-1.5982 -1.327704,0.0253 0.170279,1.26953 0.116837,1.38586 -0.636679,1.38586 -0.57724,0 -0.711503,-0.11106 -0.45018,-0.37238 z m 4.681403,0.1078 c -0.01443,-0.14552 -0.09597,-0.64257 -0.181229,-1.10455 -0.08526,-0.46198 0.0456,-1.08777 0.290799,-1.39064 0.350139,-0.43249 0.351176,-0.49381 0.0048,-0.28574 -0.242535,0.14571 -0.440973,0.0968 -0.440973,-0.10867 0,-0.20548 0.3175,-0.3736 0.705556,-0.3736 0.61148,0 0.705556,0.23519 0.705556,1.76389 0,1.33272 -0.129354,1.76389 -0.529167,1.76389 -0.291042,0 -0.540964,-0.11906 -0.555382,-0.26458 z m 9.198437,-1.4993 c 0,-1.36084 0.110571,-1.62207 0.705556,-1.66689 0.616348,-0.0464 0.705555,0.16432 0.705555,1.66689 0,1.50257 -0.08921,1.71332 -0.705555,1.66689 -0.594985,-0.0448 -0.705556,-0.30605 -0.705556,-1.66689 z m 20.81917605,1.04845 c 0.21059068,-0.39349 0.5318548,-0.62337 0.71392693,-0.51084 0.18206861,0.11252 0.24958674,-0.008 0.15003638,-0.26709 -0.1511829,-0.39398 0.98280004,-2.03441 1.40633094,-2.03441 0.173429,0 0.016686,0.7216 -0.3334279,1.53491 -0.1835856,0.42649 -0.110296,0.77452 0.2112997,1.00342 0.3830708,0.27265 0.3523615,0.30523 -0.1383347,0.14673 -0.3806402,-0.12295 -0.7103251,0.004 -0.83149366,0.3195 -0.11043002,0.28777 -0.50688167,0.52322 -0.88100249,0.52322 -0.57403997,0 -0.62045494,-0.11168 -0.2973352,-0.71544 z m 3.52248945,0.15688 c -0.4850694,-0.26915 -0.6728107,-0.49171 -0.4171985,-0.49457 0.4388979,-0.005 0.3950123,-0.45539 -0.1981235,-2.03368 -0.091147,-0.24253 0.024871,-0.44097 0.2578276,-0.44097 0.2329533,0 0.5065748,0.3175 0.6080548,0.70556 0.1014801,0.38805 0.3417252,0.70555 0.5338833,0.70555 0.192158,0 0.2548361,0.24637 0.1392837,0.54749 -0.1155488,0.30112 -0.071208,0.46166 0.098538,0.35675 0.1697461,-0.10491 0.3911917,0.12497 0.4921003,0.51084 0.2116031,0.80918 -0.2374195,0.85159 -1.5143657,0.14303 z M -8.0994093,103.339 c 0.2425348,-0.0979 0.6394097,-0.0979 0.8819444,0 0.2425348,0.0979 0.044097,0.17794 -0.4409722,0.17794 -0.4850694,0 -0.6835069,-0.0801 -0.4409722,-0.17794 z"
         id="path3875" />
      <path
         style="fill:#ffffff;stroke-width:0.352778;fill-opacity:1"
         d="m -54.996803,106.50665 c 0.25466,-0.1019 0.558934,-0.0894 0.676159,0.0278 0.117224,0.11722 -0.09114,0.2006 -0.463021,0.18528 -0.410968,-0.0169 -0.494559,-0.10052 -0.213138,-0.21313 z m -13.177526,-0.84081 c -0.127893,-0.20694 -0.156873,-0.45191 -0.0644,-0.54439 0.09247,-0.0925 0.262135,0.0768 0.377032,0.37625 0.238541,0.62164 0.03524,0.73098 -0.312632,0.16814 z m 69.9008422,-2.0344 c -0.099931,-0.16169 0.042467,-0.29399 0.3164381,-0.29399 0.2739708,0 0.4163695,0.1323 0.3164382,0.29399 -0.099928,0.16169 -0.2423266,0.29398 -0.3164382,0.29398 -0.074111,0 -0.2165102,-0.13229 -0.3164381,-0.29398 z"
         id="path3873" />
      <path
         style="fill:#ffffff;stroke-width:0.352778;fill-opacity:1"
         d="m -142.48004,130.55122 c -1.1453,-0.36516 -2.08431,-1.02112 -3.07833,-2.15039 -1.58889,-1.80507 -1.96311,-3.10169 -1.72474,-5.97606 0.13588,-1.63861 0.0759,-1.90425 -0.39865,-1.76429 -1.85917,0.54837 -2.64788,0.5578 -4.38615,0.0525 -5.01862,-1.45895 -6.98649,-7.64301 -3.70063,-11.62933 1.66915,-2.02498 3.4867,-2.78744 6.26979,-2.63018 l 2.33059,0.13169 -0.13169,-2.33059 c -0.15703,-2.77909 0.60503,-4.600492 2.61959,-6.261063 4.00048,-3.297527 10.1776,-1.338291 11.63992,3.691903 0.50391,1.73338 0.49543,2.52527 -0.0468,4.3682 -0.13464,0.45761 0.21347,0.51962 2.26601,0.40364 2.89714,-0.1637 4.37402,0.41376 6.18507,2.41838 1.60666,1.77838 1.96771,3.24716 1.97007,8.0144 l 0.002,3.96875 h -1.76389 -1.76388 v -3.89807 c 0,-5.40338 -0.9542,-7.03804 -4.10831,-7.03804 -4.26212,0 -5.10766,6.23106 -0.99946,7.36539 0.66557,0.18377 1.53147,0.2501 1.92423,0.14739 0.64797,-0.16945 0.71409,-0.0202 0.71409,1.61158 0,1.60055 -0.0925,1.82152 -0.84085,2.00935 -0.46246,0.11607 -1.44572,0.044 -2.18502,-0.16011 -0.7393,-0.20413 -1.38469,-0.33064 -1.4342,-0.28113 -0.0495,0.0495 0.0826,0.7701 0.29359,1.6013 0.69234,2.72757 -0.81857,6.13332 -3.38931,7.63987 -1.91089,1.11985 -4.15086,1.3684 -6.26304,0.69494 z m 4.90095,-4.13799 c 1.06689,-0.97951 1.61827,-2.75313 1.19885,-3.85631 -0.18253,-0.48009 -1.69207,-2.96358 -3.35452,-5.51887 l -3.02265,-4.64597 h -1.61865 c -1.39288,0 -1.78105,-0.17221 -2.78313,-1.23472 -1.0105,-1.07143 -1.38418,-1.23472 -2.82567,-1.23472 -4.40104,0 -5.27097,6.02444 -1.07012,7.41084 1.63184,0.53856 3.64079,-0.38482 4.40211,-2.02335 0.40638,-0.87464 0.75419,-1.14066 1.49904,-1.14652 0.82374,-0.006 1.23438,0.39933 2.72538,2.69337 l 1.7555,2.70101 -0.96149,0.49163 c -1.46133,0.74721 -2.17964,1.88447 -2.18837,3.46466 -0.0185,3.3519 3.81282,5.13077 6.24372,2.89895 z m 0.45121,-14.6504 c 0,-0.15207 -0.54865,-1.12808 -1.21922,-2.16891 l -1.21922,-1.89243 1.13103,-0.56512 c 1.6335,-0.81618 2.54697,-2.82763 2.01548,-4.43806 -0.90965,-2.756286 -4.36657,-3.635327 -6.37965,-1.62225 -1.73241,1.73241 -1.4842,3.31287 1.17367,7.47326 2.03607,3.18707 2.29263,3.45277 3.35139,3.47064 0.63059,0.0106 1.14652,-0.10507 1.14652,-0.25713 z m 56.75668,11.78422 c -3.420745,-1.22244 -5.002103,-3.39914 -5.002103,-6.88528 0,-2.52071 0.35277,-3.50687 1.822559,-5.09493 2.600469,-2.80974 7.561597,-3.07638 10.427116,-0.56042 1.291209,1.1337 2.317972,3.57237 2.317972,5.50545 v 1.17188 h -4.938889 c -4.247102,0 -4.938888,0.0774 -4.938888,0.55236 0,2.40786 4.06685,3.79145 7.243275,2.46425 l 1.223391,-0.51116 v 1.55291 c 0,1.49398 -0.05021,1.56687 -1.322917,1.92031 -1.796404,0.49889 -5.277132,0.44011 -6.831516,-0.11537 z m 5.456251,-8.24805 c 0.302235,-0.48902 -0.759643,-2.49188 -1.54359,-2.91143 -1.749167,-0.93613 -4.224894,0.45621 -4.224894,2.37607 0,0.76862 0.121408,0.80344 2.801401,0.80344 1.540771,0 2.87596,-0.12063 2.967083,-0.26808 z m 35.158643,8.13675 c -1.414967,-0.73258 -2.108944,-1.90146 -2.116374,-3.56466 -0.01344,-3.01155 2.31037,-4.6289 6.841395,-4.76153 3.010739,-0.0881 3.329936,-0.26536 2.676584,-1.48615 -0.660629,-1.2344 -2.641843,-1.71809 -5.143298,-1.25567 -1.073196,0.19839 -2.100827,0.45315 -2.283629,0.56613 -0.187241,0.11572 -0.332363,-0.42363 -0.332363,-1.23525 0,-1.84316 0.797807,-2.209 4.938889,-2.26477 3.362236,-0.0453 5.187007,0.6249 6.506389,2.38958 0.645114,0.86284 0.738085,1.57394 0.838581,6.41398 l 0.11303,5.44356 h -1.965113 c -1.948272,0 -1.96511,-0.009 -1.96511,-1.05833 0,-1.3344 -0.21971,-1.32572 -1.654975,0.0654 -1.475716,1.43032 -4.46635,1.77679 -6.454006,0.74771 z m 6.326935,-3.19436 c 0.57822,-0.53358 1.147992,-1.38453 1.266165,-1.89101 0.187191,-0.80229 0.08382,-0.94707 -0.802774,-1.12439 -1.386226,-0.27725 -3.67902,0.28398 -4.228147,1.03496 -1.66104,2.27161 1.593783,3.9838 3.764756,1.98044 z m 28.4167671,3.4558 c -1.4750414,-0.61012 -2.4694443,-2.10928 -2.4694443,-3.72293 0,-3.13377 2.286963,-4.7533 6.84956124,-4.85058 3.08242036,-0.0657 3.42369756,-0.34703 2.32460436,-1.91621 -0.8647606,-1.23462 -4.3586504,-1.38095 -6.9693046,-0.29189 -0.5284293,0.22045 -0.6173611,0.0528 -0.6173611,-1.16395 0,-1.3248 0.08999,-1.45311 1.3229166,-1.8863 0.7276042,-0.25565 2.5929166,-0.45862 4.14513873,-0.45106 3.16570057,0.0154 4.46334067,0.51368 5.95519907,2.28666 0.8871584,1.05432 0.9239673,1.2709 0.9239673,5.43663 0,2.3862 0.099219,4.83465 0.2204861,5.44098 l 0.2204861,1.10243 H 4.7439519 c -1.7658996,0 -2.1134386,-0.0945 -1.9466312,-0.52916 0.1116859,-0.29105 0.1020128,-0.7925 -0.021484,-1.11435 -0.1959399,-0.51062 -0.3468476,-0.47116 -1.1842715,0.30967 -0.5278437,0.49217 -1.30646652,1.073 -1.73027256,1.29074 -0.88515114,0.45475 -3.83118414,0.49061 -4.87388584,0.0593 z m 5.41689197,-2.98837 c 1.81228993,-0.93717 2.41042813,-3.35491 0.84491333,-3.41523 -2.3138835,-0.0892 -3.1177899,0.10924 -3.8805554,0.9577 -0.9736348,1.08301 -0.9844087,1.35847 -0.088194,2.25468 0.8326119,0.83261 1.7862549,0.89454 3.12383607,0.20285 z M -115.25565,123.52119 c 0,-0.22061 2.80761,-7.73029 4.49052,-12.01105 0.76278,-1.94028 1.6651,-4.28184 2.00513,-5.20347 l 0.61826,-1.6757 3.05762,10e-4 3.05763,0.001 1.53201,3.96774 c 2.776315,7.19024 5.699936,14.87241 5.699936,14.97716 0,0.0566 -1.177396,0.10298 -2.616436,0.10298 h -2.61643 l -0.67541,-2.02847 -0.67541,-2.02847 -3.53437,-0.1 c -3.95061,-0.11173 -3.89261,-0.14125 -4.87335,2.4812 l -0.62667,1.67569 h -2.42152 c -1.33183,0 -2.42151,-0.0719 -2.42151,-0.15978 z m 12.56055,-7.86591 c -1.01546,-3.35254 -2.09025,-6.67292 -2.24142,-6.92447 -0.10242,-0.17044 -0.32697,-0.0584 -0.499,0.24904 -0.25159,0.44955 -2.40226,6.87953 -2.40977,7.20459 -10e-4,0.0485 1.19929,0.0882 2.66758,0.0882 2.37853,0 2.64921,-0.0673 2.48261,-0.61736 z m 10.017223,-2.20486 v -10.23056 h 2.293055 2.293056 v 10.23056 10.23055 h -2.293056 -2.293055 z m 23.988887,3.175 v -7.05556 h 2.116667 2.116667 v 1.48271 1.48271 l 1.349487,-1.31774 c 1.552847,-1.51632 3.420001,-2.15069 5.363623,-1.82232 1.339846,0.22636 2.90836,1.346 3.227691,2.30399 0.119478,0.35843 0.494513,0.18192 1.373579,-0.6465 2.879791,-2.71388 7.27735,-2.09901 8.660313,1.21089 0.33765,0.80811 0.486417,2.73209 0.486417,6.29076 v 5.12661 h -2.293056 -2.293055 v -4.70782 c 0,-5.26325 -0.249601,-5.87551 -2.395287,-5.87551 -2.26114,0 -2.89638,1.5571 -2.89638,7.09965 v 3.48368 h -2.293055 -2.293056 l -0.0052,-4.32153 c -0.0063,-5.21887 -0.302169,-6.03657 -2.242379,-6.19696 -2.500454,-0.20671 -3.39688,1.78236 -3.39688,7.53725 v 2.98124 h -2.293055 -2.293056 z m 43.744443,0 v -7.05556 h 2.116666 2.116667 v 1.48005 1.48005 l 1.146528,-1.24871 c 3.013141,-3.2817 8.286029,-2.35028 9.399523,1.66036 0.2123688,0.76491 0.3870114,3.49419 0.3880909,6.06506 l 0.00197,4.6743 h -2.2930549 -2.293055 v -4.25085 c 0,-5.54873 -0.376686,-6.41695 -2.71719,-6.26285 -2.599411,0.17114 -3.075883,1.10369 -3.221383,6.30486 l -0.11774,4.20884 h -2.26351 -2.26351 z"
         id="path3871" />
    </g>
  </g>
</svg>
