<?xml version="1.0" encoding="UTF-8" standalone="no"?>
<!-- Generator: Adobe Illustrator 19.2.1, SVG Export Plug-In . SVG Version: 6.00 Build 0)  -->

<svg
   version="1.1"
   id="layer"
   x="0px"
   y="0px"
   viewBox="0 0 600 303.39468"
   xml:space="preserve"
   width="600"
   height="303.39468"
   xmlns="http://www.w3.org/2000/svg"
   xmlnsSvg="http://www.w3.org/2000/svg"><defs
   id="defs2409" />
<style
   type="text/css"
   id="style2348">
	.st0{fill:#004E91;}
	.st1{fill:#FBB908;}
</style>
<g
   id="g2404"
   transform="translate(-20.8,-171.10532)">
	<path
   class="st0"
   d="m 577.4,365.5 c 5.8,0 10.2,-1.7 13.2,-5.3 2.6,-3 3.9,-7.2 3.9,-12.4 0,-5.2 -1.3,-9.4 -3.9,-12.4 -3,-3.6 -7.5,-5.3 -13.2,-5.3 h -79.9 v 35.7 h 79.9 z m 3.3,-54.8 c 17.1,0 28.9,5.6 35.4,16.7 3.2,5.6 4.7,12.4 4.7,20.1 0,16.1 -6.2,26.9 -18.7,32.7 -6.2,2.9 -13.2,4.3 -21.6,4.3 H 497.3 V 430 H 472.1 V 310.6 h 108.5 v 0.1 z"
   id="path2350" />
	<path
   class="st0"
   d="m 187.1,404.4 c -9.2,0 -16.6,-2.6 -21.9,-7.6 -5.3,-5 -7.9,-12.1 -7.9,-21.3 0,-9.1 2.6,-16.1 7.9,-21.2 5.3,-5 12.4,-7.6 21.6,-7.6 H 271 v -4.5 c 0,-6.2 -2.3,-9.9 -6.9,-11.2 -1.4,-0.4 -3.6,-0.6 -6.5,-0.6 h -94.3 v -19.7 h 100.5 c 9.9,0 17.8,2.6 23.6,7.8 3.6,3.2 6,7.1 7.3,11.2 0.9,3.2 1.3,11.5 1.3,17.3 v 57.3 z M 271,384.5 v -19 h -80.5 c -5.3,0 -7.9,3.2 -7.9,9.6 0,6.3 2.6,9.4 7.9,9.4 z"
   id="path2352" />
	<path
   class="st1"
   d="m 447.4,174.7 c 2.2,-8.5 -91.7,-7.2 -103,64.3 -11.4,71.4 91.5,110.4 93.4,102.9 0,0 -13.5,-17.7 -15.4,-31.4 -2.2,-13.5 -2.7,-20.1 -2.7,-20.1 0,0 -9.6,6 -31.2,-5.9 -21.6,-11.9 -23.3,-27.2 -22.9,-27.2 0.4,0 13.5,-13.7 24.3,-18.1 10.9,-4.5 19,-4.3 19,-4.3 0,0 -2.6,-10.4 1,-22.2 6.2,-19.6 37.5,-38 37.5,-38"
   id="path2354" />
	<path
   class="st0"
   d="m 446,198 c 0,0 12.2,17.7 12.4,25.8 0,8.3 -6.9,23.7 -6.2,26.2 0.6,2.3 15.1,-13.7 27.6,-13.7 14.2,0.3 22.5,12.5 22.5,12.5 0,0 -11.8,24.9 -18.1,25.3 -6.5,0.4 -26,-2.3 -27.3,-1.2 -1,1.2 11.4,17.6 6.2,25.8 -4.9,8.3 -24.6,19 -24.6,19 0,0 -7.5,-13 -8.3,-21.3 -0.9,-8.1 1,-26.6 2.2,-28.5 1.3,-2 -10.7,17.7 -24.2,12.1 -13.5,-5.6 -30.1,-19.6 -30.1,-19.6 0,0 22.2,-14.4 26.9,-14.8 4.7,-0.7 19,-1.2 19,-1.2 0,0 -5.6,-14.1 -2.2,-21.7 -0.4,-9.9 21.6,-26.4 24.2,-24.7"
   id="path2356" />
	<path
   class="st1"
   d="m 486.3,215.9 c 8.3,0 15.4,-7.2 15.4,-16 0,-8.9 -7.1,-16.1 -15.4,-16.1 -8.3,0 -15.4,7.2 -15.4,16.1 0,8.8 7,16 15.4,16"
   id="path2358" />
	<path
   class="st0"
   d="m 137.3,310.7 v 19.6 H 73.7 c -1.9,0 -3.6,0.1 -5,0.3 -1,0.3 -2.2,0.9 -3.5,1.9 -2.2,2 -3.3,5.2 -3.3,9.5 v 4.2 l 75.4,-0.3 v 19.7 l -75.4,0.3 v 64 H 36.7 v -64 H 20.8 v -19.7 h 15.8 v -10.4 c 0,-4.5 0.4,-8.1 1.2,-10.9 0.9,-3 2.4,-5.8 5,-8.3 2.4,-2.4 5.2,-4.2 8.2,-4.7 2.9,-0.7 6.5,-1 10.8,-1 h 75.5 z"
   id="path2360" />
	<path
   class="st0"
   d="m 37.4,462.5 c 0,7.6 -2.4,9.6 -6.9,9.6 -1.6,0 -2.7,-0.3 -3.6,-0.7 l -0.6,2 c 0.9,0.4 2.6,0.9 4.2,0.9 4.9,0 9.4,-2.4 9.4,-11.2 v -23.9 h -2.4 v 23.3 z"
   id="path2362" />
	<path
   class="st0"
   d="M 66.5,449.2 H 64 v 15.4 c 0,1 -0.1,2 -0.4,2.7 -1,2.4 -3.7,5 -7.3,5 -4.9,0 -6.5,-3.9 -6.5,-9.2 v -13.8 h -2.4 v 14.2 c 0,9.2 5.3,10.9 8.3,10.9 4.3,0 7.2,-2.7 8.3,-5 h 0.1 l 0.1,4.5 h 2.3 c -0.1,-1.9 -0.1,-3.9 -0.1,-6 v -18.7 z"
   id="path2364" />
	<path
   class="st0"
   d="m 74.7,473.8 h 2.4 v -15.3 c 0,-0.7 0.1,-1.6 0.3,-2.2 1,-3.2 3.9,-5.8 7.3,-5.8 5,0 6.8,4 6.8,8.6 v 14.5 H 94 v -14.8 c 0,-9.2 -6.2,-10.4 -8.6,-10.4 -4,0 -7.2,2.2 -8.5,5 h -0.1 l -0.1,-4.5 h -2.3 c 0.1,2 0.1,3.6 0.1,5.9 v 18.7 h 0.2 z"
   id="path2366" />
	<path
   class="st0"
   d="m 102.9,444.6 v 4.5 h -4.2 v 2 h 4.2 v 15.5 c 0,2.4 0.4,4.6 1.6,5.9 0.9,1.2 2.4,1.7 4.2,1.7 1.4,0 2.6,-0.3 3.5,-0.6 l -0.3,-1.9 c -0.6,0.1 -1.6,0.3 -2.9,0.3 -2.6,0 -3.6,-2 -3.6,-5 v -15.8 h 7.1 v -2 h -7.1 v -5.5 z"
   id="path2368" />
	<path
   class="st0"
   d="m 126.6,472.3 c -5,0 -8.9,-4.6 -8.9,-10.8 0,-5.3 2.9,-10.9 9.1,-10.9 6.5,0 9.1,6.2 9.1,10.7 -0.1,6.3 -4.1,11 -9.3,11 z m 0,2 c 5.5,0 11.8,-3.9 11.8,-13.1 0,-7.5 -4.6,-12.7 -11.4,-12.7 -6,0 -11.7,4.6 -11.7,13.1 0,7.7 4.9,12.7 11.3,12.7 z"
   id="path2370" />
	<path
   class="st0"
   d="m 142.5,472.6 c 1.6,1 3.9,1.7 6.2,1.7 5,0 8.3,-2.9 8.3,-7.1 0,-3.7 -2.3,-5.8 -6.3,-7.3 -3.3,-1.4 -5,-2.4 -5,-5 0,-2.3 1.6,-4.3 4.7,-4.3 2.4,0 4,0.9 4.9,1.4 l 0.9,-2 c -1.3,-0.9 -3.2,-1.6 -5.5,-1.6 -4.7,0 -7.6,3 -7.6,6.6 0,3 2.2,5.2 6.2,6.8 3.6,1.4 5.2,2.9 5.2,5.6 0,2.6 -1.9,4.6 -5.8,4.6 -2.2,0 -4.2,-0.9 -5.6,-1.7 z"
   id="path2372" />
	<path
   class="st0"
   d="m 190.5,470.7 c -1.3,0.6 -3.2,1.4 -6.2,1.4 -5.8,0 -9.8,-4.2 -9.8,-10.7 0,-5.8 3.5,-10.8 9.9,-10.8 2.7,0 4.6,0.7 5.8,1.4 l 0.9,-2 c -0.9,-0.7 -3.5,-1.6 -6.5,-1.6 -7.3,0 -12.7,5.3 -12.7,13.1 0,7.3 4.7,12.5 11.8,12.5 3.6,0 6.2,-1 7.2,-1.6 z"
   id="path2374" />
	<path
   class="st0"
   d="m 206.2,472.3 c -5,0 -8.9,-4.6 -8.9,-10.8 0,-5.3 2.9,-10.9 9.1,-10.9 6.5,0 9.1,6.2 9.1,10.7 -0.1,6.3 -4.1,11 -9.3,11 z m 0,2 c 5.5,0 11.8,-3.9 11.8,-13.1 0,-7.5 -4.6,-12.7 -11.4,-12.7 -6,0 -11.7,4.6 -11.7,13.1 -0.1,7.7 4.8,12.7 11.3,12.7 z"
   id="path2376" />
	<path
   class="st0"
   d="m 224.1,473.8 h 2.4 v -15.3 c 0,-0.7 0.1,-1.6 0.3,-2.2 1,-3.2 3.9,-5.8 7.3,-5.8 5,0 6.8,4 6.8,8.6 v 14.5 h 2.4 v -14.8 c 0,-9.2 -6.2,-10.4 -8.6,-10.4 -4,0 -7.2,2.2 -8.5,5 h -0.1 l -0.1,-4.5 h -2.3 c 0.1,2 0.1,3.6 0.1,5.9 v 18.7 h 0.3 z"
   id="path2378" />
	<path
   class="st0"
   d="m 252.3,444.6 v 4.5 h -4.2 v 2 h 4.2 v 15.5 c 0,2.4 0.4,4.6 1.6,5.9 0.9,1.2 2.4,1.7 4.2,1.7 1.4,0 2.6,-0.3 3.5,-0.6 l -0.3,-1.9 c -0.6,0.1 -1.6,0.3 -2.9,0.3 -2.6,0 -3.6,-2 -3.6,-5 v -15.8 h 7.1 v -2 h -7.1 v -5.5 z"
   id="path2380" />
	<path
   class="st0"
   d="m 267,473.8 h 2.4 v -13.5 c 0,-0.9 0,-1.6 0.1,-2.3 0.7,-3.9 3,-6.9 6.5,-6.9 0.4,0 0.9,0 1.2,0 v -2.3 c -0.3,0 -0.7,-0.1 -1,-0.1 -3.3,0 -5.9,2.4 -6.9,5.5 h -0.1 l -0.1,-5 h -2.3 c 0.1,2.4 0.1,4.9 0.1,7.3 v 17.4 h 0.1 z"
   id="path2382" />
	<path
   class="st0"
   d="m 294.9,465.9 c 0,0.4 0,1 -0.3,1.4 -0.9,2.4 -3.2,4.9 -7.3,4.9 -2.6,0 -4.9,-1.6 -4.9,-5.2 0,-5.9 7.1,-6.8 12.5,-6.6 z m 2.4,-7.7 c 0,-4.3 -1.4,-9.6 -8.5,-9.6 -2.2,0 -5,0.6 -7.2,2.2 l 0.7,1.7 c 1.7,-1.3 4,-1.9 6.2,-1.9 5.9,0 6.3,4.9 6.3,7.2 v 0.7 c -10.1,-0.1 -15,3.3 -15,9.1 0,3.3 2.3,6.8 7.2,6.8 3.9,0 6.6,-2.2 7.9,-4.2 h 0.1 l 0.3,3.6 h 2.3 c -0.3,-1.9 -0.3,-3.9 -0.3,-5.9 v -9.6 0 z"
   id="path2384" />
	<path
   class="st0"
   d="m 316.5,459.2 c 0.4,-3.7 2.7,-8.6 8.2,-8.6 5.9,0 7.3,5.2 7.3,8.6 z m 18,2 c 0.1,-0.4 0.1,-0.9 0.1,-1.4 0,-3.6 -1.6,-11.1 -9.6,-11.1 -6.3,0 -11.1,5.2 -11.1,13.4 0,7.2 4.5,12.4 11.5,12.4 4.3,0 6.8,-1 7.8,-1.6 l -0.6,-1.9 c -1.4,0.7 -3.2,1.4 -6.8,1.4 -5,0 -9.4,-3.2 -9.4,-10.9 h 18 v -0.3 z"
   id="path2386" />
	<rect
   x="340.60001"
   y="437.39999"
   class="st0"
   width="2.4000001"
   height="36.400002"
   id="rect2388" />
	<path
   class="st0"
   d="m 378.6,469.5 c -1.3,0.6 -3,1.2 -5.5,1.2 -4.9,0 -8.6,-3.6 -8.6,-9.4 0,-5.2 3,-9.4 8.8,-9.4 2.4,0 4.2,0.6 5.2,1.2 l 1,-3.5 c -1.3,-0.7 -3.6,-1.3 -6.2,-1.3 -8.1,0 -13.4,5.6 -13.4,13.2 0,7.6 4.9,12.7 12.4,12.7 3.3,0 5.9,-0.9 7.2,-1.4 z"
   id="path2390" />
	<path
   class="st0"
   d="m 394.9,438.2 -4.5,7.3 h 3.2 l 6.2,-7.3 z m 2.7,27.2 c 0,0.4 0,0.9 -0.1,1.4 -0.7,2.2 -2.9,4.2 -6,4.2 -2.3,0 -4.2,-1.3 -4.2,-4.3 0,-4.7 5.6,-5.8 10.5,-5.6 v 4.3 z m 4.3,-6.9 c 0,-4.9 -1.9,-10.1 -9.5,-10.1 -3.2,0 -6.2,0.9 -8.2,2.2 l 1,3 c 1.7,-1.2 4.2,-1.9 6.5,-1.9 5,0 5.6,3.7 5.6,5.8 v 0.6 c -9.6,0 -15,3.2 -15,9.2 0,3.6 2.6,7.2 7.6,7.2 3.6,0 6.2,-1.7 7.6,-3.7 h 0.1 l 0.3,3.2 h 4 c -0.3,-1.7 -0.3,-3.7 -0.3,-5.9 v -9.5 h 0.3 z"
   id="path2392" />
	<path
   class="st0"
   d="m 409.1,473.8 h 4.5 v -15 c 0,-0.7 0.1,-1.6 0.3,-2.2 0.9,-2.4 3.2,-4.6 6,-4.6 4.3,0 5.8,3.3 5.8,7.3 v 14.2 h 4.5 v -14.8 c 0,-8.5 -5.3,-10.5 -8.8,-10.5 -4.2,0 -6.9,2.3 -8.2,4.6 v 0 l -0.3,-4.2 h -4 c 0.1,2 0.1,4.2 0.1,6.8 v 18.3 h 0.1 z"
   id="path2394" />
	<path
   class="st0"
   d="m 454.3,469.5 c -1.3,0.6 -3,1.2 -5.5,1.2 -4.9,0 -8.6,-3.6 -8.6,-9.4 0,-5.2 3,-9.4 8.8,-9.4 2.4,0 4.2,0.6 5.2,1.2 l 1,-3.5 c -1.3,-0.7 -3.6,-1.3 -6.2,-1.3 -8.1,0 -13.4,5.6 -13.4,13.2 0,7.6 4.9,12.7 12.4,12.7 3.3,0 5.9,-0.9 7.2,-1.4 z"
   id="path2396" />
	<path
   class="st0"
   d="m 462.4,458.9 c 0.3,-3.2 2.3,-7.3 6.9,-7.3 5,0 6.3,4.5 6.2,7.3 z m 17.4,3.2 c 0.1,-0.6 0.1,-1.2 0.1,-2.2 0,-4.6 -2.2,-11.7 -10.2,-11.7 -7.2,0 -11.7,5.9 -11.7,13.4 0,7.5 4.6,12.5 12.2,12.5 3.9,0 6.8,-0.9 8.3,-1.6 l -0.9,-3.2 c -1.6,0.7 -3.6,1.3 -6.9,1.3 -4.6,0 -8.3,-2.4 -8.5,-8.6 h 17.6 z"
   id="path2398" />
	<path
   class="st0"
   d="m 485.4,473.8 h 4.5 v -13.2 c 0,-0.7 0,-1.4 0.1,-2.2 0.6,-3.5 2.9,-5.8 6,-5.8 0.6,0 1.2,0 1.6,0.1 v -4.3 c -0.4,0 -0.7,-0.1 -1.3,-0.1 -3,0 -5.8,2.2 -6.9,5.5 h -0.1 l -0.1,-4.9 h -4 c 0.1,2.3 0.1,4.7 0.1,7.8 v 17.1 z"
   id="path2400" />
	<path
   class="st0"
   d="m 362.9,404.4 c -19.3,0 -31.7,-7.8 -37.1,-23.5 -2.2,-6 -3.2,-12.4 -3.2,-19 V 310.7 H 350 v 48.6 c 0,6.5 2,11.7 6,15.4 3.2,3 7.8,4.5 13.8,4.5 h 78.7 v 25.2 z"
   id="path2402" />
</g>
</svg>
