<?xml version="1.0" encoding="UTF-8" standalone="no"?>
<svg
   width="516px"
   height="53px"
   viewBox="0 0 516 53"
   version="1.1"
   id="svg65338"
   xmlns="http://www.w3.org/2000/svg"
   xmlnsSvg="http://www.w3.org/2000/svg">
  <defs
     id="defs65342" />
  <title
     id="title65300">active-campaign-logo</title>
  <g
     id="Page-1"
     stroke="none"
     stroke-width="1"
     fill="none"
     fill-rule="evenodd"
     style="fill:#2d6ce8;fill-opacity:1">
    <g
       id="active-campaign-logo"
       fill="#FFFFFF"
       fill-rule="nonzero"
       style="fill:#2d6ce8;fill-opacity:1">
      <path
         d="M387.3,1.2 L383.8,1.2 L383.8,4.7 C383.8,5.6 384.2,6.7 386,6.7 L389.5,6.7 L389.5,3.2 C389.5,2.4 389.2,1.2 387.3,1.2 Z"
         id="Path"
         style="fill:#2d6ce8;fill-opacity:1" />
      <path
         d="M387,12.5 L384.2,12.5 L384.2,41.4 C384.2,42.6 385,43.4 386.1,43.5 L386.1,43.6 L389.3,43.6 L389.3,14.6 C389.2,13.3 388.5,12.5 387,12.5 Z"
         id="path65303"
         style="fill:#2d6ce8;fill-opacity:1" />
      <path
         d="M217.6,35.1 C216.4,33.9 214.9,34.2 214,35 C210.3,38.1 206.9,39.3 202.5,39.3 C193.7,39.3 186.7,31.9 186.7,22.4 C186.7,12.9 193.5,5.6 202.5,5.6 C206.8,5.6 210.4,6.9 213.8,9.8 C214.6,10.5 216,10.8 217,9.7 C217.9,8.8 218.8,7.8 218.8,7.8 L219,7.6 L218.8,7.4 C215.2,3.9 210.7,0.7 202.5,0.7 C190.6,0.7 181.4,10.3 181.4,22.5 C181.4,34.8 190.4,44.1 202.4,44.1 C209.1,44.1 214,41.9 219,36.7 L219.1,36.5 L219,36.3 C219,36.5 218.7,36.1 217.6,35.1 Z"
         id="path65305"
         style="fill:#2d6ce8;fill-opacity:1" />
      <path
         d="M293.6,11.8 C289.2,11.8 285.7,13.7 283,17.5 C281.8,15.1 279,11.6 273.2,11.6 C268.2,11.6 265.5,14.2 263.5,16.8 L263.5,14.6 C263.5,13.1 262.6,12.2 261.2,12.2 L258.4,12.2 L258.4,43.3 L261.2,43.3 C262.6,43.3 263.4,42.9 263.4,41.2 L263.4,25.7 C263.4,20.3 266.9,16.3 271.6,16.3 C276.4,16.3 279.2,19.6 279.2,25.2 L279.2,41.2 C279.2,42.7 280,43.4 281.4,43.4 L284.2,43.4 L284.2,25.6 C284.2,19.2 288.3,16.4 292.4,16.4 C297.3,16.4 300.1,19.7 300.1,25.3 L300.1,40.9 C300.1,42.2 300.4,43.4 302.4,43.4 L305.1,43.4 L305.1,24.3 C305.2,16.6 300.8,11.8 293.6,11.8 Z"
         id="path65307"
         style="fill:#2d6ce8;fill-opacity:1" />
      <path
         d="M329.7,11.9 C325.1,11.9 321.3,13.9 318.2,18.2 L318.2,15 C318.2,13.4 317.3,12.6 315.7,12.6 L313.2,12.6 L313.2,50.8 C313.2,52.3 313.9,53 315.4,53 L318.2,53 L318.2,38.2 C321.3,42.2 325,44.2 329.7,44.2 C336.9,44.2 344.5,38.5 344.5,28 C344.5,17.5 336.9,11.9 329.7,11.9 Z M339.3,28 C339.3,34.8 335,39.5 328.8,39.5 C323.5,39.5 318,35.1 318,27.9 C318,20.7 323.5,16.3 328.8,16.3 C334,16.4 339.3,20.4 339.3,28 Z"
         id="Shape"
         style="fill:#2d6ce8;fill-opacity:1" />
      <path
         d="M422.2,14.7 L422.2,17.3 C420.1,14.6 416.4,11.6 410.5,11.6 C406.8,11.6 403.1,13 400.4,15.5 C397.5,18.2 395.9,22.1 395.9,26.3 C395.9,35.8 403.4,40.9 410.5,40.9 C415.1,40.9 419,39 422.3,35 L422.3,38 C422.3,44.8 418.3,48.7 411.5,48.7 C408.2,48.7 405,47.9 402,46.2 C401.2,45.7 400.6,45.5 400.1,45.5 C399.5,45.5 398.9,45.8 398.5,46.5 C397.7,47.8 397.4,48.4 397.4,48.4 L397.3,48.6 L397.5,48.7 C401.6,51.6 406.3,53 411.5,53 C421.5,53 427.3,47.5 427.3,37.9 L427.3,12.4 L424.5,12.4 C423.6,12.4 422.2,13.2 422.2,14.7 Z M422.5,26.6 C422.5,33 416.9,36.8 411.5,36.8 C405.6,36.8 401.2,32.4 401.2,26.6 C401.2,20.7 405.6,16.5 411.5,16.5 C416.8,16.4 422.5,19.9 422.5,26.6 Z"
         id="path65310"
         style="fill:#2d6ce8;fill-opacity:1" />
      <path
         d="M450.9,11.9 C446.5,11.9 443.1,13.7 440.7,17.3 L440.7,14.7 C440.7,13.2 439.5,12.6 438.3,12.6 L435.5,12.6 L435.5,43.7 L440.6,43.7 L440.5,25.9 C440.5,20.4 444.2,16.6 449.5,16.6 C454.7,16.6 457.7,19.9 457.7,25.6 L457.7,41.6 C457.7,43.1 458.4,43.7 459.7,43.7 L462.7,43.7 L462.7,24.3 C462.8,16.7 458.2,11.9 450.9,11.9 Z"
         id="path65312"
         style="fill:#2d6ce8;fill-opacity:1" />
      <path
         d="M363.3,12 C359.4,12 355.9,12.8 352.1,14.5 L351.9,14.6 L352,14.8 C352,14.8 352.5,16.2 352.9,17.2 C353.3,18.2 354.5,18.3 355.4,17.9 C358,16.9 360.3,16.4 362.9,16.4 C368.6,16.4 371.7,19.3 371.7,24.5 L371.7,32 C371.7,36.7 367.5,40 361.7,40 C358.1,40 354.2,38.2 354.2,34.2 C354.2,30.4 357.3,28.3 362.9,28.3 L365.4,28.3 C366.9,28.3 367.6,27.6 367.6,26.2 L367.6,24.5 L362.4,24.5 C353.9,24.5 349.1,28.1 349.1,34.3 C349.1,39 352.7,44.2 360.8,44.2 C365.2,44.2 368.9,42.5 371.6,39.3 L371.6,41.4 C371.6,42.8 372.3,43.4 373.8,43.4 L376.6,43.4 L376.6,24.4 C376.5,16.5 371.8,12 363.3,12 Z"
         id="path65314"
         style="fill:#2d6ce8;fill-opacity:1" />
      <path
         d="M237.4,12 C232.6,12 229.2,13.2 226.2,14.5 L226,14.7 L226.1,14.9 C226.1,14.9 226.6,16.3 227,17.3 C227.4,18.3 228.6,18.4 229.5,18 C232.1,17 234.4,16.5 237,16.5 C242.7,16.5 245.9,19.4 245.9,24.6 L245.9,32 C245.9,36.7 241.7,40 235.9,40 C232.3,40 228.5,38.2 228.5,34.2 C228.5,30.4 231.6,28.3 237.1,28.3 L239.6,28.3 C241.1,28.3 241.8,27.6 241.8,26.2 L241.8,24.5 L236.7,24.5 C228.2,24.5 223.3,28.1 223.3,34.3 C223.3,39 226.9,44.2 234.9,44.2 C239.3,44.2 243,42.5 245.8,39.3 L245.8,41.4 C245.8,42.8 246.5,43.4 247.9,43.4 L250.7,43.4 L250.7,24.4 C250.6,16.5 245.9,12 237.4,12 Z"
         id="path65316"
         style="fill:#2d6ce8;fill-opacity:1" />
      <path
         d="M514.2,23.6 C513.5,23 485,3.1 483.7,2.3 L483.3,2 L483.3,6.9 C483.3,8.5 484.1,9 485.1,9.8 L485.3,9.9 C486.7,10.9 507,25 509.7,26.9 C507,28.8 486.4,43.1 485.1,43.9 C483.5,44.9 483.4,45.6 483.4,47 L483.4,51.7 C483.4,51.7 513.7,30.6 514.3,30.1 L514.3,30.1 C515.7,29.1 516,27.8 516,27 L516,26.4 C516,25.4 515.4,24.4 514.2,23.6 Z"
         id="path65318"
         style="fill:#2d6ce8;fill-opacity:1" />
      <path
         d="M496.4,29.1 C497.2,29.1 498,28.8 498.8,28.2 C499.8,27.5 500.7,26.9 500.7,26.9 L501,26.7 L500.7,26.5 C500.6,26.4 487.3,17.2 485.9,16.3 C485.3,15.8 484.5,15.7 484,16 C483.5,16.3 483.1,16.8 483.1,17.6 L483.1,20.7 L483.2,20.8 C483.3,20.9 492.4,27.2 494.2,28.4 C495,28.9 495.7,29.1 496.4,29.1 Z"
         id="path65320"
         style="fill:#2d6ce8;fill-opacity:1" />
      <path
         d="M72.3,36.4 C71.2,35.3 69.8,36 69.2,36.5 C66.9,38.6 64.3,39.6 61.5,39.6 C55.4,39.6 50.6,34.5 50.6,27.9 C50.6,21.4 55.3,16.3 61.2,16.3 C64.6,16.3 66.8,17.8 68.6,19.2 C69.9,20.3 71,20.4 71.9,19.4 C72.7,18.6 73.6,17.6 73.6,17.6 L73.8,17.4 L73.6,17.2 C70.1,13.4 66.2,11.7 61.2,11.7 C52.3,11.7 45.2,18.8 45.2,27.9 C45.2,36.8 52.4,44.1 61.2,44.1 C67.7,44.1 71.4,40.8 73.8,38 L74,38 L73.8,37.8 C73.8,37.8 73.3,37.4 72.3,36.4 Z"
         id="path65322"
         style="fill:#2d6ce8;fill-opacity:1" />
      <path
         d="M105.5,1.2 L102,1.2 L102,4.7 C102,5.6 102.4,6.7 104.2,6.7 L107.7,6.7 L107.7,3.6 C107.8,2.2 106.9,1.2 105.5,1.2 Z"
         id="path65324"
         style="fill:#2d6ce8;fill-opacity:1" />
      <path
         d="M105.1,12.5 L102.2,12.5 L102.2,41.4 C102.2,42.6 103,43.4 104.1,43.5 L104.1,43.6 L107.3,43.6 L107.3,14.6 C107.4,13.3 106.6,12.5 105.1,12.5 Z"
         id="path65326"
         style="fill:#2d6ce8;fill-opacity:1" />
      <path
         d="M138,14.2 C137.6,15.3 130,33.7 128.5,37.1 C127.1,33.6 119.5,15.2 119.1,14.2 C118.6,13 117.6,12.3 116.3,12.3 L112.7,12.3 L112.9,12.6 C113,13 125.1,40.9 125.6,42 C126.1,43.3 126.9,43.6 128.2,43.6 L128.8,43.6 C130,43.6 130.8,43.1 131.3,42 C131.8,40.9 143.9,13.2 144,12.9 L144.2,12.5 L140.7,12.5 C139.4,12.5 138.5,13 138,14.2 Z"
         id="path65328"
         style="fill:#2d6ce8;fill-opacity:1" />
      <path
         d="M169.3,26.2 L157.4,26.2 C156.1,26.2 155.3,27 155.3,28.3 L155.3,30.3 L155.6,30.3 C161.3,30.2 167.9,30.2 170.6,30.2 C172.2,30.2 173.4,29.8 174.3,28.9 C175.1,28 175.5,26.6 175.4,25 C174.5,17 168.8,11.8 161,11.8 C152.5,11.8 146,18.8 146,28 C146,37.3 152.7,44.2 161.6,44.2 C166.8,44.2 170.7,42.4 174.4,38.4 L174.6,38.2 L174.4,38 C174.4,38 173.7,37.4 172.9,36.7 C171.7,35.7 170.6,36.1 170,36.7 C167.8,38.7 165.1,39.7 161.8,39.7 C156.1,39.7 151.9,35.6 151.2,29.5 C151.2,29.5 151.1,28.8 151.1,27.9 C151.1,26.9 151.2,26.2 151.2,26.2 C151.8,20.2 155.8,16 160.9,16 C166,16 169.7,19.4 170.2,24.6 C170.3,25.1 170.2,25.5 170.1,25.7 C169.8,26.1 169.6,26.2 169.3,26.2 Z"
         id="path65330"
         style="fill:#2d6ce8;fill-opacity:1" />
      <path
         d="M25.5,2.8 L25.5,2.8 C24.9,1.6 24.2,1.2 22.9,1.2 L21.7,1.2 C20.7,1.2 19.8,1.8 19.3,2.7 C18.9,3.6 1.3,42.8 1.1,43.2 L0.9,43.6 L4.2,43.6 C5.6,43.6 6.5,43 7.2,41.6 C7.8,40.4 10.7,33.8 11.2,32.7 L24.1,32.7 C25.7,32.7 26.7,31.7 26.7,30.2 L26.7,28 L13.2,28 L22.3,7.6 C24.2,11.8 36.9,40.8 37.5,42 C38.3,43.6 40.2,43.6 40.8,43.6 L43.8,43.6 L43.6,43.2 C43.6,42.8 26.1,4.1 25.5,2.8 Z"
         id="path65332"
         style="fill:#2d6ce8;fill-opacity:1" />
      <path
         d="M94.8,39.1 C94.3,38.8 93.6,38.7 92.9,38.9 C91.8,39.2 91,39.4 90,39.4 C86.8,39.4 85.1,37.8 85.1,34.5 L85.1,17 L94.8,17 L94.8,14.9 C94.8,13.3 93.4,12.5 92.2,12.5 L85,12.5 L85,3.7 C85,2.3 84,1.3 82.5,1.3 L80,1.3 L80,35.2 C80,40.9 83.1,44.1 88.9,44.1 C91.1,44.1 93.6,43.6 95.2,42.8 L95.3,42.7 L95.3,42.6 C95.3,42.6 95.4,41.7 95.4,40.6 C95.5,39.8 95.1,39.4 94.8,39.1 Z"
         id="path65334"
         style="fill:#2d6ce8;fill-opacity:1" />
    </g>
  </g>
</svg>
