<?xml version="1.0" encoding="UTF-8" standalone="no"?>
<!-- Created with Inkscape (http://www.inkscape.org/) -->

<svg
   width="135.76756mm"
   height="22.489634mm"
   viewBox="0 0 135.76756 22.489635"
   version="1.1"
   id="svg5"
   xmlns="http://www.w3.org/2000/svg"
   xmlnsSvg="http://www.w3.org/2000/svg">
  <defs
     id="defs2" />
  <g
     id="layer1"
     transform="translate(-9.0252096,-210.04262)">
    <path
       id="path36934"
       style="fill:#22c488;fill-opacity:1;stroke-width:0.999999"
       d="m 468.07227,175.98242 c -3.34197,0.0335 -6.70378,0.66069 -9.03711,1.85156 -4.24404,2.16609 -6.28643,4.26173 -8.58789,8.80664 -2.23673,4.41687 -2.10199,13.43948 0.27148,18.08985 2.11914,4.15207 4.19811,6.21514 8.60742,8.54492 3.76747,1.99049 13.696,2.13806 17.29883,0.25586 3.6923,-1.92896 7.84193,-6.47503 9.20898,-10.08984 1.39083,-3.67741 1.47845,-12.09649 0.16211,-15.55664 -1.51819,-3.99069 -6.25362,-9.08086 -9.84179,-10.58008 -2.19956,-0.91905 -5.13324,-1.3518 -8.08203,-1.32227 z m -0.19922,8.95899 c 4.10411,0 5.13801,0.43159 7.36328,3.07617 1.81073,2.15199 2.58984,4.24195 2.58984,6.95312 0,4.86218 -1.5949,8.44309 -4.36133,9.79688 -3.80519,1.86213 -6.07243,2.06558 -9.55273,0.85742 -7.07263,-2.45518 -8.93382,-12.56227 -3.34375,-18.15234 2.00107,-2.00107 3.52943,-2.53125 7.30469,-2.53125 z"
       transform="matrix(0.26458333,0,0,0.26458333,15.958578,171.69359)" />
    <path
       id="path36910"
       style="fill:#22c488;fill-opacity:1;stroke-width:0.999999"
       d="m 386.44141,175.94141 c -2.46649,0 -5.75246,0.4775 -7.30079,1.0625 -4.00217,1.51211 -8.26242,5.78176 -10.41796,10.4375 -1.58329,3.41979 -1.85611,6.61705 -1.875,22.04882 -0.0155,12.73157 0.33134,18.40358 1.17773,19.25 0.66002,0.65999 2.1458,1.20118 3.30078,1.20118 3.67045,0 4.5,-1.95585 4.5,-10.60938 v -8.20898 l 3.95117,1.9082 c 10.72445,5.18151 22.31896,-1.00315 25.08985,-13.38477 1.0334,-4.6176 0.96752,-6.16039 -0.44141,-10.40234 -2.67148,-8.0431 -9.78151,-13.30273 -17.98437,-13.30273 z m 0.18359,9 c 2.86813,0 4.61038,0.68076 6.45312,2.52343 4.4476,4.44866 4.44265,11.50853 -0.0117,15.96289 -1.88602,1.88568 -3.53905,2.5051 -6.625,2.48243 -2.2625,-0.0167 -4.90274,-0.48821 -5.86524,-1.04883 -2.31549,-1.34865 -4.75,-6.1766 -4.75,-9.41992 0,-3.37263 2.50155,-8.16288 4.94531,-9.47071 1.05812,-0.56632 3.69235,-1.02929 5.85352,-1.02929 z"
       transform="matrix(0.26458333,0,0,0.26458333,15.958578,171.69359)" />
    <path
       id="path36928"
       style="fill:#035c5a;fill-opacity:1;stroke-width:0.999999"
       d="m 336.82617,175.9668 c -8.60082,-0.064 -16.70511,5.45205 -19.06836,14.22851 -2.24188,8.32573 1.49772,18.09029 8.54688,22.31641 4.76953,2.85944 12.06416,3.23512 16.66211,0.85742 2.76578,-1.43029 3.19885,-1.43029 4.77929,0 0.95581,0.86498 2.65829,1.57227 3.78516,1.57227 3.90357,0 4.52834,-2.22752 4.15039,-14.81641 -0.33419,-11.13188 -0.52993,-12.10771 -3.2168,-15.98438 -1.62727,-2.34784 -4.6757,-5.00677 -7.0664,-6.16406 -2.78283,-1.34714 -5.70533,-1.98842 -8.57227,-2.00976 z m -0.32812,8.99609 c 8.17583,0.0475 12.76354,8.36896 8.81836,15.99805 -0.83067,1.60637 -2.3774,3.38488 -3.43555,3.95117 -1.05815,0.56632 -3.71314,1.0293 -5.90039,1.0293 -3.21313,0 -4.47467,-0.5903 -6.56641,-3.07618 -1.94585,-2.31254 -2.58789,-4.19563 -2.58789,-7.57812 0,-3.64055 0.55718,-5.05718 2.92188,-7.42188 2.22595,-2.22595 3.83579,-2.91746 6.75,-2.90234 z"
       transform="matrix(0.26458333,0,0,0.26458333,15.958578,171.69359)" />
    <path
       id="path36924"
       style="fill:#035c5a;fill-opacity:1;stroke-width:0.999999"
       d="m 303.73047,160.99414 c -0.47463,0.006 -1.00318,0.0553 -1.59375,0.12305 l -2.81055,0.32226 -0.28906,8.75 c -0.15892,4.81248 -0.60892,8.73374 -1,8.71485 -0.39109,-0.0195 -1.83594,-0.67882 -3.21094,-1.46485 -3.2725,-1.86882 -12.34396,-1.88846 -15.93164,-0.0332 -8.63434,4.46498 -12.4805,16.71231 -8.17773,26.03516 2.0164,4.36894 4.96841,7.39125 9.60937,9.83789 v -0.002 c 6.45297,3.40192 16.78082,1.30705 22.20117,-4.5039 4.59746,-4.92873 5.29883,-8.58805 5.29883,-27.67969 0,-17.43638 -0.23086,-20.15172 -4.0957,-20.09961 z m -15.33594,23.875 c 2.40147,0.0294 4.7527,0.80703 6.13281,2.32227 3.37581,3.70635 4.52152,6.74393 3.86524,10.24218 -0.3387,1.80545 -1.78992,4.45985 -3.22656,5.89649 -1.99222,1.99222 -3.61572,2.61133 -6.83985,2.61133 -3.22413,0 -4.84762,-0.61911 -6.83984,-2.61133 -4.66133,-4.66133 -4.45951,-11.70341 0.46679,-16.29297 1.58742,-1.47897 4.03994,-2.19736 6.44141,-2.16797 z"
       transform="matrix(0.26458333,0,0,0.26458333,15.958578,171.69359)" />
    <path
       id="path36914"
       style="fill:#035c5a;fill-opacity:1;stroke-width:0.999999"
       d="m 196.19336,175.92773 c -5.45663,1.8e-4 -11.31641,2.0336 -14.49609,5.65625 -7.45628,8.49502 -6.28881,23.14505 2.36914,29.71485 1.79258,1.36025 4.83476,2.93806 6.75976,3.50586 6.17736,1.82211 15.62896,-0.30346 18.9043,-4.25 1.59213,-1.91842 1.09815,-4.58177 -1.10742,-5.97071 -1.27,-0.79974 -2.99407,-0.60822 -6.79297,0.75782 -3.22435,1.15967 -6.25017,1.60116 -8.25,1.20117 -3.26673,-0.65333 -7.7517,-4.13831 -7.75586,-6.02539 -0.001,-0.72004 3.5612,-0.97394 10.78125,-0.76758 5.93083,0.16959 12.00667,-0.15808 13.50195,-0.72656 2.43821,-0.92701 2.71591,-1.52451 2.70117,-5.80664 -0.0201,-5.84773 -3.15416,-11.80028 -7.89648,-14.9961 -2.31699,-1.56142 -5.44478,-2.29307 -8.71875,-2.29297 z m -1.22656,8.80665 c 0.90622,-0.006 1.84865,0.0908 2.81054,0.29687 3.16275,0.67767 6.04883,3.11213 6.04883,5.10156 0,0.44489 -4.06075,0.8086 -9.02344,0.8086 h -9.02343 l 1.58984,-2.42579 c 1.58319,-2.41624 4.36116,-3.75868 7.59766,-3.78124 z"
       transform="matrix(0.26458333,0,0,0.26458333,15.958578,171.69359)" />
    <path
       id="path36906"
       style="fill:#035c5a;fill-opacity:1;stroke-width:0.999999"
       d="m 148.50977,175.95703 c -6.34611,-0.018 -8.70981,0.86312 -13.02344,4.85547 -4.40066,4.07289 -6.00586,7.98571 -6.00586,14.62891 0,3.54516 0.64619,7.2274 1.58203,9 1.76644,3.34579 6.12283,7.66898 9.44727,9.37695 3.58447,1.84154 11.42078,1.35617 15.18945,-0.94141 l 3.37305,-2.05664 -0.66016,2.81055 c -0.95992,4.08 -5.02159,7.31055 -9.19141,7.31055 -3.77079,0 -8.25628,-1.92305 -10.33984,-4.4336 -1.78636,-2.15244 -4.38778,-1.96185 -6.60156,0.48438 -1.73345,1.91542 -1.74776,2.22871 -0.23633,4.75 0.88997,1.4846 4.01622,3.97601 6.94922,5.53711 4.48212,2.38567 6.2373,2.77595 10.99414,2.44336 7.60927,-0.53193 13.27765,-4.26582 16.09765,-10.60352 4.13573,-9.29458 3.23556,-28.18103 -1.6914,-35.49219 -3.28352,-4.87241 -9.03499,-7.65102 -15.88281,-7.66992 z m -0.28516,8.98438 c 3.27934,0 5.23137,0.63727 7.24023,2.36523 2.38692,2.05315 2.75658,3.12251 2.80469,8.08594 0.0491,5.06063 -0.26728,5.99568 -2.75,8.13281 -2.02823,1.74588 -4.00007,2.41602 -7.11523,2.41602 -5.44792,0 -9.26887,-2.83818 -10.15039,-7.53711 -0.85747,-4.5707 0.12228,-8.10469 3.0664,-11.04883 1.83497,-1.83496 3.49135,-2.41406 6.9043,-2.41406 z"
       transform="matrix(0.26458333,0,0,0.26458333,15.958578,171.69359)" />
    <path
       id="path36918"
       style="fill:#035c5a;fill-opacity:1;stroke-width:0.999999"
       d="m 100.76562,175.98633 c -1.106334,-5.2e-4 -2.274543,0.0713 -3.513667,0.21094 -8.73143,0.98415 -15.46036,8.1228 -16.212891,17.19726 -0.715407,8.62696 2.546749,15.60078 9.197266,19.65625 3.8714,2.36088 12.495492,2.50642 16.791012,0.28516 2.84715,-1.47236 3.17606,-1.47236 4,0 1.16316,2.07855 4.646,2.05501 6.97071,-0.0488 1.54478,-1.39805 1.82516,-3.22237 1.80664,-11.75 -0.0255,-11.73918 -1.58424,-16.28551 -7.30078,-21.30469 -3.30273,-2.89982 -6.94415,-4.24383 -11.73829,-4.24609 z m -0.0644,8.95508 c 3.15008,0 4.45225,0.60097 6.45117,2.97656 3.50033,4.1599 4.18104,8.1429 2.08399,12.20117 -0.94441,1.82767 -2.43647,3.87098 -3.31445,4.54102 -2.2369,1.70687 -9.231133,1.57447 -11.79688,-0.22266 -1.180282,-0.8267 -2.683777,-3.13314 -3.341797,-5.12695 -0.902578,-2.73468 -0.920445,-4.54924 -0.07031,-7.38672 0.619819,-2.06876 2.232225,-4.48735 3.583984,-5.37305 1.351759,-0.88569 4.233839,-1.60937 6.404293,-1.60937 z"
       transform="matrix(0.26458333,0,0,0.26458333,15.958578,171.69359)" />
    <path
       style="fill:#035c5a;fill-opacity:1;stroke-width:0.264583"
       d="m 24.794951,215.71226 c -0.314465,-0.31447 -0.415774,-0.9785 -0.415774,-2.72521 0,-2.43207 0.207182,-2.94443 1.190625,-2.94443 0.983442,0 1.190625,0.51236 1.190625,2.94443 0,1.74671 -0.10131,2.41074 -0.415774,2.72521 -0.228676,0.22868 -0.577359,0.41577 -0.774851,0.41577 -0.197493,0 -0.546176,-0.18709 -0.774851,-0.41577 z"
       id="path36948" />
    <path
       style="fill:#035c5a;fill-opacity:1;stroke-width:0.264583"
       d="m 15.266055,215.54 c -0.472413,-0.67447 -0.569794,-3.72467 -0.153843,-4.8187 0.197565,-0.51964 0.4434,-0.67868 1.049024,-0.67868 0.511239,0 0.887858,0.181 1.064882,0.51177 0.150641,0.28147 0.273892,1.45365 0.273892,2.60483 0,1.69169 -0.09278,2.17702 -0.483854,2.53093 -0.663134,0.60013 -1.260479,0.54888 -1.750101,-0.15015 z"
       id="path36946" />
    <path
       style="fill:#22c488;fill-opacity:1;stroke-width:0.264583"
       d="m 9.2124516,218.33561 c -0.365118,-0.36511 -0.161998,-2.36053 0.3137319,-3.08204 0.7182755,-1.08937 1.4544195,-1.51165 2.9423845,-1.68788 l 1.327276,-0.1572 v 0.81338 c 0,1.31382 0.455086,2.14398 1.430226,2.60899 0.785686,0.37467 1.031015,0.38657 1.758348,0.0853 0.895501,-0.37093 1.573926,-1.56232 1.573926,-2.764 0,-0.66726 0.0096,-0.66996 2.38125,-0.66996 h 2.381249 v 1.04358 c 0,1.26931 0.830332,2.32757 2.002363,2.55202 0.632392,0.1211 0.994507,0.002 1.638979,-0.54063 0.644437,-0.54226 0.845099,-0.9421 0.908054,-1.80938 l 0.08081,-1.1133 1.224556,0.0146 c 1.316683,0.0157 2.360227,0.54595 3.001943,1.52533 0.218577,0.33359 0.428594,1.19513 0.466706,1.91454 l 0.06929,1.30802 -11.660996,0.0689 C 14.639,218.48378 9.3109537,218.43418 9.2124446,218.33563 Z"
       id="path36944" />
    <path
       style="fill:#22c488;fill-opacity:1;stroke-width:0.264583"
       d="m 19.207775,224.73902 c -0.876826,-0.87683 -0.896943,-2.46539 -0.0414,-3.26913 0.895472,-0.84125 2.00752,-0.96577 3.015632,-0.33766 0.589228,0.36712 0.897335,0.80291 1.016406,1.43762 0.297856,1.5877 -0.702087,2.8186 -2.289746,2.8186 -0.763588,0 -1.229264,-0.1778 -1.700893,-0.64943 z"
       id="path36942" />
    <path
       style="fill:#22c488;fill-opacity:1;stroke-width:0.264583"
       d="m 12.533506,225.21137 c -0.473,-0.19031 -1.118912,-1.52297 -1.118912,-2.30857 0,-0.36291 0.28502,-0.9912 0.633377,-1.39619 0.506311,-0.58862 0.856965,-0.73634 1.747873,-0.73634 0.890908,0 1.241562,0.14772 1.747872,0.73634 1.385858,1.61116 0.394349,3.90389 -1.6697,3.86095 -0.552317,-0.0115 -1.155547,-0.0818 -1.34051,-0.15619 z"
       id="path36940" />
    <path
       style="fill:#035c5a;fill-opacity:1;stroke-width:0.264583"
       d="m 27.157302,225.40291 c -1.098288,-0.44952 -1.567877,-1.33733 -1.485677,-2.80884 0.0398,-0.71241 0.930681,-1.65377 1.762719,-1.8626 1.410939,-0.35412 3.030249,1.01049 3.030249,2.55363 0,0.7051 -1.624448,2.37392 -2.288646,2.35116 -0.269213,-0.009 -0.727604,-0.11423 -1.018645,-0.23335 z"
       id="path36938" />
    <path
       style="fill:#22c488;fill-opacity:1;stroke-width:0.264583"
       d="m 126.2372,227.88477 c -0.14192,-0.37328 -0.25803,-2.43038 -0.25803,-4.57134 0,-3.09494 0.0844,-4.01316 0.41187,-4.48069 0.47361,-0.67617 1.22915,-0.76428 1.69901,-0.19813 0.28507,0.34348 0.41336,0.34348 1.07759,0 0.99368,-0.51385 2.89101,-0.49692 3.64693,0.0326 0.42154,0.29526 0.57868,0.63382 0.52189,1.12448 -0.0777,0.67152 -0.16287,0.70777 -1.96003,0.83431 -1.03332,0.0728 -2.07512,0.2957 -2.3151,0.49542 -0.35609,0.29635 -0.43633,0.8892 -0.43633,3.22392 0,1.57344 -0.11612,3.1662 -0.25803,3.53948 -0.19913,0.52374 -0.44224,0.67868 -1.06489,0.67868 -0.62264,0 -0.86575,-0.15494 -1.06488,-0.67868 z"
       id="path36932" />
    <path
       style="fill:#035c5a;fill-opacity:1;stroke-width:0.264583"
       d="m 75.642195,228.27767 c -0.412655,-0.24035 -0.463021,-0.76615 -0.463021,-4.83383 0,-3.19711 0.0951,-4.65924 0.3175,-4.88164 0.405231,-0.40523 1.337173,-0.40908 1.739072,-0.007 0.237376,0.23738 0.470427,0.23738 0.99141,0 0.374597,-0.17067 1.312717,-0.31032 2.084715,-0.31032 1.020059,0 1.64266,0.16268 2.278327,0.59531 0.481081,0.32742 1.123767,0.93099 1.428189,1.34126 0.480883,0.64808 0.56488,1.19219 0.640278,4.14756 0.0863,3.3827 0.08309,3.40405 -0.577572,3.83693 -0.50638,0.33179 -0.789112,0.36853 -1.189042,0.15449 -0.470054,-0.25156 -0.533893,-0.611 -0.613056,-3.45176 -0.08038,-2.88428 -0.142859,-3.22538 -0.69115,-3.7729 -0.464881,-0.46422 -0.883708,-0.59588 -1.830715,-0.5755 -0.935924,0.0201 -1.343118,0.16868 -1.712317,0.62462 -0.405694,0.50101 -0.484389,1.08469 -0.484389,3.59269 0,2.3695 -0.08678,3.08128 -0.415774,3.41028 -0.47833,0.47833 -0.849299,0.51042 -1.502455,0.12999 z"
       id="path36922" />
    <path
       style="fill:#22c488;fill-opacity:1;stroke-width:0.264583"
       d="m 26.351847,231.92777 c -0.538872,-0.46352 -0.70267,-0.84691 -0.70267,-1.64467 0,-0.83043 0.166278,-1.18882 0.824382,-1.77683 0.453411,-0.40513 1.055027,-0.73659 1.336926,-0.73659 1.345036,0 2.654108,1.2885 2.654108,2.61239 0,0.28711 -0.30824,0.88833 -0.684978,1.33606 -0.54677,0.6498 -0.890796,0.81405 -1.705037,0.81405 -0.680937,0 -1.253666,-0.20094 -1.722731,-0.60441 z"
       id="path36904" />
    <path
       style="fill:#22c488;fill-opacity:1;stroke-width:0.264583"
       d="m 19.207775,231.88277 c -0.470666,-0.47067 -0.649431,-0.93759 -0.649431,-1.69627 0,-0.84415 0.15762,-1.17947 0.81405,-1.73182 0.447727,-0.37674 1.037438,-0.68498 1.310467,-0.68498 1.329369,0 2.637982,1.29592 2.637982,2.61239 0,0.28711 -0.30824,0.88833 -0.684978,1.33606 -0.552349,0.65643 -0.887671,0.81405 -1.731818,0.81405 -0.758682,0 -1.225605,-0.17877 -1.696272,-0.64943 z"
       id="path36902" />
    <path
       style="fill:#035c5a;fill-opacity:1;stroke-width:0.264583"
       d="m 12.449999,232.19306 c -0.604385,-0.46404 -1.035405,-1.37043 -1.035405,-2.17736 0,-0.99991 1.32113,-2.246 2.38125,-2.246 0.569515,0 1.080009,0.24555 1.607852,0.7734 1.575361,1.57536 0.644053,3.9989 -1.52968,3.98069 -0.552317,-0.005 -1.193125,-0.15346 -1.424017,-0.33073 z"
       id="path36880" />
  </g>
</svg>
