<?xml version="1.0" encoding="UTF-8" standalone="no"?>
<!-- Created with Inkscape (http://www.inkscape.org/) -->

<svg
   width="158.22057mm"
   height="43.912186mm"
   viewBox="0 0 158.22056 43.912189"
   version="1.1"
   id="svg5"
   xmlns="http://www.w3.org/2000/svg"
   xmlnsSvg="http://www.w3.org/2000/svg">
  <defs
     id="defs2" />
  <g
     id="layer1"
     transform="translate(-8.1243184,-125.03831)">
    <path
       id="path49746"
       style="fill:#21a9b1;fill-opacity:1;stroke-width:0.999999"
       d="m -117.42969,-95.369141 c -0.85959,-0.005 -1.90796,0.07509 -3.28711,0.189453 -4.94776,0.410306 -6.08005,0.927429 -8.99609,4.109376 l -3.33399,3.638671 v 51.464844 c 0,33.2383371 0.38582,53.343187 1.08985,56.765625 0.59955,2.914583 2.81673,8.898853 4.92773,13.298828 6.17228,12.864983 16.19887,23.213194 29.017581,29.949219 3.7148,1.952088 9.389093,4.187232 12.609375,4.966797 3.220279,0.779527 10.170793,1.454268 15.445313,1.5 11.453601,0.09951 22.140008,-2.338859 31.224609,-7.126953 8.661838,-4.565216 21.211617,-17.317863 25.871094,-26.289063 5.7484496,-11.067817 7.2402342,-17.357713 7.2402342,-30.4999998 0,-16.4448755 -3.0675464,-25.6745422 -12.8730472,-38.7187502 -8.828598,-11.744617 -22.9253,-20.76976 -37.140625,-23.78125 -14.691983,-3.112478 -28.711518,-1.191853 -42.662109,5.845703 l -8.750005,4.414063 v -20.998047 -20.996094 l -4.00585,-4.005859 c -2.92866,-2.928699 -3.79818,-3.711493 -6.37696,-3.726563 z m 45.158206,65.054688 c 1.366325,-0.01225 2.927125,0.02676 4.791015,0.105469 7.489731,0.316422 10.038676,0.874684 14.648438,3.207031 6.98355,3.533329 13.823615,10.445153 17.417969,17.5996092 2.250421,4.4793827 2.837346,7.1700599 3.160156,14.5 0.328089,7.4496758 0.02263,9.9907308 -1.771485,14.7519528 -4.352024,11.549443 -13.808416,20.155981 -25.492187,23.199219 -10.364916,2.699717 -19.851348,1.481484 -28.658203,-3.679687 -6.032349,-3.535181 -12.518909,-10.757805 -15.490239,-17.248047 -5.17482,-11.303282 -3.83643,-25.8973684 3.33594,-36.373047 4.490164,-6.558161 10.663577,-11.394824 18.130861,-14.208985 3.485926,-1.313206 5.828759,-1.816776 9.927735,-1.853515 z"
       transform="matrix(0.26458333,0,0,0.26458333,43.326305,150.27145)" />
    <path
       style="fill:#062d42;fill-opacity:1;stroke-width:0.264583"
       d="m 149.05623,168.53204 c -2.54288,-0.61564 -5.44401,-2.29718 -7.48222,-4.33681 -2.07456,-2.07601 -3.3183,-3.98964 -4.26223,-6.55795 -0.48215,-1.31187 -0.69262,-2.52538 -0.79565,-4.58755 -0.1716,-3.43464 0.32831,-5.98756 1.71788,-8.77262 0.70406,-1.41112 1.5549,-2.51349 3.22289,-4.17566 1.71719,-1.7112 2.74708,-2.49259 4.25066,-3.22502 6.22386,-3.03181 13.89322,-2.04797 18.86869,2.4205 0.55513,0.49855 1.18021,1.23692 1.38907,1.64081 0.48286,0.93376 0.48494,2.17374 0.005,3.08887 -0.206,0.39296 -2.79561,3.10902 -5.75468,6.0357 -4.55836,4.50846 -5.53177,5.34888 -6.37294,5.50221 -0.72071,0.13138 -1.31381,0.039 -2.16403,-0.33711 -1.51813,-0.67154 -2.10827,-1.7522 -1.93599,-3.54516 0.12261,-1.27611 0.21069,-1.39098 3.9017,-5.08858 l 3.77625,-3.783 -1.44293,-0.32291 c -0.79361,-0.1776 -2.32777,-0.27524 -3.40923,-0.21698 -2.45332,0.13218 -4.50616,1.02749 -6.16928,2.69061 -3.02162,3.02161 -3.80923,7.54459 -1.98836,11.41834 0.32087,0.68261 1.14145,1.81404 1.82352,2.5143 2.34458,2.40709 5.50757,3.47082 8.67851,2.91862 2.0523,-0.35739 3.40047,-1.00765 5.30398,-2.55824 1.25104,-1.01909 1.56735,-1.15187 2.74384,-1.15187 1.19193,0 1.43629,0.10649 2.357,1.0272 0.936,0.936 1.0272,1.1523 1.0272,2.43602 0,1.38067 -0.033,1.44083 -1.65364,3.01262 -1.90931,1.85177 -4.66628,3.39046 -7.10489,3.96529 -2.10399,0.49596 -6.45827,0.49002 -8.5303,-0.0116 z"
       id="path49855" />
    <path
       style="fill:#062d42;fill-opacity:1;stroke-width:0.264583"
       d="m 91.112582,168.48044 c -0.60202,-0.3649 -2.2006,-3.35007 -8.00364,-14.94587 -3.98826,-7.96944 -7.251377,-14.6643 -7.251377,-14.87746 0,-0.21316 0.190606,-0.86394 0.423572,-1.44617 0.516482,-1.29082 1.767668,-2.12747 3.179532,-2.12611 2.189543,0.002 2.244893,0.0826 8.126623,11.82323 l 5.40503,10.78907 5.30405,-10.60552 c 3.883398,-7.76491 5.527228,-10.79331 6.137298,-11.30664 1.08884,-0.91621 2.71783,-0.95574 3.99227,-0.0969 0.76077,0.51268 1.69864,2.21655 6.1895,11.24479 2.91107,5.8523 5.35293,10.63119 5.42635,10.61976 0.0734,-0.0114 2.51473,-4.80371 5.42515,-10.64948 4.51783,-9.07439 5.42313,-10.71574 6.19069,-11.224 0.5878,-0.38923 1.299,-0.59531 2.0544,-0.59531 0.93713,0 1.33451,0.16415 2.10361,0.86898 0.74335,0.68122 0.97705,1.12467 1.08161,2.05231 0.12664,1.12357 -0.22243,1.8982 -6.91106,15.33675 -4.75398,9.55152 -7.30198,14.38999 -7.83654,14.88102 -0.64127,0.58905 -1.04147,0.7276 -2.10164,0.7276 -1.07117,0 -1.46773,-0.14032 -2.17864,-0.7709 -0.64159,-0.5691 -2.21967,-3.51005 -6.02847,-11.23483 -2.83766,-5.75516 -5.21959,-10.46841 -5.29319,-10.47389 -0.0736,-0.005 -2.54512,4.81442 -5.49228,10.71088 -4.563318,9.12996 -5.485748,10.79844 -6.216188,11.2438 -1.05531,0.64344 -2.71532,0.66789 -3.72666,0.0549 z"
       id="path49853" />
    <path
       style="fill:#21a9b1;fill-opacity:1;stroke-width:0.264583"
       d="m 57.072149,168.44884 c -3.409429,-0.93131 -6.439533,-2.94211 -8.813015,-5.84839 -1.544187,-1.89082 -2.664211,-4.15839 -3.236425,-6.55237 -0.354018,-1.48112 -0.427376,-2.60427 -0.319712,-4.8948 0.105182,-2.23765 0.299297,-3.40565 0.785117,-4.72405 0.897723,-2.4362 1.831183,-3.93876 3.664444,-5.89852 1.986839,-2.12394 4.284538,-3.62132 6.993549,-4.55762 1.84971,-0.6393 2.517103,-0.73208 5.291667,-0.7357 2.312635,-0.003 3.603111,0.12563 4.751199,0.47363 2.093749,0.63465 3.645964,1.44285 5.617554,2.92492 1.984725,1.49194 2.882091,3.0755 2.602458,4.59248 -0.152599,0.82783 -1.005009,1.81376 -5.385628,6.22921 -2.862382,2.88514 -5.525842,5.41522 -5.918798,5.62239 -0.933426,0.49212 -2.683259,0.48033 -3.65982,-0.0247 -1.019871,-0.5274 -1.57884,-1.6614 -1.57884,-3.20304 v -1.2494 l 3.704166,-3.73601 c 2.037292,-2.05481 3.704167,-3.81097 3.704167,-3.90259 0,-0.36668 -1.942425,-0.77343 -3.667453,-0.76798 -2.193224,0.007 -2.942712,0.17088 -4.624644,1.01164 -1.935848,0.96768 -3.51568,2.57632 -4.466143,4.54758 -0.761336,1.57901 -0.844032,1.99154 -0.855313,4.26674 -0.01151,2.32365 0.05461,2.65504 0.853786,4.27876 1.083191,2.20075 3.169563,4.1764 5.286172,5.00563 1.148016,0.44977 2.071375,0.59679 3.769428,0.6002 1.87696,0.004 2.500559,-0.11112 3.77003,-0.69453 0.836588,-0.38447 2.186956,-1.24146 3.000817,-1.90443 1.201245,-0.97853 1.676839,-1.20539 2.526964,-1.20539 0.575968,0 1.403757,0.18437 1.839528,0.40972 1.602433,0.82865 2.276105,2.98189 1.439241,4.6002 -0.533879,1.03241 -2.588411,2.79062 -4.529227,3.87599 -0.890241,0.49785 -2.548348,1.14297 -3.684683,1.43359 -2.634327,0.67375 -6.449933,0.68529 -8.860586,0.0268 z"
       id="path49851" />
  </g>
</svg>
