<?xml version="1.0" encoding="UTF-8" standalone="no"?>
<!-- Created with Inkscape (http://www.inkscape.org/) -->

<svg
   width="305.28708mm"
   height="37.24437mm"
   viewBox="0 0 305.28707 37.244372"
   version="1.1"
   id="svg5"
   xmlns="http://www.w3.org/2000/svg"
   xmlnsSvg="http://www.w3.org/2000/svg">
  <defs
     id="defs2" />
  <g
     id="layer1"
     transform="translate(62.526352,-123.67779)">
    <path
       id="path53745"
       style="fill:#00963a;fill-opacity:1;stroke-width:0.999999"
       d="m 810.96289,20.589844 -0.0117,3.835937 c -0.20122,64.362747 0.0823,84.715049 1.19727,86.058599 h -0.002 c 1.03011,1.24119 4.32527,1.41727 20.27344,1.08203 17.36311,-0.36492 19.52807,-0.61226 24.54297,-2.78711 12.15859,-5.27294 20.24226,-12.728823 25.66406,-23.671878 2.93893,-5.931931 3.63416,-8.579836 4.06446,-15.5 0.63851,-10.267465 -1.17062,-18.080614 -6.1543,-26.583984 C 876.099,35.451003 869.28265,29.281039 860.36523,24.763672 l -6.90234,-3.496094 -21.25,-0.339844 z m 27.33984,17.330078 c 9.74479,-0.08692 15.93283,2.08235 21.72266,7.498047 6.62491,6.196762 9.21649,11.849841 9.26563,20.208984 0.066,11.33023 -5.72704,20.734627 -15.81055,25.667969 -4.1904,2.050167 -7.40963,2.738277 -14.90625,3.185547 -7.69259,0.458948 -9.66812,0.29477 -10.10352,-0.839844 -0.29707,-0.77571 -0.42203,-13.552742 -0.27539,-28.394531 l 0.26758,-26.986328 7.84375,-0.292969 c 0.68221,-0.02555 1.34644,-0.04108 1.99609,-0.04687 z"
       transform="matrix(0.26458333,0,0,0.26458333,8.1243184,125.03831)" />
    <path
       id="path53737"
       style="fill:#000000;stroke-width:0.999999"
       d="m 285.62891,19.761719 c -7.84402,0.03513 -14.71008,0.4425 -15.4668,1.199219 -1.72624,1.726261 -1.72624,87.873382 0,89.599612 1.79389,1.79395 34.69271,1.60395 41.62109,-0.24024 2.92656,-0.779 8.4034,-3.24674 12.16992,-5.48437 17.11419,-10.167347 25.14199,-29.102051 20.89258,-49.275393 -0.61394,-2.914583 -2.64292,-8.050888 -4.50976,-11.414063 C 333.6718,32.140777 320.49269,22.9201 306.96289,20.796875 302.29566,20.064421 293.47292,19.726588 285.62891,19.761719 Z m 10.84375,18.162109 c 8.24793,-0.06931 14.7456,1.916569 20.65039,6.28125 3.3526,2.478161 5.56468,5.28141 7.88476,9.994141 2.93827,5.968516 3.18033,7.167814 2.72852,13.482422 -0.35895,5.016869 -1.2131,8.15474 -3.09571,11.367187 -3.13699,5.352869 -8.60536,10.320559 -14.11328,12.822266 v -0.002 c -3.04913,1.384894 -6.50547,1.854022 -13.83007,1.86914 l -9.76563,0.02344 0.26563,-27.751953 0.26562,-27.748047 7.33789,-0.296875 c 0.56577,-0.02279 1.12201,-0.03639 1.67188,-0.04102 z"
       transform="matrix(0.26458333,0,0,0.26458333,8.1243184,125.03831)" />
    <path
       id="path53731"
       style="fill:#000000;stroke-width:0.999999"
       d="m 156.01367,18.761719 c -8.65998,0 -15.64208,1.637085 -22.63867,5.308593 -4.7109,2.472076 -13.61803,10.581 -17.12305,15.587891 -1.78739,2.55326 -4.43295,8.006776 -5.8789,12.121094 -2.30951,6.571502 -2.56939,8.576179 -2.14258,16.482422 0.41089,7.611401 1.04042,10.204702 4.08203,16.814453 2.62875,5.712567 5.29036,9.509111 9.89258,14.111328 6.86283,6.86283 12.02725,9.96083 21.25781,12.74805 11.82694,3.57123 30.06031,0.74919 39.91602,-6.17774 9.22436,-6.483172 15.3541,-14.362317 19.04297,-24.47656 2.4889,-6.824164 2.72835,-8.578048 2.3457,-17.306641 -0.37592,-8.575105 -0.84318,-10.591725 -3.98438,-17.21289 -4.27292,-9.006652 -9.09328,-14.753903 -16.7207,-19.933594 -7.95227,-5.400265 -17.22587,-8.066406 -28.04883,-8.066406 z m -0.7207,18.115234 c 1.1296,-0.01045 2.30856,0.0239 3.54297,0.09766 8.81192,0.526489 14.08466,2.806991 19.70898,8.527344 5.58434,5.679685 7.79905,11.396963 7.84766,20.259766 0.0307,5.604245 -0.49873,8.674447 -2.09375,12.148437 -2.74964,5.988851 -9.29091,12.500983 -15.16992,15.101563 -5.74325,2.540523 -16.21911,3.209447 -21.76953,1.390625 -8.53835,-2.797947 -16.2725,-10.006175 -19.46094,-18.140625 -0.64675,-1.649991 -1.20509,-6.150022 -1.24024,-10 -0.0843,-9.231383 2.83124,-15.989561 9.47071,-21.958985 5.7337,-5.155119 11.25685,-7.352607 19.16406,-7.425781 z"
       transform="matrix(0.26458333,0,0,0.26458333,8.1243184,125.03831)" />
    <path
       style="fill:#0060a1;fill-opacity:1;stroke-width:0.264583"
       d="m 156.41864,154.34212 c -1.88882,-0.33893 -4.901,-1.48709 -5.81527,-2.21661 l -0.78297,-0.62476 0.48889,-1.08417 c 0.26889,-0.59629 0.7089,-1.28327 0.97781,-1.52663 0.4591,-0.41548 0.58193,-0.40115 2.01387,0.23494 3.10779,1.38053 6.12279,1.79247 8.35965,1.1422 1.68594,-0.49012 2.16167,-1.08543 1.9156,-2.3971 -0.26356,-1.40492 -1.43161,-2.15022 -4.82304,-3.07747 -2.82286,-0.7718 -5.45102,-2.13326 -6.32175,-3.27485 -1.53102,-2.00727 -1.86674,-4.6539 -0.84886,-6.692 1.60129,-3.20627 5.90469,-4.96365 10.4951,-4.28589 2.99142,0.44168 5.84513,1.89958 5.84513,2.98615 0,0.57016 -1.66444,2.56164 -2.14097,2.56164 -0.24213,0 -0.85645,-0.17391 -1.36516,-0.38646 -1.59369,-0.66589 -4.26338,-0.97626 -5.67783,-0.6601 -2.22564,0.49749 -3.32937,2.17874 -2.34911,3.57826 0.45339,0.64731 2.33331,1.58788 5.80943,2.9066 1.4359,0.54474 3.09229,1.35967 3.68086,1.81096 0.58858,0.45129 1.31285,1.29051 1.6095,1.86494 0.74296,1.43865 0.88302,3.81838 0.31264,5.31191 -0.54201,1.41922 -2.11311,2.83871 -3.81281,3.44486 -1.43744,0.51262 -5.65945,0.72653 -7.57071,0.38358 z"
       id="path53743" />
    <path
       style="fill:#000000;stroke-width:0.264583"
       d="m 115.97983,154.43552 c -0.099,-0.099 -0.17995,-5.44381 -0.17995,-11.87741 0,-9.58102 0.0656,-11.75189 0.36244,-11.99826 0.25782,-0.21397 2.75906,-0.28061 8.66511,-0.23084 l 8.30266,0.07 v 2.11666 2.11667 l -6.21771,0.13229 -6.2177,0.13229 v 2.91042 2.91042 l 5.02708,0.13229 5.02708,0.13229 v 1.98437 1.98438 l -4.74297,0.0724 c -3.03393,0.0463 -4.8728,0.18019 -5.10327,0.37146 -0.26243,0.21779 -0.33961,0.88091 -0.28411,2.4411 l 0.0762,2.14208 6.06443,0.0712 c 4.0421,0.0475 6.1853,0.17155 6.4269,0.37205 0.25941,0.2153 0.34061,0.83448 0.28557,2.17773 l -0.0769,1.87691 -8.61746,0.0697 c -4.7396,0.0383 -8.69842,-0.0113 -8.79739,-0.11024 z"
       id="path53741" />
    <path
       style="fill:#f2a201;fill-opacity:1;stroke-width:0.264583"
       d="m 191.85513,154.66052 c -1.88701,-0.66673 -3.1549,-1.51011 -4.18786,-2.78569 -1.96108,-2.4217 -1.88509,-1.92928 -1.88509,-12.21544 v -9.26041 h 2.24896 2.24895 l 0.1323,8.64628 c 0.12621,8.24887 0.15773,8.68059 0.68578,9.39271 0.30442,0.41053 0.94711,1.01431 1.42819,1.34173 1.77024,1.20482 5.00125,0.43653 6.28441,-1.49433 0.58818,-0.88508 0.59745,-1.02684 0.59745,-9.14136 0,-6.05792 0.0841,-8.32647 0.3175,-8.55983 0.4214,-0.4214 3.97068,-0.4214 4.39208,0 0.23268,0.23268 0.3175,2.41439 0.3175,8.16597 0,4.31666 -0.11909,8.47648 -0.26466,9.24404 -0.14557,0.76756 -0.60166,1.94467 -1.01357,2.6158 -0.99909,1.62794 -3.15582,3.34654 -4.86914,3.88003 -2.12404,0.66138 -4.8398,0.73336 -6.4328,0.1705 z"
       id="path53735" />
    <path
       style="fill:#000000;stroke-width:0.264583"
       d="M 8.1396256,154.49668 C 7.062057,154.1385 5.633307,153.46642 4.9646255,153.00317 -0.32931672,149.33566 -2.1436282,142.34684 0.76531478,136.8272 1.2027928,135.9971 1.989497,134.81701 2.5135492,134.20477 c 1.2404726,-1.44921 3.613764,-2.9682 5.7464089,-3.6779 2.2948659,-0.76368 5.3905389,-0.74903 7.7709129,0.0368 2.530234,0.83527 5.577343,2.98229 5.577343,3.92985 0,0.39945 -1.566685,1.87665 -2.8169,2.656 -0.505441,0.31508 -0.662191,0.27474 -1.424392,-0.36661 -0.471049,-0.39636 -1.346568,-0.97739 -1.945601,-1.29117 -0.859856,-0.4504 -1.56261,-0.5728 -3.338107,-0.58138 -1.839177,-0.009 -2.4525078,0.0977 -3.3660823,0.58478 -1.7498563,0.93303 -2.8593548,2.05239 -3.6690169,3.70162 -0.6066076,1.23563 -0.745498,1.86848 -0.7402724,3.37308 0.00508,1.46526 0.1496615,2.1306 0.6922214,3.18562 0.6535632,1.27087 2.4659776,3.19964 3.5392441,3.76647 0.2756588,0.14559 1.1858069,0.40553 2.0225521,0.57767 2.093296,0.43062 3.972155,0.0129 5.983499,-1.33019 0.856736,-0.57211 1.674399,-1.0402 1.817023,-1.0402 0.408361,0 2.677316,1.81335 2.982524,2.38363 0.387014,0.72315 -0.08305,1.37757 -1.912096,2.66203 -2.106195,1.47907 -4.096526,2.12628 -6.952721,2.26087 -2.017472,0.0951 -2.6805548,0.0127 -4.3404634,-0.53903 z"
       id="path53729" />
    <path
       style="fill:#009235;fill-opacity:1;stroke-width:0.264583"
       d="m -45.538722,160.09845 c -0.596381,-0.32742 -4.533867,-3.98859 -8.749968,-8.13593 -8.408261,-8.27114 -8.499605,-8.39502 -8.125926,-11.02002 0.179069,-1.25792 0.324171,-1.42449 7.391497,-8.48527 4.66543,-4.6611 7.550501,-7.34491 8.177213,-7.60677 1.201716,-0.50211 2.844679,-0.51924 3.98787,-0.0416 0.477863,0.19967 1.575367,1.02598 2.438898,1.83626 l 1.570058,1.47324 -1.376411,1.38908 -1.376411,1.38909 -1.452022,-1.37326 c -0.798612,-0.7553 -1.548445,-1.37144 -1.666297,-1.36921 -0.117852,0.002 -0.34824,0.0915 -0.511974,0.19844 -0.163734,0.10691 -3.229593,3.04157 -6.813021,6.52147 -4.670983,4.53603 -6.515323,6.49409 -6.515323,6.91704 0,0.42309 2.104708,2.65585 7.441529,7.89427 4.09284,4.01737 7.610165,7.30431 7.816277,7.30431 0.206112,0 3.405862,-2.94161 7.110554,-6.53691 4.588891,-4.45339 6.735808,-6.71391 6.735808,-7.09224 0,-0.35783 -1.082128,-1.62298 -3.042709,-3.55734 -1.673489,-1.65111 -3.042708,-3.06845 -3.042708,-3.14965 0,-0.2603 2.475929,-2.43067 2.688654,-2.35685 0.112704,0.0391 1.679919,1.52393 3.482697,3.29958 2.711797,2.671 3.33466,3.43163 3.607194,4.40503 0.342937,1.22485 0.209476,2.44381 -0.395388,3.6113 -0.188484,0.3638 -3.430154,3.72578 -7.203715,7.47107 -4.332945,4.30048 -7.214012,6.95711 -7.819023,7.2099 -1.388994,0.58036 -3.083139,0.50453 -4.357353,-0.19504 z"
       id="path53727" />
    <path
       style="fill:#005b9c;fill-opacity:1;stroke-width:0.264583"
       d="m -30.11783,160.57959 c -0.436562,-0.19692 -1.562716,-1.14324 -2.502561,-2.10294 l -1.708812,-1.7449 0.86672,-0.89423 c 0.476694,-0.49182 1.160245,-1.05131 1.519002,-1.24331 0.617352,-0.3304 0.736902,-0.26536 2.232546,1.21468 l 1.580267,1.56378 2.313712,-2.27549 c 1.27254,-1.25153 4.575898,-4.49605 7.340793,-7.21006 l 5.027084,-4.93457 -7.9375,-7.79016 c -4.365625,-4.28459 -8.049454,-7.79376 -8.186286,-7.79815 -0.251409,-0.008 -13.086848,12.55821 -14.006373,13.71265 l -0.496825,0.62376 3.211886,3.21961 3.211887,3.21962 -1.268942,1.24986 c -0.697917,0.68742 -1.393105,1.24986 -1.544862,1.24986 -0.151756,0 -1.83485,-1.58569 -3.740209,-3.52376 -3.713634,-3.77739 -4.02671,-4.33055 -3.658638,-6.46426 0.149702,-0.86783 1.140007,-1.95064 7.9008,-8.63882 4.277525,-4.23159 8.109885,-7.80608 8.581042,-8.00365 1.154973,-0.48431 2.941498,-0.43123 3.941736,0.1171 1.306076,0.716 16.990341,16.21505 17.295943,17.0917 0.3919994,1.12449 0.3249564,2.82387 -0.147283,3.73315 -0.516514,0.99453 -14.701917,14.91898 -15.824282,15.53318 -0.991881,0.54279 -2.907692,0.58845 -4.000845,0.0953 z"
       id="path53705" />
  </g>
</svg>
