<?xml version="1.0" encoding="UTF-8" standalone="no"?>
<!-- Created with Inkscape (http://www.inkscape.org/) -->

<svg
   width="164.24159mm"
   height="42.391258mm"
   viewBox="0 0 164.24159 42.391258"
   version="1.1"
   id="svg5"
   xmlns="http://www.w3.org/2000/svg"
   xmlnsSvg="http://www.w3.org/2000/svg">
  <defs
     id="defs2" />
  <g
     id="layer1"
     transform="translate(-19.203623,-134.73502)">
    <path
       style="fill:#0a87c2;fill-opacity:1;stroke-width:0.264583"
       d="m 20.912986,176.44292 -0.809058,-0.68077 -0.172565,-0.78569 -0.172564,-0.78568 0.293083,-0.88805 c 0.161196,-0.48843 0.594528,-1.17124 0.962961,-1.51737 l 0.669878,-0.62932 1.067786,0.028 1.067786,0.028 0.512083,0.51209 c 0.281646,0.28164 0.582527,0.94617 0.668624,1.47673 l 0.156542,0.96465 -2.083238,0.0779 -2.083238,0.0779 -0.07715,0.53886 -0.07715,0.53885 0.652019,0.61254 0.652018,0.61254 1.343543,-0.0931 1.343543,-0.0931 -0.08723,0.26458 c -0.04798,0.14552 -0.746793,0.29983 -1.552923,0.3429 l -1.465692,0.0783 z m 3.337628,-3.3519 c -0.0465,-0.31283 -0.397662,-0.80164 -0.780356,-1.08626 l -0.695809,-0.51749 -0.537292,0.17054 c -0.633766,0.20115 -1.46955,1.37583 -1.241472,1.74486 0.0874,0.14141 0.874532,0.25711 1.74919,0.25711 h 1.590287 z m 4.281077,-0.22499 v -4.23333 h 0.396875 0.396875 v 4.23333 4.23334 h -0.396875 -0.396875 z m 8.378472,4.05695 c -0.38657,-0.38657 -0.113555,-0.48507 1.344481,-0.48507 h 1.521838 l 0.08435,-0.73411 0.08435,-0.73412 -1.466797,-0.64869 -1.4668,-0.64869 -0.173628,-0.69179 -0.173628,-0.69179 0.571364,-0.57124 0.571365,-0.57124 1.195588,0.0257 c 0.657572,0.0141 1.338818,0.17589 1.51388,0.35951 l 0.318294,0.33385 -1.058334,-0.12211 c -0.582083,-0.0672 -1.326224,-0.0235 -1.653646,0.097 l -0.595312,0.21907 v 0.52593 0.52593 l 1.521354,0.73739 1.521354,0.73739 0.08697,0.91436 0.08697,0.91436 -0.468271,0.34241 -0.46827,0.34241 h -1.36054 c -0.7483,0 -1.439918,-0.0794 -1.536931,-0.17639 z m 7.616794,-0.47305 -0.649433,-0.64943 v -1.58477 -1.58477 l 0.619585,-0.72031 0.619583,-0.72031 h 1.248534 1.248534 l 0.711571,0.71217 0.711568,0.71217 -0.0098,1.61224 -0.0098,1.61223 -0.732543,0.63011 -0.732547,0.63011 h -1.187897 -1.187897 l -0.649431,-0.64944 z m 3.168126,-0.2955 0.415774,-0.41578 v -1.4537 c 0,-0.79954 -0.123251,-1.684 -0.273891,-1.96548 L 47.563072,171.8077 H 46.529051 45.49503 l -0.411879,0.58804 -0.411877,0.58804 v 1.20517 1.20517 l 0.411877,0.58804 0.411879,0.58804 h 0.892141 0.892138 z m 4.91369,-1.7009 v -2.64583 l -0.46302,-0.008 -0.463021,-0.008 0.437925,-0.33313 c 0.240858,-0.18322 0.569571,-0.82204 0.730475,-1.41959 0.318209,-1.18174 0.64354,-1.40545 2.043853,-1.40545 h 0.920017 l -0.16352,0.26458 c -0.08994,0.14552 -0.43034,0.26459 -0.756449,0.26459 -0.798306,0 -1.227926,0.48136 -1.227926,1.37583 v 0.74083 h 0.79375 c 0.436562,0 0.79375,0.11907 0.79375,0.26459 0,0.14552 -0.357188,0.26458 -0.79375,0.26458 h -0.79375 v 2.64583 2.64584 H 53.13794 52.608773 Z m 5.87375,2.32834 -0.3175,-0.3175 v -2.32834 -2.32833 H 57.78033 57.395636 l 0.583131,-0.91484 c 0.686343,-1.07677 0.912691,-1.15207 1.02775,-0.34193 l 0.08455,0.59531 0.859896,0.0829 c 1.154395,0.11131 1.100976,0.57855 -0.06615,0.57855 h -0.92604 v 2.22065 2.22065 l 0.418515,0.1606 c 0.230183,0.0883 0.646901,0.1606 0.926042,0.1606 0.279138,0 0.507526,0.11906 0.507526,0.26458 0,0.37415 -1.945489,0.32993 -2.328333,-0.0529 z m 6.208728,0.11906 c -0.06577,-0.10914 -0.242408,-0.61516 -0.392525,-1.12448 -0.150114,-0.50932 -0.511643,-1.72971 -0.803394,-2.71198 l -0.530458,-1.78594 0.444344,8e-4 0.444347,7.9e-4 0.476604,1.78508 c 0.262133,0.98179 0.564536,2.1416 0.672007,2.57737 0.23399,0.94874 0.369155,0.76017 0.947217,-1.32147 0.242464,-0.87312 0.571656,-1.92098 0.731538,-2.32856 l 0.290695,-0.74107 0.54234,0.0796 0.542338,0.0796 0.487315,1.98437 c 0.26802,1.09141 0.547169,2.15434 0.620329,2.36208 l 0.133019,0.3777 0.342016,-0.3777 c 0.188111,-0.20774 0.551077,-1.30044 0.806593,-2.42822 l 0.464577,-2.05052 h 0.39371 c 0.216541,0 0.354505,0.14882 0.306586,0.33073 -0.04792,0.1819 -0.37774,1.49158 -0.732935,2.91041 l -0.645811,2.57969 h -0.693296 -0.693295 l -0.477973,-2.05052 c -0.262884,-1.12779 -0.596688,-2.27792 -0.741788,-2.55585 l -0.263814,-0.50533 -0.20493,0.37304 c -0.11271,0.20517 -0.468564,1.3553 -0.790784,2.55585 l -0.585854,2.18281 h -0.484565 c -0.266513,0 -0.538383,-0.0893 -0.604153,-0.19844 z m 9.942716,-0.13229 c -0.145529,-0.1819 -0.340786,-0.57991 -0.433906,-0.88447 l -0.169307,-0.55374 0.543536,-0.69099 0.543537,-0.691 1.577763,-0.1785 1.577766,-0.17851 v -0.62118 -0.62118 l -0.642139,-0.42075 -0.642138,-0.42074 -0.961816,0.26557 -0.961816,0.26557 0.09984,-0.29953 c 0.139697,-0.41909 1.522251,-0.76308 2.314318,-0.57581 0.363802,0.086 0.869818,0.34415 1.124479,0.57365 l 0.463021,0.41727 v 2.47253 c 0,1.3599 -0.07617,2.47254 -0.16927,2.47254 -0.0931,0 -0.316788,-0.20175 -0.497089,-0.44832 l -0.327821,-0.44832 0.135054,-1.00689 0.135051,-1.00689 h -1.219364 -1.219361 l -0.424918,0.6485 -0.424916,0.64851 0.179872,0.56672 0.179871,0.56672 1.142593,-0.0909 1.14259,-0.0909 -0.274585,0.33085 -0.274584,0.33086 h -1.125831 -1.125832 z m 8.137305,-2.57969 v -2.91042 h 0.264584 c 0.14552,0 0.266406,0.0893 0.268634,0.19844 0.0021,0.10914 0.113019,0.37067 0.2462,0.58118 l 0.242146,0.38275 0.481407,-0.5699 c 0.264771,-0.31345 0.824349,-0.65131 1.243505,-0.75082 l 0.762098,-0.18091 -0.118637,0.35591 c -0.06525,0.19576 -0.492159,0.45271 -0.948682,0.571 -0.456523,0.1183 -1.013971,0.47769 -1.238774,0.79864 l -0.408731,0.58354 v 1.9255 1.92551 h -0.396875 -0.396875 z m 6.695482,2.27187 -0.742357,-0.63855 v -1.6044 -1.60439 l 0.70068,-0.70068 0.700683,-0.70068 1.083762,-0.0284 1.08376,-0.0284 0.656545,0.65694 c 0.361098,0.36132 0.732835,1.03885 0.826077,1.50563 l 0.169534,0.8487 -2.213647,0.0773 -2.213644,0.0773 0.07225,0.64737 c 0.03974,0.35606 0.277572,0.87425 0.528521,1.15154 l 0.456269,0.50418 1.521999,-0.1101 c 0.837102,-0.0605 1.522003,-0.0259 1.522003,0.0769 0,0.32032 -0.78508,0.50821 -2.123551,0.50821 h -1.286524 z m 3.409847,-3.46249 c -0.04462,-0.29105 -0.334751,-0.74486 -0.644731,-1.00847 l -0.563597,-0.4793 -0.678188,0.16598 c -0.81561,0.19962 -1.221198,0.58725 -1.465366,1.40052 l -0.182512,0.6079 1.80776,-0.0787 1.807763,-0.0787 z m 8.699289,3.4039 -0.54837,-0.69714 v -1.51614 -1.51614 l 0.52498,-0.6674 c 0.28874,-0.36708 0.83713,-0.74575 1.21864,-0.84151 l 0.69366,-0.1741 0.62414,0.40895 c 0.34327,0.22492 0.81439,0.40895 1.04694,0.40895 h 0.42282 l -0.0471,-0.46302 c -0.0259,-0.25466 -0.0334,-0.96904 -0.0166,-1.5875 l 0.0305,-1.12448 h 0.39687 0.39688 v 4.23333 4.23334 h -0.36857 c -0.20272,0 -0.44205,-0.1915 -0.53186,-0.42554 l -0.1633,-0.42554 -0.64945,0.42554 c -0.3572,0.23404 -1.06172,0.42554 -1.5656,0.42554 h -0.91615 z m 3.25879,-0.23741 c 0.86141,-0.8614 0.839,-2.88967 -0.043,-3.8941 l -0.40658,-0.46302 h -0.87003 -0.87004 l -0.41187,0.58804 -0.41188,0.58804 v 1.20517 1.20517 l 0.41188,0.58804 0.41187,0.58804 h 0.89215 0.89213 z m 5.44631,0.17456 -0.78681,-0.78681 v -1.33909 -1.3391 l 0.76864,-0.86025 0.76863,-0.86025 1.13525,0.0298 1.13525,0.0298 0.60966,0.70877 0.60966,0.70877 v 0.76787 0.76786 l -2.05052,0.0773 -2.05052,0.0773 -0.0813,0.57085 -0.0814,0.57085 0.61051,0.57236 0.61051,0.57235 1.38946,-0.0849 1.38947,-0.0849 -0.0875,0.26458 c -0.0481,0.14552 -0.76578,0.30039 -1.59485,0.34414 l -1.50739,0.0796 z m 3.44653,-3.20876 c 0,-0.68648 -0.90785,-1.5875 -1.59953,-1.5875 -0.6353,0 -1.84006,1.11814 -1.84006,1.70776 v 0.4089 h 1.7198 1.71979 z m 3.96875,1.05833 v -2.91042 h 0.36857 c 0.20271,0 0.44332,0.1948 0.53468,0.43289 l 0.16611,0.43289 0.51558,-0.46659 0.51558,-0.46659 1.06157,-0.0278 1.06155,-0.0278 0.46787,0.46744 0.46786,0.46743 0.0917,2.50452 0.0917,2.50453 h -0.42241 -0.42242 l -0.004,-1.91823 -0.004,-1.91823 -0.33465,-0.66146 -0.33464,-0.66146 h -1.04696 -1.04695 l -0.38875,0.79375 c -0.21381,0.43656 -0.43721,1.59742 -0.49644,2.57969 l -0.10769,1.78594 h -0.36702 -0.36702 v -2.91042 z m 9.26972,2.39864 c -0.15064,-0.28147 -0.27389,-1.4163 -0.27389,-2.52184 v -2.01007 l -0.39687,-0.1523 c -0.51117,-0.19615 -0.51463,-0.62485 -0.005,-0.62485 h 0.39183 l 0.16602,-0.66145 c 0.0913,-0.36381 0.27216,-0.66146 0.40191,-0.66146 0.12974,0 0.2359,0.29765 0.2359,0.66146 v 0.66145 h 0.92604 c 0.50933,0 0.92604,0.11907 0.92604,0.26459 0,0.14552 -0.41671,0.26458 -0.92604,0.26458 h -0.92604 v 1.96274 c 0,1.0795 0.0723,2.15106 0.1606,2.38124 l 0.1606,0.41852 h 0.89773 c 0.49376,0 0.89774,0.11906 0.89774,0.26458 v 0.26459 h -1.18132 -1.18131 z m 5.33528,0.19428 c -0.17463,-0.17463 -0.3175,-0.69196 -0.3175,-1.14962 v -0.83212 l 0.50186,-0.45418 0.50187,-0.45418 1.48251,-0.15301 1.48251,-0.15301 v -0.61834 -0.61834 l -0.64214,-0.42075 -0.64214,-0.42074 -0.96182,0.26557 -0.96181,0.26557 0.0998,-0.29953 c 0.14107,-0.4232 1.51783,-0.75525 2.37724,-0.57335 0.39841,0.0843 0.96395,0.45789 1.25677,0.83015 l 0.53239,0.67682 v 2.21328 2.21328 h -0.38373 c -0.21105,0 -0.49894,-0.20588 -0.63976,-0.45752 l -0.25604,-0.45751 -0.50555,0.45751 -0.50554,0.45752 h -1.05073 c -0.5779,0 -1.19361,-0.14288 -1.36823,-0.3175 z m 3.23937,-0.79971 c 0.22653,-0.32342 0.41188,-0.8592 0.41188,-1.19062 v -0.60259 h -1.10365 -1.10364 l -0.48386,0.43788 c -0.47765,0.43227 -0.65025,1.42419 -0.30746,1.76698 0.097,0.097 0.62604,0.17639 1.17562,0.17639 h 0.99923 z m 4.90979,-3.11613 v -4.23333 h 0.39688 0.39687 v 4.23333 4.23334 h -0.39687 -0.39688 z m 14.55209,2.08366 c -0.50933,-0.3081 -1.04359,-0.75414 -1.18727,-0.99119 -0.46215,-0.76253 -2.49819,-5.88962 -3.691,-9.29455 -0.63723,-1.81901 -1.41187,-4.02167 -1.72142,-4.89479 -1.73403,-4.89105 -1.72628,-10.84216 0.019,-14.57044 0.80177,-1.71277 2.80561,-3.69422 4.53394,-4.48326 l 1.3853,-0.63243 1.73935,-0.17672 1.73934,-0.17672 1.902,0.32082 1.90201,0.32081 2.39191,1.16417 2.39192,1.16417 1.43526,-1.0603 1.43527,-1.06029 1.65959,-0.42547 1.6596,-0.42547 1.71979,0.14831 c 2.25332,0.19432 3.63094,0.70886 5.40322,2.01812 l 1.45204,1.07269 1.13643,1.91871 1.13642,1.91872 -0.009,3.70416 -0.009,3.70417 -0.56863,1.71979 c -0.31275,0.94589 -0.94815,2.96995 -1.412,4.49792 -0.46384,1.52797 -0.92904,2.89718 -1.03376,3.04271 -0.10473,0.14552 -0.70499,1.75286 -1.33392,3.57187 -0.62893,1.81901 -1.23448,3.4278 -1.34567,3.57509 -0.11119,0.14729 -0.45592,0.94602 -0.76606,1.77495 l -0.5639,1.50716 -0.79924,0.67252 c -1.02805,0.86505 -1.90239,1.07528 -2.84616,0.68436 -0.41498,-0.17189 -2.1081,-1.67366 -3.76248,-3.33726 l -3.00798,-3.02474 h -0.70409 -0.70408 l -1.54757,1.16767 c -0.85116,0.64221 -2.26195,1.96068 -3.13507,2.92992 -2.34969,2.60836 -3.23199,2.96071 -4.89479,1.95482 z m 3.76936,-5.36304 2.28699,-2.22104 1.64429,-0.82167 1.64429,-0.82166 h 1.46634 1.46634 l 3.03145,3.04271 c 1.6673,1.67349 3.12598,3.04271 3.24152,3.04271 0.26145,0 0.9803,-1.61094 2.08106,-4.66364 0.46562,-1.2913 1.24799,-3.41938 1.7386,-4.72907 0.4906,-1.30969 1.33639,-3.86953 1.87953,-5.68854 l 0.98753,-3.30729 0.0152,-2.92914 0.0152,-2.92915 -0.76606,-1.17189 c -1.09764,-1.67916 -2.20309,-2.55681 -3.84431,-3.05214 l -1.43537,-0.43319 -1.37913,0.14234 c -1.69158,0.17458 -2.62809,0.6426 -4.35509,2.17642 -0.73402,0.65191 -1.47943,1.18301 -1.65648,1.18021 -0.17706,-0.003 -1.45301,-0.60598 -2.83546,-1.34042 -3.62874,-1.92782 -5.93944,-2.40352 -8.74861,-1.80106 l -1.36633,0.29303 -1.26881,1.22833 -1.26881,1.22833 -0.4849,1.5875 -0.4849,1.5875 0.0313,3.0427 0.0313,3.04271 0.55318,2.05779 c 0.30426,1.13178 0.72877,2.44147 0.94337,2.91041 0.21461,0.46895 0.69842,1.7884 1.07515,2.93211 0.97732,2.96703 3.21607,8.63615 3.41044,8.63615 0.0353,0 1.09326,-0.99947 2.35111,-2.22105 z M 23.612548,162.74016 c -1.342797,-0.40329 -2.189048,-1.07359 -3.107412,-2.46133 l -0.711361,-1.07494 -0.295076,-2.28587 -0.295076,-2.28587 0.304805,-2.04938 0.304806,-2.04936 0.669687,-1.14274 c 0.368328,-0.6285 1.126202,-1.44484 1.684164,-1.81408 l 1.014476,-0.67135 1.682878,-0.23817 1.682877,-0.23818 1.717616,0.24294 c 0.944689,0.13361 1.804554,0.15599 1.910811,0.0497 0.106256,-0.10626 0.226298,-1.97652 0.266758,-4.15614 l 0.07357,-3.96294 h 1.719792 1.719791 l 0.06882,12.10469 0.06882,12.10469 h -1.205985 -1.205985 l -0.599969,-0.69751 -0.599969,-0.6975 -1.107416,0.73285 -1.107415,0.73285 -1.785654,0.0914 -1.785653,0.0914 z m 4.517665,-2.98092 c 0.858981,-0.22373 1.717433,-0.53597 1.907672,-0.69385 l 0.345889,-0.28707 v -4.30835 -4.30836 l -1.237757,-0.42174 c -0.680767,-0.23196 -1.722564,-0.42131 -2.315104,-0.42076 l -1.077347,9.8e-4 -0.84705,0.51647 c -0.465878,0.28407 -1.061191,0.9087 -1.322917,1.38808 l -0.475866,0.8716 v 2.64584 2.64583 l 0.796252,1.17929 0.796252,1.17928 0.658956,0.18341 c 0.987392,0.27481 1.083527,0.26889 2.77102,-0.17065 z m 13.301841,3.0482 c -1.279067,-0.32431 -2.838045,-1.31485 -3.721068,-2.36426 -0.995942,-1.18361 -1.350312,-2.67237 -1.359927,-5.71327 l -0.0084,-2.65799 0.923164,-1.83992 0.923163,-1.83992 1.203624,-0.73283 1.203627,-0.73282 1.567108,-0.25506 1.567106,-0.25505 1.719204,0.27464 c 1.950292,0.31156 3.170632,0.96678 4.120801,2.21252 l 0.654518,0.85811 0.260811,1.37526 c 0.143446,0.75639 0.186592,2.08535 0.09588,2.95326 l -0.164934,1.57801 h -5.28779 -5.287793 l 0.173469,1.12448 c 0.215405,1.39634 0.852485,2.30976 2.029637,2.91 l 0.907235,0.46261 1.485241,5.3e-4 c 1.363573,2.6e-4 3.668564,-0.32787 4.798613,-0.68335 l 0.463021,-0.14565 v 1.35425 1.35424 l -0.992188,0.41494 -0.992187,0.41493 -2.645833,0.0918 c -1.455209,0.0505 -3.09145,-0.0212 -3.636095,-0.15932 z m 5.62047,-10.69397 c 0,-0.35433 -0.109173,-0.93139 -0.242607,-1.28234 l -0.24261,-0.63811 -0.921856,-0.43745 c -2.39644,-1.13719 -5.039564,-0.0665 -5.615151,2.27453 l -0.178893,0.7276 h 3.600558 3.600559 z m 26.275383,10.68806 -0.84441,-0.26135 -0.610798,-0.85634 -0.610801,-0.85635 -0.081,-5.4901 -0.081,-5.4901 h -1.572643 -1.572649 v -1.18559 -1.18558 l 0.727604,-0.1648 c 0.400183,-0.0906 1.084792,-0.24865 1.521354,-0.35113 l 0.79375,-0.18634 0.313521,-2.1013 c 0.172434,-1.15572 0.321262,-2.13107 0.330729,-2.16745 0.0095,-0.0364 0.672052,-0.0661 1.472417,-0.0661 h 1.455208 v 1.73718 c 0,0.95546 0.123251,1.96749 0.273892,2.24896 l 0.273894,0.51178 h 1.975064 1.975067 v 1.4445 1.44451 l -2.182813,0.0768 -2.182812,0.0769 0.0054,4.23333 0.0054,4.23333 0.464378,0.8599 0.464381,0.85989 h 1.730391 c 0.951716,0 1.960689,-0.12325 2.242163,-0.27389 l 0.511797,-0.27389 v -1.40429 -1.40428 l 0.615855,-1.16609 0.615855,-1.1661 1.27709,-0.79094 1.277094,-0.79095 2.860918,-0.0979 2.860921,-0.0979 0.15259,-0.48077 c 0.215501,-0.67898 -0.509396,-2.27007 -1.203478,-2.64153 l -0.583784,-0.31243 -2.0183,0.12779 c -1.110068,0.0703 -2.27398,0.21199 -2.586477,0.3149 l -0.568174,0.1871 -0.10936,-1.41282 c -0.06015,-0.77705 -0.102053,-1.43274 -0.09312,-1.45708 0.07662,-0.20886 5.366684,-0.5696 6.457815,-0.44038 l 1.401064,0.16594 0.816689,0.55622 c 1.107046,0.75398 1.779082,1.71558 2.067224,2.95795 0.132387,0.57082 0.243546,3.62746 0.247018,6.79254 l 0.0063,5.75469 h -1.300848 -1.300851 l -0.522536,-0.71733 -0.522539,-0.71733 -1.130554,0.78348 -1.130553,0.78347 -2.006997,-2.7e-4 -2.006997,-2.6e-4 -0.79375,-0.41403 c -0.436563,-0.22771 -1.053327,-0.57843 -1.370587,-0.77938 l -0.576836,-0.36536 -1.359273,0.73981 -1.359273,0.7398 -2.03264,0.0993 c -1.117952,0.0546 -2.412625,-0.0183 -2.877048,-0.16209 z m 14.859325,-3.04631 0.865725,-0.41081 0.453977,-0.84596 0.453977,-0.84596 -0.08909,-0.92604 -0.08909,-0.92604 -1.5875,-0.0822 c -2.059006,-0.10666 -3.213457,0.1207 -3.851216,0.75846 l -0.514408,0.5144 v 1.01733 1.01733 l 0.46302,0.40335 c 0.95318,0.83036 2.550258,0.96412 3.894606,0.32618 z m -35.316174,-3.49179 c -0.0013,-3.60164 -0.07738,-7.17351 -0.169146,-7.9375 l -0.166846,-1.38906 h 1.756645 1.756646 v 0.38126 c 0,0.71654 0.536141,0.71258 2.023147,-0.0149 l 1.487032,-0.72754 2.026301,0.013 2.026301,0.0131 0.825455,0.42686 c 1.167442,0.60371 1.846646,1.57375 2.175475,3.10703 l 0.284205,1.3252 v 5.67552 5.67552 H 65.04419 63.192106 v -5.97052 -5.97052 l -0.285416,-0.5333 c -0.156978,-0.29332 -0.655868,-0.68907 -1.108644,-0.87945 l -0.823227,-0.34614 -1.313196,0.38998 c -0.722257,0.21448 -1.771179,0.67909 -2.330939,1.03245 l -1.017744,0.64247 v 5.81751 5.81752 h -1.719792 -1.719791 l -0.0024,-6.54844 z m 43.393964,-5.63448 v -12.18292 l 1.785941,0.0782 1.78593,0.0782 0.0688,12.10468 0.0688,12.10469 h -1.85475 -1.854751 z m 6.349998,4.24542 v -7.9375 h 1.85208 1.85209 v 7.9375 7.9375 h -1.85209 -1.85208 z m 6.61458,0.82682 c 0,-3.91087 -0.0744,-7.48275 -0.16536,-7.9375 l -0.16537,-0.82682 h 1.75287 1.75286 v 0.38126 c 0,0.69028 0.45319,0.68258 2.01905,-0.0343 l 1.54611,-0.70784 1.99881,0.0129 1.99881,0.0129 0.82546,0.42686 c 1.16744,0.60371 1.84664,1.57375 2.17547,3.10703 l 0.28421,1.3252 v 5.67552 5.67552 h -1.85209 -1.85208 v -6.09745 -6.09744 l -0.64943,-0.64943 -0.64943,-0.64943 h -0.93272 c -1.0481,0 -2.82626,0.62815 -3.91998,1.38477 l -0.72761,0.50334 v 5.80282 5.80282 h -1.71979 -1.71979 z m 16.9351,-5.92005 0.002,-13.03073 1.85031,-1.00769 1.85023,-1.0077 v 9.14363 9.14363 h 0.23972 c 0.13185,0 1.4713,-1.36853 2.97656,-3.04118 l 2.73685,-3.04118 1.93903,-0.001 1.93903,-0.002 -2.30247,2.57969 c -1.26636,1.41882 -2.66629,2.97902 -3.11095,3.46709 l -0.80848,0.8874 0.24587,0.33808 c 0.30379,0.4177 5.31892,6.57595 6.12335,7.51907 0.32219,0.37774 0.59008,0.77609 0.59531,0.88523 0.005,0.10914 -0.8217,0.19844 -1.83762,0.19844 h -1.84715 l -2.03568,-2.57969 c -3.96182,-5.02053 -4.45856,-5.62041 -4.65493,-5.62139 -0.10914,-5.4e-4 -0.19844,1.84448 -0.19844,4.10006 v 4.10104 h -1.85208 -1.85209 l 0.002,-13.03073 z m -23.30545,-7.05725 c -0.9119,-0.9119 -0.97151,-1.54921 -0.23277,-2.48838 l 0.54063,-0.6873 0.88672,-0.16635 0.88672,-0.16635 0.62317,0.33202 c 0.87551,0.46647 1.26644,1.05193 1.27622,1.91126 l 0.008,0.73963 -0.64943,0.64943 -0.64943,0.64944 h -0.95842 -0.95842 z"
       id="path2758" />
  </g>
</svg>
