<?xml version="1.0" encoding="UTF-8" standalone="no"?>
<!-- Created with Inkscape (http://www.inkscape.org/) -->

<svg
   width="119.89133mm"
   height="33.136337mm"
   viewBox="0 0 119.89132 33.136339"
   version="1.1"
   id="svg5"
   xmlns="http://www.w3.org/2000/svg"
   xmlnsSvg="http://www.w3.org/2000/svg">
  <defs
     id="defs2" />
  <g
     id="layer1"
     transform="translate(-15.958578,-171.69359)">
    <path
       id="path31830"
       style="fill:#323694;fill-opacity:1;stroke-width:0.999999"
       d="m 135.39258,3.171875 c -2.73287,0.035103 -5.54654,0.6336813 -8.2461,1.859375 -4.24631,1.9279748 -5.87376,3.9818632 -7.41601,9.359375 -1.2848,4.479836 0.75272,11.24547 4.2793,14.212891 1.62218,1.364976 6.33873,3.467868 10.48242,4.671875 5.85561,1.70143 7.78112,2.730423 8.64258,4.621093 0.9499,2.084788 0.77558,2.70304 -1.2168,4.316407 -1.27866,1.035363 -3.14518,1.880859 -4.14844,1.880859 -3.4268,0 -6.97762,-1.956021 -8.12695,-4.478516 -0.99696,-2.188233 -1.7863,-2.521484 -5.98828,-2.521484 -5.67192,0 -6.00886,0.952714 -2.73633,7.712891 2.02535,4.183785 5.01316,6.49163 10.89062,8.410156 3.83099,1.250532 11.76642,0.189734 15.4043,-2.058594 3.50627,-2.166992 5.09882,-4.8614 6.13281,-10.373047 0.46189,-2.462097 0.0643,-4.820162 -1.35351,-8.02539 -2.23069,-5.042835 -5.58797,-7.234342 -15.40235,-10.058594 -6.59169,-1.896869 -8.47088,-4.166082 -6.16992,-7.451172 2.17815,-3.10972 7.77019,-2.932647 10.80664,0.34375 1.74128,1.878841 3.33098,2.5 6.39453,2.5 2.24199,0 4.34106,-0.429308 4.66602,-0.955078 0.32495,-0.525808 -0.0389,-2.438284 -0.81055,-4.25 -2.64701,-6.2150529 -9.09999,-9.8065047 -16.08398,-9.716797 z M -16.185547,6.09375 v 25 25 h 5.5 5.5000001 v -25 -25 h -5.5000001 z m 52,3 v 19.277344 c 0,16.087559 0.26634,19.657595 1.607422,21.572265 0.88385,1.261871 2.571351,2.693591 3.75,3.181641 1.178649,0.488088 4.61758,0.792632 7.642578,0.677734 l 5.5,-0.208984 0.304688,-4.189453 0.304687,-4.189453 -4.304687,-0.310547 -4.304688,-0.310547 -0.287109,-9.25 -0.28711,-9.25 h 4.59375 4.595704 l -0.306641,-4.25 c -0.30601,-4.229443 -0.329253,-4.250499 -4.558594,-4.556641 -4.229212,-0.30599 -4.25,-0.326661 -4.25,-4.25 V 9.09375 h -5 z m 184.999997,0 v 19.279297 c 0,16.087559 0.26634,19.655642 1.60743,21.570312 0.88384,1.261871 2.57131,2.693591 3.75,3.181641 1.17864,0.488088 4.61759,0.794585 7.64257,0.679688 l 5.5,-0.208985 0.30469,-4.191406 0.30469,-4.189453 -4.30469,-0.310547 -4.30469,-0.310547 -0.28711,-9.25 -0.28711,-9.25 h 4.59571 4.59375 l -0.30664,-4.25 c -0.30603,-4.229443 -0.32927,-4.250499 -4.5586,-4.556641 -4.2311,-0.30599 -4.25,-0.326661 -4.25,-4.25 V 9.09375 h -5 z m 38.83399,6.851562 c -3.89597,-0.120085 -7.89887,0.807154 -10.64844,2.822266 -4.2703,3.129676 -6.18159,7.954181 -6.18359,15.607422 -8.4e-4,3.730167 0.61501,8.230161 1.36914,10 1.69791,3.984869 5.45189,7.532133 9.24804,8.736328 3.64929,1.157632 10.57026,0.45366 14.25,-1.449219 2.98644,-1.544352 5.3686,-4.567631 6.55469,-8.318359 0.66826,-2.113172 0.42913,-2.25 -3.94726,-2.25 -3.14548,0 -5.48681,0.649915 -7.20313,2 -1.39842,1.099994 -3.28213,2 -4.18555,2 -2.57699,0 -6.08789,-2.91603 -6.08789,-5.056641 0,-1.806463 0.77366,-1.943359 11,-1.943359 h 11 v -5.550781 c 0,-5.982388 -1.45089,-9.681652 -5.15429,-13.138672 -2.32632,-2.171584 -6.11575,-3.338899 -10.01172,-3.458985 z M 72.847656,15.96875 c -3.114223,-0.0048 -6.159152,0.600709 -8.238281,1.818359 -5.17748,3.032202 -7.156102,6.61702 -7.613281,13.796875 -0.226538,3.55767 -0.111574,8.063562 0.253906,10.011719 0.837437,4.463925 5.799694,10.197693 9.916016,11.457031 v 0.002 c 3.942228,1.206085 10.78366,0.540166 14.570312,-1.417969 2.807418,-1.451792 7.078125,-7.128657 7.078125,-9.408203 0,-0.678274 -1.840036,-1.132813 -4.591797,-1.132813 -3.078081,0 -5.430535,0.659439 -7.134765,2 -1.398418,1.099994 -3.282097,2 -4.185547,2 -2.576992,0 -6.087891,-2.916029 -6.087891,-5.056641 0,-1.812888 0.779654,-1.943359 11.615235,-1.943359 h 11.615234 l -0.685547,-5.75 C 88.444057,24.68067 85.989986,20.142529 81.503906,17.814453 79.144742,16.589584 75.96188,15.973559 72.847656,15.96875 Z m 130.451174,0.01953 c -3.20172,0.02275 -6.50118,0.581602 -8.5,1.615235 -1.86736,0.965631 -3.75702,3.098253 -4.66016,5.259765 -1.21894,2.917342 -1.29672,4.374144 -0.39648,7.378907 0.61702,2.059426 2.21047,4.602252 3.54297,5.65039 1.33249,1.048139 5.1605,2.487319 8.50586,3.197266 3.34537,0.709946 6.33241,1.695872 6.63867,2.191406 0.89173,1.442835 -1.65742,3.8125 -4.10157,3.8125 -1.23347,0 -3.42007,-0.92408 -4.85742,-2.054688 -1.95433,-1.537209 -3.75834,-1.978661 -7.1582,-1.75 l -4.54688,0.304688 2.2754,4.496094 c 1.81708,3.590891 3.17899,4.847694 6.77343,6.248047 8.25368,3.215508 17.97306,0.459229 20.60743,-5.845703 1.13404,-2.71423 1.21812,-4.33534 0.38281,-7.4375 -0.62907,-2.336126 -2.10684,-4.64556 -3.59571,-5.621094 -1.39024,-0.910942 -5.31027,-2.384266 -8.71093,-3.273438 -4.0507,-1.059137 -6.1836,-2.125863 -6.1836,-3.091797 0,-2.091326 5.81924,-2.501176 7.45899,-0.52539 0.80433,0.969184 2.9288,1.550781 5.66406,1.550781 3.93615,0 4.37695,-0.23857 4.37695,-2.365234 0,-3.018898 -3.49907,-7.488893 -6.88086,-8.791016 -1.71417,-0.660028 -4.14454,-0.966913 -6.63476,-0.949219 z m -88.48438,0.01563 -3.75,0.675782 c -2.0625,0.37164 -4.38517,1.179123 -5.16211,1.794921 -1.05672,0.837544 -1.51926,0.804196 -1.83398,-0.130859 -0.26033,-0.77348 -2.29366,-1.25 -5.335938,-1.25 h -4.917969 v 17.833984 c 0,9.808366 0.322295,18.154296 0.714844,18.546875 0.392549,0.393978 2.530049,0.579292 4.75,0.416016 l 4.035153,-0.296875 0.5,-12.333984 c 0.43437,-10.714961 0.75507,-12.519764 2.44141,-13.75 1.06762,-0.778885 3.43012,-1.416016 5.25,-1.416016 3.30794,0 3.30859,-9.91e-4 3.30859,-5.044922 z m 237.20117,0.09375 c -2.9148,-0.0021 -6.621,0.679379 -8.23437,1.513672 -3.23221,1.671458 -5.97045,6.114107 -5.96289,9.681641 0.005,2.844737 3.26947,8.353311 5.69336,9.605469 0.99194,0.512428 4.27775,1.506483 7.30273,2.208984 3.02502,0.702538 5.81235,1.758428 6.19336,2.347656 1.0114,1.563893 -1.08632,3.638672 -3.67969,3.638672 -1.23348,0 -3.38673,-0.900006 -4.78515,-2 -1.6018,-1.259981 -4.05863,-2 -6.63672,-2 -3.469,0 -4.0918,0.315276 -4.0918,2.066406 0,3.143887 1.79292,5.835197 5.31446,7.982422 2.26212,1.379339 5.01367,1.944582 9.48632,1.947266 6.76491,0.004 11.46785,-1.761085 13.16993,-4.941406 0.56628,-1.058155 1.02929,-3.99898 1.02929,-6.535157 0,-3.522066 -0.56077,-5.172105 -2.37695,-6.988281 -1.30779,-1.307792 -4.34528,-2.915308 -6.75,-3.572266 -2.40469,-0.656957 -5.49805,-1.516556 -6.87305,-1.910156 -3.63439,-1.040315 -3.15434,-3.486084 0.75782,-3.863281 2.24303,-0.216151 3.44413,0.172948 3.85742,1.25 0.4312,1.123653 1.97651,1.564453 5.49219,1.564453 5.27157,0 5.73811,-0.64817 3.91796,-5.435547 -1.49038,-3.919975 -6.64473,-6.556767 -12.82422,-6.560547 z M 16.980469,16.339844 c -1.626098,0.01816 -3.246652,0.375538 -4.777344,1.105468 -1.863814,0.888794 -3.3886719,1.173928 -3.3886719,0.632813 0,-0.541077 -2.2500006,-0.984375 -5,-0.984375 h -5 v 18.554688 18.554687 l 4.75,-0.304687 4.75,-0.304688 0.2832031,-11.957031 c 0.2213292,-9.33464 0.6405505,-12.351424 1.9062498,-13.75 2.153942,-2.380158 6.826706,-2.276799 9.310547,0.207031 1.778801,1.778759 2.000023,3.333226 2,14.054688 v 12.054687 l 4.75,-0.304687 4.75,-0.304688 -0.03906,-13 C 31.243661,30.360717 30.874983,26.922337 29.544922,24.433594 26.793397,19.285169 21.858761,16.285369 16.980469,16.339844 Z m 280.468751,0.0957 c -1.58437,0.02588 -3.13818,0.384405 -4.51367,1.095703 -1.75057,0.905235 -3.1211,1.163097 -3.1211,0.587891 0,-0.56417 -2.24986,-1.025391 -5,-1.025391 h -5 v 18.554688 18.554687 l 4.75,-0.304687 4.75,-0.304688 0.28321,-11.957031 c 0.3123,-13.171654 1.26062,-15.542969 6.21679,-15.542969 4.95617,0 5.90461,2.371315 6.2168,15.542969 l 0.2832,11.957031 4.75,0.304688 4.75,0.304687 V 42.371094 c 0,-9.090671 0.36065,-12.347173 1.55664,-14.054688 1.80133,-2.571741 6.06073,-2.952253 9.00196,-0.804687 1.70986,1.248415 1.98247,2.921962 2.27539,14.050781 l 0.33203,12.634766 4.66797,-0.300782 4.66601,-0.302734 0.31446,-8.5 c 0.42803,-11.584252 -0.52572,-18.276901 -3.16602,-22.199219 -1.22188,-1.815269 -3.55608,-3.967947 -5.18555,-4.785156 -1.62946,-0.817172 -5.28745,-1.492441 -8.1289,-1.5 -3.71679,-0.01024 -5.9733,0.581186 -8.04297,2.111328 -2.80864,2.076586 -2.92982,2.084488 -5.1543,0.283203 -2.13354,-1.727622 -4.86133,-2.611486 -7.50195,-2.568359 z m -109.88281,0.740234 c -0.71173,-5.35e-4 -1.64487,0.04226 -2.85157,0.111328 l -5.35937,0.306641 -3.51953,10.246094 c -1.93632,5.635086 -3.74649,10.244896 -4.02149,10.24414 -0.275,-7.18e-4 -2.10746,-4.609772 -4.07226,-10.24414 l -3.57227,-10.246094 -5.30664,-0.306641 c -4.77614,-0.276094 -5.23326,-0.126179 -4.58594,1.5 4.63641,11.647635 12.19782,34.892423 11.82032,36.335938 -0.31906,1.220107 -1.5703,1.965323 -3.63477,2.166015 -2.93171,0.28475 -3.1687,0.596616 -3.45508,4.554688 l -0.30859,4.25 h 5.44726 c 3.74463,0 6.08385,-0.546863 7.48438,-1.75 1.24001,-1.065222 4.96372,-9.967109 9.51758,-22.75 4.11466,-11.550009 7.80644,-21.812927 8.20312,-22.806641 0.48728,-1.220513 0.35003,-1.609721 -1.78515,-1.611328 z m 71.14453,7.701172 c 3.30867,-0.09407 6.10351,1.665066 6.10351,3.839844 0,1.016957 -1.57039,1.376953 -6,1.376953 -4.42964,0 -6,-0.359958 -6,-1.376953 0,-2.10017 2.5233,-3.743844 5.89649,-3.839844 z M 72.5625,24.88285 c 3.02087,-0.03254 6.251953,1.458268 6.251953,3.833985 0,1.016957 -1.57036,1.376953 -6,1.376953 -3.3,0 -6,-0.363706 -6,-0.808594 0,-0.444888 0.576731,-1.597069 1.28125,-2.560547 0.917603,-1.254897 2.654275,-1.822272 4.466797,-1.841797 z M 245.81445,77.960976 V 91.093788 104.2266 l 2.75,-0.3164 c 2.66578,-0.30675 2.75888,-0.52367 3.04688,-7.126959 0.29442,-6.750954 0.32122,-6.809165 3,-6.5 2.60519,0.300586 2.71502,0.554582 3,7.060547 0.28123,6.419682 0.41584,6.750002 2.75,6.750002 2.38892,0 2.45312,-0.20054 2.45312,-7.544924 0,-6.767131 -0.26482,-7.809747 -2.5664,-10.111328 -1.98482,-1.984101 -3.21728,-2.436622 -5.43946,-1.992188 -2.64567,0.529134 -2.89748,0.319905 -3.18359,-2.638671 -0.25795,-2.668309 -0.77665,-3.26662 -3.06055,-3.529297 z M -5.8847656,78.09375 c -2.1199295,0 -4.8380614,0.688087 -6.0390624,1.529297 -2.354457,1.649121 -4.281083,7.141676 -4.199219,11.970703 0.08316,4.904693 2.266293,9.86128 4.9375,11.20898 1.3749998,0.69374 3.9983198,1.26979 5.8281251,1.27735 2.3563692,0.0104 4.1796618,-0.83786 6.25000002,-2.9082 3.85812288,-3.858109 3.82882178,-6.07813 -0.078125,-6.07813 -1.64999811,0 -3.00000002,0.434198 -3.00000002,0.964844 0,0.530645 -0.8999987,1.446457 -2,2.035156 -1.420989,0.760479 -2.579011,0.760479 -4,0 -1.6449486,-0.880328 -2.0000001,-2.092643 -2.0000001,-6.833984 0,-3.170646 0.541172,-6.304825 1.201172,-6.964844 1.8145776,-1.814589 4.631827,-1.442016 6.03125,0.798828 1.5409814,2.467502 6.7675781,2.79499 6.7675781,0.423828 0,-0.867326 -1.3141849,-2.892302 -2.92187498,-4.5 C -1.3270326,78.797975 -2.9579562,78.09375 -5.8847656,78.09375 Z m 77.1992186,0 c -2.000001,0 -2.5,0.500025 -2.5,2.5 0,2.000013 0.499999,2.5 2.5,2.5 2.000001,0 2.5,-0.499987 2.5,-2.5 0,-1.999975 -0.499999,-2.5 -2.5,-2.5 z m 62.999997,0 c -2.25365,0 -2.5,0.397626 -2.5,4.035156 0,3.679597 -0.16978,3.943937 -1.93359,3 -3.00364,-1.607508 -4.94682,-1.244607 -7.61133,1.419922 -1.96321,1.9632 -2.45508,3.473086 -2.45508,7.544922 0,4.013102 0.4994,5.589262 2.35547,7.44531 1.96187,1.96188 3.37942,2.35547 8.5,2.35547 h 6.14453 V 90.994141 78.09375 Z m 169.5,0 v 11.429688 c 0,9.21513 0.31502,11.742752 1.625,13.052732 0.89356,0.89356 2.57694,1.48894 3.74024,1.32227 2.59313,-0.37176 3.43528,-3.77634 1.23828,-5.005862 -1.30265,-0.729109 -1.60352,-2.759203 -1.60352,-10.847656 0,-9.946999 -8.2e-4,-9.951172 -2.5,-9.951172 z m -244.499997,2 c -1.999997,0 -2.5,0.499987 -2.5,2.5 0,1.55554 -0.566672,2.5 -1.5,2.5 -0.841062,0 -1.5,0.892252 -1.5,2.03125 0,1.117266 0.675001,2.290697 1.5,2.607422 1.07331,0.411893 1.5,2.090639 1.5,5.898437 0,3.504492 0.537416,5.857711 1.572266,6.892581 0.864279,0.86426 3.11428,1.57031 5,1.57031 2.990468,0 3.427734,-0.31944 3.427734,-2.5 0,-1.999975 -0.500002,-2.5 -2.5,-2.5 -2.290465,0 -2.5,-0.370513 -2.5,-4.429688 0,-3.833196 0.30332,-4.473716 2.25,-4.75 1.44596,-0.205341 2.364933,-1.12434 2.570313,-2.570312 0.26025,-1.832466 -0.157261,-2.25 -2.25,-2.25 -2.074194,0 -2.570313,-0.481959 -2.570313,-2.5 0,-2.000013 -0.499999,-2.5 -2.5,-2.5 z m 102.499997,0.5 c -1.83123,0 -2.58429,0.601861 -2.81836,2.25 -0.17574,1.237493 -0.73824,2.25 -1.25,2.25 -0.51174,0 -0.93164,1.12497 -0.93164,2.5 0,1.374992 0.39507,2.5 0.87696,2.5 0.48189,0 1.08606,2.542976 1.34375,5.650391 0.32779,3.952819 1.02458,6.055379 2.3164,6.999999 1.01554,0.74256 3.10942,1.34961 4.6543,1.34961 2.32946,0 2.80859,-0.42666 2.80859,-2.5 0,-1.833335 -0.53333,-2.5 -2,-2.5 -1.70368,0 -2,-0.666652 -2,-4.5 0,-3.833348 0.2963,-4.5 2,-4.5 1.46667,0 2,-0.666702 2,-2.5 0,-1.803326 -0.5372,-2.5 -1.92968,-2.5 -1.2406,0 -2.04462,-0.804066 -2.25,-2.25 -0.23407,-1.648139 -0.98908,-2.25 -2.82032,-2.25 z m 38,0 c -1.83123,0 -2.58429,0.601861 -2.81836,2.25 -0.17575,1.237493 -0.73824,2.25 -1.25,2.25 -0.51174,0 -0.93164,1.12497 -0.93164,2.5 0,1.374992 0.39507,2.5 0.87696,2.5 0.48189,0 1.08606,2.542976 1.34375,5.650391 0.32779,3.952819 1.02458,6.055379 2.3164,6.999999 1.01554,0.74256 3.10942,1.34961 4.6543,1.34961 2.32946,0 2.80859,-0.42666 2.80859,-2.5 0,-1.833335 -0.53333,-2.5 -2,-2.5 -1.70368,0 -2,-0.666652 -2,-4.5 0,-3.833348 0.2963,-4.5 2,-4.5 1.46667,0 2,-0.666702 2,-2.5 0,-1.803326 -0.5372,-2.5 -1.92968,-2.5 -1.2406,0 -2.04466,-0.804066 -2.25,-2.25 -0.23407,-1.648139 -0.98908,-2.25 -2.82032,-2.25 z m -52.5,3.5 c -2.70657,0 -6.2879,2.242547 -7.36718,4.611328 -0.98946,2.171641 -0.86236,2.388672 1.40234,2.388672 1.37067,0 3.37431,-0.550871 4.45312,-1.224609 1.45171,-0.906747 2.25421,-0.933286 3.08594,-0.101563 0.83173,0.831723 0.25388,1.306613 -2.22461,1.824219 -1.84186,0.384605 -4.36211,1.339362 -5.59961,2.123047 -3.02473,1.915464 -3.03943,6.712536 -0.0273,8.822266 2.64612,1.85352 6.90435,2.03119 8.57812,0.35742 0.93332,-0.93332 1.19922,-0.93332 1.19922,0 0,0.66002 1.125,1.19922 2.5,1.19922 2.40839,0 2.5,-0.23663 2.5,-6.453125 0,-3.549128 -0.49872,-7.548414 -1.10937,-8.888672 -1.09764,-2.409033 -4.66584,-4.658203 -7.39063,-4.658203 z m 70.50977,0 c -3.29318,0 -6.84938,1.832399 -8.10352,4.175781 -0.66869,1.249436 -1.18585,4.298742 -1.14843,6.775391 0.0541,3.579175 0.61039,4.968588 2.71093,6.775388 1.45348,1.25023 3.90798,2.27344 5.45313,2.27344 3.15711,0 8.07812,-3.39465 8.07812,-5.572266 0,-1.719987 -3.31486,-1.872013 -5.88086,-0.269531 -1.99532,1.24611 -5.11914,0.558263 -5.11914,-1.126953 0,-0.595994 2.57985,-1.03125 6.11133,-1.03125 h 6.11133 l -0.65625,-3.75 c -0.7149,-4.080567 -4.53408,-8.25 -7.55664,-8.25 z m 75.49023,0 c -2.72477,0 -6.29102,2.24917 -7.38867,4.658203 -0.61066,1.340258 -1.11133,4.236429 -1.11133,6.435547 0,2.911861 0.66755,4.66556 2.45508,6.45312 1.69467,1.69467 3.56567,2.45313 6.04492,2.45313 5.06087,0 8.5,-3.60278 8.5,-8.90625 0,-2.199118 -0.49871,-5.095289 -1.10937,-6.435547 -1.09765,-2.409033 -4.66585,-4.658203 -7.39063,-4.658203 z m -115.60937,0.126953 c -1.28135,0.01234 -2.22926,0.482978 -3.6582,1.548828 -3.47912,2.595062 -4.14114,5.324219 -1.29102,5.324219 1.1478,0 2.91977,-0.521428 3.93945,-1.158203 1.07433,-0.670866 2.64549,-0.827724 3.73633,-0.373047 1.49406,0.622791 0.87654,1.054076 -2.99609,2.087891 -2.68368,0.716409 -5.23978,1.671733 -5.67969,2.123047 -0.43991,0.451351 -1.09544,2.019505 -1.45703,3.484374 -0.48352,1.958854 -0.1141,3.206208 1.39453,4.714848 1.71841,1.71836 3.15132,2.01584 8.83594,1.83593 l 6.78515,-0.21484 0.27344,-5.5 c 0.37779,-7.640504 -2.00578,-12.185921 -7.04101,-13.429688 -1.18329,-0.292294 -2.07299,-0.450763 -2.8418,-0.443359 z m -74.93946,0.06445 c -0.55416,2.22e-4 -1.16573,0.06229 -1.875,0.175782 -4.942015,0.790752 -7.076167,3.742045 -7.076167,9.789062 0,3.905953 0.512227,5.447759 2.455078,7.390623 3.093419,3.09343 8.279429,3.28167 11.357419,0.41407 1.20371,-1.12143 2.1875,-2.696402 2.1875,-3.500005 0,-1.748523 -3.2944,-1.918029 -5.88086,-0.302735 -1.99535,1.24611 -5.119137,0.558263 -5.119137,-1.126953 0,-0.596372 2.585927,-1.03125 6.130857,-1.03125 h 6.13086 l -0.5957,-3.75 c -0.36825,-2.312806 -1.63609,-4.650677 -3.30664,-6.101562 -1.61209,-1.40023 -2.74572,-1.957698 -4.40821,-1.957032 z m 217.61719,0 c -1.66457,-0.0637 -2.85926,0.382444 -4.35351,1.498047 -4.91165,3.667087 -5.16696,12.629442 -0.46485,16.32813 3.3337,2.62235 7.52614,2.50893 10.78125,-0.29102 2.12572,-1.82846 2.6562,-3.183471 2.71289,-6.933594 0.092,-6.081827 -2.15494,-9.496688 -6.82617,-10.373047 -0.68749,-0.128967 -1.29475,-0.207284 -1.84961,-0.228516 z m -295.367185,0.0293 c -1.638901,0.0052 -2.876624,0.523077 -4.414063,1.732422 -1.570359,1.235225 -2.979303,3.561964 -3.347656,5.525391 -0.756257,4.031206 1.03724,10.113544 3.386719,11.484374 0.921241,0.53753 3.158204,0.9927 4.970703,1.00781 2.19411,0.0202 4.115778,-0.7896 5.75,-2.42383 1.349998,-1.35 2.453125,-2.925015 2.453125,-3.499995 0,-1.398539 -3.570941,-1.331242 -5.880859,0.111328 -1.995353,1.24611 -5.119141,0.558263 -5.119141,-1.126953 0,-0.583483 2.388421,-1.03125 5.5,-1.03125 h 5.5 v -3.388672 c 0,-4.425827 -2.643509,-7.533599 -7,-8.230469 -0.661325,-0.105789 -1.252528,-0.161887 -1.798828,-0.160156 z m 209.999995,0 c -1.63889,0.0052 -2.87663,0.523077 -4.41406,1.732422 -4.56587,3.59151 -4.95784,11.872752 -0.76172,16.070315 2.84867,2.84867 8.42511,2.61786 11.52149,-0.47852 1.35001,-1.35001 2.45312,-3.149982 2.45312,-3.999998 0,-2.063244 -4.59485,-2.043258 -5.38867,0.02539 -0.3614,0.941594 -1.50319,1.442001 -2.85547,1.25 -1.8765,-0.266494 -2.30625,-1.033003 -2.5625,-4.578124 -0.22949,-3.174539 0.0982,-4.41483 1.28711,-4.871094 0.87734,-0.336643 2.4014,0.116108 3.38672,1.007812 0.98532,0.891704 2.76867,1.621094 3.96289,1.621094 4.94011,0 0.66728,-6.739796 -4.83008,-7.619141 -0.66132,-0.105789 -1.25253,-0.161887 -1.79883,-0.160156 z m -190.712886,0.002 c -3.006821,0.127219 -6.231457,1.921623 -7.335937,4.345703 -1.012562,2.222287 -0.894088,2.431641 1.382812,2.431641 1.370673,0 3.374316,-0.550871 4.453125,-1.224609 1.451702,-0.906747 2.254211,-0.933286 3.085938,-0.101563 0.83173,0.831723 0.25388,1.306613 -2.22461,1.824219 -1.841858,0.384605 -4.362108,1.339362 -5.599609,2.123047 -3.024729,1.915464 -3.039431,6.712539 -0.02734,8.822269 2.646119,1.85352 6.904354,2.03119 8.578125,0.35742 0.933317,-0.93332 1.199219,-0.93332 1.199219,0 0,0.66002 1.125,1.19922 2.5,1.19922 2.444402,0 2.5,-0.1667 2.5,-7.500003 0,-6.134476 -0.35956,-7.859579 -1.974609,-9.474609 -1.086013,-1.086048 -3.119859,-2.261786 -4.519532,-2.613282 -0.641821,-0.161085 -1.323696,-0.218811 -2.017578,-0.189453 z m 230.470706,0.236328 c -1.27601,0.0021 -2.73875,0.08326 -4.08008,0.242188 l -4.87891,0.578125 v 9.361328 c 0,9.271528 0.0241,9.361328 2.45508,9.361328 2.33412,0 2.4688,-0.33047 2.75,-6.75 0.28502,-6.505965 0.39286,-6.762027 2.99805,-7.0625 2.67874,-0.30909 2.70557,-0.251068 3,6.5 0.288,6.60329 0.38106,6.82201 3.04687,7.12891 l 2.75,0.31641 v -6.617195 c 0,-7.433235 -1.79667,-11.969 -5.08203,-12.828125 -0.59467,-0.155905 -1.68297,-0.232547 -2.95898,-0.230469 z M 14.84375,84.851562 c -0.160043,0.0058 -0.336647,0.02283 -0.529297,0.05273 -1.100001,0.170835 -3.462499,0.269396 -5.2499999,0.21875 l -3.25,-0.0918 v 9.53125 c 0,9.452708 0.020998,9.531248 2.4550781,9.531248 2.3324558,0 2.4689918,-0.33172 2.7499998,-6.707029 0.274405,-6.225449 0.474882,-6.752397 2.794922,-7.296875 1.828422,-0.429128 2.5,-1.245589 2.5,-3.041016 0,-1.655428 -0.350402,-2.237557 -1.470703,-2.197266 z m 323.14648,0.04297 c -1.82849,-0.04362 -3.98077,0.576437 -4.7832,1.378907 -2.09677,2.09673 -2.85394,8.28966 -1.43359,11.71875 1.54881,3.739121 5.97109,5.746471 9.04101,4.103511 1.87098,-1.00116 2.13087,-0.9223 1.83985,0.5586 -0.18664,0.94919 -1.10096,2.20515 -2.03125,2.79101 -1.28361,0.80829 -2.14595,0.65354 -3.57813,-0.64258 -1.90446,-1.72354 -6.23047,-2.37069 -6.23047,-0.93164 0,1.57818 3.27971,5.39398 5.35743,6.23243 2.85161,1.15075 2.88839,1.15002 6.35546,-0.0586 1.65627,-0.57736 3.52458,-2.17336 4.15039,-3.54687 0.62582,-1.37348 1.13672,-6.764118 1.13672,-11.980471 v -9.484375 l -3.25,-0.03125 c -1.78749,-0.01587 -4.74572,-0.06396 -6.57422,-0.107422 z M 71.314453,85.09375 c -2.490928,0 -2.5,0.03334 -2.5,9.5 0,9.46598 0.0088,9.5 2.5,9.5 2.490928,0 2.5,-0.0333 2.5,-9.5 0,-9.465978 -0.0088,-9.5 -2.5,-9.5 z m 3.693359,0 1.927735,5.25 c 1.06108,2.887483 2.641355,7.188162 3.509765,9.556641 1.357539,3.702579 1.934853,4.263429 4.121094,3.999999 2.227771,-0.26842 2.955999,-1.4525 5.875,-9.55664 l 3.330078,-9.25 H 90.875 c -2.58994,0 -3.076538,0.532069 -4.560547,5 -0.913402,2.750022 -1.813405,5 -2,5 -0.186599,0 -1.086601,-2.249978 -2,-5 -1.470531,-4.427339 -1.984206,-5 -4.484375,-5 z m 276.699218,0 c -1.59035,0 -2.89258,0.194286 -2.89258,0.431641 0,0.237467 1.35001,4.093323 3,8.568359 1.65003,4.475036 3,8.78089 3,9.56836 0,0.78746 -0.675,1.43164 -1.5,1.43164 -0.93331,0 -1.5,0.94446 -1.5,2.5 0,2.10452 0.46904,2.5 2.96485,2.5 1.88054,0 3.335,-0.68773 3.97461,-1.88281 1.23722,-2.31183 8.06017,-21.301514 8.06054,-22.433596 1.9e-4,-0.44897 -1.20146,-0.674236 -2.66992,-0.5 -2.21201,0.262148 -2.96409,1.173893 -4.38281,5.316406 l -1.71094,5 -1.10937,-2.792969 c -0.61036,-1.536756 -1.38754,-3.899272 -1.72657,-5.25 -0.47675,-1.899553 -1.27127,-2.457031 -3.50781,-2.457031 z m -58.16992,4 c 1.91652,0 3.63674,4.431552 2.88477,7.427734 -0.46704,1.860813 -1.30318,2.572266 -3.01954,2.572266 -2.48545,0 -3.58789,-1.652771 -3.58789,-5.380859 0,-2.482621 1.72212,-4.619141 3.72266,-4.619141 z m -190.87305,0.3125 c 1.16199,0.01492 2.15039,0.601209 2.15039,1.65625 0,0.567231 -1.44503,1.03125 -3.21289,1.03125 -2.976489,0 -3.093781,-0.12109 -1.57812,-1.636719 0.72854,-0.728534 1.73685,-1.062381 2.64062,-1.050781 z m -76.849607,0.1875 c 1.283331,0 2.520847,0.562504 2.75,1.25 0.274851,0.82458 -0.661112,1.25 -2.75,1.25 -2.088888,0 -3.024847,-0.42542 -2.75,-1.25 0.229168,-0.687496 1.466669,-1.25 2.75,-1.25 z m 190.999997,0 c 1.28334,0 2.52096,0.562504 2.75,1.25 0.27485,0.82458 -0.66113,1.25 -2.75,1.25 -2.0889,0 -3.02484,-0.42542 -2.75,-1.25 0.22917,-0.687496 1.46666,-1.25 2.75,-1.25 z m 104,0 c 2.29629,0 2.5,0.366671 2.5,4.5 0,3.907956 -0.29603,4.542139 -2.2539,4.820312 -2.65282,0.376706 -3.51413,-1.300656 -3.06641,-5.974609 0.26978,-2.816088 0.71572,-3.345703 2.82031,-3.345703 z m -192.41211,0.5 c 1.67373,0 2.55262,0.711271 2.97852,2.408203 0.33224,1.32378 0.10049,3.348794 -0.51563,4.5 -1.25766,2.349997 -3.0607,2.681504 -4.84961,0.892578 -2.59735,-2.597329 -1.0058,-7.800781 2.38672,-7.800781 z m 210.91211,0 c 2.53833,0 3.85801,2.295737 2.95508,5.140625 -0.78595,2.476309 -5.1242,2.476309 -5.91015,0 -0.90293,-2.844888 0.41674,-5.140625 2.95507,-5.140625 z m -294.318356,6 c 2.609673,0 2.878849,0.22218 1.818359,1.5 -1.274751,1.535962 -4.160919,2.005089 -5.304687,0.861328 -1.227221,-1.22725 0.445909,-2.361328 3.486328,-2.361328 z m 133.902346,0 c 2.01891,0 2.94063,0.431543 2.67187,1.25 -0.22574,0.687496 -1.61194,1.392548 -3.08203,1.566406 -1.89427,0.224277 -2.67383,-0.139839 -2.67383,-1.25 0,-1.083212 0.95181,-1.566406 3.08399,-1.566406 z m -30.41016,0.101562 c 1.0075,0.02966 1.33989,0.370833 1.10938,1.072266 -0.23985,0.729827 -1.68873,1.474391 -3.21875,1.654297 -1.96068,0.2304 -2.65306,-0.06476 -2.34571,-1 0.23985,-0.729827 1.68874,-1.474391 3.21875,-1.654297 0.49017,-0.0576 0.9005,-0.08215 1.23633,-0.07227 z"
       transform="matrix(0.26458333,0,0,0.26458333,38.796914,175.46352)" />
    <path
       style="fill:#323694;fill-opacity:1;stroke-width:0.264583"
       d="m 15.958578,174.147 v 13.30255 13.30255 l 4.034897,2.0314 c 2.219192,1.11721 4.124192,2.03838 4.233333,2.04638 0.109137,0.008 0.04068,-1.0141 0.04068,-2.25285 0.01387,-0.75587 -0.02611,-1.47502 -0.0371,-2.24079 l -1.759029,-1.07088 c -0.117691,-0.0592 -0.238001,-0.11971 -0.361219,-0.1819 l -1.918229,-0.96841 v -10.79004 c 0,-4.28229 0.03273,-8.00182 0.07958,-9.74153 l -0.022,-1.22708 -0.825495,-0.49632 c -0.367131,-0.16547 -0.967627,-0.45538 -1.620056,-0.78394 z"
       id="path34769" />
    <path
       style="fill:#00b4ae;fill-opacity:1;stroke-width:0.264583"
       d="m 20.116132,171.69359 c -0.158473,0 -0.0626,0.97496 -0.0626,2.2271 0,0.69473 0.02522,1.31414 -0.009,1.70067 l 0.01022,0.88346 1.056996,0.36915 c 0.339117,0.16073 0.759653,0.3666 1.203544,0.59014 l 1.845365,0.92966 v 10.8443 c 0,3.92504 -0.01286,7.36705 -0.03204,9.26662 l 0.101764,1.83155 1.476434,0.64995 0.56379,0.2837 c 1.015013,0.51115 1.907985,0.92966 1.984375,0.92966 0.0764,0 0.139009,-5.95249 0.139009,-13.22761 v -13.22762 l -3.965649,-1.98593 c -2.180993,-1.09231 -4.164874,-2.0648 -4.312214,-2.0648 z"
       id="path34249" />
  </g>
</svg>
