<?xml version="1.0" encoding="UTF-8" standalone="no"?>
<!-- Created with Inkscape (http://www.inkscape.org/) -->

<svg
   width="70.331795mm"
   height="14.55047mm"
   viewBox="0 0 70.331791 14.550472"
   version="1.1"
   id="svg5"
   xmlns="http://www.w3.org/2000/svg"
   xmlnsSvg="http://www.w3.org/2000/svg">
  <defs
     id="defs2">
    <pattern
       id="EMFhbasepattern"
       patternUnits="userSpaceOnUse"
       width="6"
       height="6"
       x="0"
       y="0" />
    <pattern
       id="EMFhbasepattern-1"
       patternUnits="userSpaceOnUse"
       width="6"
       height="6"
       x="0"
       y="0" />
    <pattern
       id="EMFhbasepattern-8"
       patternUnits="userSpaceOnUse"
       width="6"
       height="6"
       x="0"
       y="0" />
    <pattern
       id="EMFhbasepattern-7"
       patternUnits="userSpaceOnUse"
       width="6"
       height="6"
       x="0"
       y="0" />
    <pattern
       id="EMFhbasepattern-70"
       patternUnits="userSpaceOnUse"
       width="6"
       height="6"
       x="0"
       y="0" />
    <pattern
       id="EMFhbasepattern-6"
       patternUnits="userSpaceOnUse"
       width="6"
       height="6"
       x="0"
       y="0" />
  </defs>
  <g
     id="layer1"
     transform="translate(-87.921787,-162.52038)">
    <path
       style="fill:#000000;stroke-width:0.264583"
       d="m 151.08728,176.89607 c -0.097,-0.097 -0.17639,-0.4542 -0.17639,-0.79375 0,-0.43506 0.1519,-0.61736 0.51442,-0.61736 0.28292,0 0.84847,-0.2901 1.25677,-0.64467 l 0.74235,-0.64467 -0.43877,-0.34751 c -0.24132,-0.19114 -0.97134,-2.04416 -1.62224,-4.11783 l -1.18348,-3.77032 h 1.28132 1.28132 l 0.26093,0.99219 c 0.14351,0.5457 0.47953,1.87165 0.74671,2.94656 l 0.48579,1.95437 0.7548,-2.94656 0.75479,-2.94656 h 1.25399 1.25399 l -1.41285,4.37754 c -0.77707,2.40765 -1.66466,4.73117 -1.97241,5.16337 -0.30776,0.43221 -0.90145,0.96263 -1.31931,1.17871 -0.78515,0.40601 -2.152,0.52622 -2.46173,0.21649 z m -50.53399,-3.27465 c -0.801603,-0.63054 -1.123283,-1.93628 -0.731127,-2.96773 0.377907,-0.99398 1.761547,-1.78111 3.133007,-1.78232 l 1.12447,-9.9e-4 v -0.63278 c 0,-0.78547 -0.77397,-1.02445 -2.24227,-0.69233 -0.75316,0.17036 -1.10872,0.1481 -1.25272,-0.0784 -0.39704,-0.62454 -0.20028,-1.2588 0.46951,-1.51346 0.90419,-0.34377 3.37472,-0.32867 4.15177,0.0254 1.06377,0.48468 1.35371,1.27636 1.47082,4.01607 0.0606,1.41883 0.2093,2.57969 0.33032,2.57969 0.12103,0 0.0955,0.35718 -0.0567,0.79375 -0.30924,0.8871 -0.86078,1.0072 -1.75356,0.38187 l -0.58804,-0.41188 -0.58804,0.41188 c -0.84725,0.59343 -2.6337,0.5271 -3.46748,-0.12875 z m 3.01458,-1.32077 c 0.35481,-0.18988 0.51177,-0.55506 0.51177,-1.19062 v -0.91673 h -0.52916 c -0.54023,0 -1.5875,0.86026 -1.5875,1.30401 0,0.25571 0.7339,1.07724 0.96233,1.07724 0.0719,0 0.36109,-0.12325 0.64256,-0.2739 z m 4.81125,1.35021 c -0.47294,-0.29665 -0.85989,-0.64173 -0.85989,-0.76683 0,-0.12511 0.21958,-0.42619 0.48796,-0.66907 l 0.48796,-0.4416 0.95875,0.4006 c 0.52731,0.22032 1.13266,0.40059 1.34522,0.40059 0.55956,0 1.21989,-0.7456 1.05074,-1.18642 -0.0796,-0.20754 -0.78115,-0.56233 -1.5589,-0.78843 -1.54877,-0.45024 -2.50715,-1.38442 -2.50715,-2.44385 0,-1.65275 1.41277,-2.57499 3.69204,-2.41012 0.8198,0.0593 1.75598,0.29374 2.08041,0.52098 l 0.58987,0.41316 -0.47894,0.59147 -0.47894,0.59147 -1.15135,-0.31003 -1.15136,-0.31002 -0.39154,0.39154 c -0.21536,0.21535 -0.32159,0.50475 -0.23608,0.64311 0.0855,0.13836 0.87045,0.51225 1.74432,0.83088 0.87386,0.31863 1.77049,0.83866 1.9925,1.15562 0.62359,0.89029 0.49358,1.93706 -0.3591,2.89138 l -0.76275,0.85366 -1.81694,0.0906 -1.81693,0.0906 z m 8.3776,0.17204 c -0.80154,-0.6154 -1.03541,-1.49104 -1.03541,-3.87679 v -2.39865 h -0.66146 -0.66146 v -0.79375 -0.79375 h 0.66146 0.66146 v -0.92604 c 0,-0.60934 0.12442,-0.92604 0.3638,-0.92604 0.20009,0 0.73588,-0.0744 1.19063,-0.16536 l 0.82682,-0.16537 v 1.09141 1.0914 h 0.94362 0.94361 l -0.0837,0.72761 -0.0837,0.7276 -0.85989,0.0829 -0.8599,0.0829 v 2.1998 c 0,2.33254 0.25171,2.88409 1.20439,2.63904 0.34183,-0.0879 0.63736,0.0652 0.87755,0.45466 l 0.36215,0.58725 -0.47887,0.35015 c -0.59686,0.43644 -2.74764,0.4436 -3.31107,0.011 z m 5.50471,-0.13091 c -0.96536,-0.59815 -1.77762,-2.31772 -1.77762,-3.76328 0,-1.47441 0.82677,-3.1887 1.82114,-3.77609 0.46155,-0.27264 1.31994,-0.45724 2.12617,-0.45724 h 1.35213 l 0.96292,0.88245 0.96292,0.88245 0.12429,1.4988 0.12429,1.4988 h -2.52342 -2.52342 l 0.19439,0.7276 c 0.10692,0.40019 0.50531,0.90232 0.88533,1.11585 l 0.69093,0.38823 0.99406,-0.47403 0.99406,-0.47403 0.4731,0.61496 c 0.2602,0.33823 0.47574,0.68221 0.47898,0.7644 0.003,0.0822 -0.41488,0.35007 -0.92914,0.59531 -1.21776,0.58071 -3.47473,0.56839 -4.43111,-0.0242 z m 3.24946,-5.06729 c 0,-0.57464 -0.66263,-1.34182 -1.15895,-1.34182 -0.51633,0 -1.14167,0.6064 -1.29604,1.25677 l -0.1413,0.59531 h 1.29815 1.29814 z m 18.97554,5.06729 c -0.96536,-0.59815 -1.77762,-2.31772 -1.77762,-3.76328 0,-1.47441 0.82677,-3.1887 1.82114,-3.77609 0.46154,-0.27264 1.31994,-0.45724 2.12617,-0.45724 h 1.35213 l 0.96292,0.88245 0.96292,0.88245 0.12429,1.4988 0.12429,1.4988 h -2.52342 -2.52343 l 0.1944,0.7276 c 0.10692,0.40019 0.50531,0.90232 0.88532,1.11585 l 0.69093,0.38823 0.99407,-0.47403 0.99406,-0.47403 0.47309,0.61496 c 0.26021,0.33823 0.47575,0.68221 0.47899,0.7644 0.003,0.0822 -0.41488,0.35007 -0.92914,0.59531 -1.21776,0.58071 -3.47473,0.56839 -4.43111,-0.0242 z m 3.24946,-5.06729 c 0,-0.57464 -0.66263,-1.34182 -1.15895,-1.34182 -0.51633,0 -1.14168,0.6064 -1.29604,1.25677 l -0.1413,0.59531 h 1.29815 1.29814 z m -59.672589,4.01599 c 0.17811,-1.58231 0.670511,-7.85911 0.670511,-8.54722 v -0.51476 h 1.575063 1.575064 l 0.276168,0.99219 c 0.151892,0.5457 0.476047,1.91783 0.720344,3.04918 0.244296,1.13134 0.524115,1.96478 0.621821,1.85208 0.0977,-0.1127 0.452107,-1.48483 0.787559,-3.04918 l 0.609914,-2.84427 h 1.535252 1.535253 l 0.136447,0.8599 c 0.164397,1.03604 0.681281,7.63894 0.681281,8.70299 v 0.75586 h -1.152365 -1.152365 l -0.168671,-1.78593 c -0.09277,-0.98227 -0.177325,-2.55985 -0.187902,-3.50573 l -0.01923,-1.71979 -0.715987,2.91041 -0.715986,2.91042 -1.218178,0.0793 -1.218178,0.0793 -0.597611,-2.41859 c -0.39446,-1.59641 -0.674082,-2.29794 -0.82256,-2.06367 -0.123721,0.1952 -0.22677,1.51577 -0.228999,2.9346 l -0.0041,2.57968 h -1.33203 -1.332029 z m 41.151759,-2.71198 v -3.96875 h 1.05833 c 0.78607,0 1.05834,0.10705 1.05834,0.41608 v 0.41608 l 0.69714,-0.54837 c 0.38342,-0.3016 1.03827,-0.54837 1.45521,-0.54837 h 0.75806 l -0.004,0.8599 c -0.005,1.0712 -0.31428,1.58565 -0.8334,1.38645 -0.21904,-0.0841 -0.68577,0.0799 -1.03718,0.36424 l -0.63892,0.51707 -0.0917,2.53721 -0.0917,2.53721 h -1.16509 -1.16508 z m 5.82083,-1.55919 v -5.52794 l 0.41852,-0.1606 c 0.23018,-0.0883 0.82183,-0.1606 1.31477,-0.1606 h 0.89626 l 0.0743,3.22547 0.0743,3.22546 1.03617,-1.50567 1.03616,-1.50568 h 1.28369 1.28369 l -1.2933,1.77071 -1.2933,1.7707 1.17954,1.8402 c 0.64874,1.0121 1.24133,2.00122 1.31685,2.19804 0.10389,0.27074 -0.17823,0.35785 -1.15893,0.35785 h -1.29625 l -1.04716,-1.78593 -1.04716,-1.78594 -0.0782,1.78594 -0.0782,1.78593 h -1.31083 -1.31083 z"
       id="path64950" />
  </g>
</svg>
