<?xml version="1.0" encoding="UTF-8" standalone="no"?>
<!-- Created with Inkscape (http://www.inkscape.org/) -->

<svg
   width="115.06058mm"
   height="29.556831mm"
   viewBox="0 0 115.06057 29.556832"
   version="1.1"
   id="svg5"
   xmlns="http://www.w3.org/2000/svg"
   xmlnsSvg="http://www.w3.org/2000/svg">
  <defs
     id="defs2" />
  <g
     id="layer1"
     transform="translate(-28.174685,-151.37858)">
    <path
       style="fill:#2e6bb2;fill-opacity:1;stroke-width:0.264583"
       d="m 128.25049,169.62448 0.069,-11.31094 h 0.92604 c 0.91736,0 0.9268,0.0118 1.0068,1.2597 l 0.0808,1.2597 0.65305,-0.77611 c 1.74986,-2.07959 5.50851,-2.77313 8.18126,-1.50959 2.57357,1.21666 3.81264,3.34073 4.03584,6.91845 0.26671,4.27499 -1.14026,7.40839 -4.01079,8.93229 -0.85131,0.45194 -1.53682,0.57534 -3.20005,0.57603 -2.33719,9.8e-4 -3.32455,-0.36566 -4.82865,-1.79304 l -0.8599,-0.81603 v 4.28524 4.28523 h -1.06117 -1.06117 z m 9.60493,3.14069 c 2.27184,-1.03195 3.45856,-3.61566 3.23816,-7.05002 -0.2414,-3.76146 -1.92133,-5.69606 -5.12328,-5.89995 -1.43717,-0.0915 -1.84605,-0.01 -2.82674,0.56493 -3.9763,2.33027 -3.7004,10.49795 0.41776,12.36763 1.39793,0.63467 2.9216,0.64085 4.2941,0.0174 z m -38.907346,2.35565 c -2.771402,-0.41304 -5.219243,-2.26205 -6.563305,-4.95768 -2.371434,-4.75609 -1.706041,-12.23285 1.403879,-15.77485 2.402867,-2.73671 7.402272,-3.78417 11.460922,-2.40125 2.35091,0.80103 4.94595,3.973 4.94595,6.04553 0,0.60898 -0.10257,0.67784 -1.00965,0.67784 -0.97034,0 -1.03239,-0.0549 -1.59382,-1.40943 -1.1011,-2.65659 -3.09913,-3.88223 -6.32879,-3.88223 -2.5322,0 -3.694547,0.4393 -5.248407,1.98361 -1.71172,1.70119 -2.474651,3.63602 -2.679632,6.79566 -0.424185,6.53849 2.232414,10.65531 7.101469,11.00485 2.31057,0.16587 4.09466,-0.42388 5.48335,-1.81257 1.0271,-1.0271 2.15881,-3.02623 2.15881,-3.81346 0,-0.2974 0.30486,-0.39976 1.19062,-0.39976 1.4872,0 1.51552,0.26305 0.3011,2.79711 -1.87845,3.91966 -5.87215,5.85462 -10.622496,5.14663 z m -41.669223,-0.39697 c -2.590038,-0.83865 -4.25192,-3.08179 -4.773425,-6.44297 -0.499245,-3.21772 0.461251,-6.54378 2.434696,-8.43102 2.848544,-2.72411 7.83572,-2.55468 10.236671,0.34778 0.978733,1.18316 1.891641,3.86262 1.891641,5.5521 v 1.16276 h -6.217708 -6.217708 v 0.88656 c 0,2.06386 1.280162,4.1708 3.011992,4.95726 2.753432,1.25038 6.087565,-0.009 6.892999,-2.60268 0.150617,-0.48511 0.377452,-0.59531 1.225339,-0.59531 1.186418,0 1.299254,0.30631 0.614007,1.66679 -0.609914,1.21091 -1.918075,2.52545 -3.145379,3.16072 -1.361774,0.70488 -4.304176,0.87194 -5.953125,0.33801 z m 7.561945,-10.51577 c -0.26398,-1.65084 -1.199227,-3.14769 -2.403322,-3.84648 -0.874096,-0.50728 -1.361024,-0.59933 -2.80657,-0.5306 -1.441479,0.0685 -1.923312,0.21612 -2.740451,0.83939 -1.024117,0.78113 -2.250202,2.98839 -2.25485,4.05929 l -0.0026,0.59532 h 5.193191 5.193191 z m 8.842221,10.51592 c -1.68276,-0.54509 -3.021094,-1.75655 -3.885787,-3.51742 -0.685136,-1.39523 -0.744421,-1.75827 -0.744421,-4.55867 0,-2.71924 0.07265,-3.19758 0.683421,-4.49952 1.27625,-2.72053 3.023838,-3.97176 5.827514,-4.17236 2.179995,-0.15598 4.000069,0.39933 5.344237,1.63054 l 0.964358,0.88332 0.07253,-4.26318 0.07253,-4.26317 h 0.926041 0.926042 l 0.06899,11.31094 0.06898,11.31093 H 82.946275 81.8851 v -1.2186 -1.21861 l -0.734219,0.78598 c -1.706938,1.82729 -4.951547,2.60492 -7.467864,1.78982 z m 4.905737,-1.95883 c 1.398133,-0.63508 2.393572,-1.85041 2.892947,-3.53199 1.107897,-3.73069 -0.273887,-7.98572 -2.957407,-9.10697 -1.386062,-0.57913 -3.437623,-0.45506 -4.699055,0.28419 -2.324209,1.36208 -3.440274,5.44604 -2.434125,8.90707 0.925759,3.1845 4.260506,4.78185 7.19764,3.4477 z m 36.278036,1.96348 c -2.03275,-0.72478 -3.08377,-2.24369 -3.08377,-4.45659 0,-2.95164 1.99113,-4.37406 7.09792,-5.0706 1.64828,-0.22482 3.22074,-0.52857 3.49434,-0.67499 1.24875,-0.66832 0.73606,-3.56514 -0.7687,-4.34328 -1.03764,-0.53658 -4.03121,-0.55013 -5.05084,-0.0229 -0.96773,0.50044 -1.77766,1.53112 -2.00052,2.54579 -0.16004,0.72865 -0.25652,0.78904 -1.14277,0.71518 -0.90459,-0.0754 -0.96215,-0.13266 -0.87902,-0.87443 0.15502,-1.38326 1.15552,-2.84026 2.53613,-3.69332 1.22521,-0.75705 1.45976,-0.8046 3.96875,-0.8046 2.32048,0 2.80848,0.0813 3.75987,0.62651 2.0237,1.15966 2.21401,1.84089 2.21401,7.92511 0,2.96934 0.11894,5.6174 0.27018,6.0152 0.23283,0.61237 0.37916,0.68884 1.05833,0.553 0.72792,-0.14558 0.78815,-0.0996 0.78815,0.6012 0,0.86073 -0.37213,1.08003 -1.83271,1.08003 -1.04499,0 -1.66808,-0.46245 -2.06356,-1.53153 l -0.21995,-0.5946 -1.12381,0.82646 c -2.01097,1.47888 -4.84518,1.95447 -7.02203,1.17832 z m 5.84015,-2.30305 c 1.66846,-0.85861 2.45316,-2.33712 2.45316,-4.62213 v -1.67163 l -0.67696,0.25738 c -0.37233,0.14156 -1.83085,0.38763 -3.24115,0.54683 -4.07988,0.46053 -5.34231,1.32153 -5.34231,3.64356 0,0.98836 0.81411,2.09291 1.85209,2.51285 0.85932,0.34765 3.7361,-0.0395 4.95517,-0.66686 z m -33.794757,-5.77769 v -8.20208 h 0.926042 0.926042 v 8.20208 8.20209 h -0.926042 -0.926042 z m -58.737498,-0.26458 v -8.20208 h 0.926042 c 0.923442,0 0.926042,0.003 0.926042,1.21092 v 1.21093 l 0.667633,-0.79344 c 0.996776,-1.1846 2.669215,-1.893 4.469144,-1.893 1.892921,0 3.184824,0.58294 4.08074,1.84132 l 0.678427,0.95289 0.889682,-0.98477 c 1.206737,-1.33571 2.771659,-1.90073 4.890694,-1.7658 2.077955,0.13231 3.213817,0.86545 3.993863,2.57782 0.501951,1.10188 0.562954,1.81235 0.655245,7.63115 l 0.101764,6.41614 h -1.068703 -1.068702 l -0.08291,-6.54843 c -0.08867,-7.00291 -0.159508,-7.38764 -1.470167,-7.98482 -0.923755,-0.42089 -2.904392,-0.34335 -3.954185,0.15481 -0.507921,0.24103 -1.24029,0.91655 -1.627486,1.50118 -0.701886,1.05976 -0.704246,1.08063 -0.788327,6.9701 l -0.08433,5.90716 h -1.040146 -1.040146 v -6.09391 c 0,-6.62766 -0.149201,-7.49448 -1.434992,-8.33696 -0.987043,-0.64674 -3.467571,-0.43431 -4.634934,0.39693 -1.688826,1.20255 -1.971226,2.35987 -2.084798,8.54384 l -0.100828,5.4901 H 29.073992 28.174685 Z M 86.6476,153.53583 v -1.47043 l 1.124479,0.0814 1.124479,0.0814 0.07997,1.38906 0.07997,1.38907 h -1.204452 -1.204452 z"
       id="path17510" />
  </g>
</svg>
