<?xml version="1.0" encoding="UTF-8" standalone="no"?>
<!-- Created with Inkscape (http://www.inkscape.org/) -->

<svg
   width="400.02469mm"
   height="118.33424mm"
   viewBox="0 0 400.02469 118.33424"
   version="1.1"
   id="svg2156"
   xmlns="http://www.w3.org/2000/svg"
   xmlnsSvg="http://www.w3.org/2000/svg">
  <defs
     id="defs2153" />
  <g
     id="layer1"
     transform="translate(44.390716,-67.289858)">
    <path
       style="fill:#12b0e3;fill-opacity:1;stroke-width:0.0975611"
       d="m 104.28934,176.06312 v -9.56098 h 1.5122 1.51219 v 1.13071 1.13072 l 0.38968,-0.49298 c 0.42285,-0.53496 1.17472,-1.13801 1.82676,-1.4652 0.96516,-0.48431 2.73174,-0.64372 3.88502,-0.35057 1.74119,0.44261 3.25641,1.69339 4.07827,3.36651 0.66472,1.35325 0.7925,1.93339 0.78383,3.55886 -0.006,1.0783 -0.0516,1.52899 -0.21792,2.14069 -0.4456,1.63912 -1.31603,2.95687 -2.52647,3.82483 -0.93051,0.66724 -1.67464,0.91921 -2.9027,0.98292 -1.73199,0.0898 -2.86618,-0.33865 -4.07256,-1.53858 l -0.7561,-0.75206 v 3.79306 3.79305 h -1.7561 -1.7561 z m 8.21227,1.00013 c 1.04442,-0.46307 1.88862,-1.66484 2.134,-3.03789 0.32156,-1.7994 -0.58073,-3.6577 -2.12814,-4.38291 -0.47744,-0.22376 -0.68848,-0.26226 -1.43764,-0.26226 -0.76655,0 -0.9495,0.0351 -1.44076,0.27632 -0.65455,0.32141 -1.42024,1.03325 -1.66005,1.5433 -0.13663,0.29061 -0.16748,0.64621 -0.16748,1.93072 0,1.41384 0.0212,1.61642 0.2081,1.98525 0.46614,0.92005 1.18555,1.59637 2.11596,1.9892 0.6863,0.28976 1.6672,0.27253 2.37601,-0.0417 z m -136.991695,3.18562 c -1.131281,-0.19705 -1.964208,-0.84121 -2.362776,-1.82729 l -0.223757,-0.55358 -0.02801,-8.31708 -0.02801,-8.31708 h 1.808502 1.808502 v 7.54655 7.54656 l 0.222441,0.33007 c 0.122342,0.18156 0.330879,0.38496 0.463415,0.45202 0.331174,0.16758 0.974105,0.15514 1.517537,-0.0294 0.249762,-0.0848 0.485519,-0.11773 0.523903,-0.0732 0.07254,0.0842 0.522837,2.57659 0.472197,2.61362 -0.01582,0.0116 -0.220399,0.0957 -0.454626,0.18694 -1.002455,0.39053 -2.792721,0.6032 -3.719312,0.4418 z m 14.8607144,-0.0375 c -1.3766054,-0.24979 -2.6810614,-0.78376 -3.7652264,-1.54128 l -0.561894,-0.39261 0.206227,-0.35107 c 0.794372,-1.35232 1.12114,-1.86327 1.191628,-1.86327 0.04456,0 0.26454,0.12592 0.488842,0.27983 2.039088,1.3991 4.6028864,1.85328 5.8424834,1.03498 0.406617,-0.26842 0.635904,-0.82528 0.523771,-1.27205 -0.156874,-0.62503 -0.709607,-0.88587 -3.812088,-1.79898 -0.7512214,-0.2211 -1.6760324,-0.55073 -2.0551384,-0.73251 -1.555157,-0.74572 -2.156175,-2.01463 -1.787919,-3.77477 0.331816,-1.58596 1.695137,-2.8715 3.5464814,-3.34415 0.774356,-0.19769 2.665975,-0.19453 3.642155,0.006 1.244535,0.25578 2.941294,1.09305 3.269477,1.61332 0.07182,0.11387 -0.07402,0.40136 -0.605325,1.19325 l -0.699943,1.04325 -0.410989,-0.28189 c -1.214596,-0.83307 -2.428683,-1.22351 -3.630506,-1.16753 -1.228655,0.0572 -1.7628784,0.40812 -1.8731614,1.23035 -0.12009,0.89534 0.3385394,1.21091 2.7063714,1.8622 3.861386,1.06209 4.93715,1.84066 5.133053,3.71496 0.126384,1.20919 -0.379785,2.58691 -1.227442,3.34093 -0.598803,0.53266 -1.650948,1.02198 -2.579439,1.19963 -0.915413,0.17515 -2.579981,0.17577 -3.541418,0.001 z m 14.265192,-0.0107 c -3.399999,-0.75908 -5.58400697,-3.6993 -5.38907497,-7.25505 0.0662,-1.20755 0.25008,-1.94553 0.716989,-2.87756 0.840334,-1.67744 2.15602597,-2.80904 3.98406197,-3.42661 0.943354,-0.31871 2.724831,-0.432 3.81443,-0.2426 2.6048796,0.45281 4.7684526,2.46349 5.4650906,5.07888 0.116299,0.43663 0.169748,1.01399 0.1716,1.85366 0.0032,1.43277 -0.142616,2.08195 -0.744861,3.31708 -0.330208,0.67722 -0.56619,0.99026 -1.287009,1.70732 -0.946804,0.94185 -1.7562146,1.4261 -2.9331726,1.75486 -0.841326,0.23499 -2.927246,0.28444 -3.798054,0.09 z m 3.073413,-3.18103 c 2.7823146,-1.28807 2.7886896,-6.07802 0.0098,-7.3808 -0.740996,-0.34739 -1.968155,-0.36812 -2.670501,-0.0451 -1.942841,0.89354 -2.766082,3.62719 -1.732061,5.75149 0.647555,1.33033 1.765871,2.01847 3.173226,1.95259 0.477057,-0.0223 0.851287,-0.10769 1.219513,-0.27817 z m 21.0190706,3.19494 c -0.268293,-0.0685 -0.606244,-0.1726 -0.750996,-0.23125 -0.423912,-0.17176 -1.048586,-0.79592 -1.329757,-1.32867 l -0.260712,-0.494 -0.02812,-4.46341 -0.02811,-4.46342 h -0.923113 -0.923103 v -1.36586 -1.36585 h 0.92683 0.92683 v -2.19512 -2.19513 h 1.756099 1.756099 v 2.19513 2.19512 h 1.414636 1.414635 v 1.36585 1.36586 h -1.41807 -1.418069 l 0.02782,3.61785 0.02783,3.61785 0.318615,0.2846 c 0.276185,0.24669 0.395756,0.28458 0.898,0.28458 0.366079,0 0.815016,-0.0855 1.219387,-0.2323 0.35199,-0.12778 0.655415,-0.20461 0.674264,-0.17073 0.09928,0.17835 0.676986,2.74586 0.628703,2.79415 -0.131688,0.13168 -2.033251,0.72976 -2.617017,0.8231 -0.824108,0.13176 -1.683036,0.11739 -2.292685,-0.0384 z m 30.693908,-0.013 c -2.20928,-0.59415 -3.620744,-2.66099 -3.259085,-4.77235 0.140819,-0.82209 0.426302,-1.3987 1.004205,-2.02821 0.57044,-0.62138 1.263318,-1.04545 2.2927,-1.40323 0.73327,-0.25486 0.88083,-0.27142 2.43903,-0.27372 1.28318,-0.002 1.79102,0.0356 2.24391,0.16553 0.32195,0.0924 0.691,0.19807 0.82011,0.23487 l 0.23476,0.0669 -0.0599,-0.72268 c -0.0832,-1.00388 -0.24531,-1.43876 -0.70981,-1.90479 -0.53583,-0.53758 -1.20525,-0.75847 -2.28514,-0.75403 -1.25597,0.005 -2.46068,0.40466 -3.833287,1.27114 -0.209152,0.13203 -0.387142,0.22591 -0.395542,0.20862 -0.0084,-0.0173 -0.245717,-0.50391 -0.527366,-1.08138 -0.281659,-0.57748 -0.512098,-1.09118 -0.512098,-1.14157 0,-0.13251 1.169601,-0.76653 2.036323,-1.10386 1.61933,-0.63022 3.80968,-0.83353 5.4556,-0.50637 1.47879,0.29393 2.84083,1.16619 3.5388,2.26623 0.64296,1.01334 0.70595,1.40884 0.76734,4.8182 0.0509,2.82425 0.071,3.10457 0.23652,3.28723 0.0995,0.10982 0.27512,0.21311 0.39025,0.22952 0.20196,0.0288 0.21028,0.0811 0.23642,1.48568 0.0164,0.88008 -0.0116,1.49449 -0.0707,1.55357 -0.0538,0.0538 -0.57853,0.11756 -1.16616,0.14177 -0.96062,0.0396 -1.11406,0.0219 -1.52115,-0.17516 -0.47366,-0.22929 -0.87405,-0.7225 -0.97052,-1.19553 -0.17486,-0.85738 -0.0858,-0.84245 -0.83108,-0.13938 -1.15124,1.08602 -2.5764,1.6292 -4.24803,1.61907 -0.42927,-0.003 -1.01703,-0.0683 -1.30612,-0.14608 z m 4.10041,-2.8453 c 0.76883,-0.36695 1.51576,-1.07399 1.59698,-1.51168 0.0325,-0.17495 0.0455,-0.62376 0.029,-0.99736 l -0.03,-0.67927 -0.58537,-0.18689 c -0.38618,-0.1233 -0.98375,-0.20246 -1.7561,-0.23264 -1.03681,-0.0405 -1.23582,-0.0212 -1.73971,0.16885 -0.6255,0.23591 -1.1687,0.65969 -1.38723,1.08227 -0.0777,0.15034 -0.14135,0.5084 -0.14135,0.79569 0,0.73189 0.37884,1.31637 1.08633,1.67598 0.4829,0.24545 0.59248,0.26276 1.41528,0.22359 0.73755,-0.0351 0.99919,-0.0937 1.51219,-0.33854 z m 23.25451,2.83783 c -2.48296,-0.52994 -4.51124,-2.45367 -5.19488,-4.92707 -0.26974,-0.97589 -0.24007,-3.03145 0.0575,-3.98444 0.62914,-2.0149 1.76432,-3.36192 3.5764,-4.24384 1.05351,-0.51273 2.04642,-0.73177 3.31708,-0.73177 3.31771,0 5.85194,1.81996 6.79249,4.87805 0.18476,0.60074 0.22566,0.95871 0.22848,2 l 0.003,1.26829 -5.19513,0.0252 -5.19513,0.0252 v 0.2394 c 0,0.87132 0.95839,2.18481 1.93267,2.64875 1.46875,0.69941 3.65627,0.19217 4.46925,-1.03633 0.14199,-0.21456 0.30721,-0.38977 0.36715,-0.38936 0.1628,10e-4 2.7954,0.7507 2.85863,0.81392 0.0876,0.0876 -0.4067,0.86443 -0.89679,1.40954 -0.54902,0.61062 -1.68978,1.38953 -2.45737,1.67786 -1.29699,0.4872 -3.26528,0.625 -4.66378,0.32651 z m 5.10826,-8.49688 c -0.41639,-2.24213 -2.81261,-3.44053 -4.90902,-2.45511 -0.89623,0.42128 -1.7068,1.51338 -1.86705,2.51548 l -0.0645,0.40305 h 3.4633 3.46329 z m 31.341747,8.50435 c -2.20928,-0.59415 -3.62074,-2.66099 -3.25909,-4.77235 0.14082,-0.82209 0.42631,-1.3987 1.00421,-2.02821 0.57044,-0.62138 1.26332,-1.04545 2.2927,-1.40323 0.73327,-0.25486 0.88083,-0.27142 2.43903,-0.27372 1.28318,-0.002 1.79102,0.0356 2.24391,0.16553 0.32195,0.0924 0.691,0.19807 0.82011,0.23487 l 0.23476,0.0669 -0.0599,-0.72268 c -0.0833,-1.00388 -0.24531,-1.43876 -0.70981,-1.90479 -0.53583,-0.53758 -1.20525,-0.75847 -2.28514,-0.75403 -1.25597,0.005 -2.46068,0.40466 -3.83329,1.27114 -0.20915,0.13203 -0.38714,0.22591 -0.39554,0.20862 -0.008,-0.0173 -0.24572,-0.50391 -0.52737,-1.08138 -0.28165,-0.57748 -0.51209,-1.09118 -0.51209,-1.14157 0,-0.13251 1.1696,-0.76653 2.03632,-1.10386 1.61933,-0.63022 3.80968,-0.83353 5.4556,-0.50637 1.47879,0.29393 2.84083,1.16619 3.5388,2.26623 0.64296,1.01334 0.70595,1.40884 0.76734,4.8182 0.0509,2.82425 0.071,3.10457 0.23652,3.28723 0.0995,0.10982 0.27512,0.21311 0.39025,0.22952 0.20196,0.0288 0.21028,0.0811 0.23642,1.48568 0.0164,0.88008 -0.0116,1.49449 -0.0707,1.55357 -0.0538,0.0538 -0.57853,0.11756 -1.16615,0.14177 -0.96063,0.0396 -1.11407,0.0219 -1.52116,-0.17516 -0.47366,-0.22929 -0.87405,-0.7225 -0.97052,-1.19553 -0.17486,-0.85738 -0.0858,-0.84245 -0.83108,-0.13938 -1.15124,1.08602 -2.5764,1.6292 -4.24803,1.61907 -0.42927,-0.003 -1.01703,-0.0683 -1.30612,-0.14608 z m 4.10041,-2.8453 c 0.76883,-0.36695 1.51576,-1.07399 1.59698,-1.51168 0.0325,-0.17495 0.0455,-0.62376 0.029,-0.99736 l -0.03,-0.67927 -0.58537,-0.18689 c -0.38618,-0.1233 -0.98375,-0.20246 -1.7561,-0.23264 -1.03681,-0.0405 -1.23582,-0.0212 -1.73971,0.16885 -0.6255,0.23591 -1.1687,0.65969 -1.38723,1.08227 -0.0777,0.15034 -0.14135,0.5084 -0.14135,0.79569 0,0.73189 0.37884,1.31637 1.08633,1.67598 0.4829,0.24545 0.59248,0.26276 1.41528,0.22359 0.73755,-0.0351 0.99919,-0.0937 1.51219,-0.33854 z m 20.87522,2.8453 c -2.20928,-0.59415 -3.62074,-2.66099 -3.25909,-4.77235 0.14082,-0.82209 0.42631,-1.3987 1.00421,-2.02821 0.57044,-0.62138 1.26332,-1.04545 2.2927,-1.40323 0.73327,-0.25486 0.88083,-0.27142 2.43903,-0.27372 1.28318,-0.002 1.79102,0.0356 2.24391,0.16553 0.32195,0.0924 0.691,0.19807 0.82011,0.23487 l 0.23476,0.0669 -0.0599,-0.72268 c -0.0832,-1.00388 -0.2453,-1.43876 -0.70981,-1.90479 -0.53583,-0.53758 -1.20525,-0.75847 -2.28514,-0.75403 -1.25597,0.005 -2.46068,0.40466 -3.83329,1.27114 -0.20915,0.13203 -0.38714,0.22591 -0.39554,0.20862 -0.008,-0.0173 -0.24572,-0.50391 -0.52737,-1.08138 -0.28165,-0.57748 -0.51209,-1.09118 -0.51209,-1.14157 0,-0.13251 1.1696,-0.76653 2.03632,-1.10386 1.61933,-0.63022 3.80968,-0.83353 5.4556,-0.50637 1.47879,0.29393 2.84083,1.16619 3.5388,2.26623 0.64296,1.01334 0.70595,1.40884 0.76735,4.8182 0.0508,2.82425 0.071,3.10457 0.23651,3.28723 0.0995,0.10982 0.27512,0.21311 0.39025,0.22952 0.20196,0.0288 0.21028,0.0811 0.23642,1.48568 0.0164,0.88008 -0.0116,1.49449 -0.0707,1.55357 -0.0538,0.0538 -0.57853,0.11756 -1.16615,0.14177 -0.96063,0.0396 -1.11407,0.0219 -1.52116,-0.17516 -0.47366,-0.22929 -0.87405,-0.7225 -0.97052,-1.19553 -0.17486,-0.85738 -0.0858,-0.84245 -0.83108,-0.13938 -1.15124,1.08602 -2.5764,1.6292 -4.24803,1.61907 -0.42927,-0.003 -1.01703,-0.0683 -1.30612,-0.14608 z m 4.10041,-2.8453 c 0.76883,-0.36695 1.51576,-1.07399 1.59698,-1.51168 0.0325,-0.17495 0.0455,-0.62376 0.029,-0.99736 l -0.03,-0.67927 -0.58537,-0.18689 c -0.38618,-0.1233 -0.98375,-0.20246 -1.7561,-0.23264 -1.03681,-0.0405 -1.23581,-0.0212 -1.73971,0.16885 -0.6255,0.23591 -1.1687,0.65969 -1.38723,1.08227 -0.0777,0.15034 -0.14135,0.5084 -0.14135,0.79569 0,0.73189 0.37884,1.31637 1.08633,1.67598 0.4829,0.24545 0.59248,0.26276 1.41528,0.22359 0.73755,-0.0351 0.99919,-0.0937 1.51219,-0.33854 z m 17.45079,2.89256 c -1.13128,-0.19705 -1.96421,-0.84121 -2.36277,-1.82729 l -0.22376,-0.55358 -0.028,-8.31708 -0.028,-8.31708 h 1.80851 1.8085 v 7.54655 7.54656 l 0.22244,0.33007 c 0.12234,0.18156 0.33088,0.38496 0.46341,0.45202 0.33117,0.16758 0.97411,0.15514 1.51754,-0.0294 0.24976,-0.0848 0.48552,-0.11773 0.52391,-0.0732 0.0725,0.0842 0.52283,2.57659 0.47219,2.61362 -0.0158,0.0116 -0.2204,0.0957 -0.45462,0.18694 -1.00246,0.39053 -2.79273,0.6032 -3.71932,0.4418 z m 8.20492,-0.0473 c -2.20928,-0.59415 -3.62074,-2.66099 -3.25908,-4.77235 0.14082,-0.82209 0.4263,-1.3987 1.0042,-2.02821 0.57044,-0.62138 1.26332,-1.04545 2.29271,-1.40323 0.73327,-0.25486 0.88083,-0.27142 2.43902,-0.27372 1.28318,-0.002 1.79102,0.0356 2.24391,0.16553 0.32195,0.0924 0.691,0.19807 0.82012,0.23487 l 0.23476,0.0669 -0.0599,-0.72268 c -0.0832,-1.00388 -0.2453,-1.43876 -0.70981,-1.90479 -0.53583,-0.53758 -1.20525,-0.75847 -2.28513,-0.75403 -1.25598,0.005 -2.46069,0.40466 -3.8333,1.27114 -0.20915,0.13203 -0.38714,0.22591 -0.39554,0.20862 -0.008,-0.0173 -0.24571,-0.50391 -0.52736,-1.08138 -0.28166,-0.57748 -0.5121,-1.09118 -0.5121,-1.14157 0,-0.13251 1.1696,-0.76653 2.03632,-1.10386 1.61933,-0.63022 3.80968,-0.83353 5.45561,-0.50637 1.47878,0.29393 2.84082,1.16619 3.53879,2.26623 0.64297,1.01334 0.70595,1.40884 0.76735,4.8182 0.0509,2.82425 0.071,3.10457 0.23651,3.28723 0.0995,0.10982 0.27513,0.21311 0.39025,0.22952 0.20196,0.0288 0.21028,0.0811 0.23642,1.48568 0.0164,0.88008 -0.0116,1.49449 -0.0707,1.55357 -0.0538,0.0538 -0.57852,0.11756 -1.16615,0.14177 -0.96063,0.0396 -1.11407,0.0219 -1.52116,-0.17516 -0.47365,-0.22929 -0.87404,-0.7225 -0.97051,-1.19553 -0.17487,-0.85738 -0.0858,-0.84245 -0.83109,-0.13938 -1.15124,1.08602 -2.5764,1.6292 -4.24803,1.61907 -0.42927,-0.003 -1.01702,-0.0683 -1.30612,-0.14608 z m 4.10042,-2.8453 c 0.76883,-0.36695 1.51575,-1.07399 1.59697,-1.51168 0.0325,-0.17495 0.0455,-0.62376 0.029,-0.99736 l -0.03,-0.67927 -0.58537,-0.18689 c -0.38617,-0.1233 -0.98375,-0.20246 -1.7561,-0.23264 -1.03681,-0.0405 -1.23581,-0.0212 -1.73971,0.16885 -0.6255,0.23591 -1.1687,0.65969 -1.38723,1.08227 -0.0777,0.15034 -0.14135,0.5084 -0.14135,0.79569 0,0.73189 0.37885,1.31637 1.08633,1.67598 0.4829,0.24545 0.59248,0.26276 1.41528,0.22359 0.73755,-0.0351 0.99919,-0.0937 1.5122,-0.33854 z m 18.16514,2.85504 c -1.3766,-0.24979 -2.68105,-0.78376 -3.76522,-1.54128 l -0.56189,-0.39261 0.20622,-0.35107 c 0.79437,-1.35232 1.12114,-1.86327 1.19163,-1.86327 0.0446,0 0.26454,0.12592 0.48884,0.27983 2.03909,1.3991 4.60289,1.85328 5.84248,1.03498 0.40663,-0.26842 0.63591,-0.82528 0.52378,-1.27205 -0.15688,-0.62503 -0.70961,-0.88587 -3.81209,-1.79898 -0.75122,-0.2211 -1.67603,-0.55073 -2.05514,-0.73251 -1.55516,-0.74572 -2.15617,-2.01463 -1.78792,-3.77477 0.33182,-1.58596 1.69513,-2.8715 3.54648,-3.34415 0.77436,-0.19769 2.66598,-0.19453 3.64216,0.006 1.24453,0.25578 2.94129,1.09305 3.26948,1.61332 0.0718,0.11387 -0.074,0.40136 -0.60533,1.19325 l -0.69994,1.04325 -0.411,-0.28189 c -1.21458,-0.83307 -2.42867,-1.22351 -3.6305,-1.16753 -1.22865,0.0572 -1.76288,0.40812 -1.87316,1.23035 -0.12009,0.89534 0.33854,1.21091 2.70637,1.8622 3.86139,1.06209 4.93715,1.84066 5.13305,3.71496 0.12639,1.20919 -0.37979,2.58691 -1.22743,3.34093 -0.59881,0.53266 -1.65095,1.02198 -2.57945,1.19963 -0.91541,0.17515 -2.57997,0.17577 -3.54142,0.001 z m 12.07593,-0.01 c -2.20928,-0.59415 -3.62074,-2.66099 -3.25908,-4.77235 0.14082,-0.82209 0.4263,-1.3987 1.0042,-2.02821 0.57044,-0.62138 1.26332,-1.04545 2.29271,-1.40323 0.73327,-0.25486 0.88083,-0.27142 2.43902,-0.27372 1.28319,-0.002 1.79102,0.0356 2.24391,0.16553 0.32195,0.0924 0.691,0.19807 0.82012,0.23487 l 0.23476,0.0669 -0.0599,-0.72268 c -0.0832,-1.00388 -0.24531,-1.43876 -0.70982,-1.90479 -0.53582,-0.53758 -1.20525,-0.75847 -2.28513,-0.75403 -1.25597,0.005 -2.46069,0.40466 -3.83329,1.27114 -0.20916,0.13203 -0.38715,0.22591 -0.39555,0.20862 -0.008,-0.0173 -0.24571,-0.50391 -0.52736,-1.08138 -0.28166,-0.57748 -0.5121,-1.09118 -0.5121,-1.14157 0,-0.13251 1.1696,-0.76653 2.03632,-1.10386 1.61933,-0.63022 3.80968,-0.83353 5.45561,-0.50637 1.47878,0.29393 2.84082,1.16619 3.53879,2.26623 0.64297,1.01334 0.70595,1.40884 0.76735,4.8182 0.0509,2.82425 0.071,3.10457 0.23652,3.28723 0.0995,0.10982 0.27512,0.21311 0.39024,0.22952 0.20196,0.0288 0.21028,0.0811 0.23642,1.48568 0.0164,0.88008 -0.0116,1.49449 -0.0706,1.55357 -0.0538,0.0538 -0.57853,0.11756 -1.16616,0.14177 -0.96063,0.0396 -1.11407,0.0219 -1.52115,-0.17515 -0.47366,-0.2293 -0.87405,-0.72251 -0.97052,-1.19554 -0.17487,-0.85738 -0.0858,-0.84245 -0.83109,-0.13938 -1.15124,1.08602 -2.5764,1.6292 -4.24803,1.61907 -0.42927,-0.003 -1.01702,-0.0683 -1.30612,-0.14608 z m 4.10042,-2.8453 c 0.76883,-0.36695 1.51575,-1.07399 1.59697,-1.51168 0.0325,-0.17495 0.0455,-0.62376 0.029,-0.99736 l -0.03,-0.67927 -0.58537,-0.18689 c -0.38617,-0.1233 -0.98374,-0.20246 -1.7561,-0.23264 -1.03681,-0.0405 -1.23581,-0.0212 -1.7397,0.16885 -0.62551,0.23591 -1.16871,0.65969 -1.38724,1.08227 -0.0777,0.15034 -0.14135,0.5084 -0.14135,0.79569 0,0.73189 0.37885,1.31637 1.08633,1.67598 0.4829,0.24545 0.59248,0.26276 1.41528,0.22359 0.73755,-0.0351 0.99919,-0.0937 1.5122,-0.33854 z m 11.10931,2.89256 c -1.13128,-0.19705 -1.9642,-0.84121 -2.36277,-1.82729 l -0.22376,-0.55358 -0.028,-8.31708 -0.028,-8.31708 h 1.80851 1.8085 v 7.54655 7.54656 l 0.22244,0.33008 c 0.12234,0.18155 0.33088,0.38495 0.46342,0.45202 0.33117,0.16757 0.97411,0.15513 1.51754,-0.0294 0.24976,-0.0848 0.48551,-0.11773 0.5239,-0.0732 0.0725,0.0842 0.52283,2.5766 0.4722,2.61362 -0.0158,0.0116 -0.2204,0.0957 -0.45463,0.18694 -1.00246,0.39053 -2.79272,0.6032 -3.71932,0.4418 z m 8.68178,-0.0264 c -1.09623,-0.32075 -1.84552,-0.933 -2.33953,-1.91164 -0.60278,-1.19409 -0.61507,-1.32113 -0.65896,-6.80872 l -0.04,-5 h 1.80742 1.80743 l 0.0289,4.56098 0.0289,4.56098 0.27791,0.56595 c 0.41308,0.84125 0.84132,1.0926 1.86131,1.09251 0.64879,-7e-5 0.8852,-0.0458 1.34128,-0.25955 0.65928,-0.30897 1.32361,-0.8979 1.73364,-1.53687 l 0.29806,-0.46449 v -4.25975 -4.25976 h 1.80488 1.80488 v 5.07317 c 0,4.9431 0.005,5.07818 0.19512,5.2683 0.10732,0.10732 0.28293,0.19512 0.39025,0.19512 0.18695,0 0.19512,0.0651 0.19512,1.55321 v 1.55321 l -0.64519,0.0691 c -1.2452,0.13335 -2.22639,-0.0923 -2.70555,-0.62209 -0.2581,-0.2854 -0.4449,-0.87045 -0.44986,-1.40891 l -0.004,-0.46525 -0.64622,0.68503 c -1.22338,1.29686 -2.54075,1.8605 -4.47574,1.91496 -0.77334,0.0218 -1.31974,-0.0106 -1.60975,-0.0955 z m 17.49949,-0.0123 c -1.74999,-0.38061 -3.31318,-1.65474 -4.1778,-3.40526 -0.61369,-1.2425 -0.77548,-1.98043 -0.77226,-3.52233 0.003,-1.54675 0.16553,-2.28379 0.78416,-3.56098 0.80925,-1.67075 2.3867,-2.97102 4.01268,-3.30761 2.07233,-0.42898 4.1473,0.28946 5.39505,1.86797 l 0.38065,0.48156 v -3.76487 -3.76486 h 1.7561 1.75609 v 7.60517 c 0,5.66876 0.0296,7.67 0.11601,7.8598 0.0715,0.1569 0.22126,0.27567 0.39025,0.30946 l 0.27423,0.0548 v 1.53553 1.53552 l -0.45264,0.062 c -1.414,0.1938 -2.26608,-0.003 -2.83947,-0.65615 -0.31103,-0.35424 -0.34843,-0.44774 -0.46177,-1.15445 l -0.0578,-0.36045 -0.70391,0.71185 c -1.363,1.37834 -3.34693,1.91964 -5.39956,1.47321 z m 3.69787,-3.19757 c 0.67686,-0.30988 1.45815,-1.02316 1.72539,-1.57522 0.17468,-0.36083 0.19922,-0.60042 0.19922,-1.94494 0,-1.4554 -0.0128,-1.55872 -0.25201,-2.03073 -0.33932,-0.66961 -1.05411,-1.36325 -1.80895,-1.75542 -0.56133,-0.29164 -0.70283,-0.32315 -1.45124,-0.32328 -0.70724,0 -0.90134,0.0377 -1.31901,0.25705 -0.26935,0.14146 -0.69968,0.48164 -0.95627,0.75596 -1.49247,1.59557 -1.51715,4.22799 -0.0545,5.81475 0.99476,1.07919 2.59576,1.40689 3.91739,0.80183 z m -299.831734,-6.11988 v -9.17074 h 6.292688 6.292688 v 1.60975 1.60976 h -4.487809 -4.487808 v 2.14635 2.14634 h 3.853662 3.853661 v 1.51219 1.5122 h -3.853661 -3.853662 v 2.34147 2.34146 h 4.585369 4.58537 v 1.56098 1.56097 h -6.390249 -6.390249 z m 59.024438,4.09756 v -5.07317 h -0.87805 -0.878049 v -1.31708 -1.31707 h 0.878049 0.87805 l 0.0034,-0.80488 c 0.01266,-2.99329 1.376436,-5.02132 3.665459,-5.45078 1.014698,-0.19038 2.63462,0.0331 3.770167,0.51998 0.254878,0.1093 0.462732,0.2482 0.461903,0.30866 -9.76e-4,0.0605 -0.148881,0.65872 -0.329003,1.32945 -0.356543,1.32769 -0.315965,1.28771 -1.03534,1.02002 -0.241463,-0.0899 -0.702439,-0.1837 -1.024391,-0.20856 -0.747349,-0.0577 -1.360998,0.22866 -1.631576,0.76141 -0.2082,0.40994 -0.367051,1.27899 -0.36786,2.0125 l -5.66e-4,0.5122 h 1.658538 1.658538 v 1.31707 1.31708 h -1.658538 -1.658538 v 5.07317 5.07317 h -1.756094 -1.756099 z m 20.317509,-1.54606 c -1.513162,-3.64058 -2.779446,-6.69285 -2.813973,-6.78284 -0.0575,-0.14984 0.07919,-0.16136 1.623387,-0.13687 l 1.686167,0.0267 1.959319,4.99994 c 1.07762,2.74998 1.98127,4.99932 2.008099,4.99853 0.04957,-0.001 1.566255,-3.9927 1.56284,-4.1127 -0.0011,-0.036 -0.528693,-1.3639 -1.172596,-2.95089 -0.643903,-1.58699 -1.170733,-2.9087 -1.170733,-2.93715 0,-0.0285 0.647562,-0.0396 1.439026,-0.0247 l 1.439026,0.027 0.653463,1.90244 c 0.359406,1.04634 0.669416,1.94343 0.688899,1.99352 0.03408,0.0876 0.177658,-0.29275 1.0564,-2.7984 l 0.40203,-1.14634 h 1.404489 c 0.875571,0 1.404479,0.0369 1.404479,0.098 0,0.0539 -0.504878,1.35925 -1.121952,2.90077 -0.617074,1.54152 -1.121952,2.86445 -1.121952,2.93984 0,0.10798 1.435767,4.09264 1.506665,4.18142 0.0099,0.0124 0.911854,-2.25961 2.004411,-5.04879 l 1.98647,-5.07125 h 1.689465 1.689464 l -0.155844,0.38949 c -0.08572,0.21422 -1.353328,3.25446 -2.816909,6.7561 l -2.661066,6.36661 h -1.495942 -1.495933 l -1.049455,-2.68292 c -0.5772,-1.47562 -1.08363,-2.75989 -1.125396,-2.85395 -0.05418,-0.12201 -0.394391,0.65382 -1.187211,2.70732 l -1.111269,2.87833 h -1.476343 -1.476342 z m 35.19473,-0.16126 v -6.78049 h 1.60701 1.607 l 0.0271,1.31295 0.0271,1.31294 0.49207,-0.65441 c 0.57636,-0.76651 1.62661,-1.59642 2.38598,-1.88539 0.33493,-0.12746 0.79323,-0.20951 1.21951,-0.21832 l 0.68293,-0.0141 0.0267,1.63414 0.0268,1.63415 -0.41699,0.002 c -1.04368,0.004 -2.58342,0.53223 -3.28706,1.12715 -0.18342,0.15508 -0.45781,0.47799 -0.60976,0.7176 l -0.27628,0.43566 v 4.07846 4.07847 h -1.7561 -1.7561 v -6.7805 z m 63.804927,0 v -6.78049 h 1.60701 1.607 l 0.0272,1.31295 0.0271,1.31294 0.49207,-0.65441 c 0.57636,-0.76651 1.62661,-1.59642 2.38598,-1.88539 0.33493,-0.12746 0.79323,-0.20951 1.21951,-0.21832 l 0.68293,-0.0141 0.0267,1.63414 0.0268,1.63415 -0.41699,0.002 c -1.04368,0.004 -2.58342,0.53223 -3.28706,1.12715 -0.18342,0.15508 -0.45781,0.47799 -0.60976,0.7176 l -0.27628,0.43566 v 4.07846 4.07847 h -1.7561 -1.7561 v -6.7805 z m 175.62926,-15.62162 c -0.23082,-0.0848 -0.69029,-0.40213 -1.02105,-0.70527 -0.33076,-0.30314 -6.86027,-6.58776 -14.51001,-13.96581 -7.64975,-7.37806 -14.49185,-13.96343 -15.20466,-14.63416 l -1.29601,-1.21951 9.25008,-0.0488 c 9.22334,-0.0486 9.2514,-0.0494 9.70625,-0.25959 0.60425,-0.27927 1.28636,-0.91983 1.52038,-1.42778 0.10393,-0.22561 0.94807,-3.46141 1.87586,-7.19068 0.92777,-3.72927 1.71617,-6.8137 1.752,-6.85428 0.0358,-0.0406 2.0995,7.07161 4.58595,15.80489 2.48646,8.73327 4.60263,16.10167 4.70261,16.37422 0.25902,0.70612 0.76367,1.24814 1.49926,1.61027 0.58665,0.2888 0.68098,0.30623 1.43493,0.26515 0.50503,-0.0275 0.92984,-0.10824 1.13524,-0.21574 0.47723,-0.24975 1.17214,-0.92031 1.38391,-1.33542 0.10093,-0.19784 1.76673,-5.61931 3.70176,-12.04771 1.93505,-6.4284 3.53901,-11.70876 3.56438,-11.73412 0.0711,-0.0711 0.0397,-0.12976 1.50938,2.81567 0.76307,1.52927 1.53673,2.96409 1.71925,3.18848 0.19474,0.23941 0.5632,0.5216 0.89175,0.68293 l 0.55988,0.27493 7.73328,0.0488 7.73327,0.0488 -0.70888,0.69371 c -0.38988,0.38155 -7.44247,7.17739 -15.67242,15.10187 -9.06276,8.72639 -15.12219,14.49029 -15.36586,14.61646 -0.53343,0.27617 -1.86996,0.33691 -2.48053,0.11271 z M 47.729989,148.44933 c -10.410126,-0.57596 -16.750404,-5.0575 -19.201157,-13.57207 -1.180986,-4.10308 -1.506997,-9.89963 -0.827689,-14.71662 1.127982,-7.9986 4.84896,-13.64218 10.929609,-16.57688 1.936987,-0.93485 3.864491,-1.50758 6.43903,-1.91329 1.593826,-0.25116 5.540522,-0.30523 7.317079,-0.10023 7.113142,0.82076 12.077882,3.9668 14.577302,9.23728 1.17349,2.47453 1.71024,5.10659 1.7084,8.37751 -10e-4,2.63781 -0.33138,8.9419 -0.47712,9.11752 -0.11185,0.13476 -1.66615,0.15078 -14.632161,0.15078 H 39.056265 l 0.08157,0.70732 c 0.321054,2.7842 1.141444,5.10679 2.325953,6.58498 1.406235,1.75489 3.557788,2.82092 6.473107,3.20722 0.937826,0.12427 1.705095,0.14552 3.718257,0.10298 4.323399,-0.0914 7.759221,-0.63073 11.659261,-1.83031 2.10442,-0.64727 2.02138,-0.63146 2.24661,-0.42763 0.1853,0.1677 0.1917,0.32425 0.1917,4.69199 v 4.51849 l -1.2439,0.38874 c -3.45635,1.08018 -6.543968,1.67814 -10.073181,1.95082 -1.871143,0.14457 -5.055214,0.19272 -6.705653,0.1014 z m 9.278827,-29.7643 c 0.03354,-0.16768 0.06098,-0.79725 0.06098,-1.39903 0,-1.87144 -0.45843,-3.20283 -1.477982,-4.29244 -0.655171,-0.70018 -1.383543,-1.15899 -2.425056,-1.52755 -2.694246,-0.95342 -6.730161,-0.84919 -9.186788,0.23725 -2.519621,1.1143 -4.100257,3.31165 -4.697642,6.53055 l -0.140323,0.7561 h 8.902915 8.902924 z m 30.939047,29.07462 c -8.86068,-0.55904 -13.65075,-4.28391 -15.79417,-12.28192 -1.33219,-4.97101 -1.59247,-13.25639 -0.59761,-19.02441 0.79043,-4.58283 2.50339,-8.20207 5.08975,-10.75394 1.50595,-1.48586 2.93828,-2.44191 4.87242,-3.25225 2.67833,-1.12212 5.1895,-1.58469 9.06376,-1.66957 3.4119,-0.0747 6.02543,0.19203 9.33274,0.95266 0.679347,0.15623 1.261057,0.28406 1.292677,0.28406 0.0316,0 0.0575,-5.202437 0.0575,-11.560977 v -11.56098 h 5.49394 5.49395 l 0.26215,0.27363 0.26216,0.27363 v 33.823947 33.82396 l -4.21951,-0.002 -4.21952,-0.002 -0.91802,-1.72997 c -0.50491,-0.95149 -0.9263,-1.74162 -0.93644,-1.75585 -0.0101,-0.0142 -0.58484,0.35257 -1.27711,0.81511 -1.538717,1.0281 -3.623197,2.07367 -5.060367,2.53828 -2.56847,0.83033 -4.62792,1.03332 -8.19832,0.80806 z m 5.14199,-9.80119 c 2.26682,-0.31616 4.54564,-1.02554 6.88241,-2.14243 l 1.292687,-0.61786 V 123.8844 112.57063 l -0.85366,-0.43808 c -2.096037,-1.07563 -4.488397,-1.6246 -7.780497,-1.78534 -3.25657,-0.15902 -5.47389,0.50209 -7.07145,2.1084 -1.58455,1.59324 -2.43878,3.92573 -2.83969,7.75381 -0.18665,1.7823 -0.16075,6.42217 0.0454,8.13693 0.32852,2.73221 0.75123,4.31626 1.59874,5.99102 0.47223,0.93315 0.67328,1.21228 1.38529,1.92325 0.92597,0.92463 1.63219,1.3343 2.85012,1.65335 0.91453,0.23956 2.94758,0.25971 4.49061,0.0445 z M -43.933038,126.5265 c -0.03588,-19.98753 -0.05762,-21.33269 -0.406088,-25.12197 l -0.05159,-0.56098 5.09607,0.001 5.096069,0.001 0.673842,1.82815 c 0.370613,1.00548 0.691115,1.86046 0.712227,1.89995 0.02111,0.0395 0.354468,-0.16559 0.740794,-0.45573 2.893693,-2.17324 6.139043,-3.47691 9.873146,-3.96606 1.157843,-0.15167 4.502951,-0.15024 5.853664,0.003 3.923654,0.44371 6.6545624,1.60104 8.7087344,3.69066 l 0.806287,0.8202 0.949812,-0.45878 c 3.977426,-1.92121 8.138213,-3.34122 11.607828,-3.96157 1.331999,-0.23816 4.084947,-0.282247 5.7322386,-0.0918 7.255157,0.83876 10.955294,4.26946 12.29216,11.39707 0.489041,2.60736 0.472793,2.00407 0.509753,18.92734 l 0.03457,15.82928 h -5.756573 -5.756574 l -0.02982,-15.53659 c -0.02803,-14.60529 -0.04057,-15.59215 -0.209072,-16.46342 -0.535387,-2.76824 -1.551744,-4.05343 -3.6767776,-4.6493 -0.499412,-0.14004 -0.974998,-0.17485 -2.3345,-0.17084 -1.536128,0.005 -1.801902,0.031 -2.650615,0.26386 -1.878918,0.51557 -4.16259597,1.56597 -6.280714,2.88889 -1.483974,0.92684 -1.399576,0.82395 -1.287639,1.56983 0.05745,0.38279 0.111574,6.86959 0.136558,16.36586 l 0.04139,15.73172 h -5.757117 -5.7571164 l -0.03031,-15.48782 c -0.0279,-14.25582 -0.04389,-15.56089 -0.20103,-16.40649 -0.528833,-2.84583 -1.535088,-4.15794 -3.633368,-4.73776 -0.92773,-0.25636 -3.047841,-0.30743 -4.204365,-0.10128 -2.454265,0.43748 -5.204886,1.66867 -8.134397,3.64098 l -1.119351,0.75361 -0.02468,16.16938 -0.02468,16.16938 h -5.751634 -5.751629 z m 164.578978,19.60209 c -0.14926,-0.16494 -0.16147,-1.88254 -0.16147,-22.73173 v -22.55331 h 5.53928 c 4.85557,0 5.56603,0.0188 5.7561,0.15188 l 0.21683,0.15187 v 22.57985 22.57985 h -5.59464 c -5.29609,0 -5.60325,-0.01 -5.7561,-0.17841 z m 18.92684,-0.48781 c -0.14959,-0.16529 -0.16146,-2.67234 -0.16146,-34.09758 V 77.624023 h 5.59464 c 5.29609,0 5.60325,0.01 5.7561,0.17842 0.14959,0.16529 0.16146,2.67234 0.16146,34.097577 v 33.91918 h -5.59463 c -5.2961,0 -5.60326,-0.01 -5.75611,-0.17842 z m 18.97825,-0.0466 -0.21287,-0.22659 v -22.50593 -22.50592 h 5.64342 c 5.34601,0 5.65195,0.009 5.80509,0.17864 0.1497,0.16541 0.15985,1.84839 0.13707,22.70734 l -0.0246,22.52869 -5.56762,0.0252 -5.56762,0.0252 z m 17.61183,-19.7994 c -0.0318,-17.27936 -0.0586,-20.32532 -0.19565,-22.21953 -0.0873,-1.20732 -0.16034,-2.42561 -0.16221,-2.70732 l -0.003,-0.51219 h 5.06464 5.06463 l 0.28745,0.7561 c 0.1581,0.41585 0.45379,1.21707 0.65709,1.78048 0.20329,0.56342 0.39809,1.05715 0.43289,1.09718 0.0348,0.04 0.42867,-0.19542 0.87526,-0.52322 3.00327,-2.20439 6.27314,-3.475177 10.00831,-3.889577 1.13999,-0.12647 4.04366,-0.12627 5.33112,3.9e-4 5.6322,0.554027 9.1538,2.726997 11.1055,6.852547 1.21357,2.56528 1.76509,5.35929 1.95456,9.90197 0.0509,1.22061 0.0935,8.35466 0.0946,15.85344 l 0.002,13.63414 h -5.80231 -5.8023 l -0.0297,-15.58538 c -0.027,-14.14498 -0.045,-15.66653 -0.19467,-16.46343 -0.64239,-3.41945 -2.05401,-4.68765 -5.44559,-4.89236 -2.95232,-0.1782 -6.25417,0.999 -10.35958,3.69347 l -1.34147,0.88043 v 16.18364 16.18363 h -5.75217 -5.75216 z m 46.62937,19.84585 c -0.1499,-0.16564 -0.15982,-2.79052 -0.13707,-36.26572 l 0.0245,-36.087147 5.60976,-2.99529 c 3.08537,-1.64741 5.66464,-2.99858 5.73171,-3.00261 0.0973,-0.006 0.12195,5.11853 0.12195,25.31625 v 25.323577 l 0.2303,-0.0309 c 0.16421,-0.022 2.49481,-2.5436 8.12143,-8.78698 l 7.89112,-8.7561 h 5.97429 5.97429 l 0.0588,0.23434 c 0.051,0.20315 -1.09358,1.55053 -8.59842,10.12196 -4.76147,5.43819 -8.71751,9.95819 -8.79121,10.04445 -0.11815,0.13829 0.99248,1.55101 9.39553,11.95123 5.24123,6.48691 9.68273,11.98209 9.86999,12.2115 0.18726,0.22942 0.3233,0.43368 0.30231,0.45392 -0.021,0.0202 -2.82448,0.12512 -6.22997,0.23306 -5.7721,0.18297 -6.19994,0.18527 -6.31193,0.0339 -1.28145,-1.73201 -17.50141,-22.21888 -17.60739,-22.23929 -0.13164,-0.0254 -0.15758,0.42322 -0.21433,3.70696 -0.0355,2.05469 -0.0646,7.10531 -0.0647,11.22361 v 7.48781 h -5.59464 c -5.29775,0 -5.60321,-0.009 -5.75624,-0.17856 z m 92.97051,-14.16292 c -0.0317,-0.0805 -2.16545,-7.52195 -4.74164,-16.5366 -2.57619,-9.01464 -4.75642,-16.555277 -4.84495,-16.756987 -0.19386,-0.44163 -0.91856,-1.14007 -1.50694,-1.45231 -0.6123,-0.32494 -1.8987,-0.32742 -2.50606,-0.005 -0.57247,0.30407 -1.16712,0.85857 -1.39067,1.29676 -0.10221,0.20033 -1.41815,5.296007 -2.92432,11.323737 -1.50617,6.02772 -2.78203,11.12412 -2.83526,11.32534 l -0.0968,0.36586 h -10.16999 -10.16999 l -0.60745,-0.97327 c -2.37478,-3.80486 -3.81615,-7.63361 -4.22283,-11.21718 -0.1673,-1.47435 -0.0648,-5.2559 0.18675,-6.88936 0.97498,-6.331187 3.8751,-11.077337 8.70867,-14.252057 3.14235,-2.06392 6.87663,-3.2081 11.61254,-3.55807 3.57876,-0.26446 6.43351,0.16917 9.82111,1.49181 3.26358,1.27423 8.18381,4.60625 11.67723,7.90793 l 0.87729,0.82913 1.07393,-0.98793 c 2.09337,-1.92572 3.7429,-3.21294 6.39741,-4.99227 1.87994,-1.26013 3.21037,-1.99497 4.72531,-2.60994 3.29123,-1.33603 5.79327,-1.80443 9.0244,-1.68945 5.64691,0.20096 10.11945,1.58598 13.76041,4.26123 1.12556,0.82702 3.32328,3.06369 4.09124,4.16373 2.68382,3.84438 3.92443,8.193647 3.93179,13.783977 0.003,2.36042 -0.12361,3.41887 -0.66004,5.51283 -0.64511,2.51823 -1.87153,5.33209 -3.444,7.90181 l -0.77611,1.2683 h -8.90231 -8.9023 l -2.80716,-5.54471 c -1.54393,-3.04959 -2.93219,-5.67521 -3.085,-5.83471 -0.15281,-0.1595 -0.55195,-0.42495 -0.88696,-0.58987 -0.55973,-0.27556 -0.67057,-0.29624 -1.36678,-0.25502 -1.20626,0.0714 -2.07737,0.58674 -2.50101,1.4795 -0.0935,0.19707 -1.59019,5.08795 -3.32595,10.86863 -1.73574,5.78069 -3.18186,10.44448 -3.21358,10.36399 z M 124.40931,93.525003 c -1.19087,-0.31202 -2.20039,-0.904 -3.15418,-1.84957 -0.93712,-0.92907 -1.40894,-1.68838 -1.75963,-2.83189 -0.28504,-0.92938 -0.30489,-2.45553 -0.0444,-3.41463 0.58925,-2.16983 2.34759,-3.9835 4.59439,-4.73897 1.05636,-0.3552 2.6967,-0.4369 3.81563,-0.19005 4.48038,0.98841 6.82467,5.48964 4.90439,9.41682 -0.3314,0.67775 -0.56842,0.99134 -1.2972,1.71626 -1.01626,1.01087 -1.96703,1.55387 -3.31647,1.89407 -1.0337,0.26061 -2.74364,0.25967 -3.74249,-0.002 z m 38.46544,-0.43062 c -1.53489,-0.30381 -2.64397,-0.8942 -3.7668,-2.00513 -0.68141,-0.67418 -0.91604,-0.98762 -1.24293,-1.66034 -0.52551,-1.08147 -0.69759,-1.7926 -0.69759,-2.88294 0,-1.7291 0.58793,-3.21186 1.77943,-4.4877 1.48711,-1.59238 3.56108,-2.40751 5.73277,-2.25315 1.13083,0.0804 1.83464,0.27549 2.92658,0.81132 0.77291,0.37927 1.06463,0.59357 1.75887,1.29211 1.34463,1.35292 1.9487,2.79049 1.9487,4.63742 0,1.09356 -0.17288,1.80499 -0.70058,2.88294 -0.32537,0.66464 -0.57211,0.99487 -1.24293,1.66347 -1.34417,1.3397 -2.87127,1.99355 -4.88576,2.09192 -0.5798,0.0283 -1.18254,-0.005 -1.60976,-0.0899 z"
       id="path4300" />
  </g>
</svg>
