<?xml version="1.0" encoding="UTF-8" standalone="no"?>
<!-- Created with Inkscape (http://www.inkscape.org/) -->

<svg
   width="90.752083mm"
   height="17.301357mm"
   viewBox="0 0 90.752077 17.301358"
   version="1.1"
   id="svg5"
   xmlns:xlink="http://www.w3.org/1999/xlink"
   xmlns="http://www.w3.org/2000/svg"
   xmlnsSvg="http://www.w3.org/2000/svg">
  <defs
     id="defs2">
    <linearGradient
       id="linearGradient23614">
      <stop
         style="stop-color:#243f6d;stop-opacity:1;"
         offset="0"
         id="stop23610" />
      <stop
         style="stop-color:#375492;stop-opacity:1"
         offset="1"
         id="stop23612" />
    </linearGradient>
    <linearGradient
       id="linearGradient23606">
      <stop
         style="stop-color:#243f6d;stop-opacity:1;"
         offset="0"
         id="stop23602" />
      <stop
         style="stop-color:#365290;stop-opacity:1"
         offset="1"
         id="stop23604" />
    </linearGradient>
    <linearGradient
       id="linearGradient23464">
      <stop
         style="stop-color:#243f6d;stop-opacity:1;"
         offset="0"
         id="stop23460" />
      <stop
         style="stop-color:#34518d;stop-opacity:1"
         offset="1"
         id="stop23462" />
    </linearGradient>
    <linearGradient
       xlink:href="#linearGradient23464"
       id="linearGradient21539"
       x1="44.59536"
       y1="181.36415"
       x2="44.238388"
       y2="177.08051"
       gradientUnits="userSpaceOnUse" />
    <linearGradient
       xlink:href="#linearGradient23606"
       id="linearGradient23608"
       x1="52.270237"
       y1="179.93628"
       x2="52.627209"
       y2="174.58171"
       gradientUnits="userSpaceOnUse" />
    <linearGradient
       xlink:href="#linearGradient23614"
       id="linearGradient23616"
       x1="59.945118"
       y1="178.32991"
       x2="59.945118"
       y2="174.40321"
       gradientUnits="userSpaceOnUse" />
  </defs>
  <g
     id="layer1"
     transform="translate(-38.796914,-175.46352)">
    <path
       id="path21320"
       style="fill:#243f6d;fill-opacity:1;stroke-width:0.999999"
       d="m 229.14648,110.44922 v 15 15 h 6.05079 c 6.38352,0 11.25617,-1.81087 12.80468,-4.75977 3.29654,-6.27775 2.26784,-18.26927 -1.92578,-22.46289 -2.51158,-2.51138 -3.44858,-2.77734 -9.85156,-2.77734 z m 3,3 h 4.92774 c 4.18339,0 5.25403,0.41523 7.09375,2.75 1.86053,2.36118 2.11688,3.75546 1.81055,9.86133 -0.20172,4.02089 -0.94782,7.82345 -1.7168,8.75 -0.95154,1.14652 -2.97392,1.63867 -6.73633,1.63867 h -5.37891 v -11.5 z"
       transform="matrix(0.26458333,0,0,0.26458333,28.174685,151.37858)" />
    <path
       style="fill:#243f6d;fill-opacity:1;stroke-width:0.264583"
       d="m 126.374,184.96744 v -3.57188 h -1.19062 c -0.88195,0 -1.19063,-0.10289 -1.19063,-0.39687 0,-0.32758 0.48507,-0.39688 2.77813,-0.39688 2.29305,0 2.77812,0.0693 2.77812,0.39688 0,0.29398 -0.30868,0.39687 -1.19062,0.39687 h -1.19063 v 3.57188 c 0,2.99861 -0.0637,3.57187 -0.39687,3.57187 -0.33318,0 -0.39688,-0.57326 -0.39688,-3.57187 z"
       id="path21330" />
    <path
       style="fill:#243f6d;fill-opacity:1;stroke-width:0.264583"
       d="m 115.52608,184.57056 v -3.96875 h 2.51355 c 2.05787,0 2.51354,0.0719 2.51354,0.39688 0,0.3197 -0.41158,0.39687 -2.11667,0.39687 h -2.11667 v 1.32292 1.32292 h 1.7198 c 1.35231,0 1.71979,0.0848 1.71979,0.39687 0,0.31207 -0.36748,0.39688 -1.71979,0.39688 h -1.7198 v 1.31178 1.31179 l 2.04766,0.0773 c 1.70323,0.0643 2.06252,0.15515 2.13606,0.54029 0.0792,0.41489 -0.17491,0.46302 -2.44453,0.46302 h -2.53294 z"
       id="path21328" />
    <path
       style="fill:#243f6d;fill-opacity:1;stroke-width:0.264583"
       d="m 104.67817,184.57056 c 0,-5.09111 0.14902,-5.13389 2.97516,-0.85413 l 2.04913,3.10309 0.001,-3.10885 c 10e-4,-2.58642 0.0681,-3.10886 0.39827,-3.10886 0.33514,0 0.39687,0.61736 0.39687,3.96875 0,3.17464 -0.0722,3.96875 -0.36072,3.96875 -0.19841,0 -1.2402,-1.33075 -2.31511,-2.95723 l -1.9543,-2.95724 -0.0748,2.95724 c -0.0693,2.73908 -0.11321,2.95723 -0.59531,2.95723 -0.49448,0 -0.5205,-0.19841 -0.5205,-3.96875 z"
       id="path21326" />
    <path
       style="fill:#243f6d;fill-opacity:1;stroke-width:0.264583"
       d="m 98.857335,184.58996 c 0,-3.82929 0.02136,-3.98815 0.536239,-3.98815 0.517652,0 0.533701,0.13516 0.46302,3.89929 -0.06514,3.46923 -0.124285,3.90908 -0.536239,3.98815 -0.424423,0.0815 -0.46302,-0.24358 -0.46302,-3.89929 z"
       id="path21324" />
    <path
       style="fill:#243f6d;fill-opacity:1;stroke-width:0.264583"
       d="m 79.278167,184.57056 v -3.96875 h 2.513542 c 2.057871,0 2.513541,0.0719 2.513541,0.39688 0,0.3175 -0.396875,0.39687 -1.984375,0.39687 H 80.3365 v 1.32292 1.32292 h 1.719792 c 1.352314,0 1.719792,0.0848 1.719792,0.39687 0,0.31207 -0.367478,0.39688 -1.719792,0.39688 H 80.3365 v 1.32291 1.32292 h 1.984375 c 1.807986,0 1.984375,0.047 1.984375,0.52917 0,0.49203 -0.176389,0.52916 -2.513541,0.52916 h -2.513542 z"
       id="path21318" />
    <path
       style="fill:#243f6d;fill-opacity:1;stroke-width:0.264583"
       d="m 67.636499,184.57056 c 0,-3.66137 0.03729,-3.96875 0.481492,-3.96875 0.351816,0 0.788506,0.67696 1.621441,2.51354 0.62697,1.38245 1.226362,2.51355 1.331984,2.51355 0.105619,0 0.67715,-1.10133 1.270071,-2.4474 0.80495,-1.82742 1.216875,-2.46881 1.626108,-2.53194 0.533866,-0.0824 0.548071,0.0188 0.548071,3.9026 0,3.81076 -0.02341,3.98715 -0.529166,3.98715 -0.495747,0 -0.529781,-0.17962 -0.538872,-2.84427 l -0.0097,-2.84427 -0.961237,2.18281 c -0.650306,1.47675 -1.103916,2.18282 -1.402326,2.18282 -0.292452,0 -0.759717,-0.69099 -1.386626,-2.05052 l -0.945536,-2.05053 -0.02368,2.71198 c -0.02207,2.5277 -0.05964,2.71198 -0.552847,2.71198 -0.505648,0 -0.529167,-0.17639 -0.529167,-3.96875 z"
       id="path21316" />
    <path
       style="fill:url(#linearGradient23608);fill-opacity:1;stroke-width:0.264583"
       d="m 46.736438,191.84876 c -0.342147,-0.3642 -0.618553,-0.98595 -0.617526,-1.38906 0.0029,-1.15821 4.261842,-12.56796 4.889445,-13.09903 1.265586,-1.07093 3.663558,-0.0905 3.663558,1.49789 0,1.02546 -4.199984,12.38391 -4.827013,13.05419 -0.787508,0.84184 -2.286474,0.81098 -3.108464,-0.064 z"
       id="path21314" />
    <path
       style="fill:url(#linearGradient21539);fill-opacity:1;stroke-width:0.264583"
       d="m 39.345284,191.81096 c -0.301603,-0.38342 -0.54837,-1.02722 -0.54837,-1.43065 0,-1.1531 3.425176,-10.35174 4.128743,-11.08815 0.888946,-0.93043 2.343489,-0.89344 3.181587,0.0809 0.344944,0.40102 0.627171,0.95385 0.627171,1.22851 0,0.4588 -2.585143,7.86597 -3.557276,10.19261 -0.533884,1.27776 -1.09917,1.69503 -2.3105,1.70551 -0.741901,0.006 -1.103222,-0.15716 -1.521355,-0.68873 z"
       id="path21312" />
    <path
       style="fill:url(#linearGradient23616);fill-opacity:1;stroke-width:0.264583"
       d="m 54.804207,192.45312 c -0.805657,-0.46204 -1.172932,-1.05598 -1.182211,-1.91181 -0.0046,-0.42689 0.778355,-2.9272 1.739961,-5.55625 3.19937,-8.74712 3.244823,-8.85001 4.106431,-9.29557 1.368327,-0.70759 3.141028,0.33915 3.141028,1.85471 0,0.45037 -1.076249,3.79313 -2.391662,7.42836 -2.471063,6.82893 -3.012926,7.80997 -4.303822,7.79208 -0.319307,-0.004 -0.818683,-0.14461 -1.109725,-0.31152 z"
       id="path19806" />
  </g>
</svg>
