<?xml version="1.0" encoding="UTF-8" standalone="no"?>
<!-- Created with Inkscape (http://www.inkscape.org/) -->

<svg
   width="100.8149mm"
   height="14.607504mm"
   viewBox="0 0 100.8149 14.607504"
   version="1.1"
   id="svg13607"
   xmlns="http://www.w3.org/2000/svg"
   xmlnsSvg="http://www.w3.org/2000/svg">
  <defs
     id="defs13604" />
  <g
     id="layer1"
     transform="translate(-42.117071,-86.959316)">
    <path
       id="path14281"
       style="fill:#069fab;fill-opacity:1;stroke-width:0.999999"
       d="m 480.72852,343.0293 c -4.27783,0.0378 -8.51997,1.74937 -11.96875,5.09375 -9.58194,9.29189 -7.98868,27.14895 2.97656,33.35937 8.68346,4.91804 19.96141,1.65138 24.38867,-7.06445 4.67331,-9.20017 2.58287,-21.97016 -4.51172,-27.55078 -3.30805,-2.6021 -7.11021,-3.87121 -10.88476,-3.83789 z m -0.57422,4.58593 c 5.55194,-0.04 11.20861,3.71384 13,10.82813 2.16155,8.58429 -1.06822,17.22871 -7.42969,19.88672 -4.66277,1.94823 -7.39563,1.80771 -11.31836,-0.58399 -6.30142,-3.84185 -8.83634,-13.82572 -5.57813,-21.96875 2.19713,-5.49115 6.72599,-8.12899 11.32618,-8.16211 z"
       transform="scale(0.26458333)" />
    <path
       id="path14273"
       style="fill:#1c3249;fill-opacity:1;stroke-width:0.999999"
       d="m 373.74609,342.90039 c -0.99124,4.7e-4 -2.0182,0.043 -3.07617,0.12695 -9.36478,0.74347 -14.71181,4.44859 -15.61133,10.81641 -0.32121,2.27391 -0.0129,2.44543 4.90625,2.72852 3.19866,0.18413 5.25,-0.10888 5.25,-0.75 0,-4.16323 9.17734,-6.73283 12.42969,-3.48047 3.80303,3.803 1.28107,6.05121 -8.31445,7.41211 -11.08045,1.57149 -14.7491,3.98953 -15.79102,10.41015 -0.76504,4.71432 1.26455,9.38447 5.09571,11.72071 4.25686,2.59596 13.00461,2.53324 17.36132,-0.12305 2.80913,-1.71273 3.3613,-1.78382 3.85547,-0.4961 0.40657,1.05948 2.04807,1.50391 5.55664,1.50391 h 4.97852 l -0.33594,-16.42187 c -0.3233,-15.79873 -0.42698,-16.52022 -2.76953,-19.01172 -2.72484,-2.89816 -7.47758,-4.43844 -13.53516,-4.43555 z m 4.1836,22.16016 c 2.14516,0.0145 1.66778,5.18035 -0.96485,8.05468 -2.80249,3.0598 -6.52033,3.95197 -9.7539,2.33985 -5.33848,-2.66151 -2.77633,-8.0803 4.34375,-9.18555 2.28852,-0.35527 4.94766,-0.86888 5.91015,-1.14062 0.16646,-0.047 0.32184,-0.0693 0.46485,-0.0684 z"
       transform="scale(0.26458333)" />
    <path
       id="path14265"
       style="fill:#1c3249;fill-opacity:1;stroke-width:0.999999"
       d="m 231.39258,343.27148 c -7.23105,0 -9.27375,0.36992 -12.25586,2.22461 -3.65759,2.27475 -5.92188,5.83947 -5.92188,9.32227 0,1.67705 0.70682,1.95312 5,1.95312 2.75,0 5,-0.45 5,-1 0,-4.11764 9.20235,-6.65702 12.42969,-3.42968 3.80303,3.80303 1.28108,6.05316 -8.31445,7.41406 -8.724,1.2373 -12.58002,3.08074 -14.59766,6.98242 -2.78616,5.38783 -1.06756,12.11636 3.86328,15.12305 v 0.002 c 4.12989,2.51686 12.0149,2.51001 16.96875,-0.0156 3.14198,-1.60188 3.86347,-1.68541 4.31836,-0.5 0.3694,0.96264 2.12992,1.42382 5.43946,1.42382 h 4.89257 l -0.0137,-15.25 c -0.0159,-16.47174 -0.5266,-18.6035 -5.30859,-22.15429 -2.35753,-1.75057 -4.25484,-2.09571 -11.5,-2.09571 z m 4.44531,21.78516 c 1.7551,-0.0552 1.92989,3.4088 0.24023,7.11719 -2.46623,5.41266 -13.86328,5.10763 -13.86328,-0.3711 0,-2.56663 2.99756,-4.77879 7.5,-5.53515 2.2,-0.36956 4.78751,-0.8862 5.75,-1.15039 0.13097,-0.0359 0.25604,-0.0569 0.37305,-0.0605 z"
       transform="scale(0.26458333)" />
    <path
       style="fill:#1c3249;fill-opacity:1;stroke-width:0.264583"
       d="m 86.311139,96.115096 v -5.15938 h 1.322916 c 1.314326,0 1.322975,0.006 1.33172,0.8599 0.0088,0.85877 0.0094,0.85916 0.478866,0.29739 0.618837,-0.74054 1.963651,-1.42187 2.806483,-1.42187 0.641305,0 0.674598,0.0718 0.674598,1.45521 v 1.45521 h -0.913593 c -1.227262,0 -2.140783,0.45085 -2.496815,1.23225 -0.161568,0.3546 -0.293759,1.94881 -0.293759,3.5427 v 2.897964 h -1.455208 -1.455208 z"
       id="path14289" />
    <path
       style="fill:#1c3249;fill-opacity:1;stroke-width:0.264583"
       d="m 42.187546,94.196866 0.07047,-7.07761 1.412201,0.0326 c 0.826399,0.0191 1.548113,0.1837 1.739846,0.39688 0.180205,0.20036 1.509245,2.26928 2.953424,4.59762 l 2.625779,4.23333 0.0721,-4.66008 0.0721,-4.66009 1.383106,0.0299 1.383104,0.0299 0.07049,7.09035 0.07049,7.090344 -1.636993,-0.0789 -1.636993,-0.0789 -2.86527,-4.628174 -2.865269,-4.62818 v 4.69432 4.694324 h -1.45953 -1.45953 z"
       id="path14287" />
    <path
       style="fill:#069fab;fill-opacity:1;stroke-width:0.264583"
       d="m 140.99202,101.3224 c -1.19074,-0.13867 -1.49964,-1.26057 -1.49964,-5.446624 v -3.56361 l -0.85989,-0.0829 c -0.47294,-0.0456 -1.30638,-0.0406 -1.85209,0.011 l -0.99218,0.0939 v 4.47012 4.470134 h -0.66146 -0.66146 v -4.481154 -4.48116 l -0.8599,-0.0829 c -0.65587,-0.0632 -0.85989,-0.20846 -0.85989,-0.61207 0,-0.39923 0.20322,-0.54894 0.82761,-0.60967 0.78925,-0.0768 0.83366,-0.14345 0.95809,-1.43839 0.1587,-1.65167 0.83239,-2.31757 2.34465,-2.31757 0.85263,0 1.02902,0.0907 1.02902,0.52916 0,0.40318 -0.17639,0.52917 -0.74083,0.52917 -1.00326,0 -1.37583,0.44422 -1.37583,1.64042 0,0.96807 0.0344,1.00631 0.92604,1.02947 0.50932,0.0132 1.31299,0.0355 1.78594,0.0494 0.85239,0.0252 0.86105,0.0128 0.99218,-1.41311 0.11425,-1.24233 0.21349,-1.45004 0.72761,-1.52306 0.55622,-0.079 0.59531,0.0122 0.59531,1.38906 v 1.47361 h 1.05833 c 0.9525,0 1.05834,0.0661 1.05834,0.66146 0,0.59531 -0.10584,0.66146 -1.05834,0.66146 h -1.05833 v 3.65125 c 0,3.95065 0.10772,4.286254 1.37583,4.286254 0.54916,0 0.74084,0.12893 0.74084,0.49832 0,0.54088 -0.68161,0.75448 -1.93995,0.60794 z"
       id="path14285" />
    <path
       style="fill:#069fab;fill-opacity:1;stroke-width:0.264583"
       d="m 113.43093,101.30883 c -1.79818,-0.46906 -2.85117,-1.475354 -3.29548,-3.149314 -0.33815,-1.274 -0.21543,-1.64755 0.54127,-1.64755 0.53421,0 0.60462,0.11158 0.89072,1.41162 0.55607,2.526684 5.24654,3.315834 7.32925,1.23311 0.95295,-0.95294 0.96076,-1.88104 0.0243,-2.89531 -0.59007,-0.63914 -1.29869,-0.93876 -3.749,-1.58514 -2.22995,-0.58824 -3.21671,-0.98415 -3.76702,-1.51137 -1.61017,-1.54264 -1.11367,-4.31074 0.99484,-5.54641 1.04534,-0.61261 1.39656,-0.67693 3.23905,-0.59316 1.77528,0.0807 2.20358,0.19845 3.03844,0.83524 1.65192,1.25999 2.38453,3.36256 1.16974,3.35707 -0.44316,-0.002 -0.70919,-0.2738 -1.04087,-1.06346 -0.34024,-0.81004 -0.71546,-1.18324 -1.5875,-1.57899 -1.43103,-0.64943 -2.42856,-0.65487 -3.82484,-0.0208 -1.97201,0.89545 -2.14879,3.3487 -0.29535,4.09841 0.47388,0.19167 1.95671,0.61443 3.29521,0.93945 1.8626,0.45229 2.66967,0.79499 3.43959,1.46053 0.95166,0.82265 1.00595,0.9533 1.00595,2.42118 0,1.80748 -0.53553,2.735544 -1.98437,3.438854 -1.02116,0.49569 -4.16267,0.7251 -5.42396,0.39608 z"
       id="path14279" />
    <path
       style="fill:#1c3249;fill-opacity:1;stroke-width:0.264583"
       d="m 105.36113,94.263006 v -7.30369 l 1.38907,0.08 1.38906,0.08 v 7.14375 7.143754 l -1.38906,0.08 -1.38907,0.08 z"
       id="path14277" />
    <path
       style="fill:#1c3249;fill-opacity:1;stroke-width:0.264583"
       d="m 76.093102,101.03419 c -1.195676,-0.7291 -1.42363,-1.715874 -1.42363,-6.162654 v -3.94309 l 1.389063,0.08 1.389062,0.08 0.0742,3.55995 c 0.0592,2.84002 0.161126,3.65599 0.504029,4.0349 0.58451,0.64587 2.058247,0.61659 2.729061,-0.0542 0.476903,-0.4769 0.529166,-0.88194 0.529166,-4.10104 v -3.57188 h 1.455209 1.455208 v 5.15938 5.159374 h -1.322915 c -1.264843,0 -1.323268,-0.0319 -1.330962,-0.7276 -0.0069,-0.622054 -0.04717,-0.660434 -0.277733,-0.26458 -0.730949,1.25496 -3.648586,1.6791 -5.169758,0.75152 z"
       id="path14271" />
    <path
       style="fill:#1c3249;fill-opacity:1;stroke-width:0.264583"
       d="m 69.954433,101.23858 c -1.300348,-0.37464 -1.634961,-1.421404 -1.634961,-5.114604 v -3.05121 h -0.79375 c -0.749652,0 -0.79375,-0.0588 -0.79375,-1.05833 0,-0.99954 0.0441,-1.05834 0.79375,-1.05834 0.785733,0 0.79375,-0.0147 0.79375,-1.45521 v -1.4552 h 1.455208 1.455209 v 1.4552 1.45521 h 1.058333 1.058333 v 1.05834 1.05833 h -1.058333 -1.058333 v 2.76882 c 0,2.50321 0.05105,2.79613 0.532159,3.05361 0.29269,0.15665 0.739174,0.25013 0.992187,0.20775 0.360511,-0.0604 0.478298,0.14607 0.544484,0.954354 0.05292,0.64627 -0.04588,1.11404 -0.264584,1.25272 -0.45095,0.28593 -1.960866,0.25091 -3.079702,-0.0714 z"
       id="path14269" />
  </g>
</svg>
