<?xml version="1.0" encoding="UTF-8" standalone="no"?>
<!-- Created with Inkscape (http://www.inkscape.org/) -->

<svg
   width="80.153732mm"
   height="17.670534mm"
   viewBox="0 0 80.153728 17.670534"
   version="1.1"
   id="svg5"
   xmlns="http://www.w3.org/2000/svg"
   xmlnsSvg="http://www.w3.org/2000/svg">
  <defs
     id="defs2" />
  <g
     id="layer1"
     transform="translate(-49.979447,-143.51849)">
    <path
       id="path9977"
       style="fill:#00aeef;fill-opacity:1;stroke-width:0.999999"
       d="m 204.90234,33.613281 c -6.35952,-0.0016 -10.2992,1.804421 -14.53515,6.628907 -4.19526,4.778116 -5.60566,9.669917 -4.99219,17.3125 0.78549,9.785612 5.40696,15.553938 14.73242,18.390624 1.37856,0.419339 4.13171,0.800413 6.11914,0.847657 3.67541,0.08742 13.86802,-1.561381 14.68164,-2.375 0.2457,-0.245707 0.1351,-2.526363 -0.24609,-5.06836 l -0.69336,-4.621093 -4,0.675781 c -9.45898,1.598098 -15.7779,0.135919 -17.70508,-4.09375 l -1.10742,-2.431641 h 13.61719 13.61523 l -0.67969,-6.646484 c -0.72995,-7.12475 -1.62934,-9.511987 -4.9707,-13.199219 -3.36007,-3.707905 -7.49469,-5.363165 -13.53125,-5.417969 -0.10217,-9.3e-4 -0.20374,-0.0019 -0.30469,-0.002 z m 0.80274,9.265625 c 1.96303,0 6.4082,4.47763 6.4082,6.455078 0,1.255559 -1.39615,1.544922 -7.44726,1.544922 h -7.44922 l 0.99804,-2.861328 c 0.96612,-2.771376 4.4158,-5.138672 7.49024,-5.138672 z"
       transform="matrix(0.26458333,0,0,0.26458333,34.868225,137.97223)" />
    <path
       id="path9971"
       style="fill:#00aeef;fill-opacity:1;stroke-width:0.999999"
       d="m 123.38281,33.611328 c -0.0886,1.4e-5 -0.17835,0.0011 -0.26758,0.002 -12.18007,0.114747 -19.41931,8.280827 -19.35937,21.839844 0.0487,11.017701 5.0892,18.05183 14.71484,20.533203 3.67353,0.946999 15.4322,0.303754 18.95899,-1.037109 2.23391,-0.849336 2.37747,-1.276581 1.68945,-5.039063 -0.41341,-2.2608 -0.9465,-4.304039 -1.18359,-4.541015 -0.23709,-0.23709 -2.81933,-0.05354 -5.74024,0.408203 -6.10429,0.964951 -11.37998,0.04586 -14.15429,-2.464844 -4.23073,-3.828775 -2.70385,-4.433594 11.18945,-4.433594 h 13.11523 l -0.39843,-6.269531 C 141.16223,40.280613 134.63988,33.609583 123.38281,33.611328 Z m -0.39843,9.34961 c 1.01796,0.0035 2.11648,0.368923 3.44531,1.068359 2.64909,1.394381 3.64756,2.78325 3.66797,5.099609 0.0131,1.501304 -0.97854,1.75 -6.98438,1.75 -7.90782,0 -8.89066,-1.199183 -4.54492,-5.544922 1.61223,-1.612247 2.92822,-2.378216 4.41602,-2.373046 z"
       transform="matrix(0.26458333,0,0,0.26458333,34.868225,137.97223)" />
    <path
       id="path9983"
       style="fill:#00aeef;fill-opacity:1;stroke-width:0.999999"
       d="M 71.085938,20.962891 C 67.864251,20.952148 64.687846,21.076233 62.75,21.318359 l -5.636719,0.705079 v 26.927734 26.927734 h 6 6 v -10 -10 h 2.994141 c 3.329707,0 6.529064,3.689998 12.34375,14.238282 l 3.162109,5.738281 6.75,0.01172 c 3.712498,0.0065 6.749999,-0.33588 6.749999,-0.761719 0,-1.142967 -8.331387,-15.560465 -10.820311,-18.72461 l -2.142578,-2.72461 3.230468,-2.158203 C 96.133249,48.32468 98.306032,43.474725 97.833984,37.087891 97.094743,27.085938 90.328681,21.982538 76.677734,21.130859 74.968007,21.024149 73.01895,20.969336 71.085938,20.962891 Z m 1.855468,10.595703 c 3.982984,-0.03846 9.769498,1.467185 10.921875,3.019531 1.881128,2.53406 1.504725,6.759893 -0.787109,8.833984 -1.336872,1.209865 -4.087732,1.992304 -8,2.275391 l -5.962891,0.431641 v -7.050782 c 0,-6.543231 0.161928,-7.075539 2.25,-7.394531 0.4766,-0.07284 1.009128,-0.10974 1.578125,-0.115234 z"
       transform="matrix(0.26458333,0,0,0.26458333,34.868225,137.97223)" />
    <path
       style="fill:#00aeef;fill-opacity:1;stroke-width:0.264583"
       d="m 107.33509,156.01037 c -1.23637,-2.72002 -2.86766,-7.11723 -3.04439,-8.20627 l -0.14087,-0.86806 h 1.60429 c 1.30166,0 1.62897,0.0873 1.73513,0.46302 0.072,0.25466 0.57587,1.89177 1.1198,3.63802 l 0.98896,3.175 1.03231,-3.30729 c 0.56776,-1.81901 1.08017,-3.45612 1.13868,-3.63802 0.12402,-0.38558 3.29799,-0.47389 3.29799,-0.0918 0,0.48556 -1.90756,5.69872 -2.99317,8.18 l -1.12058,2.56123 -1.34024,0.0785 -1.34025,0.0785 z"
       id="path9989" />
    <path
       style="fill:#00aeef;fill-opacity:1;stroke-width:0.264583"
       d="m 96.28157,152.78828 v -5.26026 l 1.175496,-0.29599 c 1.374791,-0.34618 4.884144,-0.38809 5.394714,-0.0644 0.25455,0.16136 0.30327,0.55173 0.17534,1.40483 l -0.17716,1.18137 -1.76284,-0.0198 -1.762842,-0.0198 -0.07286,4.16719 -0.07287,4.16719 H 97.730061 96.28157 Z"
       id="path9987" />
    <path
       style="fill:#a6ce38;fill-opacity:1;stroke-width:0.999999"
       d="m 357.51172,33.416016 c -1.51574,0.0589 -5.24992,3.178464 -12.28711,10.248046 l -10.47266,10.519532 -4.29687,-4.216797 c -2.71022,-2.659879 -3.8236,-3.602438 -4.92578,-3.542969 -2.43586,-0.195858 -3.74429,3.702668 -2.10169,4.771249 l 3.9513,4.621329 c 3.37379,3.513487 6.63165,6.388672 7.24023,6.388672 0.60858,0 6.65746,-5.564919 13.44141,-12.365234 12.42671,-12.456605 14.35704,-15.74908 9.625,-16.416016 -0.0544,-0.0077 -0.11222,-0.01021 -0.17383,-0.0078 z"
       transform="matrix(0.26458333,0,0,0.26458333,34.868225,137.97223)"
       id="path14196" />
    <path
       style="fill:#00aeef;fill-opacity:1;stroke-width:0.999999"
       d="m 334.25391,33.291016 c -3.37513,0.0033 -6.89894,0.627517 -9.74219,2.003906 -16.38051,7.929713 -16.27347,30.588305 0.18555,39.25 1.81511,0.9552 5.58721,1.596463 9.55273,1.61914 5.59374,0.03417 7.24248,-0.396738 11.25195,-2.939453 5.12909,-3.252774 8.13222,-7.374067 9.79102,-13.439453 1.48558,-5.431937 -0.0762,-8.831546 -3.85547,-8.396484 -2.37638,0.2736 -2.90338,0.976177 -3.96289,5.269531 -2.37165,9.610507 -11.10177,14.095194 -19.5918,10.066406 -4.63408,-2.199004 -8.19574,-9.608276 -7.26758,-14.239536 0.61505,-3.068943 1.47062,-5.275991 3.60871,-7.142244 4.17993,-3.914079 8.14107,-4.728891 14.15887,-3.186579 5.52877,1.416983 7.81446,0.425967 7.81446,-3.388672 0,-3.378533 -5.71814,-5.482585 -11.94336,-5.476562 z"
       transform="matrix(0.26458333,0,0,0.26458333,34.868225,137.97223)"
       id="path9981" />
    <path
       style="fill:#00aeef;fill-opacity:1;stroke-width:0.264583"
       d="m 75.148113,157.99811 -1.157416,-0.25833 0.166367,-1.21378 c 0.0915,-0.66758 0.221971,-1.26938 0.289932,-1.33734 0.06796,-0.068 0.638361,0.0206 1.267556,0.19673 0.629195,0.17616 1.614874,0.28189 2.190398,0.23495 0.830406,-0.0677 1.0629,-0.20089 1.126292,-0.64506 0.06618,-0.46367 -0.220207,-0.68724 -1.669023,-1.303 -2.257252,-0.95934 -3.041066,-1.86729 -3.041066,-3.52268 0,-1.93475 0.997774,-2.94592 3.249647,-3.29329 0.939882,-0.14498 3.8133,0.1753 4.094372,0.45637 0.07043,0.0704 0.04548,0.67875 -0.05545,1.3518 -0.150083,1.00082 -0.26433,1.19241 -0.627187,1.05177 -0.244023,-0.0946 -0.986793,-0.23697 -1.650598,-0.31642 -0.92152,-0.11029 -1.313135,-0.0382 -1.65608,0.3047 -0.247034,0.24704 -0.381812,0.55812 -0.299506,0.69129 0.08231,0.13318 1.017897,0.6433 2.079088,1.1336 2.292956,1.05941 2.80321,1.68254 2.80321,3.42333 0,1.05706 -0.132477,1.41688 -0.748453,2.03285 -1.240742,1.24074 -3.633446,1.62153 -6.362087,1.01251 z"
       id="path9975" />
    <path
       style="fill:#a6ce38;fill-opacity:1;stroke-width:0.264583"
       d="m 118.02976,160.79731 c -0.13626,-0.24348 -0.18897,-0.66745 -0.11713,-0.94216 0.12035,-0.46023 0.3826,-0.49365 3.33884,-0.42544 l 3.23053,0.0294 c 0.51954,0.52917 0.62189,1.19219 -0.0446,1.72136 l -3.06878,-0.0148 c -2.66401,0.0641 -3.12532,0.0132 -3.33884,-0.36831 z"
       id="path9930" />
  </g>
</svg>
