<?xml version="1.0" encoding="UTF-8" standalone="no"?>
<!-- Created with Inkscape (http://www.inkscape.org/) -->

<svg
   width="109.03318mm"
   height="52.863583mm"
   viewBox="0 0 109.03318 52.863583"
   version="1.1"
   id="svg5"
   xmlnsXlink="http://www.w3.org/1999/xlink"
   xmlns="http://www.w3.org/2000/svg"
   xmlnsSvg="http://www.w3.org/2000/svg">
  <defs
     id="defs2">
    <pattern
       id="pattern0"
       patternContentUnits="objectBoundingBox"
       width="1"
       height="1">
      <use
         xlinkHref="#image0_2112_4250"
         transform="translate(0 -0.831115) scale(0.00166389 0.00665557)"
         id="use1126" />
    </pattern>
  </defs>
  <g
     id="layer1"
     transform="translate(-63.281093,-107.62217)">
    <path
       id="path4609"
       style="fill:#0093ed;stroke-width:3.1353;fill-opacity:1"
       d="m 233.38281,87.267578 -8.62304,0.002 c -7.95977,9.83e-4 -8.6211,0.956724 -8.6211,12.462891 0,12.088751 -0.24311,12.373051 -8.05664,9.402351 -18.70322,-7.11096 -35.83789,7.2381 -35.83789,30.01171 0,11.12232 1.78948,14.62075 9.64648,21.52344 9.77851,8.59082 23.11379,9.28194 29.63868,4.83008 1.39738,-0.95342 2.80499,-1.17004 3.5861,-2.13973 0.86544,1.01191 1.24899,1.17789 2.71858,2.39754 2.35027,1.95055 6.61688,3.07741 9.48047,2.50391 4.4973,-0.9007 5.26444,-6.48706 5.63672,-41.01758 z m -30.36719,37.062502 c 5.32559,-0.10791 10.38527,2.62432 11.95704,8.88672 1.14897,4.57791 0.68014,10.5734 -1.04102,13.32422 -3.95902,6.32738 -16.99349,8.06119 -22.11328,2.9414 -2.14341,-2.14341 -3.89844,-6.85919 -3.89844,-10.48047 0,-9.04241 7.79768,-14.524 15.0957,-14.67187 z"
       transform="matrix(0.26458333,0,0,0.26458333,63.281093,107.62217)" />
    <path
       id="path4605"
       style="fill:#0093ed;stroke-width:3.1353;fill-opacity:1"
       d="M 136.38281 107.10742 C 134.74747 107.11749 133.10781 107.29187 131.48438 107.64844 C 106.87227 113.05416 97.995112 142.04642 115.56836 159.62109 C 126.74429 170.79701 145.36723 172.21916 157.00391 162.78516 C 161.88384 158.82894 163.40784 154.91364 160.23633 154.70312 C 157.11792 154.49616 149.32854 156.69731 139.54883 157.27539 C 129.1241 157.8916 122.69798 147.6158 122.45703 144.86914 C 126.90275 144.58416 131.57694 144.69957 144.69922 144.88477 C 163.16455 145.14552 164.4725 144.69235 165.46875 137.69531 C 167.65923 122.31025 152.19109 107.01013 136.38281 107.10742 z M 136.24023 120.43945 C 142.83707 120.42002 151.12672 126.08481 150.29688 130.54883 C 150.15038 131.33678 144.65349 131.16406 137.75586 131.16406 C 131.16482 131.16406 125.60299 131.39251 124.3457 129.85742 C 123.08841 128.32233 127.14125 124.72718 131.70312 121.67578 C 132.98548 120.81802 134.55869 120.44441 136.24023 120.43945 z "
       transform="matrix(0.26458333,0,0,0.26458333,63.281093,107.62217)" />
    <path
       style="fill:#0093ed;stroke-width:0.829547;fill-opacity:1"
       d="m 144.67415,113.08436 c 0.1458,-1.02656 0.63838,-1.86648 1.09463,-1.86648 0.45625,0 0.94884,0.83992 1.09463,1.86648 0.1824,1.28428 -0.15905,1.86648 -1.09463,1.86648 -0.93558,0 -1.27703,-0.5822 -1.09463,-1.86648 z"
       id="path4627" />
    <path
       style="fill:#0093ed;stroke-width:0.829547;fill-opacity:1"
       d="m 134.12102,115.7252 c -0.30074,-0.48661 -0.3476,-1.08393 -0.10415,-1.32739 0.59422,-0.59421 2.21213,0.45279 2.21213,1.43154 0,1.06013 -1.43214,0.98938 -2.10798,-0.10415 z"
       id="path4625" />
    <path
       style="fill:#0093ed;stroke-width:0.829547;fill-opacity:1"
       d="m 155.7317,116.62347 c -0.61183,-0.98996 0.16472,-2.50218 1.28492,-2.50218 1.00939,0 1.01594,2.24527 0.008,2.86799 -0.42473,0.2625 -1.00671,0.0979 -1.29328,-0.36581 z"
       id="path4623" />
    <path
       style="fill:#0093ed;stroke-width:0.829547;fill-opacity:1"
       d="m 163.27755,124.30241 c -0.58501,-0.58501 1.05244,-2.7152 2.08714,-2.7152 0.40039,0 0.72798,0.52001 0.72798,1.15557 0,1.24563 -2.01356,2.36118 -2.81512,1.55963 z"
       id="path4621" />
    <path
       style="fill:#0093ed;stroke-width:0.829547;fill-opacity:1"
       d="m 165.26312,134.03041 c 0,-0.45625 0.93324,-0.82954 2.07387,-0.82954 1.14063,0 2.07386,0.37329 2.07386,0.82954 0,0.45625 -0.93323,0.82955 -2.07386,0.82955 -1.14063,0 -2.07387,-0.3733 -2.07387,-0.82955 z"
       id="path4619" />
    <path
       style="fill:#ff5900;stroke-width:0.829547;fill-opacity:1"
       d="m 154.47902,143.15542 c 0,-0.72956 0.0222,-0.96529 0.0222,-1.59983 -0.6005,0 -2.59302,-0.0593 -4.61077,-0.0593 -3.48162,0 -4.71409,-0.32715 -5.10894,-1.35615 -0.3072,-0.80052 1.06072,-4.53911 3.33876,-9.12501 3.6246,-7.29663 3.19463,-6.31746 3.80357,-7.89507 1.40978,0 4.99337,0.11733 4.99337,0.11733 -0.15584,0.34218 -1.77479,3.95027 -3.48198,7.2467 -1.70718,3.29643 -3.10397,6.18947 -3.10397,6.42899 0,0.23951 0.93324,0.43548 2.07386,0.43548 0.87563,0 1.45953,-0.0324 2.05063,-0.0324 0,-0.62727 0.0232,-1.40553 0.0232,-2.45629 0,-2.21213 0.27651,-2.48864 2.48864,-2.48864 2.07185,0 2.48864,0.33246 2.48864,1.98511 0,0.54591 -0.0584,2.21144 -0.0584,2.70241 0.49378,0 1.74115,0.0502 2.55211,0.0502 0,0.68753 -0.005,1.1324 -0.005,2.28735 0,0.65677 -0.0179,1.58228 -0.0179,2.05568 -0.52646,0 -0.83722,0.0442 -1.22639,0.0442 -0.34564,0 -0.94676,-0.0109 -1.28299,0.0154 -0.0127,0.34418 0.0387,1.18285 0.0387,1.64371 0,1.29041 -0.55304,1.6591 -2.48864,1.6591 -1.93561,0 -2.48864,-0.36869 -2.48864,-1.6591 z"
       id="path4617" />
    <path
       style="fill:#ff5900;stroke-width:0.829547;fill-opacity:1"
       d="m 129.59262,143.24322 c 0,-0.86423 1.88058,-3.57063 4.17905,-6.01421 5.47573,-5.82142 6.13196,-6.72592 4.75738,-8.60577 -1.05826,-1.44725 -1.37413,-1.48312 -3.45226,-0.12145 -1.67765,1.09924 -2.56493,1.22582 -3.83353,0.54689 -2.1935,-1.17393 -2.08205,-2.02435 0.5351,-4.083 4.84708,-3.81271 11.91655,-0.92924 11.91655,4.86049 0,2.4943 -0.69785,3.93399 -3.38868,6.99093 l -3.38869,3.84975 h 3.80346 c 3.50399,0 3.80346,0.16329 3.80346,2.07387 0,2.0585 -0.0553,2.07387 -7.46592,2.07387 -6.77389,0 -7.46592,-0.14565 -7.46592,-1.57134 z"
       id="path4615" />
    <path
       style="fill:#0093ed;stroke-width:0.829547;fill-opacity:1"
       d="m 163.70513,145.72415 c -0.62876,-0.39826 -0.8755,-1.15726 -0.5483,-1.68667 0.45077,-0.72935 0.87851,-0.72721 1.76537,0.009 2.18689,1.81496 1.18344,3.1983 -1.21707,1.67785 z"
       id="path4613" />
    <path
       style="fill:#0093ed;stroke-width:0.829547;fill-opacity:1"
       d="m 77.919219,151.76244 c -0.323412,-0.32342 -0.588023,-5.19201 -0.588023,-10.8191 v -10.23107 h 2.556711 2.556711 l -0.275458,5.85196 -0.275458,5.85196 2.361714,-2.94855 c 1.72921,-2.15888 3.006663,-2.94855 4.769893,-2.94855 2.195562,0 3.297751,1.1141 1.786017,1.80531 -0.342188,0.15646 -1.697041,1.47164 -3.010785,2.92262 l -2.388625,2.63815 3.010785,3.51742 c 3.544286,4.1407 3.696277,4.87789 1.005717,4.87789 -1.340277,0 -2.957219,-1.14627 -4.876844,-3.45725 l -2.871777,-3.45724 0.106953,3.24986 c 0.08827,2.68221 -0.188802,3.29219 -1.586278,3.49223 -0.931276,0.13331 -1.95784,-0.0222 -2.281253,-0.34564 z"
       id="path4603" />
    <path
       style="fill:#0093ed;stroke-width:0.829547;fill-opacity:1"
       d="m 64.772513,150.62194 c -1.923845,-1.6293 -1.929909,-1.68055 -0.343873,-2.90652 1.080357,-0.8351 1.889988,-0.97251 2.447162,-0.41533 1.044637,1.04464 3.819022,1.09363 3.819022,0.0674 0,-0.42087 -1.309401,-1.19736 -2.909781,-1.72553 -4.979651,-1.64343 -5.795926,-6.06969 -1.623522,-8.80355 3.719157,-2.43689 10.518518,0.68732 7.677939,3.5279 -1.069684,1.06968 -1.553763,1.10148 -3.001813,0.19715 -0.949554,-0.593 -1.967467,-0.83719 -2.262029,-0.54262 -0.935718,0.93571 0.396392,2.15922 2.965165,2.72342 4.112089,0.90316 5.38628,4.96303 2.472227,7.87708 -2.166008,2.16601 -6.68324,2.16628 -9.240497,5.6e-4 z"
       id="path4601" />
    <path
       style="fill:#0093ed;stroke-width:0.829547;fill-opacity:1"
       d="m 155.81396,153.46182 c -0.70136,-1.8277 0.0689,-2.59796 1.33344,-1.33343 0.69563,0.69564 0.72369,1.23956 0.0963,1.86694 -0.62737,0.62738 -1.04392,0.47194 -1.42975,-0.53351 z"
       id="path4599" />
    <path
       style="fill:#0093ed;stroke-width:0.829547;fill-opacity:1"
       d="m 145.35401,156.01344 c 0,-0.68438 -0.028,-1.51496 -0.0622,-1.84575 -0.0342,-0.33078 0.33908,-0.73518 0.82955,-0.89867 0.49047,-0.16349 0.89176,0.66709 0.89176,1.84574 0,1.17865 -0.3733,2.143 -0.82955,2.143 -0.45625,0 -0.82954,-0.55995 -0.82954,-1.24432 z"
       id="path4597" />
    <path
       style="fill:#0093ed;stroke-width:0.829547;fill-opacity:1"
       d="m 120.26059,127.867 c 0,0 -0.002,-2.1451 2.35317,-6.26635 l 2.12616,-3.71991 -2.34354,-1.88624 c -6.289,-5.06183 -16.20524,-4.41167 -24.494122,1.60596 l -2.149744,-1.18902 c 5.701696,-6.06918 19.301696,-8.18974 27.041726,-3.37828 1.98648,1.23486 2.89171,1.92979 3.86774,2.52089 0.81826,-0.70253 1.01317,-0.68856 1.64213,-1.38354 3.15438,-3.48553 9.76925,-6.14111 16.18857,-6.49896 10.92647,-0.60911 20.04418,4.43709 25.3609,14.03599 2.24345,4.05035 2.46069,5.13831 2.46069,12.32325 0,7.1681 -0.22039,8.27851 -2.43728,12.28024 -2.76814,4.99682 -7.04655,9.16984 -12.24979,11.94807 -3.55225,1.89669 -3.68201,1.90312 -43.1738,2.14029 -35.180963,0.21128 -38.524416,0.0195 -39.430774,0.005 l -0.02805,-2.28999 c 1.168258,0.0123 4.190392,-0.0271 37.561224,-0.0271 36.09315,0 37.91018,-0.0737 42.29747,-1.71517 8.90391,-3.33139 15.38713,-12.74483 15.38713,-22.34168 0,-8.94126 -5.90498,-18.10554 -14.10229,-21.88612 -5.22514,-2.40982 -14.7212,-2.38771 -20.0388,0.0467 -4.95367,2.26777 -9.63867,7.88707 -11.9613,12.34803 -0.99705,1.91498 -1.18014,2.03361 -2.00332,3.81846"
       id="path1396" />
  </g>
</svg>
